<?xml version="1.0" encoding="utf-8"?>
<!-- Generator: Adobe Illustrator 22.0.1, SVG Export Plug-In . SVG Version: 6.00 Build 0)  -->
<svg version="1.1" id="Layer_1" xmlns="http://www.w3.org/2000/svg" xmlns:xlink="http://www.w3.org/1999/xlink" x="0px" y="0px"
	 viewBox="0 0 290 105" style="enable-background:new 0 0 290 105;" xml:space="preserve">
<style type="text/css">
	.st0{fill:none;}
	.st1{fill:#FFCD05;}
	.st2{fill:#FF66FF;}
	.st3{fill:#00FFFF;}
	.st4{fill:#FF6666;}
	.st5{fill:#66FF66;}
	.st6{fill:#BE84FF;}
	.st7{fill:black;}
	.st8{fill:none;stroke:black;stroke-miterlimit:10;}
</style>
<g>
	<rect x="86.3" y="32.4" class="st0" width="139" height="13.5"/>
	<path class="st1" d="M94.9,42.6l-0.5-1.4h-4.7l-0.5,1.4c-0.2,0.5-0.4,1-0.5,1.2s-0.4,0.3-0.8,0.3c-0.3,0-0.5-0.1-0.8-0.3
		c-0.2-0.2-0.3-0.4-0.3-0.8c0-0.1,0-0.3,0.1-0.4c0-0.2,0.1-0.4,0.2-0.7l2.9-7.4c0.1-0.2,0.2-0.4,0.3-0.8c0.1-0.3,0.2-0.5,0.3-0.8
		c0.1-0.2,0.3-0.3,0.5-0.4c0.2-0.1,0.4-0.2,0.8-0.2c0.3,0,0.5,0.1,0.8,0.2c0.2,0.1,0.4,0.3,0.5,0.4c0.1,0.2,0.2,0.4,0.3,0.7
		c0.1,0.2,0.2,0.5,0.3,0.9l2.9,7.4c0.2,0.5,0.3,1,0.3,1.2s-0.1,0.5-0.3,0.8c-0.2,0.2-0.4,0.3-0.8,0.3c-0.2,0-0.3,0-0.4-0.1
		s-0.2-0.1-0.3-0.2c-0.1-0.1-0.2-0.3-0.3-0.5C95,43,94.9,42.8,94.9,42.6z M90.3,39.4h3.4L92,34.7L90.3,39.4z"/>
	<path class="st2" d="M101.3,33.8V42h4.7c0.3,0,0.7,0.1,0.9,0.3c0.2,0.2,0.3,0.4,0.3,0.7s-0.1,0.5-0.3,0.7c-0.2,0.2-0.4,0.2-0.9,0.2
		h-5.5c-0.5,0-0.9-0.1-1.1-0.3s-0.3-0.5-0.3-1.1v-8.8c0-0.4,0.1-0.9,0.3-1.1c0.2-0.2,0.4-0.3,0.9-0.3c0.3,0,0.7,0.1,0.9,0.3
		C101.2,32.9,101.3,33.3,101.3,33.8z"/>
	<path class="st3" d="M117.5,40.3c0,0.3-0.1,0.8-0.2,1.2s-0.4,0.9-0.9,1.2s-0.9,0.8-1.4,1s-1.3,0.3-2.1,0.3c-0.7,0-1.2-0.1-1.6-0.2
		c-0.4-0.1-1-0.3-1.3-0.5c-0.4-0.2-0.8-0.5-1.1-1c-0.3-0.3-0.5-0.8-0.8-1.2c-0.2-0.4-0.3-0.9-0.4-1.4s-0.1-1.1-0.1-1.6
		c0-0.9,0.1-1.7,0.4-2.5s0.7-1.3,1.2-1.8s1.1-0.9,1.7-1.2c0.7-0.2,1.4-0.4,2.2-0.4c0.9,0,1.7,0.2,2.5,0.5s1.3,0.9,1.6,1.4
		c0.3,0.5,0.5,1.1,0.5,1.5c0,0.2-0.1,0.5-0.3,0.7c-0.2,0.2-0.4,0.3-0.7,0.3c-0.3,0-0.5-0.1-0.7-0.2c-0.1-0.1-0.3-0.3-0.5-0.8
		c-0.3-0.5-0.7-1-1.1-1.3s-0.9-0.4-1.5-0.4c-1,0-1.7,0.3-2.3,1.1c-0.5,0.8-0.9,1.7-0.9,3c0,0.9,0.1,1.6,0.3,2.2
		c0.2,0.5,0.7,1,1.1,1.3s1,0.4,1.6,0.4c0.7,0,1.2-0.2,1.6-0.5s0.8-0.8,1.1-1.4c0.1-0.3,0.2-0.5,0.3-0.8c0.1-0.2,0.3-0.3,0.7-0.3
		c0.3,0,0.5,0.1,0.7,0.3C117.4,39.8,117.5,40,117.5,40.3z"/>
	<path class="st4" d="M121.9,33.8V37h5v-3.3c0-0.4,0.1-0.9,0.3-1.1c0.2-0.2,0.4-0.3,0.9-0.3c0.3,0,0.7,0.1,0.9,0.3s0.3,0.5,0.3,1.1
		v8.9c0,0.4-0.1,0.9-0.3,1.1c-0.2,0.2-0.5,0.3-0.9,0.3s-0.7-0.1-0.9-0.3s-0.3-0.5-0.3-1.1v-3.8h-5v3.8c0,0.4-0.1,0.9-0.3,1.1
		c-0.2,0.2-0.5,0.3-0.9,0.3c-0.3,0-0.7-0.1-0.9-0.3s-0.3-0.5-0.3-1.1v-8.9c0-0.4,0.1-0.9,0.3-1.1c0.2-0.2,0.4-0.3,0.9-0.3
		c0.3,0,0.7,0.1,0.9,0.3C121.7,32.9,121.9,33.3,121.9,33.8z"/>
	<path class="st5" d="M139.1,34.3h-5.2v2.8h4.8c0.3,0,0.7,0.1,0.8,0.2c0.2,0.1,0.2,0.3,0.2,0.7s-0.1,0.4-0.2,0.7
		c-0.2,0.2-0.4,0.2-0.8,0.2h-4.8v3.3h5.3c0.3,0,0.7,0.1,0.9,0.2c0.2,0.1,0.3,0.4,0.3,0.7s-0.1,0.4-0.3,0.7c-0.2,0.2-0.4,0.2-0.9,0.2
		h-6.3c-0.5,0-0.9-0.1-1.1-0.3c-0.2-0.2-0.3-0.5-0.3-1.1V34c0-0.3,0-0.7,0.1-0.8c0.1-0.2,0.2-0.3,0.4-0.4c0.2-0.1,0.4-0.1,0.8-0.1
		h6.1c0.3,0,0.7,0.1,0.9,0.2c0.2,0.2,0.2,0.3,0.2,0.7c0,0.2-0.1,0.4-0.2,0.7C139.8,34.2,139.5,34.3,139.1,34.3z"/>
	<path class="st6" d="M146.1,42.1l-1.8-7.3v7.8c0,0.4-0.1,0.8-0.3,1s-0.4,0.3-0.8,0.3c-0.3,0-0.5-0.1-0.8-0.3
		c-0.2-0.2-0.3-0.5-0.3-1v-9c0-0.5,0.1-0.9,0.4-1c0.3-0.1,0.7-0.2,1.1-0.2h0.8c0.4,0,0.8,0,1,0.1s0.3,0.2,0.4,0.4
		c0.1,0.2,0.2,0.5,0.3,1l1.6,6.2l1.6-6.2c0.1-0.4,0.2-0.8,0.3-1s0.2-0.3,0.4-0.4c0.2-0.1,0.5-0.1,1-0.1h0.8c0.4,0,0.8,0.1,1.1,0.2
		c0.2,0.2,0.4,0.5,0.4,1v9c0,0.4-0.1,0.8-0.3,1s-0.4,0.3-0.8,0.3s-0.5-0.1-0.8-0.3c-0.2-0.2-0.3-0.5-0.3-1v-7.8l-1.8,7.3
		c-0.1,0.4-0.2,0.9-0.3,1.1c-0.1,0.2-0.2,0.4-0.4,0.7c-0.2,0.2-0.4,0.3-0.9,0.3c-0.2,0-0.5-0.1-0.7-0.2c-0.2-0.1-0.3-0.2-0.4-0.4
		c-0.1-0.2-0.2-0.4-0.2-0.7C146.2,42.7,146.1,42.5,146.1,42.1z"/>
</g>
<g>
	<path class="st1" d="M89.9,57.2h0.7l3,6.7h-1l-0.9-2h-2.8l-0.9,2h-1L89.9,57.2z M91.3,61l-1.1-2.4l-1,2.4H91.3z"/>
	<path class="st7" d="M95.1,59.5v1v-0.1c0.4-0.7,0.9-1,1.3-1c0.3,0,0.7,0.2,1,0.5L97,60.7c-0.3-0.3-0.5-0.4-0.9-0.4
		c-0.3,0-0.5,0.1-0.8,0.4c-0.2,0.2-0.3,0.5-0.3,1V64h-0.9v-4.3h1C95.1,59.7,95.1,59.5,95.1,59.5z"/>
	<path class="st7" d="M101.1,62.9v0.9c-0.4,0.2-0.9,0.2-1.3,0.2c-0.7,0-1.2-0.2-1.6-0.7c-0.4-0.4-0.7-1-0.7-1.6
		c0-0.7,0.2-1.2,0.5-1.6c0.3-0.4,0.9-0.7,1.5-0.7c0.2,0,0.4,0,0.7,0.1c0.2,0,0.4,0.1,0.7,0.2v1c-0.4-0.3-0.9-0.4-1.2-0.4
		c-0.4,0-0.8,0.1-1,0.4s-0.3,0.7-0.3,1.1s0.1,0.8,0.4,1.1c0.3,0.2,0.7,0.4,1.1,0.4C100.2,63.2,100.7,63.1,101.1,62.9z"/>
	<path class="st7" d="M102.1,57.2h0.9V60c0.3-0.4,0.8-0.7,1.3-0.7c0.3,0,0.5,0.1,0.8,0.2c0.2,0.1,0.4,0.3,0.5,0.7
		c0.1,0.2,0.2,0.7,0.2,1.2v2.5h-0.9v-2.7c0-0.3-0.1-0.5-0.2-0.8c-0.1-0.2-0.3-0.3-0.7-0.3c-0.2,0-0.3,0-0.5,0.1s-0.3,0.2-0.5,0.5
		v3.1h-0.9C102.1,63.8,102.1,57.2,102.1,57.2z"/>
	<path class="st7" d="M107.4,57.7c0.1,0,0.2,0,0.3,0.1c0.1,0.1,0.1,0.2,0.1,0.3s0,0.2-0.1,0.3s-0.2,0.1-0.3,0.1
		c-0.1,0-0.2,0-0.3-0.1c-0.1-0.1-0.1-0.2-0.1-0.3s0-0.2,0.1-0.3S107.3,57.7,107.4,57.7z M107,59.5h0.9v4.3H107V59.5z"/>
	<path class="st7" d="M108.5,60.2l1.6-1.6v0.9h1.4v0.8h-1.4v2.2c0,0.5,0.2,0.8,0.7,0.8c0.3,0,0.7-0.1,1-0.3v0.8
		c-0.3,0.2-0.7,0.3-1.1,0.3s-0.8-0.1-1-0.3c-0.1-0.1-0.1-0.1-0.2-0.2c0-0.1-0.1-0.2-0.1-0.3s-0.1-0.4-0.1-0.8v-2L108.5,60.2
		L108.5,60.2z"/>
	<path class="st7" d="M116.1,61.8h-3c0,0.4,0.1,0.8,0.4,1s0.5,0.3,1,0.3s1.1-0.2,1.6-0.5v0.9c-0.2,0.2-0.5,0.3-0.8,0.4
		c-0.2,0.1-0.5,0.1-1,0.1c-0.4,0-0.9-0.1-1.2-0.3c-0.3-0.2-0.5-0.4-0.8-0.8c-0.2-0.3-0.2-0.8-0.2-1.2c0-0.7,0.2-1.2,0.5-1.6
		s0.9-0.7,1.5-0.7c0.5,0,1.1,0.2,1.4,0.7S116,61.1,116.1,61.8L116.1,61.8L116.1,61.8z M113.1,61.2h2.2c0-0.3-0.1-0.7-0.3-0.8
		c-0.2-0.1-0.4-0.3-0.8-0.3c-0.3,0-0.5,0.1-0.8,0.3C113.3,60.7,113.1,60.9,113.1,61.2z"/>
	<path class="st7" d="M120.3,62.9v0.9c-0.4,0.2-0.9,0.2-1.3,0.2c-0.7,0-1.2-0.2-1.6-0.7s-0.7-1-0.7-1.6c0-0.7,0.2-1.2,0.5-1.6
		c0.3-0.4,0.9-0.7,1.5-0.7c0.2,0,0.4,0,0.7,0.1c0.2,0,0.4,0.1,0.7,0.2v1c-0.4-0.3-0.9-0.4-1.2-0.4c-0.4,0-0.8,0.1-1,0.4
		s-0.3,0.7-0.3,1.1s0.1,0.8,0.4,1.1c0.3,0.2,0.7,0.4,1.1,0.4C119.6,63.2,119.9,63.1,120.3,62.9z"/>
	<path class="st7" d="M120.8,60.2l1.6-1.6v0.9h1.4v0.8h-1.4v2.2c0,0.5,0.2,0.8,0.7,0.8c0.3,0,0.7-0.1,1-0.3v0.8
		c-0.3,0.2-0.7,0.3-1.1,0.3s-0.8-0.1-1-0.3c-0.1-0.1-0.1-0.1-0.2-0.2c0-0.1-0.1-0.2-0.1-0.3s-0.1-0.4-0.1-0.8v-2L120.8,60.2
		L120.8,60.2z"/>
	<path class="st7" d="M127.4,63.8v-0.5c-0.2,0.2-0.4,0.3-0.7,0.4c-0.2,0.1-0.4,0.2-0.8,0.2c-0.3,0-0.5-0.1-0.8-0.2
		c-0.2-0.1-0.4-0.3-0.5-0.5s-0.2-0.7-0.2-1.2v-2.5h0.9V62c0,0.4,0.1,0.8,0.2,1s0.3,0.3,0.7,0.3s0.8-0.2,1.1-0.7v-3.1h0.9v4.3H127.4z
		"/>
	<path class="st7" d="M130.4,59.5v1v-0.1c0.4-0.7,0.9-1,1.3-1c0.3,0,0.7,0.2,1,0.5l-0.4,0.8c-0.3-0.3-0.5-0.4-0.9-0.4
		s-0.5,0.1-0.8,0.4c-0.2,0.2-0.3,0.5-0.3,1V64h-0.9v-4.3h1L130.4,59.5L130.4,59.5z"/>
	<path class="st7" d="M136.9,61.8h-3c0,0.4,0.1,0.8,0.4,1c0.3,0.2,0.5,0.3,1,0.3s1.1-0.2,1.6-0.5v0.9c-0.2,0.2-0.5,0.3-0.8,0.4
		c-0.2,0.1-0.5,0.1-1,0.1c-0.4,0-0.9-0.1-1.2-0.3s-0.5-0.4-0.8-0.8c-0.2-0.3-0.2-0.8-0.2-1.2c0-0.7,0.2-1.2,0.5-1.6s0.9-0.7,1.5-0.7
		c0.5,0,1.1,0.2,1.4,0.7S137,61,136.9,61.8L136.9,61.8L136.9,61.8z M133.8,61.2h2.2c0-0.3-0.1-0.7-0.3-0.8s-0.4-0.3-0.8-0.3
		s-0.5,0.1-0.8,0.3C134,60.7,133.9,60.9,133.8,61.2z"/>
	<path class="st2" d="M140.7,57.2h1V63h3v0.9h-3.9L140.7,57.2L140.7,57.2z"/>
	<path class="st7" d="M148.2,61.2V63c0,0.1,0,0.2,0.1,0.2s0.2-0.1,0.5-0.2v0.5c-0.2,0.1-0.3,0.2-0.4,0.2s-0.2,0.1-0.3,0.1
		c-0.3,0-0.5-0.1-0.7-0.4c-0.3,0.3-0.8,0.4-1.2,0.4c-0.3,0-0.5-0.1-0.8-0.3c-0.2-0.2-0.3-0.4-0.3-0.8c0-0.3,0.1-0.5,0.3-0.8
		c0.2-0.2,0.4-0.4,0.9-0.5l1.1-0.4v-0.2c0-0.5-0.2-0.8-0.8-0.8c-0.4,0-1,0.2-1.4,0.8v-1c0.3-0.4,0.9-0.5,1.4-0.5
		c0.4,0,0.9,0.1,1.2,0.3c0.1,0.1,0.2,0.2,0.2,0.3c0.1,0.1,0.1,0.2,0.1,0.4C148.2,60.6,148.2,60.9,148.2,61.2z M147.3,63v-1.3
		l-0.5,0.2c-0.3,0.1-0.5,0.2-0.7,0.3c-0.1,0.1-0.2,0.2-0.2,0.4s0.1,0.3,0.2,0.4s0.2,0.2,0.4,0.2C146.7,63.4,147.1,63.3,147.3,63z"/>
	<path class="st7" d="M149.5,57.2h0.9v2.6c0.3-0.3,0.8-0.4,1.2-0.4c0.5,0,1,0.2,1.4,0.7s0.5,1,0.5,1.6c0,0.8-0.2,1.3-0.7,1.7
		c-0.4,0.4-1,0.7-1.7,0.7c-0.3,0-0.5,0-0.9-0.1c-0.3-0.1-0.5-0.1-0.8-0.2v-6.6H149.5z M150.3,60.7v2.4c0.3,0.1,0.7,0.1,0.9,0.1
		c0.4,0,0.7-0.1,1-0.4c0.2-0.3,0.3-0.7,0.3-1.1s-0.1-0.8-0.3-1.1s-0.5-0.4-0.9-0.4C151,60.3,150.7,60.4,150.3,60.7z"/>
	<path class="st7" d="M157.3,59.5v-0.2c0-0.8,0.1-1.2,0.4-1.6c0.3-0.3,0.7-0.5,1.1-0.5c0.2,0,0.4,0,0.7,0.1v0.9
		c-0.1,0-0.3-0.1-0.4-0.1c-0.3,0-0.5,0.1-0.8,0.3c-0.1,0.2-0.2,0.5-0.2,1v0.2h0.8v0.8H158V64h-0.9v-3.6h-0.7v-0.8h0.9V59.5z"/>
	<path class="st7" d="M161.6,59.5c0.7,0,1.2,0.2,1.6,0.7c0.4,0.4,0.7,1,0.7,1.6s-0.2,1.2-0.7,1.6c-0.4,0.4-1,0.7-1.7,0.7
		s-1.2-0.2-1.6-0.7c-0.4-0.4-0.7-1-0.7-1.6s0.2-1.2,0.7-1.6C160.3,59.7,160.9,59.5,161.6,59.5z M161.5,60.3c-0.4,0-0.8,0.1-1,0.4
		c-0.2,0.3-0.4,0.7-0.4,1.1s0.1,0.8,0.4,1c0.3,0.2,0.7,0.4,1.1,0.4c0.4,0,0.8-0.1,1.1-0.4c0.3-0.2,0.4-0.7,0.4-1.1s-0.1-0.8-0.4-1.1
		C162.4,60.3,162,60.3,161.5,60.3z"/>
	<path class="st7" d="M165.9,59.5v1v-0.1c0.4-0.7,0.9-1,1.3-1c0.3,0,0.7,0.2,1,0.5l-0.4,0.8c-0.3-0.3-0.5-0.4-0.9-0.4
		s-0.5,0.1-0.8,0.4c-0.2,0.2-0.3,0.5-0.3,1V64h-0.9v-4.3h1L165.9,59.5L165.9,59.5z"/>
	<path class="st3" d="M177.4,62.3v1.1c-0.7,0.4-1.5,0.5-2.4,0.5c-0.8,0-1.4-0.1-1.8-0.4s-1-0.8-1.2-1.2c-0.3-0.5-0.4-1.1-0.4-1.7
		c0-1,0.3-1.7,1.1-2.5c0.7-0.7,1.5-1,2.6-1c0.7,0,1.5,0.2,2.3,0.5v1c-0.8-0.4-1.5-0.7-2.3-0.7s-1.4,0.2-2,0.8
		c-0.5,0.4-0.8,1.1-0.8,1.8s0.2,1.3,0.8,1.8s1.1,0.8,2,0.8C175.7,63.1,176.6,62.9,177.4,62.3z"/>
	<path class="st7" d="M179.3,59.5v1v-0.1c0.4-0.7,0.9-1,1.3-1c0.3,0,0.7,0.2,1,0.5l-0.4,0.8c-0.3-0.3-0.5-0.4-0.9-0.4
		c-0.3,0-0.5,0.1-0.8,0.4c-0.2,0.2-0.3,0.5-0.3,1V64h-0.9v-4.3h1L179.3,59.5L179.3,59.5z"/>
	<path class="st7" d="M185.9,61.8h-3c0,0.4,0.1,0.8,0.4,1c0.3,0.2,0.5,0.3,1,0.3s1.1-0.2,1.6-0.5v0.9c-0.2,0.2-0.5,0.3-0.8,0.4
		c-0.3,0.1-0.5,0.1-1,0.1s-0.9-0.1-1.2-0.3s-0.5-0.4-0.8-0.8c-0.2-0.3-0.2-0.8-0.2-1.2c0-0.7,0.2-1.2,0.5-1.6
		c0.3-0.4,0.9-0.7,1.5-0.7c0.5,0,1.1,0.2,1.4,0.7C185.7,60.5,186,61,185.9,61.8L185.9,61.8L185.9,61.8z M182.7,61.2h2.2
		c0-0.3-0.1-0.7-0.3-0.8s-0.4-0.3-0.8-0.3c-0.3,0-0.5,0.1-0.8,0.3C182.9,60.7,182.8,60.9,182.7,61.2z"/>
	<path class="st7" d="M189.5,61.2V63c0,0.1,0,0.2,0.1,0.2s0.2-0.1,0.5-0.2v0.5c-0.2,0.1-0.3,0.2-0.4,0.2c-0.1,0-0.2,0.1-0.3,0.1
		c-0.3,0-0.5-0.1-0.7-0.4c-0.3,0.3-0.8,0.4-1.2,0.4c-0.3,0-0.5-0.1-0.8-0.3c-0.2-0.2-0.3-0.4-0.3-0.8c0-0.3,0.1-0.5,0.3-0.8
		c0.2-0.2,0.4-0.4,0.9-0.5l1.1-0.4v-0.2c0-0.5-0.2-0.8-0.8-0.8c-0.4,0-1,0.2-1.4,0.8v-1c0.3-0.4,0.9-0.5,1.4-0.5
		c0.4,0,0.9,0.1,1.2,0.3c0.1,0.1,0.2,0.2,0.2,0.3c0.1,0.1,0.1,0.2,0.1,0.4C189.5,60.6,189.5,60.9,189.5,61.2z M188.7,63v-1.3
		l-0.5,0.2c-0.3,0.1-0.5,0.2-0.7,0.3c-0.1,0.1-0.2,0.2-0.2,0.4s0.1,0.3,0.2,0.4s0.2,0.2,0.4,0.2C188.1,63.4,188.5,63.3,188.7,63z"/>
	<path class="st7" d="M190.3,60.2l1.6-1.6v0.9h1.4v0.8h-1.4v2.2c0,0.5,0.2,0.8,0.7,0.8c0.3,0,0.7-0.1,1-0.3v0.8
		c-0.3,0.2-0.7,0.3-1.1,0.3s-0.8-0.1-1-0.3c-0.1-0.1-0.1-0.1-0.2-0.2c0-0.1-0.1-0.2-0.1-0.3s-0.1-0.4-0.1-0.8v-2L190.3,60.2
		L190.3,60.2z"/>
	<path class="st7" d="M194.7,57.7c0.1,0,0.2,0,0.3,0.1s0.1,0.2,0.1,0.3s0,0.2-0.1,0.3s-0.2,0.1-0.3,0.1s-0.2,0-0.3-0.1
		s-0.1-0.2-0.1-0.3s0-0.2,0.1-0.3C194.3,57.7,194.5,57.7,194.7,57.7z M194.2,59.5h0.9v4.3h-0.9V59.5z"/>
	<path class="st7" d="M199,59.5h1l-2,4.4h-0.3l-2-4.4h1l1.2,2.7L199,59.5z"/>
	<path class="st7" d="M204.1,61.8h-3c0,0.4,0.1,0.8,0.4,1c0.3,0.2,0.5,0.3,1,0.3s1.1-0.2,1.6-0.5v0.9c-0.2,0.2-0.5,0.3-0.8,0.4
		c-0.2,0.1-0.5,0.1-1,0.1s-0.9-0.1-1.2-0.3s-0.5-0.4-0.8-0.8c-0.2-0.3-0.2-0.8-0.2-1.2c0-0.7,0.2-1.2,0.5-1.6s0.9-0.7,1.5-0.7
		c0.5,0,1.1,0.2,1.4,0.7C204,60.5,204.2,61,204.1,61.8L204.1,61.8L204.1,61.8z M201.1,61.2h2.2c0-0.3-0.1-0.7-0.3-0.8
		s-0.4-0.3-0.8-0.3c-0.3,0-0.5,0.1-0.8,0.3C201.3,60.7,201.2,60.9,201.1,61.2z"/>
	<path class="st4" d="M212.7,57.2h1v6.6h-1v-2.9H209v2.9h-1v-6.6h1v2.9h3.7V57.2z"/>
	<path class="st7" d="M215.4,57.7c0.1,0,0.2,0,0.3,0.1s0.1,0.2,0.1,0.3s0,0.2-0.1,0.3s-0.2,0.1-0.3,0.1s-0.2,0-0.3-0.1
		s-0.1-0.2-0.1-0.3s0-0.2,0.1-0.3S215.3,57.7,215.4,57.7z M215,59.5h0.9v4.3H215V59.5z"/>
	<path class="st7" d="M216.8,61c0-0.4,0.2-0.9,0.5-1.1c0.3-0.3,0.8-0.4,1.4-0.4h1.8v0.7h-0.9c0.2,0.2,0.3,0.3,0.3,0.4
		c0,0.1,0.1,0.3,0.1,0.5s-0.1,0.4-0.2,0.7c-0.1,0.2-0.3,0.4-0.5,0.5s-0.5,0.2-1,0.3c-0.3,0-0.5,0.1-0.5,0.3c0,0.1,0.1,0.2,0.2,0.2
		c0.1,0.1,0.3,0.1,0.7,0.2c0.5,0.1,0.9,0.2,1.1,0.3c0.2,0.1,0.3,0.1,0.4,0.3c0.2,0.2,0.3,0.4,0.3,0.8s-0.2,0.8-0.5,1
		s-0.9,0.3-1.5,0.3s-1.1-0.1-1.5-0.3c-0.3-0.2-0.5-0.5-0.5-1s0.3-1,1.1-1.2c-0.3-0.2-0.4-0.3-0.4-0.5c0-0.1,0.1-0.2,0.2-0.4
		c0.1-0.2,0.3-0.2,0.5-0.2C217.1,62.1,216.8,61.7,216.8,61z M218.3,64.1c-0.3,0-0.5,0.1-0.8,0.2c-0.2,0.1-0.3,0.3-0.3,0.4
		c0,0.4,0.4,0.7,1.2,0.7c0.4,0,0.7-0.1,0.9-0.2s0.3-0.3,0.3-0.4c0-0.2-0.1-0.3-0.4-0.5C219.1,64.2,218.7,64.1,218.3,64.1z
		 M218.5,60.3c-0.2,0-0.4,0.1-0.7,0.2c-0.2,0.1-0.2,0.3-0.2,0.5s0.1,0.4,0.2,0.5s0.3,0.2,0.7,0.2c0.2,0,0.4-0.1,0.7-0.2
		s0.2-0.3,0.2-0.5s-0.1-0.4-0.2-0.5C219,60.4,218.8,60.3,218.5,60.3z"/>
	<path class="st7" d="M221.3,57.2h0.9V60c0.3-0.4,0.8-0.7,1.3-0.7c0.3,0,0.5,0.1,0.8,0.2c0.2,0.1,0.4,0.3,0.5,0.7
		c0.1,0.2,0.2,0.7,0.2,1.2v2.5h-0.9v-2.7c0-0.3-0.1-0.5-0.2-0.8c-0.1-0.2-0.3-0.3-0.7-0.3c-0.2,0-0.3,0-0.5,0.1s-0.3,0.2-0.5,0.5
		v3.1h-0.9L221.3,57.2L221.3,57.2z"/>
	<path class="st7" d="M225.9,61.2h2.4v1h-2.4V61.2z"/>
	<path class="st7" d="M229.2,66.1v-6.6h1.5c0.8,0,1.4,0.2,1.8,0.5c0.4,0.3,0.7,1,0.7,1.6s-0.2,1.2-0.7,1.6c-0.4,0.4-1,0.7-1.5,0.7
		c-0.3,0-0.5-0.1-1-0.2v2.4H229.2z M230.7,60.3H230V63c0.2,0.1,0.5,0.2,0.9,0.2s0.8-0.1,1-0.4s0.4-0.7,0.4-1.1
		c0-0.3-0.1-0.5-0.2-0.8c-0.1-0.2-0.3-0.3-0.5-0.4C231.5,60.4,231.2,60.3,230.7,60.3z"/>
	<path class="st7" d="M237.9,61.8h-3c0,0.4,0.1,0.8,0.4,1c0.3,0.2,0.5,0.3,1,0.3s1.1-0.2,1.6-0.5v0.9c-0.2,0.2-0.5,0.3-0.8,0.4
		c-0.2,0.1-0.5,0.1-1,0.1s-0.9-0.1-1.2-0.3s-0.5-0.4-0.8-0.8c-0.2-0.3-0.2-0.8-0.2-1.2c0-0.7,0.2-1.2,0.5-1.6
		c0.3-0.4,0.9-0.7,1.5-0.7c0.5,0,1.1,0.2,1.4,0.7C237.8,60.5,238,61,237.9,61.8L237.9,61.8L237.9,61.8z M234.9,61.2h2.2
		c0-0.3-0.1-0.7-0.3-0.8s-0.4-0.3-0.8-0.3c-0.3,0-0.5,0.1-0.8,0.3C235.1,60.7,235,60.9,234.9,61.2z"/>
	<path class="st7" d="M239.9,59.5v1v-0.1c0.4-0.7,0.9-1,1.3-1c0.3,0,0.7,0.2,1,0.5l-0.4,0.8c-0.3-0.3-0.5-0.4-0.9-0.4
		c-0.3,0-0.5,0.1-0.8,0.4c-0.2,0.2-0.3,0.5-0.3,1V64H239v-4.3h0.9V59.5z"/>
	<path class="st7" d="M242.9,59.5v-0.2c0-0.8,0.1-1.2,0.4-1.6c0.3-0.3,0.7-0.5,1.1-0.5c0.2,0,0.4,0,0.7,0.1v0.9
		c-0.1,0-0.3-0.1-0.4-0.1c-0.3,0-0.5,0.1-0.8,0.3c-0.1,0.2-0.2,0.5-0.2,1v0.2h0.8v0.8h-0.8V64h-0.9v-3.6h-0.5v-0.8h0.6L242.9,59.5
		L242.9,59.5z"/>
	<path class="st7" d="M247.2,59.5c0.7,0,1.2,0.2,1.6,0.7c0.4,0.4,0.7,1,0.7,1.6s-0.2,1.2-0.7,1.6c-0.4,0.4-1,0.7-1.7,0.7
		s-1.2-0.2-1.6-0.7c-0.4-0.4-0.7-1-0.7-1.6s0.2-1.2,0.7-1.6C245.9,59.7,246.5,59.5,247.2,59.5z M247.1,60.3c-0.4,0-0.8,0.1-1,0.4
		c-0.2,0.3-0.4,0.7-0.4,1.1s0.1,0.8,0.4,1c0.3,0.2,0.7,0.4,1.1,0.4c0.4,0,0.8-0.1,1.1-0.4c0.3-0.2,0.4-0.7,0.4-1.1s-0.1-0.8-0.4-1.1
		C248,60.3,247.6,60.3,247.1,60.3z"/>
	<path class="st7" d="M251.5,59.5v1v-0.1c0.4-0.7,0.9-1,1.3-1c0.3,0,0.7,0.2,1,0.5l-0.4,0.8c-0.3-0.3-0.5-0.4-0.9-0.4
		s-0.5,0.1-0.8,0.4c-0.2,0.2-0.3,0.5-0.3,1V64h-0.9v-4.3h1L251.5,59.5L251.5,59.5z"/>
	<path class="st7" d="M258,60.7v3.1h-0.9v-2.4c0-0.4-0.1-0.9-0.2-1c-0.1-0.2-0.3-0.3-0.7-0.3c-0.2,0-0.3,0-0.5,0.1
		c-0.1,0.1-0.3,0.2-0.5,0.4v3.1h-0.9v-4.3h0.9V60c0.4-0.4,0.9-0.7,1.3-0.7c0.5,0,1,0.2,1.3,0.8c0.4-0.5,1-0.8,1.4-0.8
		s0.8,0.1,1.1,0.4c0.3,0.3,0.4,0.8,0.4,1.4v2.6h-0.9v-2.6c0-0.3-0.1-0.7-0.2-0.9s-0.3-0.3-0.7-0.3C258.7,60.2,258.3,60.4,258,60.7z"
		/>
	<path class="st7" d="M264.6,61.2V63c0,0.1,0,0.2,0.1,0.2s0.2-0.1,0.5-0.2v0.5c-0.2,0.1-0.3,0.2-0.4,0.2s-0.2,0.1-0.3,0.1
		c-0.3,0-0.5-0.1-0.7-0.4c-0.3,0.3-0.8,0.4-1.2,0.4c-0.3,0-0.5-0.1-0.8-0.3c-0.2-0.2-0.3-0.4-0.3-0.8c0-0.3,0.1-0.5,0.3-0.8
		c0.2-0.2,0.4-0.4,0.9-0.5l1.1-0.4v-0.2c0-0.5-0.2-0.8-0.8-0.8c-0.4,0-1,0.2-1.4,0.8v-1c0.3-0.4,0.9-0.5,1.4-0.5
		c0.4,0,0.9,0.1,1.2,0.3c0.1,0.1,0.2,0.2,0.2,0.3c0.1,0.1,0.1,0.2,0.1,0.4C264.6,60.6,264.6,60.9,264.6,61.2z M263.9,63v-1.3
		l-0.5,0.2c-0.3,0.1-0.5,0.2-0.7,0.3c-0.1,0.1-0.2,0.2-0.2,0.4s0.1,0.3,0.2,0.4s0.2,0.2,0.4,0.2C263.3,63.4,263.5,63.3,263.9,63z"/>
	<path class="st7" d="M266.9,59.5V60c0.4-0.4,0.9-0.7,1.3-0.7c0.3,0,0.5,0.1,0.8,0.2s0.4,0.3,0.5,0.5s0.2,0.7,0.2,1.2v2.5h-0.9v-2.5
		c0-0.4-0.1-0.8-0.2-1s-0.3-0.3-0.7-0.3c-0.4,0-0.8,0.2-1.1,0.7v3.1H266v-4.3L266.9,59.5L266.9,59.5z"/>
	<path class="st7" d="M274.3,62.9v0.9c-0.4,0.2-0.9,0.2-1.3,0.2c-0.7,0-1.2-0.2-1.6-0.7c-0.4-0.4-0.7-1-0.7-1.6
		c0-0.7,0.2-1.2,0.5-1.6c0.3-0.4,0.9-0.7,1.5-0.7c0.2,0,0.4,0,0.7,0.1c0.2,0,0.4,0.1,0.7,0.2v1c-0.4-0.3-0.9-0.4-1.2-0.4
		c-0.4,0-0.8,0.1-1,0.4s-0.3,0.7-0.3,1.1s0.1,0.8,0.4,1.1c0.3,0.2,0.7,0.4,1.1,0.4C273.4,63.2,273.9,63.1,274.3,62.9z"/>
	<path class="st7" d="M279,61.8h-3c0,0.4,0.1,0.8,0.4,1s0.5,0.3,1,0.3s1.1-0.2,1.6-0.5v0.9c-0.2,0.2-0.5,0.3-0.8,0.4
		c-0.2,0.1-0.5,0.1-1,0.1c-0.4,0-0.9-0.1-1.2-0.3c-0.3-0.2-0.5-0.4-0.8-0.8c-0.2-0.3-0.2-0.8-0.2-1.2c0-0.7,0.2-1.2,0.5-1.6
		s0.9-0.7,1.5-0.7c0.5,0,1.1,0.2,1.4,0.7C278.9,60.5,279.1,61,279,61.8L279,61.8L279,61.8z M275.9,61.2h2.2c0-0.3-0.1-0.7-0.3-0.8
		c-0.2-0.1-0.4-0.3-0.8-0.3s-0.5,0.1-0.8,0.3C276.1,60.7,276,60.9,275.9,61.2z"/>
	<path class="st5" d="M87.7,68.9h3.8v0.9h-2.8v2.1h2.7v0.9h-2.7v2.1h2.9v0.8h-3.9V68.9z"/>
	<path class="st7" d="M93.4,71.2v0.5c0.4-0.4,0.9-0.7,1.3-0.7c0.3,0,0.5,0.1,0.8,0.2c0.2,0.1,0.4,0.3,0.5,0.5s0.2,0.7,0.2,1.2v2.5
		h-0.9v-2.5c0-0.4-0.1-0.8-0.2-1s-0.3-0.3-0.7-0.3c-0.4,0-0.8,0.2-1.1,0.7v3.1h-0.9v-4.3h1C93.4,71.1,93.4,71.2,93.4,71.2z"/>
	<path class="st7" d="M101.2,73.5h-3c0,0.4,0.1,0.8,0.4,1s0.5,0.3,1,0.3s1.1-0.2,1.6-0.5v0.9c-0.2,0.2-0.5,0.3-0.8,0.4
		c-0.2,0.1-0.5,0.1-1,0.1s-0.9-0.1-1.2-0.3c-0.3-0.2-0.5-0.4-0.8-0.8c-0.2-0.3-0.2-0.8-0.2-1.2c0-0.7,0.2-1.2,0.5-1.6
		s0.9-0.7,1.5-0.7c0.5,0,1.1,0.2,1.4,0.7C100.9,72.2,101.1,72.8,101.2,73.5L101.2,73.5L101.2,73.5z M98.1,73h2.2
		c0-0.3-0.1-0.7-0.3-0.8c-0.2-0.1-0.4-0.3-0.8-0.3c-0.3,0-0.5,0.1-0.8,0.3C98.3,72.3,98.2,72.6,98.1,73z"/>
	<path class="st7" d="M103.1,71.2v1v-0.1c0.4-0.7,0.9-1,1.3-1c0.3,0,0.7,0.2,1,0.5l-0.4,0.8c-0.3-0.3-0.5-0.4-0.9-0.4
		c-0.3,0-0.5,0.1-0.8,0.4c-0.2,0.2-0.3,0.5-0.3,1v2.2h-0.9v-4.3L103.1,71.2L103.1,71.2z"/>
	<path class="st7" d="M105.8,72.7c0-0.4,0.2-0.9,0.5-1.1c0.3-0.3,0.8-0.4,1.4-0.4h1.8v0.7h-1c0.2,0.2,0.3,0.3,0.3,0.4
		s0.1,0.3,0.1,0.5s-0.1,0.4-0.2,0.7c-0.1,0.2-0.3,0.4-0.5,0.5s-0.5,0.2-1,0.3c-0.3,0-0.5,0.1-0.5,0.3c0,0.1,0.1,0.2,0.2,0.2
		c0.1,0.1,0.3,0.1,0.7,0.2c0.5,0.1,0.9,0.2,1.1,0.3c0.2,0.1,0.3,0.1,0.4,0.3c0.2,0.2,0.3,0.4,0.3,0.8s-0.2,0.8-0.5,1
		s-0.9,0.3-1.5,0.3c-0.7,0-1.1-0.1-1.5-0.3c-0.3-0.2-0.5-0.5-0.5-1s0.3-1,1.1-1.2c-0.3-0.2-0.4-0.3-0.4-0.5c0-0.1,0.1-0.2,0.2-0.4
		c0.1-0.2,0.3-0.2,0.5-0.2C106.1,73.8,105.8,73.4,105.8,72.7z M107.2,75.8c-0.3,0-0.5,0.1-0.8,0.2c-0.2,0.1-0.3,0.3-0.3,0.4
		c0,0.4,0.4,0.7,1.2,0.7c0.4,0,0.7-0.1,0.9-0.2c0.2-0.1,0.3-0.3,0.3-0.4c0-0.2-0.1-0.3-0.4-0.5C107.9,75.9,107.6,75.8,107.2,75.8z
		 M107.4,72c-0.2,0-0.4,0.1-0.7,0.2c-0.2,0.1-0.2,0.3-0.2,0.5s0.1,0.4,0.2,0.5s0.3,0.2,0.7,0.2c0.2,0,0.4-0.1,0.7-0.2
		s0.2-0.3,0.2-0.5s-0.1-0.4-0.2-0.5C107.9,72.1,107.6,72,107.4,72z"/>
	<path class="st7" d="M113.1,71.2h1l-3.2,6.6h-1l1.5-3.1l-1.7-3.5h1l1.2,2.5L113.1,71.2z"/>
	<path class="st7" d="M114.4,73h2.4v1h-2.4V73z"/>
	<path class="st7" d="M121.5,73.5h-3c0,0.4,0.1,0.8,0.4,1s0.5,0.3,1,0.3s1.1-0.2,1.6-0.5v0.9c-0.2,0.2-0.5,0.3-0.8,0.4
		c-0.2,0.1-0.5,0.1-1,0.1c-0.4,0-0.9-0.1-1.2-0.3c-0.3-0.2-0.5-0.4-0.8-0.8c-0.2-0.3-0.2-0.8-0.2-1.2c0-0.7,0.2-1.2,0.5-1.6
		s0.9-0.7,1.5-0.7c0.5,0,1.1,0.2,1.4,0.7C121.2,72.2,121.4,72.8,121.5,73.5L121.5,73.5L121.5,73.5z M118.5,73h2.2
		c0-0.3-0.1-0.7-0.3-0.8c-0.2-0.1-0.4-0.3-0.8-0.3s-0.5,0.1-0.8,0.3C118.7,72.3,118.5,72.6,118.5,73z"/>
	<path class="st7" d="M122.6,71.2V71c0-0.8,0.1-1.2,0.4-1.6c0.3-0.3,0.7-0.5,1.1-0.5c0.2,0,0.4,0,0.7,0.1v0.9
		c-0.1,0-0.3-0.1-0.4-0.1c-0.3,0-0.5,0.1-0.8,0.3c-0.1,0.2-0.2,0.5-0.2,1v0.2h0.8V72h-0.8v3.6h-0.9V72h-0.7v-0.8H122.6z"/>
	<path class="st7" d="M125,71.2V71c0-0.8,0.1-1.2,0.4-1.6c0.3-0.3,0.7-0.5,1.1-0.5c0.2,0,0.4,0,0.7,0.1v0.9c-0.1,0-0.3-0.1-0.4-0.1
		c-0.3,0-0.5,0.1-0.8,0.3c-0.1,0.2-0.2,0.5-0.2,1v0.2h0.8V72h-0.8v3.6h-0.9V72h-0.7v-0.8H125z"/>
	<path class="st7" d="M127.8,69.4c0.1,0,0.2,0,0.3,0.1s0.1,0.2,0.1,0.3c0,0.1,0,0.2-0.1,0.3c-0.1,0.1-0.2,0.1-0.3,0.1
		s-0.2,0-0.3-0.1s-0.1-0.2-0.1-0.3c0-0.1,0-0.2,0.1-0.3C127.6,69.4,127.7,69.4,127.8,69.4z M127.4,71.2h0.9v4.3h-0.9V71.2z"/>
	<path class="st7" d="M132.8,74.6v0.9c-0.4,0.2-0.9,0.2-1.3,0.2c-0.7,0-1.2-0.2-1.6-0.7c-0.4-0.4-0.7-0.9-0.7-1.6s0.2-1.2,0.5-1.6
		s0.9-0.7,1.5-0.7c0.2,0,0.4,0,0.7,0.1c0.2,0,0.4,0.1,0.7,0.2v1c-0.4-0.3-0.9-0.4-1.2-0.4c-0.4,0-0.8,0.1-1,0.4s-0.3,0.7-0.3,1.1
		s0.1,0.8,0.4,1.1c0.3,0.2,0.7,0.4,1.1,0.4C132,74.9,132.4,74.8,132.8,74.6z"/>
	<path class="st7" d="M134.2,69.4c0.1,0,0.2,0,0.3,0.1s0.1,0.2,0.1,0.3c0,0.1,0,0.2-0.1,0.3c-0.1,0.1-0.2,0.1-0.3,0.1
		s-0.2,0-0.3-0.1s-0.1-0.2-0.1-0.3c0-0.1,0-0.2,0.1-0.3C134,69.4,134.1,69.4,134.2,69.4z M133.8,71.2h0.9v4.3h-0.9V71.2z"/>
	<path class="st7" d="M139.7,73.5h-3c0,0.4,0.1,0.8,0.4,1c0.3,0.2,0.5,0.3,1,0.3s1.1-0.2,1.6-0.5v0.9c-0.2,0.2-0.5,0.3-0.8,0.4
		c-0.2,0.1-0.5,0.1-1,0.1s-0.9-0.1-1.2-0.3c-0.3-0.2-0.5-0.4-0.8-0.8c-0.2-0.3-0.2-0.8-0.2-1.2c0-0.7,0.2-1.2,0.5-1.6
		s0.9-0.7,1.5-0.7c0.5,0,1.1,0.2,1.4,0.7C139.6,72.2,139.8,72.7,139.7,73.5L139.7,73.5L139.7,73.5z M136.6,73h2.2
		c0-0.3-0.1-0.7-0.3-0.8c-0.2-0.1-0.4-0.3-0.8-0.3c-0.3,0-0.5,0.1-0.8,0.3C136.9,72.3,136.6,72.6,136.6,73z"/>
	<path class="st7" d="M141.5,71.2v0.5c0.4-0.4,0.9-0.7,1.3-0.7c0.3,0,0.5,0.1,0.8,0.2c0.2,0.1,0.4,0.3,0.5,0.5s0.2,0.7,0.2,1.2v2.5
		h-0.9v-2.5c0-0.4-0.1-0.8-0.2-1c-0.1-0.2-0.3-0.3-0.7-0.3s-0.8,0.2-1.1,0.7v3.1h-0.9v-4.3h1L141.5,71.2L141.5,71.2z"/>
	<path class="st7" d="M144.9,71.9l1.6-1.6v1h1.4V72h-1.4v2.2c0,0.5,0.2,0.8,0.7,0.8c0.3,0,0.7-0.1,1-0.3v0.8
		c-0.3,0.2-0.7,0.3-1.1,0.3s-0.8-0.1-1-0.3c-0.1-0.1-0.1-0.1-0.2-0.2c0-0.1-0.1-0.2-0.1-0.3s-0.1-0.4-0.1-0.8v-2L144.9,71.9
		L144.9,71.9z"/>
	<path class="st6" d="M157,68.9h0.9v6.6h-1v-5.2l-2.1,2.6h-0.2l-2.1-2.6v5.2h-1v-6.6h0.9l2.2,2.7L157,68.9z"/>
	<path class="st7" d="M161.8,73v1.8c0,0.1,0,0.2,0.1,0.2s0.2-0.1,0.5-0.2v0.5c-0.2,0.1-0.3,0.2-0.4,0.2c-0.1,0-0.2,0.1-0.3,0.1
		c-0.3,0-0.5-0.1-0.7-0.4c-0.3,0.3-0.8,0.4-1.2,0.4c-0.3,0-0.5-0.1-0.8-0.3c-0.2-0.2-0.3-0.4-0.3-0.8c0-0.3,0.1-0.5,0.3-0.8
		c0.2-0.2,0.4-0.4,0.9-0.5l1.1-0.4v-0.2c0-0.5-0.2-0.8-0.8-0.8c-0.4,0-1,0.2-1.4,0.8v-1c0.3-0.4,0.9-0.5,1.4-0.5
		c0.4,0,0.9,0.1,1.2,0.3c0.1,0.1,0.2,0.2,0.2,0.3c0.1,0.1,0.1,0.2,0.1,0.4C161.8,72.3,161.8,72.6,161.8,73z M161,74.7v-1.3l-0.5,0.2
		c-0.3,0.1-0.5,0.2-0.7,0.3c-0.1,0.1-0.2,0.2-0.2,0.4s0.1,0.3,0.2,0.4c0.1,0.1,0.2,0.2,0.4,0.2C160.5,75.1,160.8,75,161,74.7z"/>
	<path class="st7" d="M166.6,74.6v0.9c-0.4,0.2-0.9,0.2-1.3,0.2c-0.7,0-1.2-0.2-1.6-0.7c-0.4-0.4-0.7-1-0.7-1.6
		c0-0.7,0.2-1.2,0.5-1.6s0.9-0.7,1.5-0.7c0.2,0,0.4,0,0.7,0.1c0.2,0,0.4,0.1,0.7,0.2v1c-0.4-0.3-0.9-0.4-1.2-0.4
		c-0.4,0-0.8,0.1-1,0.4s-0.3,0.7-0.3,1.1s0.1,0.8,0.4,1.1c0.3,0.2,0.7,0.4,1.1,0.4C165.8,74.9,166.2,74.8,166.6,74.6z"/>
	<path class="st7" d="M167.6,68.9h0.9v2.8c0.3-0.4,0.8-0.7,1.3-0.7c0.3,0,0.5,0.1,0.8,0.2c0.2,0.1,0.4,0.3,0.5,0.7
		c0.1,0.2,0.2,0.7,0.2,1.2v2.4h-0.9v-2.7c0-0.3-0.1-0.5-0.2-0.8c-0.1-0.2-0.3-0.3-0.7-0.3c-0.2,0-0.3,0-0.5,0.1s-0.3,0.2-0.5,0.5
		v3.1h-0.9L167.6,68.9L167.6,68.9z"/>
	<path class="st7" d="M172.9,69.4c0.1,0,0.2,0,0.3,0.1s0.1,0.2,0.1,0.3c0,0.1,0,0.2-0.1,0.3s-0.2,0.1-0.3,0.1s-0.2,0-0.3-0.1
		s-0.1-0.2-0.1-0.3c0-0.1,0-0.2,0.1-0.3C172.7,69.4,172.8,69.4,172.9,69.4z M172.5,71.2h0.9v4.3h-0.9V71.2z"/>
	<path class="st7" d="M175.5,71.2v0.5c0.4-0.4,0.9-0.7,1.3-0.7c0.3,0,0.5,0.1,0.8,0.2c0.2,0.1,0.4,0.3,0.5,0.5s0.2,0.7,0.2,1.2v2.5
		h-0.9v-2.5c0-0.4-0.1-0.8-0.2-1c-0.1-0.2-0.3-0.3-0.7-0.3s-0.8,0.2-1.1,0.7v3.1h-0.9v-4.3h1L175.5,71.2L175.5,71.2z"/>
	<path class="st7" d="M183.2,73.5h-3c0,0.4,0.1,0.8,0.4,1s0.5,0.3,1,0.3s1.1-0.2,1.6-0.5v0.9c-0.2,0.2-0.5,0.3-0.8,0.4
		c-0.2,0.1-0.5,0.1-1,0.1s-0.9-0.1-1.2-0.3c-0.3-0.2-0.5-0.4-0.8-0.8c-0.2-0.3-0.2-0.8-0.2-1.2c0-0.7,0.2-1.2,0.5-1.6
		s0.9-0.7,1.5-0.7c0.5,0,1.1,0.2,1.4,0.7C183.1,72.2,183.4,72.7,183.2,73.5L183.2,73.5L183.2,73.5z M180.2,73h2.2
		c0-0.3-0.1-0.7-0.3-0.8c-0.2-0.1-0.4-0.3-0.8-0.3c-0.3,0-0.5,0.1-0.8,0.3C180.3,72.3,180.2,72.6,180.2,73z"/>
	<path class="st7" d="M184,75.3v-1c0.2,0.2,0.5,0.3,0.8,0.4c0.2,0.1,0.4,0.1,0.7,0.1c0.2,0,0.3,0,0.4-0.1c0.1-0.1,0.2-0.2,0.2-0.3
		c0-0.1,0-0.2-0.1-0.3c-0.1-0.1-0.2-0.2-0.5-0.3c-0.5-0.3-1-0.5-1.1-0.8c-0.2-0.2-0.2-0.4-0.2-0.8s0.1-0.7,0.4-0.9
		c0.2-0.2,0.7-0.3,1-0.3c0.4,0,0.9,0.1,1.3,0.3v0.9c-0.5-0.3-1-0.4-1.3-0.4c-0.2,0-0.3,0-0.4,0.1c-0.1,0.1-0.1,0.2-0.1,0.3
		s0,0.2,0.1,0.3c0.1,0.1,0.2,0.2,0.5,0.3L186,73c0.8,0.4,1.1,0.9,1.1,1.4c0,0.3-0.1,0.7-0.4,0.9c-0.3,0.2-0.7,0.3-1.1,0.3
		c-0.2,0-0.5,0-0.7-0.1C184.6,75.6,184.2,75.4,184,75.3z"/>
</g>
<g>
	<ellipse class="st0" cx="34.4" cy="55.4" rx="23.4" ry="22.2"/>
	<path class="st3" d="M27.3,32.8l0.4,0.9c-0.4,0.5-1,0.9-1.6,1.1c-0.8,0.3-1.6,0.3-2.2,0.1c-0.7-0.2-1.1-0.7-1.4-1.3
		c-0.3-0.7-0.2-1.2,0.1-1.9c0.3-0.7,0.9-1.1,1.7-1.4c0.7-0.2,1.3-0.3,1.8-0.2l0.4,1c-0.7-0.1-1.3-0.1-1.7,0.2
		c-0.5,0.2-0.8,0.4-1,0.8c-0.2,0.4-0.2,0.7-0.1,1.1c0.2,0.4,0.4,0.7,0.9,0.8c0.4,0.1,0.9,0.1,1.3-0.1c0.2-0.1,0.4-0.2,0.7-0.3
		C26.6,33.3,26.9,33.1,27.3,32.8z"/>
	<path class="st3" d="M28.9,30.7l0.2,0.9l0,0c0.2-0.7,0.4-1.1,0.8-1.1c0.2-0.1,0.4,0,0.7,0.1l-0.1,0.9c-0.3-0.1-0.5-0.1-0.7-0.1
		c-0.2,0.1-0.4,0.2-0.5,0.6c-0.1,0.3-0.1,0.4-0.1,0.5l0.3,1.3l-1,0.2l-0.7-3.1L28.9,30.7z"/>
	<path class="st3" d="M34.6,32.3l0.1,0.7c-0.4,0.3-0.9,0.4-1.5,0.5c-0.7,0.1-1-0.1-1.5-0.4c-0.4-0.3-0.5-0.7-0.5-1.3
		c-0.1-0.4,0.1-0.9,0.4-1.1c0.3-0.3,0.7-0.5,1.2-0.6s0.9,0.1,1.3,0.4c0.4,0.3,0.5,0.7,0.5,1.3L32.2,32c0.1,0.3,0.2,0.5,0.4,0.7
		s0.4,0.2,0.8,0.2C33.8,32.8,34.1,32.6,34.6,32.3z M32.2,31.5l1.5-0.1c-0.1-0.4-0.4-0.7-0.8-0.7C32.5,30.8,32.2,31,32.2,31.5z"/>
	<path class="st3" d="M38.6,32.8l-0.1,0.6c-0.4,0.2-0.7,0.2-1,0.2c-0.3-0.1-0.5-0.2-0.5-0.4c-0.4,0.2-0.8,0.3-1.1,0.2
		s-0.4-0.1-0.7-0.3C35.1,33,35,32.8,35,32.5c0.1-0.2,0.1-0.4,0.4-0.7c0.2-0.2,0.8-0.3,1.7-0.5c0.1-0.3-0.1-0.6-0.5-0.7
		s-0.9,0.1-1.3,0.4l0.1-0.8c0.4-0.2,0.9-0.3,1.5-0.2c0.9,0.1,1.4,0.4,1.3,1.1l-0.1,1.4c0,0.1,0.1,0.2,0.1,0.2
		C38.3,33,38.5,32.9,38.6,32.8z M37,32.7l0.1-0.8c-0.4,0.1-0.7,0.2-0.8,0.2c-0.1,0.1-0.2,0.2-0.2,0.3s0,0.2,0.1,0.2
		c0.1,0.1,0.1,0.1,0.2,0.1C36.7,32.9,36.8,32.8,37,32.7z"/>
	<path class="st3" d="M41.9,31.1l-0.2,0.7l-1.1-0.2l-0.3,1.3c-0.1,0.2-0.1,0.3,0.1,0.4c0.1,0.1,0.2,0.2,0.3,0.2
		c0.2,0.1,0.4,0.1,0.7-0.1l-0.2,0.7c-0.4,0.1-0.7,0.1-1-0.1c-0.4-0.1-0.7-0.2-0.9-0.5c-0.2-0.2-0.2-0.6-0.1-0.9l0.3-1.3l-0.4-0.1
		l0.1-0.2l1.7-1.1L41,30l-0.2,1L41.9,31.1z"/>
	<path class="st3" d="M43.6,31.7l-1.1,3l-1-0.4l1.1-3L43.6,31.7z M43,30.5c0.1-0.1,0.1-0.2,0.3-0.3c0.2-0.1,0.3-0.1,0.4-0.1
		c0.1,0.1,0.3,0.1,0.3,0.2c0.1,0.1,0.1,0.2,0.1,0.4C44,30.8,44,30.9,43.8,31c-0.1,0.1-0.3,0.1-0.4,0.1c-0.1-0.1-0.3-0.1-0.3-0.3
		C43,30.6,42.9,30.5,43,30.5z"/>
	<path class="st3" d="M44.3,35.4l0.1-3.5l1,0.4l-0.1,1.9l1.5-1.3l1,0.4L45,35.5L44.3,35.4z"/>
	<path class="st3" d="M49.5,37.3l-0.4,0.5c-0.5,0-1-0.1-1.5-0.4c-0.5-0.3-0.8-0.7-0.9-1.1c-0.1-0.4-0.1-0.9,0.3-1.2
		c0.3-0.4,0.7-0.7,1.1-0.7c0.4-0.1,0.9,0,1.3,0.3c0.4,0.2,0.7,0.7,0.8,1.1c0.1,0.4-0.1,0.9-0.4,1.3l-2-1.3c-0.1,0.2-0.2,0.4-0.1,0.7
		c0.1,0.2,0.2,0.4,0.5,0.7C48.7,37.2,49,37.3,49.5,37.3z M48.2,35.3l1.1,0.8c0.2-0.4,0.2-0.7-0.2-0.9C48.9,34.8,48.6,34.8,48.2,35.3
		z"/>
	<path class="st4" d="M59.1,42.2l-4,2.7L54.4,44l1.6-1.1L54.6,41l-1.5,1l-0.7-0.9l4-2.7l0.7,0.9l-1.7,1l1.4,1.9l1.6-1.1L59.1,42.2z"
		/>
	<path class="st4" d="M58.8,45l-3,1.4l-0.4-0.9l3-1.4L58.8,45z M59.3,43.7c0.1-0.1,0.3-0.1,0.4-0.1c0.1,0.1,0.3,0.1,0.3,0.2
		c0.1,0.1,0.1,0.2,0.1,0.4c-0.1,0.1-0.1,0.2-0.3,0.3c-0.1,0.1-0.3,0.1-0.4,0c-0.1-0.1-0.3-0.1-0.3-0.3c-0.1-0.1-0.1-0.2,0-0.4
		C59.1,43.9,59.1,43.7,59.3,43.7z"/>
	<path class="st4" d="M60.4,49.1l-0.7,0.2L59.6,49c-0.1,0.2-0.3,0.2-0.4,0.3c-0.2,0.1-0.5,0.1-0.8-0.1c-0.3-0.1-0.5-0.3-0.7-0.7
		c-0.2-0.3-0.3-0.5-0.3-0.6s-0.1-0.1-0.2-0.1c-0.1,0-0.1,0.1-0.1,0.1s0.1,0.3,0.1,0.7c0.1,0.4,0.1,0.7-0.1,0.9
		c-0.1,0.2-0.3,0.3-0.5,0.4c-0.4,0.1-0.7,0.1-0.9-0.2s-0.5-0.6-0.7-1.1s-0.2-0.9-0.2-1.3c0.1-0.3,0.2-0.5,0.5-0.7
		c0.4-0.1,0.7,0.1,1.1,0.6c0-0.2,0.1-0.4,0.3-0.4c0.2-0.1,0.4,0.1,0.7,0.4c-0.1-0.2,0-0.5,0.1-0.7s0.3-0.3,0.5-0.4
		c0.3-0.1,0.7-0.1,0.9,0.1c0.3,0.2,0.5,0.4,0.7,0.9L60.4,49.1z M55.6,48.8c0.1,0.2,0.2,0.3,0.3,0.4c0.1,0.1,0.2,0.1,0.4,0.1
		c0.2-0.1,0.3-0.3,0.1-0.9c-0.1-0.2-0.2-0.4-0.3-0.4c-0.1-0.1-0.2-0.1-0.4-0.1C55.5,48,55.4,48.3,55.6,48.8z M59.1,47.6
		c-0.1-0.2-0.1-0.2-0.3-0.3c-0.1-0.1-0.3-0.1-0.4,0c-0.1,0.1-0.3,0.1-0.4,0.3c-0.1,0.1-0.1,0.3-0.1,0.4s0.1,0.2,0.3,0.3
		c0.1,0.1,0.3,0.1,0.5,0.1c0.1-0.1,0.3-0.1,0.3-0.2C59.2,47.9,59.2,47.8,59.1,47.6z"/>
	<path class="st4" d="M62.3,50.6l-2.1,0.3l0,0c0.4,0.2,0.7,0.5,0.7,0.9s0,0.7-0.2,0.9s-0.5,0.4-0.9,0.4l-2.1,0.3l-0.2-1l1.9-0.3
		c0.5-0.1,0.7-0.2,0.7-0.7c-0.1-0.2-0.2-0.4-0.6-0.7L57.4,51l-0.2-0.9l4.8-0.7L62.3,50.6z"/>
	<path class="st4" d="M59.9,55.8H59L58.9,54h0.9L59.9,55.8z"/>
	<path class="st4" d="M61,57.6l-0.3-0.1c0.2,0.3,0.3,0.7,0.3,0.9c-0.1,0.4-0.3,0.7-0.7,1c-0.4,0.2-0.8,0.3-1.3,0.3
		c-0.5-0.1-0.9-0.2-1.2-0.6c-0.3-0.3-0.4-0.7-0.4-1.1c0.1-0.3,0.1-0.6,0.3-0.8L56.1,57l0.1-1l4.9,0.5L61,57.6z M60.1,57.6l-1.6-0.2
		c-0.2,0.2-0.3,0.3-0.3,0.6c-0.1,0.2,0.1,0.4,0.2,0.7c0.2,0.2,0.4,0.2,0.7,0.3s0.6,0,0.8-0.1s0.3-0.3,0.3-0.5
		C60.3,58.1,60.3,57.8,60.1,57.6z"/>
	<path class="st4" d="M57.4,63.4l-0.7-0.2c-0.2-0.4-0.2-0.9,0-1.5c0.2-0.5,0.4-0.9,0.9-1.1c0.4-0.2,0.9-0.3,1.4-0.2s0.9,0.4,1.1,0.8
		c0.2,0.4,0.3,0.8,0.1,1.3c-0.1,0.4-0.4,0.8-0.9,1c-0.4,0.2-0.9,0.2-1.5,0.1l0.7-2.1c-0.3-0.1-0.5-0.1-0.8,0.1
		c-0.2,0.1-0.4,0.3-0.4,0.7C57.2,62.5,57.3,62.9,57.4,63.4z M59.1,61.5l-0.4,1.3c0.5,0.1,0.8-0.1,0.9-0.4
		C59.6,61.9,59.5,61.7,59.1,61.5z"/>
	<path class="st4" d="M58.8,65.8l-0.9-0.4l0,0c0.5,0.5,0.7,1,0.5,1.3c-0.1,0.2-0.3,0.3-0.5,0.4l-0.7-0.7c0.3-0.2,0.4-0.3,0.5-0.4
		c0.1-0.2,0.1-0.4-0.2-0.7c-0.2-0.2-0.3-0.4-0.4-0.4l-1.3-0.6l0.4-0.9l3,1.3L58.8,65.8z"/>
	<path class="st4" d="M57.1,68.8l-0.2,0.4l-0.7-0.3l0.2-0.4l-2.2-1.2l0.5-0.9l2.2,1.2l0.2-0.4l0.7,0.3l-0.2,0.4l0.1,0.1
		c0.4,0.2,0.7,0.5,0.7,0.9c0.1,0.3,0.1,0.7-0.2,1.1c-0.1,0.1-0.2,0.2-0.4,0.4L57.1,70c0.1-0.2,0.2-0.3,0.3-0.3
		C57.6,69.4,57.5,69.1,57.1,68.8L57.1,68.8z"/>
	<path class="st4" d="M55.5,71.2c-0.3,0.4-0.7,0.7-1.1,0.7c-0.4,0.1-0.9,0-1.4-0.3c-0.4-0.3-0.7-0.7-0.7-1.1s0.1-0.9,0.4-1.2
		c0.4-0.4,0.7-0.7,1.2-0.7c0.4-0.1,0.9,0.1,1.3,0.3c0.4,0.3,0.7,0.7,0.7,1.1C56,70.3,55.8,70.8,55.5,71.2z M53.2,69.5
		c-0.3,0.4-0.2,0.8,0.4,1.2c0.6,0.4,1,0.4,1.3,0.1c0.1-0.2,0.2-0.4,0.1-0.7c-0.1-0.2-0.2-0.4-0.5-0.7C54,69.1,53.6,69.1,53.2,69.5z"
		/>
	<path class="st4" d="M52.8,73.9l-0.7-0.7l0,0c0.2,0.7,0.2,1.1-0.1,1.4c-0.1,0.1-0.4,0.2-0.7,0.2L50.9,74c0.3-0.1,0.5-0.1,0.7-0.2
		c0.2-0.2,0.2-0.4,0.1-0.7c-0.1-0.3-0.1-0.4-0.2-0.5l-1-1l0.8-0.7l2.2,2.3L52.8,73.9z"/>
	<path class="st4" d="M50,76.1l-0.2-0.3c-0.1,0.4-0.4,0.8-0.7,1c-0.5,0.3-0.9,0.3-1.4,0c-0.1,0.7-0.4,1-0.8,1.2
		c-0.3,0.2-0.7,0.2-1,0.2c-0.3-0.1-0.6-0.2-0.8-0.6L44,75.9l0.9-0.5l1,1.6c0.1,0.2,0.3,0.3,0.4,0.4c0.2,0.1,0.3,0.1,0.5-0.1
		c0.3-0.2,0.4-0.4,0.4-0.9L46,74.7l0.9-0.5l1,1.6c0.1,0.2,0.3,0.3,0.4,0.3c0.2,0.1,0.3,0,0.5-0.1s0.4-0.4,0.4-0.8l-1.1-1.8l0.9-0.5
		l1.7,2.7L50,76.1z"/>
	<path class="st4" d="M40.4,77.8l-0.2-0.5c0.3-0.3,0.5-0.4,0.8-0.6c0.3-0.1,0.5-0.1,0.7,0.2c0.3-0.3,0.6-0.6,0.9-0.7
		c0.2-0.1,0.5-0.1,0.7,0s0.4,0.2,0.4,0.4c0.1,0.2,0.1,0.5-0.1,0.7c-0.1,0.2-0.6,0.7-1.4,1.1c0.1,0.3,0.4,0.4,0.7,0.3
		c0.4-0.1,0.8-0.4,1-0.9l0.3,0.8c-0.3,0.4-0.7,0.7-1.2,0.8c-0.9,0.3-1.5,0.1-1.6-0.4l-0.5-1.4c-0.1-0.1-0.1-0.2-0.2-0.2
		C40.6,77.5,40.5,77.7,40.4,77.8z M41.9,77.3l0.3,0.7c0.3-0.2,0.5-0.4,0.6-0.5s0.1-0.2,0.1-0.4c-0.1-0.1-0.1-0.2-0.2-0.2
		c-0.1-0.1-0.2-0.1-0.3,0C42.2,76.9,42.1,77.1,41.9,77.3z"/>
	<path class="st4" d="M39.4,80.4L39.3,80c-0.2,0.4-0.6,0.7-1,0.7c-0.4,0.1-0.7,0-0.9-0.2c-0.3-0.2-0.4-0.4-0.5-0.8l-0.4-2l1-0.2
		l0.3,1.9c0.1,0.4,0.3,0.7,0.7,0.6c0.2-0.1,0.4-0.2,0.7-0.7l-0.4-2l1-0.2l0.5,3.1h-0.9V80.4z"/>
	<path class="st4" d="M33,78.5v-0.7c0.4-0.1,0.8-0.2,1.1-0.2c0.6,0,1,0.1,1.4,0.4c0.3,0.3,0.5,0.7,0.5,1.1s-0.2,0.9-0.5,1.1
		c-0.4,0.3-0.8,0.4-1.4,0.4c-0.4,0-0.7-0.1-1.1-0.2v-0.7c0.3,0.1,0.6,0.2,0.9,0.2c0.3,0,0.5-0.1,0.8-0.2c0.2-0.2,0.3-0.4,0.3-0.7
		s-0.1-0.5-0.3-0.7s-0.4-0.2-0.7-0.2C33.7,78.3,33.4,78.4,33,78.5z"/>
	<path class="st4" d="M29.1,78.1l0.1-0.7c0.4-0.2,0.9-0.3,1.6-0.2c0.6,0.1,1,0.3,1.3,0.7c0.3,0.3,0.4,0.8,0.3,1.2
		c-0.1,0.4-0.3,0.9-0.7,1.1c-0.4,0.2-0.8,0.3-1.3,0.3c-0.5-0.1-0.9-0.3-1.1-0.7c-0.3-0.4-0.4-0.8-0.2-1.4l2.4,0.3
		c0.1-0.3-0.1-0.5-0.2-0.7c-0.2-0.2-0.4-0.3-0.7-0.3C30,77.8,29.6,77.9,29.1,78.1z M31.3,79.4l-1.5-0.2c0,0.4,0.2,0.7,0.6,0.8
		C30.9,80.1,31.1,79.9,31.3,79.4z"/>
	<path class="st5" d="M23.1,75.9l0.4-0.8l3.4,1.4L25,80.8l-3.3-1.3l0.4-0.8l2.1,0.9l0.4-0.9l-2.1-0.9l0.4-0.8l2.1,1l0.4-1L23.1,75.9
		z"/>
	<path class="st5" d="M20.2,76.9l0.3-0.4c-0.4,0.1-0.9,0.1-1.2-0.1c-0.3-0.2-0.4-0.4-0.5-0.7c-0.1-0.3,0-0.7,0.2-0.9l1.1-1.6
		l0.9,0.6l-1.1,1.6c-0.2,0.3-0.2,0.7,0.1,0.8c0.2,0.1,0.5,0.1,0.9-0.1l1.1-1.7l0.9,0.6L21,77.6L20.2,76.9z"/>
	<path class="st5" d="M16.5,71.3l0.4-0.4c0.5,0.1,0.9,0.2,1.4,0.7c0.4,0.4,0.7,0.8,0.7,1.2c0.1,0.4-0.1,0.9-0.4,1.1
		c-0.4,0.3-0.8,0.5-1.2,0.6c-0.4,0.1-0.9-0.1-1.3-0.4s-0.5-0.7-0.6-1.1c0-0.4,0.2-0.9,0.6-1.2l1.7,1.6c0.2-0.2,0.3-0.4,0.2-0.7
		c-0.1-0.2-0.2-0.4-0.4-0.7C17.4,71.5,17,71.3,16.5,71.3z M17.5,73.5l-1-0.9c-0.3,0.4-0.3,0.7,0.1,1C16.7,73.9,17.1,73.8,17.5,73.5z
		"/>
	<path class="st5" d="M13.5,71.3l0.8-0.6l0,0c-0.7,0.2-1.2,0.1-1.5-0.2c-0.1-0.1-0.2-0.4-0.2-0.7l0.9-0.3c0.1,0.3,0.1,0.4,0.2,0.7
		c0.1,0.2,0.4,0.2,0.7,0.2c0.3-0.1,0.5-0.1,0.6-0.1l1.1-0.9l0.7,0.8l-2.7,2L13.5,71.3z"/>
	<path class="st5" d="M10.4,66.7l0.6-0.3l0.2,0.4c0.1-0.2,0.2-0.3,0.4-0.4s0.5-0.2,0.8-0.1s0.5,0.2,0.8,0.5c0.2,0.3,0.4,0.4,0.4,0.4
		c0.1,0.1,0.1,0.1,0.2,0s0.1-0.1,0.1-0.1c0-0.1-0.1-0.3-0.3-0.7c-0.2-0.4-0.3-0.7-0.2-0.9c0.1-0.2,0.2-0.4,0.4-0.5
		c0.3-0.2,0.7-0.2,0.9-0.1c0.3,0.2,0.7,0.4,0.9,0.9c0.3,0.4,0.4,0.9,0.4,1.1c0,0.3-0.1,0.6-0.4,0.7c-0.4,0.2-0.7,0.1-1.1-0.3
		c0.1,0.2,0,0.4-0.2,0.6c-0.2,0.1-0.4,0.1-0.7-0.2c0.1,0.2,0.1,0.4,0.1,0.7c-0.1,0.2-0.2,0.4-0.4,0.6c-0.3,0.2-0.6,0.2-0.9,0.1
		c-0.4-0.1-0.7-0.3-0.9-0.7L10.4,66.7z M11.9,67.9c0.1,0.1,0.2,0.2,0.4,0.2c0.2,0.1,0.3,0,0.4-0.1c0.1-0.1,0.2-0.2,0.3-0.3
		c0.1-0.2,0.1-0.3-0.1-0.4c-0.1-0.1-0.2-0.2-0.4-0.2c-0.2-0.1-0.3,0-0.5,0.1c-0.1,0.1-0.2,0.2-0.3,0.3
		C11.7,67.7,11.8,67.8,11.9,67.9z M15,66c-0.1-0.2-0.2-0.3-0.4-0.4c-0.1-0.1-0.3-0.1-0.4-0.1c-0.2,0.1-0.2,0.4,0.1,0.9
		c0.1,0.2,0.3,0.3,0.4,0.4c0.1,0.1,0.3,0.1,0.4,0.1C15.3,66.8,15.3,66.5,15,66z"/>
	<path class="st5" d="M8.8,62.9l5.5,0.3l0.4,1l-2.4-0.1l-2.1,2.1l-0.4-1l1.4-1.1l-2-0.1L8.8,62.9z"/>
	<path class="st5" d="M9.4,60.4l0.9-0.2l0.4,1.7l-0.9,0.2L9.4,60.4z"/>
	<path class="st5" d="M9.9,56.5l0.7-0.1c0.3,0.3,0.5,0.8,0.6,1.4c0.1,0.6-0.1,1-0.3,1.4c-0.3,0.3-0.7,0.6-1.1,0.7
		c-0.5,0.1-0.9-0.1-1.3-0.3c-0.4-0.2-0.6-0.7-0.7-1.1c-0.1-0.4,0.1-0.9,0.4-1.2C8.5,57,9,56.7,9.5,56.6l0.3,2.3
		c0.3-0.1,0.5-0.2,0.7-0.4c0.1-0.2,0.2-0.4,0.1-0.8C10.5,57.2,10.3,56.9,9.9,56.5z M9.2,58.8L9,57.4c-0.5,0.1-0.7,0.3-0.7,0.8
		C8.4,58.6,8.7,58.8,9.2,58.8z"/>
	<path class="st5" d="M7.7,54.6v-0.4h0.7v0.4l2.7,0.1v1l-2.7-0.1V56H7.7v-0.4H7.5c-0.4,0-0.8-0.1-1.1-0.4C6.2,55,6,54.6,6,54.2
		c0-0.1,0.1-0.3,0.1-0.7H7c0,0.3,0,0.4,0,0.4C7,54.3,7.2,54.5,7.7,54.6L7.7,54.6z"/>
	<path class="st5" d="M7.8,52.4L7.9,52l0.7,0.1l-0.1,0.4l2.7,0.2l-0.2,1l-2.7-0.2l-0.1,0.4l-0.7-0.1l0.1-0.4l0,0
		c-0.4-0.1-0.8-0.2-1-0.4s-0.3-0.7-0.3-1c0-0.1,0.1-0.3,0.1-0.7l0.9,0.1c-0.1,0.2-0.1,0.3-0.1,0.4c-0.1,0.3,0.1,0.6,0.5,0.7
		L7.8,52.4L7.8,52.4z"/>
	<path class="st5" d="M7,51.1C6.9,51,6.7,51,6.6,50.9c-0.1-0.1-0.1-0.2-0.1-0.4c0.1-0.1,0.1-0.2,0.2-0.3s0.3-0.1,0.4-0.1
		c0.2,0.1,0.3,0.1,0.4,0.3c0.1,0.1,0.1,0.2,0.1,0.4c-0.1,0.1-0.1,0.2-0.2,0.3C7.4,51.1,7.1,51.2,7,51.1z M8.3,50.3l3.2,0.7l-0.2,1
		l-3.2-0.7L8.3,50.3z"/>
	<path class="st5" d="M11.7,47.3l0.7,0.2c0,0.4,0,0.8-0.1,1.1c-0.2,0.5-0.4,0.9-0.9,1.1C11,50,10.5,50,10,49.9s-0.8-0.4-1-0.8
		c-0.2-0.4-0.2-0.9-0.1-1.4C9,47.4,9.2,47,9.4,46.8l0.7,0.2c-0.2,0.2-0.4,0.4-0.4,0.7c-0.1,0.3-0.1,0.5,0.1,0.8
		c0.1,0.2,0.3,0.4,0.6,0.4c0.3,0.1,0.5,0.1,0.8-0.1c0.2-0.1,0.4-0.3,0.4-0.7C11.7,48,11.7,47.8,11.7,47.3z"/>
	<path class="st5" d="M8.7,45.5c-0.1-0.1-0.3-0.2-0.3-0.3s-0.1-0.3,0-0.4s0.2-0.2,0.3-0.3c0.2-0.1,0.3-0.1,0.4,0
		c0.1,0.1,0.2,0.2,0.3,0.3s0.1,0.3,0,0.4s-0.2,0.2-0.3,0.3C9,45.5,8.8,45.5,8.7,45.5z M10.2,44.9l3.1,1.3L12.9,47l-3-1.3L10.2,44.9z
		"/>
	<path class="st5" d="M14.2,42.3l0.6,0.3c0.1,0.4-0.1,0.9-0.4,1.4c-0.3,0.5-0.7,0.8-1.1,0.9c-0.5,0.1-0.9,0.1-1.4-0.2
		c-0.4-0.2-0.7-0.7-0.8-1c-0.1-0.4-0.1-0.9,0.2-1.3c0.3-0.4,0.7-0.7,1.1-0.8c0.4-0.1,0.9,0,1.5,0.3l-1.3,2c0.3,0.1,0.5,0.2,0.8,0.1
		c0.2-0.1,0.4-0.2,0.6-0.5C14.2,43.2,14.2,42.8,14.2,42.3z M12.2,43.7l0.7-1.1c-0.4-0.2-0.8-0.1-1,0.2
		C11.7,43.2,11.8,43.4,12.2,43.7z"/>
	<path class="st5" d="M13.5,39.6l0.4,0.3c-0.1-0.4,0-0.8,0.3-1.1c0.2-0.2,0.5-0.4,0.8-0.4c0.3-0.1,0.7,0.1,0.9,0.3l1.6,1.3L17,40.7
		l-1.6-1.2c-0.4-0.2-0.7-0.3-0.9-0.1s-0.2,0.4-0.1,0.9l1.6,1.3l-0.7,0.7l-2.6-2L13.5,39.6z"/>
	<path class="st5" d="M17.7,35.7l0.4,0.5L17.3,37l0.9,1c0.1,0.1,0.2,0.2,0.4,0.2c0.1,0,0.3-0.1,0.4-0.1c0.2-0.1,0.3-0.3,0.4-0.7
		l0.5,0.6c-0.2,0.3-0.4,0.6-0.6,0.8c-0.3,0.2-0.7,0.4-0.9,0.4c-0.3,0-0.6-0.2-0.9-0.4l-1-1.1L16.1,38l-0.2-0.1v-2l0.1-0.1l0.7,0.7
		L17.7,35.7z"/>
</g>
<ellipse class="st8" cx="34.7" cy="55.3" rx="19.2" ry="18.2"/>
<polygon class="st8" points="34.1,37.7 18.3,63.8 50.1,63.8 "/>
<circle class="st8" cx="34.5" cy="55.6" r="27.8"/>
</svg>
