<?xml version="1.0" encoding="UTF-8" standalone="no"?>
<!DOCTYPE svg PUBLIC "-//W3C//DTD SVG 1.1//EN" "http://www.w3.org/Graphics/SVG/1.1/DTD/svg11.dtd">
<svg xmlns="http://www.w3.org/2000/svg" xmlns:xl="http://www.w3.org/1999/xlink" xmlns:dc="http://purl.org/dc/elements/1.1/" version="1.1" viewBox="0 0 738 150" width="738" height="150">
  <defs/>
  <g id="Canvas_1" stroke-dasharray="none" stroke-opacity="1" stroke="none" fill="none" fill-opacity="1">
    <title>Canvas 1</title>
    <g id="Canvas_1_Layer_1">
      <title>Layer 1</title>
      <g id="Graphic_60">
        <path d="M 601.0631 59.367815 L 598.7387 58.691 L 598.7387 57.013786 L 607.8189 57.013786 C 613.7324 57.013786 615.916 58.90343 615.916 63.36942 C 615.916 67.5464 613.52984 69.7127 608.8564 69.7127 L 605.1833 69.7127 L 605.1833 76.4018 L 607.5373 77.07861 L 607.5373 78.63973 L 598.67945 78.63973 L 598.67945 77.07861 L 601.0631 76.4018 Z M 605.1833 59.29371 L 605.1833 67.64767 L 609.5085 67.32656 C 610.583 66.83253 611.6921 66.18289 611.6921 63.48551 C 611.6921 61.44766 611.5957 59.2863 607.6411 59.2863 Z" fill="white"/>
      </g>
      <g id="Graphic_59">
        <path d="M 649.65295 69.4311 L 646.7234 69.4311 L 646.7234 76.4018 L 649.0749 77.07861 L 649.0749 78.63973 L 640.2146 78.63973 L 640.2146 77.07861 L 642.5983 76.4018 L 642.5983 59.357934 L 640.24424 58.68112 L 640.24424 57.013786 L 649.7246 57.013786 C 655.3441 57.013786 657.382 59.00718 657.382 62.83834 C 657.382 65.80249 656.22595 67.34138 653.5582 68.40106 L 657.5672 76.22642 L 660.15345 77.07861 L 660.15345 78.63973 L 654.13375 78.63973 Z M 646.7234 59.30853 L 646.7234 67.5464 L 651.10044 67.25245 C 652.4911 66.56329 653.1605 65.46161 653.1605 63.19157 C 653.1605 60.81037 652.38985 59.30853 649.9197 59.30853 Z" fill="white"/>
      </g>
      <g id="Graphic_58">
        <path d="M 661.9171 77.07861 L 664.2613 76.43144 L 664.2613 59.367815 L 661.9369 58.691 L 661.9369 57.013786 L 672.4127 57.013786 C 678.32616 57.013786 681.7769 60.578176 681.7769 67.59086 C 681.7769 75.52243 678.1977 78.63973 671.96064 78.63973 L 661.9171 78.63973 Z M 668.42096 59.30853 L 668.42096 76.4018 L 671.516 76.4018 C 673.6428 76.4018 677.306 76.05845 677.306 68.25038 C 677.306 62.10224 676.20185 59.30606 671.516 59.30606 Z" fill="white"/>
      </g>
      <g id="Graphic_57">
        <path d="M 607.83126 89.90597 C 607.83126 92.53418 606.3097 93.5 603.8198 93.5 C 601.3299 93.5 599.8083 92.01793 599.8083 89.90597 L 599.8083 84.63472 L 598.67945 84.28149 L 598.67945 83.29344 L 603.2887 83.29344 L 603.2887 84.28149 L 602.1747 84.63472 L 602.1747 89.90597 C 602.1747 91.26454 602.6959 92.00557 604.17795 92.00557 C 604.9042 92.00557 606.1318 91.77832 606.1318 89.8368 L 606.1318 84.63472 L 605.003 84.28149 L 605.003 83.29344 L 608.9552 83.29344 L 608.9552 84.28149 L 607.8263 84.63472 Z" fill="white"/>
      </g>
      <g id="Graphic_56">
        <path d="M 615.7801 87.1913 L 615.7801 92.02781 L 616.89415 92.36868 L 616.89415 93.35673 L 613.0062 93.35673 L 613.0062 92.36868 L 614.1474 92.02781 L 614.1474 85.1658 L 613.65335 84.55568 L 612.979 84.34572 L 612.979 83.2885 L 615.5257 83.2885 L 620.43384 89.46382 L 620.43384 84.63472 L 619.305 84.29631 L 619.305 83.2885 L 623.193 83.2885 L 623.193 84.29631 L 622.0666 84.63472 L 622.0666 93.36414 L 620.74755 93.36414 Z" fill="white"/>
      </g>
      <g id="Graphic_55">
        <path d="M 631.5963 92.02781 L 632.7252 92.36868 L 632.7252 93.35673 L 628.1011 93.35673 L 628.1011 92.36868 L 629.22996 92.02781 L 629.22996 84.61743 L 628.1011 84.27655 L 628.1011 83.2885 L 632.7252 83.2885 L 632.7252 84.27655 L 631.5963 84.61743 Z" fill="white"/>
      </g>
      <g id="Graphic_54">
        <path d="M 693.8509 92.02781 L 694.9797 92.36868 L 694.9797 93.35673 L 690.3581 93.35673 L 690.3581 92.36868 L 691.4845 92.02781 L 691.4845 84.61743 L 690.3581 84.27655 L 690.3581 83.2885 L 694.9797 83.2885 L 694.9797 84.27655 L 693.8509 84.61743 Z" fill="white"/>
      </g>
      <g id="Graphic_53">
        <path d="M 643.30226 93.35179 L 641.12855 93.35179 L 637.9322 84.63472 L 636.80336 84.28149 L 636.80336 83.29344 L 641.672 83.29344 L 641.672 84.28149 L 640.5283 84.63472 L 642.65014 90.83474 L 644.8115 84.63472 L 643.68266 84.28149 L 643.68266 83.29344 L 647.63486 83.29344 L 647.63486 84.28149 L 646.506 84.63472 Z" fill="white"/>
      </g>
      <g id="Graphic_52">
        <path d="M 652.45654 84.63472 L 651.3277 84.29631 L 651.3277 83.2885 L 659.2321 83.2885 L 659.321 86.38851 L 658.0588 86.38851 L 657.4462 84.61496 L 654.8229 84.61496 L 654.8229 87.45066 L 657.43384 87.45066 L 657.43384 88.8784 L 654.8229 88.8784 L 654.8229 92.0698 L 657.5005 92.0698 L 658.3033 90.30613 L 659.5384 90.30613 L 659.3605 93.36167 L 651.3277 93.36167 L 651.3277 92.37362 L 652.45654 92.09203 Z" fill="white"/>
      </g>
      <g id="Graphic_51">
        <path d="M 668.9792 89.24397 L 668.1221 89.24397 L 668.1221 92.02781 L 669.2509 92.36868 L 669.2509 93.35673 L 664.6293 93.35673 L 664.6293 92.36868 L 665.7582 92.02781 L 665.7582 84.63472 L 664.6293 84.29631 L 664.6293 83.2885 L 669.22375 83.2885 C 672.0397 83.2885 672.9092 84.37783 672.9092 86.07727 C 672.9092 87.1913 672.6622 88.20652 671.2814 88.71043 L 672.9067 91.99075 L 674.3196 92.4255 L 674.3196 93.35179 L 670.91084 93.35179 Z M 668.1221 84.63472 L 668.1221 88.15712 L 669.7128 88.02126 C 670.24304 87.59782 670.5372 86.94518 670.5033 86.26747 C 670.5033 85.25966 670.2365 84.63472 669.204 84.63472 Z" fill="white"/>
      </g>
      <g id="Graphic_50">
        <path d="M 678.4052 90.22461 L 679.8033 90.22461 L 680.1022 91.63753 C 680.7429 92.02448 681.478 92.22706 682.2265 92.22295 C 682.3354 92.22541 682.4443 92.22046 682.5525 92.20812 C 682.9405 91.92617 683.17226 91.47733 683.1775 90.99776 C 683.1775 88.6462 678.3632 89.69354 678.3632 86.25265 C 678.3632 84.67671 679.8058 83.16747 682.1993 83.16747 C 683.1506 83.18795 684.0848 83.42446 684.9313 83.8591 L 684.9313 86.51202 L 683.6122 86.51202 L 683.1355 84.82492 C 682.61626 84.61853 682.0639 84.50805 681.5052 84.49887 C 681.4144 84.49634 681.3235 84.5013 681.2335 84.51369 C 680.8199 84.76463 680.5671 85.2131 680.5666 85.69688 C 680.5666 87.70756 685.33884 86.98628 685.33884 90.36047 C 685.33884 92.18095 683.6937 93.48765 681.478 93.48765 C 680.3919 93.48116 679.3302 93.16496 678.41755 92.57617 Z" fill="white"/>
      </g>
      <g id="Graphic_49">
        <path d="M 702.9632 84.65942 L 701.65896 84.65942 L 701.0661 86.44285 L 699.8039 86.44285 L 699.8039 83.2885 L 708.5728 83.2885 L 708.5728 86.44285 L 707.3378 86.44285 L 706.7474 84.65942 L 705.332 84.65942 L 705.332 92.03769 L 706.4609 92.37856 L 706.4609 93.36661 L 701.8368 93.36661 L 701.8368 92.37856 L 702.9632 92.03769 Z" fill="white"/>
      </g>
      <g id="Graphic_48">
        <path d="M 716.455 89.47617 L 713.8169 84.63472 L 712.6881 84.28149 L 712.6881 83.29344 L 717.5567 83.29344 L 717.5567 84.28149 L 716.4155 84.63472 L 718.0729 87.91258 L 719.7452 84.63472 L 718.6164 84.28149 L 718.6164 83.29344 L 722.5883 83.29344 L 722.5883 84.28149 L 721.4595 84.63472 L 718.8066 89.449 L 718.8066 92.02781 L 719.9354 92.36868 L 719.9354 93.35673 L 715.3138 93.35673 L 715.3138 92.36868 L 716.455 92.02781 Z" fill="white"/>
      </g>
      <g id="Graphic_47">
        <path d="M 720.711 72.37302 L 719.17955 76.40427 L 712.4089 76.40427 L 712.4089 68.62337 L 716.24504 68.62337 L 716.7391 70.80202 L 718.44345 70.80202 L 718.44345 64.24878 L 716.7391 64.24878 L 716.24504 66.35086 L 712.4089 66.35086 L 712.4089 59.30853 L 718.8856 59.30853 L 720.1207 63.48551 L 722.4525 63.48551 L 722.3067 57.013786 L 705.9347 57.013786 L 705.9347 58.691 L 708.2591 59.367815 L 708.2591 76.43144 L 705.9051 77.07861 L 705.9051 78.63973 L 722.62785 78.63973 L 723.0107 72.37302 Z" fill="white"/>
      </g>
      <g id="Graphic_46">
        <path d="M 636.03515 71.20218 C 636.03515 76.68833 633.4168 78.96332 628.0468 78.96332 C 623.1065 78.96332 619.5298 76.98722 619.5298 71.77525 L 619.5298 59.367815 L 617.17575 58.691 L 617.17575 57.013786 L 626.004 57.013786 L 626.004 58.691 L 623.64994 59.367815 L 623.64994 71.77525 C 623.64994 74.89502 625.09 76.26347 628.5334 76.26347 C 630.90964 76.26347 633.0932 74.87279 633.0932 71.48872 L 633.0932 59.367815 L 630.76884 58.691 L 630.76884 57.013786 L 638.3892 57.013786 L 638.3892 58.691 L 636.03515 59.367815 Z" fill="white"/>
      </g>
      <g id="Graphic_45">
        <path d="M 701.72565 71.20218 C 701.72565 76.68833 699.1073 78.96332 693.7397 78.96332 C 688.7995 78.96332 685.2203 76.98722 685.2203 71.77525 L 685.2203 59.367815 L 682.86625 58.691 L 682.86625 57.013786 L 691.6945 57.013786 L 691.6945 58.691 L 689.34044 59.367815 L 689.34044 71.77525 C 689.34044 74.89502 690.783 76.26347 694.2239 76.26347 C 696.6001 76.26347 698.7837 74.87279 698.7837 71.48872 L 698.7837 59.367815 L 696.45934 58.691 L 696.45934 57.013786 L 704.0797 57.013786 L 704.0797 58.691 L 701.72565 59.367815 Z" fill="white"/>
      </g> 
      <g id="Graphic_44">
        <path d="M 557.05785 93.37155 L 561.719 82.43631 L 569.4332 82.43631 C 580.59814 82.43631 584.8344 77.85176 587.764 70.96752 C 588.84835 68.42082 590.6639 64.15492 588.258 60.5263 C 585.8521 56.89769 580.818 56.5 577.21654 56.5 L 536.21246 56.5 L 530.4299 70.08569 L 537.8526 70.08569 L 533.7226 79.7834 L 526.28503 79.7834 L 520.5 93.37155 Z" fill="#cfb991"/>
      </g>
      <g id="Graphic_43">
        <path d="M 586.1658 61.91451 C 584.8616 59.938414 582.016 59.01953 577.21654 59.01953 L 537.8798 59.01953 L 534.2438 67.56122 L 541.65415 67.56122 L 535.38744 82.30292 L 527.9499 82.30292 L 524.3114 90.8545 L 555.3979 90.8545 L 559.03395 82.30292 L 551.4976 82.30292 L 552.5153 79.91431 L 569.4332 79.91431 C 580.31654 79.91431 583.21894 75.22108 585.447 69.98194 C 586.645 67.16106 587.6874 64.21667 586.1658 61.91451 Z M 557.7742 67.56122 L 570.1989 67.56122 C 571.9132 67.56122 571.6662 68.42082 571.434 68.95437 C 570.79915 70.436444 569.2726 71.37015 567.4546 71.37015 L 556.1538 71.37015 Z" fill="#9d9795"/>
      </g>
      <g id="Graphic_42">
        <path d="M 577.21654 60.331164 L 538.74434 60.331164 L 536.22234 66.25946 L 543.6451 66.25946 L 536.25446 83.61209 L 528.8169 83.61209 L 526.29244 89.54039 L 554.5334 89.54039 L 557.05785 83.61209 L 549.51656 83.61209 L 551.65074 78.60268 L 569.43564 78.60268 C 579.62985 78.60268 582.19384 74.2849 584.2564 69.463215 C 586.31895 64.64153 587.42556 60.32375 577.23136 60.32375 M 567.47683 72.67438 L 554.18756 72.67438 L 556.92446 66.25205 L 570.2137 66.25205 C 572.5653 66.25205 573.5138 67.45994 572.6616 69.463215 C 571.8094 71.46649 569.83086 72.67438 567.47436 72.67438" fill="black"/>
      </g>
      <g id="Graphic_41">
        <path d="M 725.32275 93.32215 C 724.4493 93.32215 723.662 92.79589 723.328 91.98886 C 722.99395 91.18184 723.1791 90.25307 723.7971 89.63582 C 724.415 89.01858 725.344 88.83448 726.1506 89.16942 C 726.9573 89.50435 727.4826 90.29232 727.4816 91.16573 C 727.4803 92.35709 726.5141 93.32215 725.32275 93.32215 Z M 725.32275 89.45641 C 724.379 89.45777 723.615 90.22366 723.6159 91.16738 C 723.6168 92.11109 724.3823 92.87551 725.32604 92.87506 C 726.2698 92.8746 727.03455 92.10945 727.03455 91.16573 C 727.0332 90.2213 726.2672 89.4564 725.32275 89.45641 Z" fill="white"/>
      </g>
      <g id="Graphic_40">
        <path d="M 725.051 91.36087 L 725.051 92.16366 L 724.6262 92.16366 L 724.6262 90.16286 L 725.5055 90.16286 C 725.94275 90.16286 726.1774 90.40987 726.1774 90.71123 C 726.18705 90.91422 726.0714 91.1024 725.8859 91.18549 C 725.98475 91.22254 726.13295 91.32382 726.13295 91.67952 L 726.13295 91.77832 C 726.127 91.90575 726.1361 92.03344 726.1601 92.15872 L 725.7476 92.15872 C 725.7109 92.01188 725.69756 91.86016 725.7081 91.70916 L 725.7081 91.67952 C 725.7081 91.46215 725.65375 91.35593 725.3302 91.35593 Z M 725.051 91.01752 L 725.41415 91.01752 C 725.6488 91.01752 725.7427 90.92613 725.7427 90.77051 C 725.7427 90.61489 725.634 90.5235 725.4216 90.5235 L 725.051 90.5235 Z" fill="white"/>
      </g> 
    </g>
  </g>
</svg>
