<?xml version="1.0" encoding="UTF-8" standalone="no"?>
<!DOCTYPE svg PUBLIC "-//W3C//DTD SVG 1.1//EN" "http://www.w3.org/Graphics/SVG/1.1/DTD/svg11.dtd">
<svg xmlns="http://www.w3.org/2000/svg" xmlns:xl="http://www.w3.org/1999/xlink" xmlns:dc="http://purl.org/dc/elements/1.1/" version="1.1" viewBox="0 0 738 200" width="738" height="200">
  <defs/>
  <g id="Canvas_1" stroke-dasharray="none" stroke-opacity="1" stroke="none" fill="none" fill-opacity="1">
    <title>Canvas 1</title>
    <g id="Canvas_1_Layer_1">
      <title>Layer 1</title>
      <g id="Graphic_60">
        <path d="M 633.1119 55.01522 L 631.4786 54.53962 L 631.4786 53.36104 L 637.8592 53.36104 C 642.01465 53.36104 643.5491 54.6889 643.5491 57.82716 C 643.5491 60.762334 641.8723 62.2846 638.58826 62.2846 L 636.0072 62.2846 L 636.0072 66.985046 L 637.66136 67.460645 L 637.66136 68.55765 L 631.4369 68.55765 L 631.4369 67.460645 L 633.1119 66.985046 Z M 636.0072 54.96315 L 636.0072 60.8335 L 639.0465 60.60785 C 639.80156 60.2607 640.5809 59.80419 640.5809 57.90874 C 640.5809 56.476734 640.5132 54.95794 637.73426 54.95794 Z" fill="white"/>
      </g>
      <g id="Graphic_59">
        <path d="M 667.2561 62.08672 L 665.1975 62.08672 L 665.1975 66.985046 L 666.84996 67.460645 L 666.84996 68.55765 L 660.6238 68.55765 L 660.6238 67.460645 L 662.2988 66.985046 L 662.2988 55.00828 L 660.6446 54.53268 L 660.6446 53.36104 L 667.3065 53.36104 C 671.2553 53.36104 672.6873 54.7618 672.6873 57.45397 C 672.6873 59.536885 671.875 60.618266 670.0004 61.36291 L 672.8175 66.86181 L 674.63486 67.460645 L 674.63486 68.55765 L 670.4048 68.55765 Z M 665.1975 54.97356 L 665.1975 60.762334 L 668.2733 60.55578 C 669.2505 60.0715 669.7209 59.29735 669.7209 57.70218 C 669.7209 56.02891 669.17935 54.97356 667.4436 54.97356 Z" fill="white"/>
      </g>
      <g id="Graphic_58">
        <path d="M 675.8742 67.460645 L 677.5214 67.005875 L 677.5214 55.01522 L 675.8881 54.53962 L 675.8881 53.36104 L 683.24945 53.36104 C 687.4049 53.36104 689.8297 55.865745 689.8297 60.79358 C 689.8297 66.367114 687.3146 68.55765 682.9318 68.55765 L 675.8742 68.55765 Z M 680.44446 54.97356 L 680.44446 66.985046 L 682.6194 66.985046 C 684.1139 66.985046 686.688 66.743775 686.688 61.25703 C 686.688 56.93671 685.9121 54.97183 682.6194 54.97183 Z" fill="white"/>
      </g>
      <g id="Graphic_57">
        <path d="M 637.8679 76.47446 C 637.8679 78.32132 636.7987 79 635.049 79 C 633.2994 79 632.23016 77.95854 632.23016 76.47446 L 632.23016 72.770345 L 631.4369 72.52213 L 631.4369 71.827826 L 634.67585 71.827826 L 634.67585 72.52213 L 633.893 72.770345 L 633.893 76.47446 C 633.893 77.42913 634.2593 77.94986 635.3007 77.94986 C 635.811 77.94986 636.6737 77.79017 636.6737 76.42586 L 636.6737 72.770345 L 635.8805 72.52213 L 635.8805 71.827826 L 638.6577 71.827826 L 638.6577 72.52213 L 637.86444 72.770345 Z" fill="white"/>
      </g>
      <g id="Graphic_56">
        <path d="M 643.4536 74.56686 L 643.4536 77.965485 L 644.2364 78.20502 L 644.2364 78.89933 L 641.50434 78.89933 L 641.50434 78.20502 L 642.3063 77.965485 L 642.3063 73.14353 L 641.9591 72.7148 L 641.48525 72.56726 L 641.48525 71.82435 L 643.2748 71.82435 L 646.7238 76.16376 L 646.7238 72.770345 L 645.9305 72.532546 L 645.9305 71.82435 L 648.6626 71.82435 L 648.6626 72.532546 L 647.8711 72.770345 L 647.8711 78.90453 L 646.9442 78.90453 Z" fill="white"/>
      </g>
      <g id="Graphic_55">
        <path d="M 654.5677 77.965485 L 655.3609 78.20502 L 655.3609 78.89933 L 652.1116 78.89933 L 652.1116 78.20502 L 652.9048 77.965485 L 652.9048 72.758195 L 652.1116 72.51866 L 652.1116 71.82435 L 655.3609 71.82435 L 655.3609 72.51866 L 654.5677 72.758195 Z" fill="white"/>
      </g>
      <g id="Graphic_54">
        <path d="M 698.3141 77.965485 L 699.1074 78.20502 L 699.1074 78.89933 L 695.8598 78.89933 L 695.8598 78.20502 L 696.6513 77.965485 L 696.6513 72.758195 L 695.8598 72.51866 L 695.8598 71.82435 L 699.1074 71.82435 L 699.1074 72.51866 L 698.3141 72.758195 Z" fill="white"/>
      </g>
      <g id="Graphic_53">
        <path d="M 662.7935 78.89585 L 661.266 78.89585 L 659.0199 72.770345 L 658.2267 72.52213 L 658.2267 71.827826 L 661.6479 71.827826 L 661.6479 72.52213 L 660.8442 72.770345 L 662.3352 77.12711 L 663.854 72.770345 L 663.0608 72.52213 L 663.0608 71.827826 L 665.838 71.827826 L 665.838 72.52213 L 665.0448 72.770345 Z" fill="white"/>
      </g>
      <g id="Graphic_52">
        <path d="M 669.2262 72.770345 L 668.433 72.532546 L 668.433 71.82435 L 673.9874 71.82435 L 674.0499 74.00274 L 673.1629 74.00274 L 672.73246 72.75646 L 670.8891 72.75646 L 670.8891 74.749115 L 672.7238 74.749115 L 672.7238 75.75239 L 670.8891 75.75239 L 670.8891 77.99499 L 672.77065 77.99499 L 673.3348 76.75566 L 674.20265 76.75566 L 674.0777 78.9028 L 668.433 78.9028 L 668.433 78.20849 L 669.2262 78.010615 Z" fill="white"/>
      </g>
      <g id="Graphic_51">
        <path d="M 680.8367 76.00928 L 680.2344 76.00928 L 680.2344 77.965485 L 681.0277 78.20502 L 681.0277 78.89933 L 677.78006 78.89933 L 677.78006 78.20502 L 678.5733 77.965485 L 678.5733 72.770345 L 677.78006 72.532546 L 677.78006 71.82435 L 681.0086 71.82435 C 682.98735 71.82435 683.5983 72.58983 683.5983 73.78403 C 683.5983 74.56686 683.4248 75.28026 682.4545 75.634355 L 683.5966 77.93945 L 684.58946 78.24494 L 684.58946 78.89585 L 682.1941 78.89585 Z M 680.2344 72.770345 L 680.2344 75.24554 L 681.3523 75.15008 C 681.72484 74.85252 681.93154 74.39391 681.9077 73.917685 C 681.9077 73.20949 681.72024 72.770345 680.9947 72.770345 Z" fill="white"/>
      </g>
      <g id="Graphic_50">
        <path d="M 687.4604 76.69838 L 688.44285 76.69838 L 688.6529 77.69123 C 689.1031 77.96315 689.6197 78.1055 690.1456 78.10261 C 690.22216 78.10434 690.2987 78.10086 690.37476 78.0922 C 690.6474 77.89407 690.8102 77.57867 690.8139 77.24167 C 690.8139 75.589225 687.4309 76.32519 687.4309 73.90727 C 687.4309 72.79985 688.4446 71.7393 690.12654 71.7393 C 690.795 71.753695 691.4515 71.91989 692.0463 72.225315 L 692.0463 74.089525 L 691.1194 74.089525 L 690.7844 72.904 C 690.4195 72.758965 690.0314 72.681334 689.6388 72.67488 C 689.575 72.6731 689.5111 72.67659 689.4479 72.68529 C 689.1572 72.86163 688.9796 73.17677 688.9792 73.51672 C 688.9792 74.929635 692.3327 74.42279 692.3327 76.793845 C 692.3327 78.0731 691.1767 78.99132 689.6197 78.99132 C 688.8565 78.98676 688.1104 78.76457 687.4691 78.35082 Z" fill="white"/>
      </g>
      <g id="Graphic_49">
        <path d="M 704.7174 72.7877 L 703.8009 72.7877 L 703.3843 74.04092 L 702.4973 74.04092 L 702.4973 71.82435 L 708.6593 71.82435 L 708.6593 74.04092 L 707.7914 74.04092 L 707.3766 72.7877 L 706.382 72.7877 L 706.382 77.97243 L 707.1752 78.21196 L 707.1752 78.90627 L 703.9259 78.90627 L 703.9259 78.21196 L 704.7174 77.97243 Z" fill="white"/>
      </g>
      <g id="Graphic_48">
        <path d="M 714.1981 76.17244 L 712.3443 72.770345 L 711.5511 72.52213 L 711.5511 71.827826 L 714.9723 71.827826 L 714.9723 72.52213 L 714.1703 72.770345 L 715.335 75.0737 L 716.51015 72.770345 L 715.7169 72.52213 L 715.7169 71.827826 L 718.508 71.827826 L 718.508 72.52213 L 717.7148 72.770345 L 715.8506 76.15335 L 715.8506 77.965485 L 716.6438 78.20502 L 716.6438 78.89933 L 713.3962 78.89933 L 713.3962 78.20502 L 714.1981 77.965485 Z" fill="white"/>
      </g>
      <g id="Graphic_47">
        <path d="M 717.1888 64.154016 L 716.1127 66.98678 L 711.3549 66.98678 L 711.3549 61.51913 L 714.0506 61.51913 L 714.3977 63.05007 L 715.5954 63.05007 L 715.5954 58.44509 L 714.3977 58.44509 L 714.0506 59.922224 L 711.3549 59.922224 L 711.3549 54.97356 L 715.9061 54.97356 L 716.774 57.90874 L 718.41254 57.90874 L 718.3101 53.36104 L 706.8055 53.36104 L 706.8055 54.53962 L 708.43885 55.01522 L 708.43885 67.005875 L 706.7847 67.460645 L 706.7847 68.55765 L 718.5358 68.55765 L 718.8048 64.154016 Z" fill="white"/>
      </g>
      <g id="Graphic_46">
        <path d="M 657.6869 63.33126 C 657.6869 67.186394 655.84695 68.78503 652.0734 68.78503 C 648.6019 68.78503 646.0885 67.39642 646.0885 63.73396 L 646.0885 55.01522 L 644.4343 54.53962 L 644.4343 53.36104 L 650.6379 53.36104 L 650.6379 54.53962 L 648.98374 55.01522 L 648.98374 63.73396 C 648.98374 65.92623 649.9957 66.88784 652.41535 66.88784 C 654.08515 66.88784 655.6196 65.91061 655.6196 63.53261 L 655.6196 55.01522 L 653.9862 54.53962 L 653.9862 53.36104 L 659.34104 53.36104 L 659.34104 54.53962 L 657.6869 55.01522 Z" fill="white"/>
      </g>
      <g id="Graphic_45">
        <path d="M 703.84775 63.33126 C 703.84775 67.186394 702.00784 68.78503 698.236 68.78503 C 694.7645 68.78503 692.2494 67.39642 692.2494 63.73396 L 692.2494 55.01522 L 690.5952 54.53962 L 690.5952 53.36104 L 696.7988 53.36104 L 696.7988 54.53962 L 695.1446 55.01522 L 695.1446 63.73396 C 695.1446 65.92623 696.1583 66.88784 698.5762 66.88784 C 700.24604 66.88784 701.7805 65.91061 701.7805 63.53261 L 701.7805 55.01522 L 700.1471 54.53962 L 700.1471 53.36104 L 705.5019 53.36104 L 705.5019 54.53962 L 703.84775 55.01522 Z" fill="white"/>
      </g>
      <g id="Graphic_44">
        <path d="M 602.1893 78.90974 L 605.4647 71.225516 L 610.8855 71.225516 C 618.7311 71.225516 621.70796 68.00394 623.7666 63.16637 C 624.5286 61.376794 625.80436 58.37913 624.1137 55.829294 C 622.4231 53.27946 618.8856 53 616.3549 53 L 587.5412 53 L 583.4778 62.5467 L 588.69374 62.5467 L 585.79154 69.361306 L 580.56516 69.361306 L 576.5 78.90974 Z" fill="#cfb991"/>
      </g>
      <g id="Graphic_43">
        <path d="M 622.6435 56.80479 C 621.72705 55.41618 619.72745 54.77048 616.3549 54.77048 L 588.7128 54.77048 L 586.1578 60.77275 L 591.3651 60.77275 L 586.96145 71.131784 L 581.73506 71.131784 L 579.1783 77.141 L 601.0229 77.141 L 603.5779 71.131784 L 598.2821 71.131784 L 598.9972 69.4533 L 610.8855 69.4533 C 618.53325 69.4533 620.5728 66.15535 622.1384 62.4738 C 622.9803 60.491555 623.7128 58.422525 622.6435 56.80479 Z M 602.6927 60.77275 L 611.42356 60.77275 C 612.6282 60.77275 612.4546 61.376794 612.29144 61.75172 C 611.84535 62.79318 610.77265 63.449296 609.4951 63.449296 L 601.554 63.449296 Z" fill="#9d9795"/>
      </g>
      <g id="Graphic_42">
        <path d="M 616.3549 55.69217 L 589.32035 55.69217 L 587.5481 59.858 L 592.7641 59.858 L 587.5707 72.05174 L 582.3443 72.05174 L 580.57037 76.21757 L 600.41535 76.21757 L 602.1893 72.05174 L 596.89 72.05174 L 598.3897 68.53161 L 610.8872 68.53161 C 618.0507 68.53161 619.8524 65.4975 621.3018 62.10929 C 622.75115 58.721076 623.5288 55.68696 616.3653 55.68696 M 609.51075 64.36578 L 600.17234 64.36578 L 602.0956 59.852794 L 611.434 59.852794 C 613.0864 59.852794 613.75295 60.70158 613.1541 62.10929 C 612.5553 63.51699 611.1649 64.36578 609.509 64.36578" fill="black"/>
      </g>
      <g id="Graphic_41">
        <path d="M 720.4295 78.875025 C 719.81575 78.87502 719.2625 78.50522 719.0278 77.93812 C 718.79305 77.37102 718.9232 76.71837 719.3574 76.28463 C 719.7916 75.85089 720.4444 75.72153 721.0113 75.95689 C 721.5781 76.19225 721.9473 76.74595 721.9466 77.3597 C 721.9456 78.19687 721.2667 78.87503 720.4295 78.875025 Z M 720.4295 76.158555 C 719.76635 76.15951 719.22945 76.69771 719.2301 77.36086 C 719.2307 78.02401 719.7687 78.56117 720.4318 78.56085 C 721.095 78.56053 721.6324 78.02285 721.6324 77.3597 C 721.6314 76.69605 721.0932 76.158555 720.4295 76.158555 Z" fill="white"/>
      </g>
      <g id="Graphic_40">
        <path d="M 720.2386 77.49683 L 720.2386 78.06095 L 719.94 78.06095 L 719.94 76.65498 L 720.55795 76.65498 C 720.8652 76.65498 721.0301 76.82856 721.0301 77.04032 C 721.03685 77.182965 720.9556 77.3152 720.82526 77.37359 C 720.8947 77.39963 720.9988 77.47079 720.9988 77.72074 L 720.9988 77.79017 C 720.9946 77.87972 721.00104 77.96944 721.0179 78.05748 L 720.72805 78.05748 C 720.70225 77.95429 720.6929 77.84768 720.7003 77.74157 L 720.7003 77.72074 C 720.7003 77.567995 720.6621 77.49336 720.4347 77.49336 Z M 720.2386 77.25556 L 720.4937 77.25556 C 720.6586 77.25556 720.7246 77.19133 720.7246 77.08198 C 720.7246 76.97263 720.6482 76.908405 720.4989 76.908405 L 720.2386 76.908405 Z" fill="white"/>
      </g>
    </g>
  </g>
</svg>
