<?xml version="1.0" encoding="UTF-8" standalone="no"?>
<!DOCTYPE svg PUBLIC "-//W3C//DTD SVG 1.1//EN" "http://www.w3.org/Graphics/SVG/1.1/DTD/svg11.dtd">
<svg xmlns="http://www.w3.org/2000/svg" xmlns:xl="http://www.w3.org/1999/xlink" xmlns:dc="http://purl.org/dc/elements/1.1/" version="1.1" viewBox="0 0 738 200" width="738" height="200">
  <defs/>
  <g id="Canvas_1" stroke-dasharray="none" stroke-opacity="1" stroke="none" fill="none" fill-opacity="1">
    <title>Canvas 1</title>
    <g id="Canvas_1_Layer_1">
      <title>Layer 1</title>
      <!-- <g id="Graphic_60">
        <path d="M 664.5476 71.55017 L 663.2912 71.184325 L 663.2912 70.27772 L 668.1994 70.27772 C 671.3959 70.27772 672.5762 71.29915 672.5762 73.7132 C 672.5762 75.97103 671.2864 77.142 668.7602 77.142 L 666.77475 77.142 L 666.77475 80.75773 L 668.0472 81.12357 L 668.0472 81.96742 L 663.2592 81.96742 L 663.2592 81.12357 L 664.5476 80.75773 Z M 666.77475 71.51011 L 666.77475 76.02577 L 669.1127 75.85219 C 669.6935 75.58515 670.293 75.23399 670.293 73.77595 C 670.293 72.67441 670.2409 71.50611 668.1033 71.50611 Z" fill="white"/>
      </g>
      <g id="Graphic_59">
        <path d="M 690.8124 76.98979 L 689.22885 76.98979 L 689.22885 80.75773 L 690.5 81.12357 L 690.5 81.96742 L 685.7106 81.96742 L 685.7106 81.12357 L 686.9991 80.75773 L 686.9991 71.54483 L 685.7266 71.17898 L 685.7266 70.27772 L 690.8511 70.27772 C 693.8887 70.27772 694.99025 71.35523 694.99025 73.42613 C 694.99025 75.02837 694.3654 75.8602 692.9234 76.43301 L 695.0904 80.66293 L 696.48835 81.12357 L 696.48835 81.96742 L 693.2345 81.96742 Z M 689.22885 71.518125 L 689.22885 75.97103 L 691.5948 75.81214 C 692.34655 75.439615 692.7084 74.844115 692.7084 73.61706 C 692.7084 72.32993 692.2918 71.518125 690.9566 71.518125 Z" fill="white"/>
      </g>
      <g id="Graphic_58">
        <path d="M 697.4417 81.12357 L 698.7088 80.77375 L 698.7088 71.55017 L 697.4524 71.184325 L 697.4524 70.27772 L 703.115 70.27772 C 706.3114 70.27772 708.1767 72.20442 708.1767 75.99506 C 708.1767 80.2824 706.242 81.96742 702.8706 81.96742 L 697.4417 81.96742 Z M 700.9573 71.518125 L 700.9573 80.75773 L 702.6303 80.75773 C 703.7799 80.75773 705.76 80.57213 705.76 76.35156 C 705.76 73.02824 705.1632 71.51679 702.6303 71.51679 Z" fill="white"/>
      </g>
      <g id="Graphic_57">
        <path d="M 668.2061 88.05728 C 668.2061 89.47794 667.3836 90 666.0377 90 C 664.6918 90 663.86935 89.19888 663.86935 88.05728 L 663.86935 85.20796 L 663.2592 85.01702 L 663.2592 84.48294 L 665.75065 84.48294 L 665.75065 85.01702 L 665.1485 85.20796 L 665.1485 88.05728 C 665.1485 88.79164 665.4302 89.1922 666.2313 89.1922 C 666.6239 89.1922 667.2875 89.06936 667.2875 88.01989 L 667.2875 85.20796 L 666.6773 85.01702 L 666.6773 84.48294 L 668.8136 84.48294 L 668.8136 85.01702 L 668.2034 85.20796 Z" fill="white"/>
      </g>
      <g id="Graphic_56">
        <path d="M 672.5028 86.58989 L 672.5028 89.20422 L 673.10495 89.38848 L 673.10495 89.92256 L 671.0033 89.92256 L 671.0033 89.38848 L 671.6202 89.20422 L 671.6202 85.49503 L 671.3532 85.16523 L 670.98865 85.05174 L 670.98865 84.48027 L 672.36524 84.48027 L 675.0183 87.81828 L 675.0183 85.20796 L 674.4081 85.02504 L 674.4081 84.48027 L 676.5097 84.48027 L 676.5097 85.02504 L 675.9009 85.20796 L 675.9009 89.92656 L 675.1879 89.92656 Z" fill="white"/>
      </g>
      <g id="Graphic_55">
        <path d="M 681.0521 89.20422 L 681.6623 89.38848 L 681.6623 89.92256 L 679.1628 89.92256 L 679.1628 89.38848 L 679.77295 89.20422 L 679.77295 85.19861 L 679.1628 85.01435 L 679.1628 84.48027 L 681.6623 84.48027 L 681.6623 85.01435 L 681.0521 85.19861 Z" fill="white"/>
      </g>
      <g id="Graphic_54">
        <path d="M 714.7032 89.20422 L 715.3134 89.38848 L 715.3134 89.92256 L 712.8152 89.92256 L 712.8152 89.38848 L 713.4241 89.20422 L 713.4241 85.19861 L 712.8152 85.01435 L 712.8152 84.48027 L 715.3134 84.48027 L 715.3134 85.01435 L 714.7032 85.19861 Z" fill="white"/>
      </g>
      <g id="Graphic_53">
        <path d="M 687.3796 89.91989 L 686.2046 89.91989 L 684.4769 85.20796 L 683.8667 85.01702 L 683.8667 84.48294 L 686.4984 84.48294 L 686.4984 85.01702 L 685.8802 85.20796 L 687.0271 88.55932 L 688.1954 85.20796 L 687.5852 85.01702 L 687.5852 84.48294 L 689.72154 84.48294 L 689.72154 85.01702 L 689.11136 85.20796 Z" fill="white"/>
      </g>
      <g id="Graphic_52">
        <path d="M 692.3279 85.20796 L 691.7177 85.02504 L 691.7177 84.48027 L 695.9903 84.48027 L 696.0384 86.15595 L 695.3561 86.15595 L 695.025 85.19728 L 693.607 85.19728 L 693.607 86.73009 L 695.0183 86.73009 L 695.0183 87.50184 L 693.607 87.50184 L 693.607 89.22692 L 695.05434 89.22692 L 695.4883 88.27358 L 696.1559 88.27358 L 696.05975 89.92523 L 691.7177 89.92523 L 691.7177 89.39115 L 692.3279 89.23893 Z" fill="white"/>
      </g>
      <g id="Graphic_51">
        <path d="M 701.259 87.69945 L 700.7957 87.69945 L 700.7957 89.20422 L 701.4059 89.38848 L 701.4059 89.92256 L 698.9077 89.92256 L 698.9077 89.38848 L 699.5179 89.20422 L 699.5179 85.20796 L 698.9077 85.02504 L 698.9077 84.48027 L 701.3912 84.48027 C 702.91335 84.48027 703.3833 85.0691 703.3833 85.98772 C 703.3833 86.58989 703.2498 87.13866 702.5034 87.41104 L 703.382 89.18419 L 704.1457 89.41919 L 704.1457 89.91989 L 702.30316 89.91989 Z M 700.7957 85.20796 L 700.7957 87.11196 L 701.6556 87.03852 C 701.9422 86.80963 702.1012 86.45685 702.08285 86.09053 C 702.08285 85.54576 701.93865 85.20796 701.3805 85.20796 Z" fill="white"/>
      </g>
      <g id="Graphic_50">
        <path d="M 706.3542 88.22952 L 707.1099 88.22952 L 707.27145 88.99326 C 707.6178 89.20242 708.0151 89.31193 708.4197 89.3097 C 708.4786 89.31103 708.5375 89.30835 708.596 89.30169 C 708.8057 89.14928 708.93095 88.90667 708.9338 88.64744 C 708.9338 87.37633 706.3315 87.94245 706.3315 86.08252 C 706.3315 85.23066 707.1112 84.41485 708.405 84.41485 C 708.91925 84.42592 709.4242 84.55376 709.8818 84.7887 L 709.8818 86.22271 L 709.1688 86.22271 L 708.9111 85.31077 C 708.6304 85.1992 708.3318 85.13949 708.0298 85.13452 C 707.98075 85.13316 707.9316 85.13584 707.883 85.14253 C 707.6594 85.27818 707.52276 85.5206 707.5225 85.7821 C 707.5225 86.86895 710.1021 86.47907 710.1021 88.30296 C 710.1021 89.287 709.2128 89.99332 708.01515 89.99332 C 707.4281 89.98982 706.8542 89.8189 706.3608 89.50063 Z" fill="white"/>
      </g>
      <g id="Graphic_49">
        <path d="M 719.62875 85.22131 L 718.9238 85.22131 L 718.6033 86.18533 L 717.921 86.18533 L 717.921 84.48027 L 722.661 84.48027 L 722.661 86.18533 L 721.9934 86.18533 L 721.6743 85.22131 L 720.9092 85.22131 L 720.9092 89.20956 L 721.5194 89.39382 L 721.5194 89.9279 L 719.0199 89.9279 L 719.0199 89.39382 L 719.62875 89.20956 Z" fill="white"/>
      </g>
      <g id="Graphic_48">
        <path d="M 726.9216 87.82495 L 725.4956 85.20796 L 724.8854 85.01702 L 724.8854 84.48294 L 727.5171 84.48294 L 727.5171 85.01702 L 726.9003 85.20796 L 727.7962 86.97977 L 728.7001 85.20796 L 728.0899 85.01702 L 728.0899 84.48294 L 730.2369 84.48294 L 730.2369 85.01702 L 729.62674 85.20796 L 728.1927 87.81027 L 728.1927 89.20422 L 728.8029 89.38848 L 728.8029 89.92256 L 726.3048 89.92256 L 726.3048 89.38848 L 726.9216 89.20422 Z" fill="white"/>
      </g>
      <g id="Graphic_47">
        <path d="M 729.2222 78.58001 L 728.39435 80.75906 L 724.7346 80.75906 L 724.7346 76.55317 L 726.8081 76.55317 L 727.0752 77.73082 L 727.9965 77.73082 L 727.9965 74.18853 L 727.0752 74.18853 L 726.8081 75.32479 L 724.7346 75.32479 L 724.7346 71.518125 L 728.2355 71.518125 L 728.9031 73.77595 L 730.1635 73.77595 L 730.0847 70.27772 L 721.235 70.27772 L 721.235 71.184325 L 722.4914 71.55017 L 722.4914 80.77375 L 721.219 81.12357 L 721.219 81.96742 L 730.2583 81.96742 L 730.46525 78.58001 Z" fill="white"/>
      </g>
      <g id="Graphic_46">
        <path d="M 683.4514 77.94713 C 683.4514 80.91261 682.0361 82.14233 679.1334 82.14233 C 676.463 82.14233 674.5296 81.07417 674.5296 78.25689 L 674.5296 71.55017 L 673.2572 71.184325 L 673.2572 70.27772 L 678.0292 70.27772 L 678.0292 71.184325 L 676.7567 71.55017 L 676.7567 78.25689 C 676.7567 79.94325 677.53515 80.68296 679.3964 80.68296 C 680.6809 80.68296 681.8612 79.93124 681.8612 78.10201 L 681.8612 71.55017 L 680.6048 71.184325 L 680.6048 70.27772 L 684.7239 70.27772 L 684.7239 71.184325 L 683.4514 71.55017 Z" fill="white"/>
      </g>
      <g id="Graphic_45">
        <path d="M 718.9598 77.94713 C 718.9598 80.91261 717.5445 82.14233 714.6431 82.14233 C 711.9727 82.14233 710.038 81.07417 710.038 78.25689 L 710.038 71.55017 L 708.7655 71.184325 L 708.7655 70.27772 L 713.53755 70.27772 L 713.53755 71.184325 L 712.2651 71.55017 L 712.2651 78.25689 C 712.2651 79.94325 713.0449 80.68296 714.9048 80.68296 C 716.1893 80.68296 717.3696 79.93124 717.3696 78.10201 L 717.3696 71.55017 L 716.1132 71.184325 L 716.1132 70.27772 L 720.2323 70.27772 L 720.2323 71.184325 L 718.9598 71.55017 Z" fill="white"/>
      </g>
      <g id="Graphic_44">
        <path d="M 640.761 89.93057 L 643.2805 84.01963 L 647.4504 84.01963 C 653.4855 84.01963 655.77535 81.54149 657.3589 77.82028 C 657.94506 76.44369 658.9264 74.13779 657.62594 72.17638 C 656.32546 70.21497 653.6043 70 651.6576 70 L 629.4932 70 L 626.3675 77.34361 L 630.3798 77.34361 L 628.14734 82.58562 L 624.12704 82.58562 L 621 89.93057 Z" fill="#cfb991"/>
      </g>
      <g id="Graphic_43">
        <path d="M 656.495 72.92676 C 655.79004 71.8586 654.2519 71.36191 651.6576 71.36191 L 630.3945 71.36191 L 628.4291 75.97904 L 632.4347 75.97904 L 629.0473 83.94753 L 625.027 83.94753 L 623.0602 88.57 L 639.86374 88.57 L 641.82916 83.94753 L 637.75546 83.94753 L 638.30556 82.65639 L 647.4504 82.65639 C 653.3333 82.65639 654.9021 80.1195 656.1065 77.28754 C 656.75406 75.76273 657.3175 74.17117 656.495 72.92676 Z M 641.1482 75.97904 L 647.8643 75.97904 C 648.7909 75.97904 648.6574 76.44369 648.5319 76.73209 C 648.1887 77.53321 647.3636 78.03792 646.3809 78.03792 L 640.2723 78.03792 Z" fill="#9d9795"/>
      </g>
      <g id="Graphic_42">
        <path d="M 651.6576 72.0709 L 630.8618 72.0709 L 629.4986 75.27539 L 633.51085 75.27539 L 629.5159 84.65518 L 625.4956 84.65518 L 624.13105 87.85967 L 639.3964 87.85967 L 640.761 84.65518 L 636.6846 84.65518 L 637.83824 81.94739 L 647.4517 81.94739 C 652.9621 81.94739 654.348 79.61346 655.4629 77.00714 C 656.5778 74.40083 657.176 72.06689 651.6656 72.06689 M 646.3929 78.74291 L 639.2095 78.74291 L 640.6889 75.27138 L 647.8723 75.27138 C 649.1434 75.27138 649.6561 75.92429 649.1955 77.00714 C 648.7348 78.08999 647.6653 78.74291 646.39155 78.74291" fill="black"/>
      </g> -->
      <!-- <g id="Graphic_41">
        <path d="M 731.715 89.90387 C 731.2429 89.90387 730.8173 89.6194 730.6367 89.18317 C 730.4562 88.74694 730.5563 88.2449 730.8903 87.91126 C 731.2243 87.57761 731.7265 87.4781 732.1625 87.65915 C 732.5985 87.84019 732.8825 88.26612 732.882 88.73823 C 732.8812 89.38221 732.359 89.90387 731.715 89.90387 Z M 731.715 87.81427 C 731.2049 87.81501 730.7919 88.22901 730.7924 88.73912 C 730.7929 89.24924 731.2067 89.66244 731.7168 89.66219 C 732.2269 89.66195 732.6403 89.24835 732.6403 88.73823 C 732.6396 88.22773 732.2255 87.81427 731.715 87.81427 Z" fill="white"/>
      </g>
      <g id="Graphic_40">
        <path d="M 731.5681 88.84371 L 731.5681 89.27766 L 731.3385 89.27766 L 731.3385 88.19614 L 731.8138 88.19614 C 732.0501 88.19614 732.177 88.32966 732.177 88.49256 C 732.1822 88.60228 732.1197 88.704 732.0194 88.74892 C 732.0728 88.76894 732.15295 88.82369 732.15295 89.01596 L 732.15295 89.06936 C 732.1497 89.13824 732.15465 89.20726 732.1676 89.27498 L 731.94466 89.27498 C 731.9248 89.19561 731.9176 89.1136 731.9233 89.03198 L 731.9233 89.01596 C 731.9233 88.89846 731.8939 88.84104 731.719 88.84104 Z M 731.5681 88.65812 L 731.7644 88.65812 C 731.89125 88.65812 731.942 88.60872 731.942 88.5246 C 731.942 88.44048 731.8832 88.39108 731.7684 88.39108 L 731.5681 88.39108 Z" fill="white"/>
      </g> -->
    </g>
  </g>
</svg>
