<?xml version="1.0" encoding="utf-8"?>
<!-- Generator: Adobe Illustrator 22.0.1, SVG Export Plug-In . SVG Version: 6.00 Build 0)  -->
<svg version="1.1" id="Layer_1" xmlns="http://www.w3.org/2000/svg" xmlns:xlink="http://www.w3.org/1999/xlink" x="0px" y="0px"
	 viewBox="0 0 738 150" style="enable-background:new 0 0 738 150;" xml:space="preserve">
<style type="text/css">
	.st0{fill:none;}
	.st1{fill:#FFCD05;}
	.st2{fill:#FF66FF;}
	.st3{fill:#00FFFF;}
	.st4{fill:#FF6666;}
	.st5{fill:#66FF66;}
	.st6{fill:#BE84FF;}
	.st7{fill:black;}
	.st8{fill:none;stroke:black;stroke-miterlimit:10;}
</style>
<g>
	<rect x="135" y="45.4" class="st0" width="231.5" height="22.5"/>
	<path class="st1" d="M149.3,62.5l-0.9-2.4h-7.7l-0.9,2.4c-0.3,1-0.7,1.5-0.9,1.9c-0.2,0.3-0.7,0.6-1.2,0.6c-0.4,0-0.9-0.2-1.3-0.6
		c-0.4-0.3-0.6-0.7-0.6-1.2c0-0.2,0-0.6,0.1-0.7c0.1-0.2,0.2-0.7,0.4-1.1l4.9-12.4c0.1-0.3,0.3-0.7,0.6-1.3c0.2-0.6,0.4-0.9,0.7-1.2
		s0.6-0.6,0.9-0.7c0.3-0.2,0.7-0.3,1.3-0.3s1,0.1,1.3,0.3s0.7,0.4,0.9,0.7s0.4,0.7,0.6,1c0.1,0.3,0.3,0.9,0.6,1.5l5,12.2
		c0.4,0.9,0.6,1.6,0.6,2s-0.2,0.9-0.6,1.2c-0.3,0.3-0.7,0.6-1.3,0.6c-0.3,0-0.6,0-0.7-0.1c-0.2-0.1-0.4-0.2-0.6-0.4
		c-0.2-0.2-0.3-0.4-0.4-0.9C149.8,62.9,149.3,62.8,149.3,62.5z M141.7,57.2h5.6l-2.8-7.8L141.7,57.2z"/>
	<path class="st2" d="M159.9,47.7v13.8h7.8c0.7,0,1.1,0.1,1.5,0.4c0.3,0.3,0.6,0.7,0.6,1.1c0,0.5-0.1,0.9-0.4,1.1
		c-0.3,0.2-0.7,0.4-1.5,0.4h-9.3c-0.9,0-1.5-0.2-1.8-0.6c-0.3-0.3-0.6-1-0.6-1.8V47.7c0-0.7,0.2-1.3,0.6-1.8
		c0.3-0.4,0.7-0.6,1.3-0.6s1,0.2,1.5,0.6S159.9,46.9,159.9,47.7z"/>
	<path class="st3" d="M187,58.6c0,0.6-0.1,1.2-0.4,2c-0.3,0.7-0.7,1.5-1.5,2.1c-0.7,0.7-1.5,1.2-2.4,1.6c-1,0.4-2.1,0.7-3.4,0.7
		c-1,0-1.9-0.1-2.8-0.3c-0.9-0.2-1.5-0.4-2.2-0.9s-1.3-0.9-1.9-1.5c-0.6-0.6-0.9-1.2-1.3-2s-0.7-1.5-0.7-2.3
		c-0.1-0.7-0.2-1.8-0.2-2.6c0-1.5,0.2-2.8,0.7-4.1c0.4-1.2,1.1-2.2,1.9-3.1c0.7-0.9,1.8-1.5,2.8-2c1.1-0.4,2.3-0.7,3.5-0.7
		c1.5,0,2.8,0.3,4.1,0.9c1.2,0.6,2.1,1.3,2.8,2.3s1,1.8,1,2.5c0,0.4-0.1,0.9-0.4,1.2c-0.3,0.3-0.7,0.6-1.1,0.6
		c-0.4,0-0.9-0.1-1.1-0.3c-0.2-0.2-0.6-0.7-0.7-1.2c-0.6-1-1.1-1.6-1.8-2.1s-1.5-0.7-2.5-0.7c-1.5,0-2.8,0.6-3.7,1.8s-1.5,2.8-1.5,5
		c0,1.5,0.2,2.6,0.7,3.7c0.4,1,1,1.6,1.8,2.2c0.8,0.6,1.6,0.7,2.6,0.7c1.1,0,2-0.2,2.8-0.7s1.3-1.3,1.8-2.4c0.1-0.6,0.3-0.9,0.7-1.2
		s0.7-0.4,1.2-0.4c0.4,0,0.9,0.1,1.2,0.4C187,58.1,187,58.2,187,58.6z"/>
	<path class="st4" d="M194.2,47.7v5.4h8.3v-5.4c0-0.7,0.2-1.3,0.6-1.8c0.3-0.4,0.7-0.6,1.3-0.6s1,0.2,1.5,0.6c0.4,0.3,0.6,1,0.6,1.8
		v14.9c0,0.7-0.2,1.3-0.6,1.8c-0.3,0.5-0.9,0.6-1.5,0.6s-1-0.2-1.5-0.6c-0.4-0.3-0.6-1-0.6-1.8v-6.4h-8.1v6.4c0,0.7-0.2,1.3-0.6,1.8
		c-0.3,0.4-0.9,0.6-1.5,0.6s-1-0.2-1.5-0.6c-0.5-0.3-0.6-1-0.6-1.8V47.7c0-0.7,0.2-1.3,0.6-1.8c0.3-0.4,0.7-0.6,1.5-0.6
		c0.6,0,1,0.2,1.5,0.6C194.1,46.3,194.2,46.9,194.2,47.7z"/>
	<path class="st5" d="M223,48.7h-8.6v4.6h7.9c0.6,0,1,0.1,1.3,0.4s0.4,0.7,0.4,1s-0.1,0.7-0.4,1.1c-0.3,0.3-0.7,0.4-1.3,0.4h-7.9
		v5.4h9c0.6,0,1.1,0.1,1.3,0.4c0.2,0.3,0.4,0.7,0.4,1.1c0,0.5-0.1,0.7-0.4,1.1c-0.3,0.3-0.7,0.4-1.3,0.4h-10.5
		c-0.9,0-1.5-0.2-1.8-0.6c-0.3-0.3-0.6-1-0.6-1.8V48.1c0-0.6,0.1-1,0.2-1.3c0.1-0.3,0.4-0.6,0.7-0.7c0.3-0.2,0.7-0.2,1.3-0.2h10.2
		c0.7,0,1.1,0.1,1.3,0.4c0.2,0.3,0.4,0.7,0.4,1.1c0,0.5-0.1,0.7-0.4,1.1C224,48.7,223.6,48.7,223,48.7z"/>
	<path class="st6" d="M234.6,61.8l-3.1-12v13.1c0,0.7-0.1,1.2-0.4,1.6s-0.7,0.6-1.3,0.6s-1-0.2-1.2-0.6c-0.2-0.3-0.4-0.9-0.4-1.6
		V47.8c0-0.9,0.2-1.5,0.7-1.6c0.4-0.2,1-0.4,1.8-0.4h1.2c0.7,0,1.2,0.1,1.5,0.2c0.3,0.1,0.6,0.3,0.7,0.7c0.2,0.3,0.3,0.9,0.6,1.6
		l2.8,10.3l2.8-10.3c0.2-0.7,0.3-1.3,0.6-1.6c0.2-0.3,0.4-0.6,0.7-0.7c0.3-0.1,0.9-0.2,1.5-0.2h1.2c0.7,0,1.3,0.1,1.8,0.4
		c0.4,0.3,0.7,0.9,0.7,1.6v15c0,0.7-0.1,1.2-0.4,1.6c-0.3,0.4-0.7,0.6-1.3,0.6s-0.9-0.2-1.2-0.6c-0.3-0.3-0.9-1-0.9-1.6V49.7
		l-3.1,12c-0.2,0.7-0.3,1.3-0.4,1.8c-0.1,0.5-0.3,0.7-0.7,1c-0.3,0.3-0.7,0.4-1.5,0.4c-0.4,0-0.9-0.1-1.1-0.3
		c-0.2-0.2-0.6-0.4-0.7-0.7c-0.2-0.3-0.3-0.7-0.4-1C234.7,62.5,234.7,62.1,234.6,61.8z"/>
</g>
<g>
	<path class="st1" d="M144,79.9h1.8l8.1,18.2h-2.5l-2.4-5.4h-7.7l-2.2,5.4h-2.6L144,79.9z M147.7,90.4l-2.8-6.5l-2.6,6.5H147.7z"/>
	<path class="st7" d="M158,86.2v2.6l0.1-0.2c1.1-1.9,2.3-2.8,3.4-2.8c0.9,0,1.8,0.4,2.8,1.3l-1.2,2.1c-0.7-0.7-1.5-1.2-2.3-1.2
		c-0.7,0-1.5,0.3-2,1.1c-0.6,0.7-0.9,1.5-0.9,2.5v6.2h-2.2V86.2H158z"/>
	<path class="st7" d="M174.2,95.2v2.3c-1.2,0.4-2.3,0.7-3.4,0.7c-1.9,0-3.3-0.6-4.4-1.6s-1.6-2.5-1.6-4.4s0.6-3.4,1.6-4.6
		c1.1-1.1,2.5-1.8,4.3-1.8c0.7,0,1.2,0.1,1.6,0.2c0.4,0.1,1.1,0.3,1.8,0.7v2.5c-1.2-0.7-2.3-1.1-3.3-1.1c-1.1,0-2,0.3-2.6,1.1
		c-0.7,0.8-1,1.6-1,2.8s0.3,2.2,1.1,2.8c0.7,0.7,1.8,1.1,3,1.1C172,96,173.1,95.8,174.2,95.2z"/>
	<path class="st7" d="M176.9,80h2.3v7.7c1-1.2,2.2-1.8,3.7-1.8c0.7,0,1.5,0.2,2.1,0.6c0.6,0.3,1.1,1,1.5,1.6s0.4,1.8,0.4,3.1V98
		h-2.3v-7.4c0-0.9-0.2-1.5-0.7-2.1c-0.4-0.6-1-0.7-1.6-0.7s-1,0.1-1.5,0.4s-1,0.7-1.5,1.3V98H177L176.9,80L176.9,80z"/>
	<path class="st7" d="M191.4,81.1c0.4,0,0.7,0.1,1,0.4c0.2,0.3,0.4,0.6,0.4,1c0,0.3-0.1,0.7-0.4,1c-0.3,0.3-0.7,0.4-1,0.4
		s-0.7-0.1-1-0.4s-0.4-0.6-0.4-1c0-0.3,0.1-0.7,0.4-1C190.7,81.2,190.9,81.1,191.4,81.1z M190.1,86.2h2.3V98h-2.3V86.2z"/>
	<path class="st7" d="M194.2,88l4.4-4.3v2.4h3.7v2.1h-3.7v5.9c0,1.3,0.6,2,1.6,2c0.9,0,1.8-0.3,2.6-0.9v2.2c-0.9,0.6-1.9,0.7-3,0.7
		s-2-0.3-2.6-1c-0.2-0.2-0.4-0.4-0.6-0.7c-0.1-0.2-0.2-0.6-0.3-0.9s-0.1-1.1-0.1-2.2V88L194.2,88L194.2,88L194.2,88z"/>
	<path class="st7" d="M214.9,92.3h-8.4c0.1,1.1,0.4,2.1,1.1,2.8c0.7,0.7,1.6,1,2.8,1c1.5,0,3-0.4,4.3-1.5v2.3
		c-0.7,0.4-1.5,0.9-2.2,1s-1.5,0.3-2.5,0.3c-1.3,0-2.3-0.2-3.2-0.7c-0.9-0.6-1.5-1.3-2-2.2c-0.6-0.9-0.7-2-0.7-3.2
		c0-1.8,0.6-3.3,1.5-4.4c1-1.1,2.3-1.6,4-1.6c1.5,0,2.8,0.6,3.7,1.6c0.9,1.1,1.5,2.5,1.5,4.4L214.9,92.3L214.9,92.3z M206.6,90.9
		h5.9c-0.1-1-0.3-1.6-0.9-2.2c-0.6-0.6-1.2-0.7-2-0.7s-1.5,0.2-2.1,0.7C207,89.2,206.7,89.9,206.6,90.9z"/>
	<path class="st7" d="M226.3,95.2v2.3c-1.2,0.4-2.3,0.7-3.4,0.7c-1.9,0-3.3-0.6-4.4-1.6c-1.1-1.1-1.6-2.5-1.6-4.4s0.6-3.4,1.6-4.6
		c1.1-1.1,2.5-1.8,4.3-1.8c0.7,0,1.2,0.1,1.6,0.2c0.4,0.1,1.1,0.3,1.8,0.7v2.5c-1.2-0.7-2.3-1.1-3.3-1.1c-1.1,0-2,0.3-2.6,1.1
		c-0.7,0.7-1,1.6-1,2.8s0.3,2.2,1.1,2.8c0.8,0.7,1.8,1.1,3,1.1C224.1,96,225.1,95.8,226.3,95.2z"/>
	<path class="st7" d="M227.3,88l4.4-4.3v2.4h3.7v2.1h-3.7v5.9c0,1.3,0.6,2,1.6,2c0.9,0,1.8-0.3,2.6-0.9v2.2c-0.9,0.6-1.9,0.7-3,0.7
		s-2-0.3-2.6-1c-0.2-0.2-0.4-0.4-0.6-0.7c-0.1-0.2-0.2-0.6-0.3-0.9s-0.1-1.1-0.1-2.2V88L227.3,88L227.3,88L227.3,88z"/>
	<path class="st7" d="M245.4,98v-1.5c-0.6,0.6-1.1,1-1.8,1.3s-1.3,0.4-1.9,0.4c-0.7,0-1.5-0.2-2.1-0.6c-0.7-0.3-1.1-0.9-1.5-1.5
		c-0.3-0.7-0.4-1.6-0.4-3.2v-6.8h2.3v6.8c0,1.2,0.2,2.1,0.6,2.6c0.3,0.5,1,0.7,1.9,0.7c1.1,0,2.1-0.6,2.8-1.6v-8.4h2.3V98H245.4
		L245.4,98L245.4,98z"/>
	<path class="st7" d="M253.5,86.2v2.6l0.1-0.2c1.1-1.9,2.3-2.8,3.4-2.8c0.9,0,1.8,0.4,2.8,1.3l-1.2,2.1c-0.7-0.7-1.5-1.2-2.3-1.2
		c-0.7,0-1.5,0.3-2,1.1c-0.5,0.8-0.9,1.5-0.9,2.5v6.2h-2.3V86.2H253.5z"/>
	<path class="st7" d="M271.1,92.3h-8.4c0.1,1.1,0.4,2.1,1.1,2.8c0.7,0.7,1.6,1,2.8,1c1.5,0,3-0.4,4.3-1.5v2.3
		c-0.7,0.4-1.5,0.9-2.2,1s-1.5,0.3-2.5,0.3c-1.3,0-2.3-0.2-3.2-0.7c-0.9-0.6-1.5-1.3-2-2.2s-0.7-2-0.7-3.2c0-1.8,0.6-3.3,1.5-4.4
		c1-1.1,2.3-1.6,4-1.6c1.5,0,2.8,0.6,3.7,1.6c0.9,1.1,1.5,2.5,1.5,4.4L271.1,92.3L271.1,92.3z M262.8,90.9h5.9
		c-0.1-1-0.3-1.6-0.9-2.2s-1.2-0.7-2-0.7c-0.7,0-1.5,0.2-2.1,0.7C263.2,89.2,262.9,89.9,262.8,90.9z"/>
	<path class="st2" d="M281.3,80h2.5v15.6h8.1v2.3h-10.7V80H281.3z"/>
	<path class="st7" d="M301.5,90.9v5c0,0.4,0.1,0.7,0.4,0.7s0.7-0.2,1.3-0.7v1.5c-0.6,0.3-1,0.6-1.3,0.7s-0.7,0.2-1,0.2
		c-1,0-1.6-0.4-1.8-1.2c-1,0.7-2.1,1.2-3.2,1.2c-0.9,0-1.5-0.2-2.1-0.7s-0.9-1.2-0.9-2.1c0-0.7,0.2-1.5,0.7-2s1.3-1.1,2.3-1.5l3-1
		v-0.7c0-1.5-0.7-2.1-2.1-2.1c-1.3,0-2.5,0.7-3.7,2v-2.5c0.9-1.1,2.2-1.6,4-1.6c1.3,0,2.3,0.3,3.1,1c0.2,0.2,0.4,0.6,0.7,0.9
		c0.2,0.3,0.3,0.7,0.4,1.1C301.5,89.5,301.5,89.8,301.5,90.9z M299.1,95.7v-3.5l-1.5,0.7c-0.7,0.3-1.3,0.7-1.6,1
		c-0.3,0.3-0.6,0.7-0.6,1.2s0.1,0.9,0.4,1.2c0.3,0.3,0.7,0.4,1.2,0.4C297.8,96.5,298.5,96.3,299.1,95.7z"/>
	<path class="st7" d="M305.1,80h2.3v7.1c1-0.7,2.1-1.1,3.3-1.1c1.5,0,2.8,0.6,3.7,1.6c1,1.1,1.5,2.6,1.5,4.4c0,1.9-0.6,3.4-1.8,4.6
		s-2.6,1.6-4.6,1.6c-0.7,0-1.5-0.1-2.4-0.2c-0.9-0.2-1.5-0.3-2-0.7V80L305.1,80z M307.5,89.2v6.4c0.7,0.2,1.6,0.3,2.4,0.3
		c1,0,1.9-0.3,2.5-1.1c0.7-0.7,1-1.6,1-2.8c0-1.2-0.3-2.1-0.9-2.8s-1.5-1.1-2.4-1.1C309.3,88,308.4,88.5,307.5,89.2z"/>
	<path class="st7" d="M326.1,86.2v-0.7c0-1.9,0.4-3.3,1.2-4.3c0.8-1,1.8-1.5,3-1.5c0.4,0,1.1,0.1,1.8,0.2v2.2
		c-0.3-0.1-0.7-0.2-1.1-0.2c-0.9,0-1.5,0.2-1.9,0.7c-0.3,0.5-0.6,1.3-0.6,2.6v0.7h2.1V88h-2.1v9.8h-2.3V88h-1.6v-2.1h1.5V86.2
		L326.1,86.2z"/>
	<path class="st7" d="M337.8,86.1c1.8,0,3.3,0.6,4.6,1.8s1.8,2.6,1.8,4.4s-0.7,3.1-1.9,4.3s-2.8,1.6-4.6,1.6c-1.8,0-3.3-0.6-4.6-1.8
		s-1.8-2.5-1.8-4.3s0.6-3.2,1.8-4.3S336.1,86.1,337.8,86.1z M337.7,88.3c-1.1,0-2.1,0.3-2.8,1.1c-0.7,0.7-1.1,1.6-1.1,2.8
		c0,1.1,0.3,2.1,1.1,2.8s1.6,1.1,2.8,1.1c1.1,0,2.1-0.3,2.8-1.1c0.7-0.8,1.1-1.6,1.1-2.8c0-1.1-0.3-2.1-1.1-2.8
		C339.8,88.8,338.9,88.3,337.7,88.3z"/>
	<path class="st7" d="M349.3,86.2v2.6l0.1-0.2c1.1-1.9,2.3-2.8,3.4-2.8c0.9,0,1.8,0.4,2.8,1.3l-1.2,2.1c-0.7-0.7-1.5-1.2-2.3-1.2
		c-0.7,0-1.5,0.3-2,1.1c-0.6,0.7-0.9,1.5-0.9,2.5v6.2h-2.3V86.2H349.3z"/>
	<path class="st3" d="M380.5,93.8v2.8c-1.9,1-4.1,1.5-6.6,1.5c-2,0-3.7-0.4-5.2-1.2c-1.5-0.7-2.5-1.9-3.3-3.3s-1.2-3-1.2-4.6
		c0-2.6,0.9-4.9,2.8-6.6c1.9-1.8,4.2-2.6,6.9-2.6c1.9,0,4,0.4,6.3,1.5V84c-2.1-1.2-4.2-1.8-6.2-1.8c-2.1,0-3.7,0.7-5.2,2
		s-2.1,3-2.1,4.9c0,2,0.7,3.7,2,4.9c1.3,1.2,3.1,1.9,5.2,1.9C376.2,95.8,378.4,95.2,380.5,93.8z"/>
	<path class="st7" d="M385.8,86.2v2.6l0.1-0.2c1.1-1.9,2.3-2.8,3.4-2.8c0.9,0,1.8,0.4,2.8,1.3l-1.2,2.1c-0.7-0.7-1.5-1.2-2.3-1.2
		c-0.7,0-1.5,0.3-2,1.1c-0.6,0.7-0.9,1.5-0.9,2.5v6.2h-2.3V86.2H385.8z"/>
	<path class="st7" d="M403.4,92.3H395c0.1,1.1,0.4,2.1,1.1,2.8c0.7,0.7,1.6,1,2.8,1c1.5,0,3-0.4,4.3-1.5v2.3c-0.7,0.4-1.5,0.9-2.2,1
		s-1.5,0.3-2.5,0.3c-1.3,0-2.3-0.2-3.2-0.7c-0.9-0.5-1.5-1.3-2-2.2c-0.6-0.9-0.7-2-0.7-3.2c0-1.8,0.6-3.3,1.5-4.4
		c1-1.1,2.3-1.6,4-1.6c1.5,0,2.8,0.6,3.7,1.6c0.9,1.1,1.5,2.5,1.5,4.4L403.4,92.3L403.4,92.3z M395,90.9h5.9c-0.1-1-0.3-1.6-0.9-2.2
		s-1.2-0.7-2-0.7c-0.7,0-1.5,0.2-2.1,0.7C395.4,89.2,395.3,89.9,395,90.9z"/>
	<path class="st7" d="M413.4,90.9v5c0,0.4,0.1,0.7,0.4,0.7s0.7-0.2,1.3-0.7v1.5c-0.6,0.3-1,0.6-1.3,0.7s-0.7,0.2-1,0.2
		c-1,0-1.6-0.4-1.8-1.2c-1,0.7-2.1,1.2-3.2,1.2c-0.9,0-1.5-0.2-2.1-0.7c-0.6-0.6-0.9-1.2-0.9-2.1c0-0.7,0.2-1.5,0.7-2
		c0.6-0.6,1.3-1.1,2.3-1.5l3-1v-0.7c0-1.5-0.7-2.1-2.1-2.1c-1.3,0-2.5,0.7-3.7,2v-2.5c0.9-1.1,2.2-1.6,4-1.6c1.3,0,2.3,0.3,3.1,1
		c0.2,0.2,0.4,0.6,0.7,0.9c0.2,0.3,0.3,0.7,0.4,1.1C413.4,89.5,413.4,89.8,413.4,90.9z M411.2,95.7v-3.5l-1.5,0.7
		c-0.7,0.3-1.3,0.7-1.6,1s-0.6,0.7-0.6,1.2s0.1,0.9,0.4,1.2c0.3,0.3,0.7,0.4,1.2,0.4C409.7,96.5,410.5,96.3,411.2,95.7z"/>
	<path class="st7" d="M415.5,88l4.4-4.3v2.4h3.7v2.1h-3.7v5.9c0,1.3,0.6,2,1.6,2c0.9,0,1.8-0.3,2.6-0.9v2.2c-0.9,0.6-1.9,0.7-3,0.7
		s-2-0.3-2.6-1c-0.2-0.2-0.4-0.4-0.6-0.7c-0.2-0.2-0.2-0.6-0.3-0.9c-0.1-0.3-0.1-1.1-0.1-2.2V88L415.5,88L415.5,88L415.5,88z"/>
	<path class="st7" d="M427.2,81.1c0.4,0,0.7,0.1,1,0.4c0.2,0.3,0.4,0.6,0.4,1c0,0.3-0.1,0.7-0.4,1s-0.7,0.4-1,0.4s-0.7-0.1-1-0.4
		s-0.4-0.6-0.4-1c0-0.3,0.1-0.7,0.4-1S426.9,81.1,427.2,81.1z M426.1,86.2h2.3V98h-2.3V86.2z"/>
	<path class="st7" d="M439.2,86.2h2.5l-5.3,12.1h-0.7l-5.4-12.1h2.5l3.2,7.2L439.2,86.2z"/>
	<path class="st7" d="M453,92.3h-8.4c0.1,1.1,0.4,2.1,1.1,2.8c0.7,0.7,1.6,1,2.8,1c1.5,0,3-0.4,4.3-1.5v2.3c-0.7,0.4-1.5,0.9-2.2,1
		s-1.5,0.3-2.5,0.3c-1.3,0-2.3-0.2-3.2-0.7c-0.9-0.5-1.5-1.3-2-2.2c-0.6-0.9-0.7-2-0.7-3.2c0-1.8,0.6-3.3,1.5-4.4
		c1-1.1,2.3-1.6,4-1.6c1.5,0,2.8,0.6,3.7,1.6c0.9,1.1,1.5,2.5,1.5,4.4v0.2H453z M444.8,90.9h5.9c-0.1-1-0.3-1.6-0.9-2.2
		s-1.2-0.7-2-0.7s-1.5,0.2-2.1,0.7C445.2,89.2,444.9,89.9,444.8,90.9z"/>
	<path class="st4" d="M475.9,80h2.5v18h-2.5v-7.8h-10.2V98h-2.5V80h2.5v7.7h10.2V80z"/>
	<path class="st7" d="M483.4,81.1c0.4,0,0.7,0.1,1,0.4c0.2,0.3,0.4,0.6,0.4,1c0,0.3-0.1,0.7-0.4,1s-0.7,0.4-1,0.4s-0.7-0.1-1-0.4
		s-0.4-0.6-0.4-1c0-0.3,0.1-0.7,0.4-1C482.8,81.2,483,81.1,483.4,81.1z M482.2,86.2h2.3V98h-2.3V86.2z"/>
	<path class="st7" d="M487.3,90.2c0-1.2,0.4-2.3,1.5-3c1-0.7,2.2-1.1,3.7-1.1h4.9V88H495c0.4,0.4,0.7,0.9,1,1.3
		c0.2,0.4,0.2,0.9,0.2,1.3c0,0.7-0.2,1.2-0.6,1.9s-0.7,1.1-1.3,1.3c-0.6,0.2-1.5,0.6-2.8,0.7c-0.9,0.1-1.3,0.4-1.3,0.9
		c0,0.3,0.2,0.6,0.6,0.7c0.3,0.1,0.9,0.3,1.8,0.6c1.5,0.3,2.4,0.6,2.8,0.7c0.3,0.2,0.7,0.4,1.1,0.7c0.6,0.6,0.9,1.3,0.9,2.1
		c0,1.1-0.6,2-1.5,2.6c-1,0.7-2.3,1-4.1,1c-1.6,0-3.1-0.3-4.1-1s-1.5-1.5-1.5-2.8c0-1.6,1-2.6,3-3.1c-0.7-0.6-1.2-1-1.2-1.5
		c0-0.3,0.2-0.7,0.6-1s0.7-0.6,1.3-0.7C488.2,93.2,487.3,91.9,487.3,90.2z M491.3,98.5c-0.7,0-1.5,0.2-2,0.6
		c-0.6,0.3-0.7,0.7-0.7,1.3c0,1.2,1.1,1.9,3.3,1.9c1,0,1.9-0.1,2.4-0.4c0.6-0.3,0.9-0.7,0.9-1.3s-0.3-1-1.1-1.3
		C493.2,98.9,492.3,98.5,491.3,98.5z M491.8,88.2c-0.7,0-1.2,0.2-1.6,0.7c-0.4,0.4-0.7,1-0.7,1.5c0,0.7,0.2,1.1,0.7,1.5
		c0.4,0.4,1,0.6,1.6,0.6s1.2-0.2,1.6-0.7c0.4-0.4,0.7-0.9,0.7-1.5s-0.2-1.1-0.7-1.5C493,88.4,492.5,88.2,491.8,88.2z"/>
	<path class="st7" d="M499.2,80h2.3v7.7c1-1.2,2.2-1.8,3.7-1.8c0.7,0,1.5,0.2,2.1,0.6c0.6,0.3,1.1,1,1.5,1.6
		c0.3,0.7,0.4,1.8,0.4,3.1V98h-2.3v-7.4c0-0.9-0.2-1.5-0.7-2.1c-0.4-0.6-1-0.7-1.6-0.7s-1,0.1-1.5,0.4s-1,0.7-1.5,1.3V98h-2.4V80
		L499.2,80z"/>
	<path class="st7" d="M511.8,90.9h6.4v2.5h-6.4L511.8,90.9L511.8,90.9z"/>
	<path class="st7" d="M520.9,104V86.2h4.1c2.1,0,3.7,0.6,5,1.5c1.2,1,1.8,2.5,1.8,4.4c0,1.8-0.6,3.2-1.6,4.4
		c-1.1,1.1-2.5,1.8-4.2,1.8c-0.7,0-1.5-0.2-2.5-0.6v6.4H521L520.9,104L520.9,104z M525,88.3h-1.6v7.2c0.7,0.3,1.5,0.6,2.3,0.6
		c1.1,0,2-0.3,2.6-1.1c0.7-0.8,1.1-1.8,1.1-3c0-0.7-0.2-1.5-0.6-2.1c-0.3-0.7-0.7-1-1.3-1.3C526.9,88.3,526.1,88.3,525,88.3z"/>
	<path class="st7" d="M544.3,92.3h-8.4c0.1,1.1,0.4,2.1,1.1,2.8c0.7,0.7,1.6,1,2.8,1c1.5,0,3-0.4,4.3-1.5v2.3
		c-0.7,0.4-1.5,0.9-2.2,1s-1.5,0.3-2.5,0.3c-1.3,0-2.3-0.2-3.2-0.7c-0.9-0.6-1.5-1.3-2-2.2c-0.6-0.9-0.7-2-0.7-3.2
		c0-1.8,0.6-3.3,1.5-4.4c1-1.1,2.3-1.6,4-1.6c1.5,0,2.8,0.6,3.7,1.6c0.9,1.1,1.5,2.5,1.5,4.4v0.2H544.3z M536.1,90.9h5.9
		c-0.1-1-0.3-1.6-0.9-2.2c-0.6-0.6-1.2-0.7-2-0.7c-0.7,0-1.5,0.2-2.1,0.7C536.5,89.2,536.2,89.9,536.1,90.9z"/>
	<path class="st7" d="M549.5,86.2v2.6l0.1-0.2c1.1-1.9,2.3-2.8,3.4-2.8c0.9,0,1.8,0.4,2.8,1.3l-1.2,2.1c-0.7-0.7-1.5-1.2-2.3-1.2
		c-0.7,0-1.5,0.3-2,1.1c-0.5,0.8-0.9,1.5-0.9,2.5v6.2h-2.3V86.2H549.5z"/>
	<path class="st7" d="M557.7,86.2v-0.7c0-1.9,0.4-3.3,1.2-4.3s1.8-1.5,3-1.5c0.4,0,1.1,0.1,1.8,0.2v2.2c-0.3-0.1-0.7-0.2-1.1-0.2
		c-0.9,0-1.5,0.2-1.9,0.7c-0.3,0.5-0.6,1.3-0.6,2.6v0.7h2.1V88h-2.1v9.8h-2.3V88h-1.6v-2.1h1.5L557.7,86.2L557.7,86.2z"/>
	<path class="st7" d="M569.5,86.1c1.8,0,3.3,0.6,4.6,1.8c1.2,1.2,1.8,2.6,1.8,4.4s-0.7,3.1-1.9,4.3c-1.2,1.2-2.8,1.6-4.6,1.6
		s-3.3-0.6-4.6-1.8c-1.2-1.2-1.8-2.5-1.8-4.3s0.6-3.2,1.8-4.3C566,86.7,567.6,86.1,569.5,86.1z M569.2,88.3c-1.1,0-2.1,0.3-2.8,1.1
		c-0.7,0.7-1.1,1.6-1.1,2.8c0,1.1,0.3,2.1,1.1,2.8c0.7,0.7,1.6,1.1,2.8,1.1c1.1,0,2.1-0.3,2.8-1.1c0.7-0.7,1.1-1.6,1.1-2.8
		c0-1.1-0.3-2.1-1.1-2.8C571.4,88.8,570.5,88.3,569.2,88.3z"/>
	<path class="st7" d="M580.8,86.2v2.6l0.1-0.2c1.1-1.9,2.3-2.8,3.4-2.8c0.9,0,1.8,0.4,2.8,1.3l-1.2,2.1c-0.7-0.7-1.5-1.2-2.3-1.2
		c-0.7,0-1.5,0.3-2,1.1s-0.9,1.5-0.9,2.5v6.2h-2.3V86.2H580.8z"/>
	<path class="st7" d="M598.5,89.3V98h-2.3v-6.6c0-1.3-0.2-2.2-0.6-2.8c-0.3-0.6-1-0.7-1.9-0.7c-0.4,0-1,0.1-1.3,0.3
		c-0.3,0.2-0.9,0.7-1.5,1.2V98h-2.3V86.2h2.3v1.5c1.2-1.2,2.3-1.8,3.5-1.8c1.5,0,2.6,0.7,3.5,2.1c1.2-1.5,2.5-2.2,4-2.2
		c1.1,0,2.1,0.4,2.8,1.2c0.7,0.7,1.1,2.1,1.1,3.8V98h-2.3v-7.1c0-1-0.2-1.8-0.7-2.3c-0.4-0.6-1-0.7-1.8-0.7
		C600.3,87.9,599.4,88.4,598.5,89.3z"/>
	<path class="st7" d="M616.6,90.9v5c0,0.4,0.1,0.7,0.4,0.7c0.3,0,0.7-0.2,1.3-0.7v1.5c-0.6,0.3-1,0.6-1.3,0.7s-0.7,0.2-1,0.2
		c-1,0-1.6-0.4-1.8-1.2c-1,0.7-2.1,1.2-3.2,1.2c-0.9,0-1.5-0.2-2.1-0.7s-0.9-1.2-0.9-2.1c0-0.7,0.2-1.5,0.7-2s1.3-1.1,2.3-1.5l3-1
		v-0.7c0-1.5-0.7-2.1-2.1-2.1c-1.3,0-2.5,0.7-3.7,2v-2.5c0.9-1.1,2.2-1.6,4-1.6c1.3,0,2.3,0.3,3.1,1c0.2,0.2,0.4,0.6,0.7,0.9
		c0.2,0.3,0.3,0.7,0.4,1.1C616.6,89.5,616.6,89.8,616.6,90.9z M614.3,95.7v-3.5l-1.5,0.7c-0.7,0.3-1.3,0.7-1.6,1s-0.6,0.7-0.6,1.2
		s0.1,0.9,0.4,1.2c0.3,0.3,0.7,0.4,1.2,0.4C613,96.5,613.7,96.3,614.3,95.7z"/>
	<path class="st7" d="M622.8,86.2v1.5c1.1-1.2,2.2-1.8,3.5-1.8c0.7,0,1.5,0.2,2.1,0.6s1.1,0.9,1.5,1.5s0.6,1.8,0.6,3.2V98h-2.3v-6.8
		c0-1.2-0.2-2.1-0.6-2.6c-0.3-0.5-1-0.7-1.9-0.7c-1.1,0-2.1,0.6-2.8,1.6V98h-2.4V86.2H622.8z"/>
	<path class="st7" d="M642.7,95.2v2.3c-1.2,0.4-2.3,0.7-3.4,0.7c-1.9,0-3.3-0.6-4.4-1.6c-1.1-1.1-1.6-2.5-1.6-4.4s0.6-3.4,1.6-4.6
		c1.1-1.1,2.5-1.8,4.3-1.8c0.7,0,1.2,0.1,1.6,0.2c0.4,0.1,1.1,0.3,1.8,0.7v2.5c-1.2-0.7-2.3-1.1-3.3-1.1c-1.1,0-2,0.3-2.6,1.1
		c-0.7,0.8-1,1.6-1,2.8s0.3,2.2,1.1,2.8c0.7,0.7,1.8,1.1,3,1.1C640.5,96,641.4,95.8,642.7,95.2z"/>
	<path class="st7" d="M655.5,92.3h-8.4c0.1,1.1,0.4,2.1,1.1,2.8c0.7,0.7,1.6,1,2.8,1c1.5,0,3-0.4,4.3-1.5v2.3
		c-0.7,0.4-1.5,0.9-2.2,1s-1.5,0.3-2.5,0.3c-1.3,0-2.3-0.2-3.2-0.7s-1.5-1.3-2-2.2s-0.7-2-0.7-3.2c0-1.8,0.6-3.3,1.5-4.4
		c1-1.1,2.3-1.6,4-1.6c1.5,0,2.8,0.6,3.7,1.6c0.9,1.1,1.5,2.5,1.5,4.4v0.2H655.5z M647.1,90.9h5.9c-0.1-1-0.3-1.6-0.9-2.2
		c-0.6-0.6-1.2-0.7-2-0.7c-0.7,0-1.5,0.2-2.1,0.7C647.6,89.2,647.3,89.9,647.1,90.9z"/>
	<path class="st5" d="M138.1,111.7h10.3v2.3h-7.6v5.5h7.4v2.3h-7.4v5.6h7.9v2.3h-10.5L138.1,111.7L138.1,111.7L138.1,111.7z"/>
	<path class="st7" d="M153.5,117.9v1.5c1.1-1.2,2.2-1.8,3.5-1.8c0.7,0,1.5,0.2,2.1,0.6c0.7,0.3,1.1,0.9,1.5,1.5
		c0.3,0.7,0.6,1.8,0.6,3.2v6.8h-2.3V123c0-1.2-0.2-2.1-0.6-2.6c-0.3-0.6-1-0.7-1.9-0.7c-1.1,0-2.1,0.6-2.8,1.6v8.5h-2.4v-11.9H153.5
		L153.5,117.9L153.5,117.9z"/>
	<path class="st7" d="M174.4,123.9H166c0.1,1.1,0.4,2.1,1.1,2.8c0.7,0.7,1.6,1,2.8,1c1.5,0,3-0.4,4.3-1.5v2.3
		c-0.7,0.4-1.5,0.9-2.2,1s-1.5,0.3-2.5,0.3c-1.3,0-2.3-0.2-3.2-0.7c-0.9-0.6-1.5-1.3-2-2.2c-0.6-0.9-0.7-2-0.7-3.2
		c0-1.8,0.6-3.3,1.5-4.4c1-1.1,2.3-1.6,4-1.6c1.5,0,2.8,0.6,3.7,1.6c0.9,1.1,1.5,2.5,1.5,4.4L174.4,123.9
		C174.4,123.9,174.4,123.9,174.4,123.9z M166.1,122.6h5.9c-0.1-1-0.3-1.6-0.9-2.2c-0.6-0.6-1.2-0.7-2-0.7s-1.5,0.2-2.1,0.7
		C166.6,121,166.3,121.6,166.1,122.6z"/>
	<path class="st7" d="M179.5,117.9v2.8l0.1-0.2c1.1-1.9,2.3-2.8,3.4-2.8c0.9,0,1.8,0.4,2.8,1.3l-1.2,2.1c-0.7-0.7-1.5-1.2-2.3-1.2
		s-1.5,0.3-2,1.1c-0.6,0.7-0.9,1.5-0.9,2.5v6.2h-2.3v-11.9L179.5,117.9L179.5,117.9L179.5,117.9z"/>
	<path class="st7" d="M186.9,122c0-1.2,0.4-2.3,1.5-3c1-0.7,2.2-1.1,3.7-1.1h4.9v1.9h-2.4c0.4,0.4,0.7,0.9,1,1.3
		c0.2,0.4,0.2,0.9,0.2,1.3c0,0.7-0.2,1.2-0.6,1.9s-0.7,1.1-1.3,1.3c-0.6,0.2-1.5,0.6-2.8,0.7c-0.9,0.1-1.3,0.4-1.3,0.9
		c0,0.3,0.2,0.6,0.6,0.7c0.3,0.1,0.9,0.3,1.8,0.6c1.5,0.3,2.4,0.6,2.8,0.7c0.3,0.2,0.7,0.4,1.1,0.7c0.6,0.6,0.9,1.3,0.9,2.1
		c0,1.1-0.6,2-1.5,2.6c-1,0.7-2.3,1-4.1,1c-1.6,0-3.1-0.3-4.1-1s-1.5-1.5-1.5-2.8c0-1.6,1-2.6,3-3.1c-0.7-0.6-1.2-1-1.2-1.5
		c0-0.3,0.2-0.7,0.6-1s0.7-0.6,1.3-0.7C187.8,125,186.9,123.6,186.9,122z M190.7,130.3c-0.7,0-1.5,0.2-2,0.6
		c-0.6,0.3-0.7,0.7-0.7,1.3c0,1.2,1.1,1.9,3.3,1.9c1,0,1.9-0.1,2.4-0.4c0.6-0.3,0.9-0.7,0.9-1.3s-0.3-1-1.1-1.3
		C192.7,130.6,191.8,130.3,190.7,130.3z M191.3,119.9c-0.7,0-1.2,0.2-1.6,0.7c-0.4,0.4-0.7,1-0.7,1.5c0,0.7,0.2,1.1,0.7,1.5
		c0.4,0.4,1,0.6,1.6,0.6c0.7,0,1.2-0.2,1.6-0.7c0.4-0.4,0.7-0.9,0.7-1.5s-0.2-1.1-0.7-1.5C192.5,120,191.9,119.9,191.3,119.9z"/>
	<path class="st7" d="M206.6,117.9h2.6l-8.4,18h-2.6l4.1-8.6l-4.6-9.4h2.6l3.2,6.8L206.6,117.9z"/>
	<path class="st7" d="M210.2,122.6h6.4v2.5h-6.4V122.6z"/>
	<path class="st7" d="M229.5,123.9h-8.4c0.1,1.1,0.4,2.1,1.1,2.8c0.7,0.7,1.6,1,2.8,1c1.5,0,3-0.4,4.3-1.5v2.3
		c-0.7,0.4-1.5,0.9-2.2,1s-1.5,0.3-2.5,0.3c-1.3,0-2.3-0.2-3.2-0.7c-0.9-0.6-1.5-1.3-2-2.2c-0.6-0.9-0.7-2-0.7-3.2
		c0-1.8,0.6-3.3,1.5-4.4c1-1.1,2.3-1.6,4-1.6c1.5,0,2.8,0.6,3.7,1.6c0.9,1.1,1.5,2.5,1.5,4.4L229.5,123.9L229.5,123.9z M221.2,122.6
		h5.9c-0.1-1-0.3-1.6-0.9-2.2c-0.6-0.6-1.2-0.7-2-0.7s-1.5,0.2-2.1,0.7C221.7,121,221.3,121.6,221.2,122.6z"/>
	<path class="st7" d="M232.4,117.9v-0.7c0-1.9,0.4-3.3,1.2-4.3s1.8-1.5,3-1.5c0.4,0,1.1,0.1,1.8,0.2v2.3c-0.3-0.1-0.7-0.2-1.1-0.2
		c-0.9,0-1.5,0.2-1.9,0.7c-0.3,0.5-0.6,1.3-0.6,2.6v0.7h2.1v2.1h-2.1v9.8h-2.3v-9.8h-1.9v-2.1L232.4,117.9z"/>
	<path class="st7" d="M239,117.9v-0.7c0-1.9,0.4-3.3,1.2-4.3s1.8-1.5,3-1.5c0.4,0,1.1,0.1,1.8,0.2v2.3c-0.3-0.1-0.7-0.2-1.1-0.2
		c-0.9,0-1.5,0.2-1.9,0.7c-0.3,0.5-0.6,1.3-0.6,2.6v0.7h2.1v2.1h-2.1v9.8h-2.3v-9.8h-1.9v-2.1L239,117.9z"/>
	<path class="st7" d="M246.5,112.9c0.4,0,0.7,0.1,1,0.4c0.2,0.3,0.4,0.6,0.4,1c0,0.3-0.1,0.7-0.4,1c-0.3,0.3-0.7,0.4-1,0.4
		s-0.7-0.1-1-0.4s-0.4-0.6-0.4-1c0-0.3,0.1-0.7,0.4-1C245.8,112.9,246.1,112.9,246.5,112.9z M245.4,117.9h2.3v11.9h-2.3V117.9z"/>
	<path class="st7" d="M260.1,126.9v2.3c-1.2,0.4-2.3,0.7-3.4,0.7c-1.9,0-3.3-0.6-4.4-1.6c-1.1-1.1-1.6-2.5-1.6-4.4s0.6-3.4,1.6-4.6
		c1.1-1.1,2.5-1.8,4.3-1.8c0.7,0,1.2,0.1,1.6,0.2c0.4,0.2,1.1,0.3,1.8,0.7v2.5c-1.2-0.7-2.3-1.1-3.3-1.1c-1.1,0-2,0.3-2.6,1.1
		c-0.7,0.7-1,1.6-1,2.8c0,1.2,0.3,2.2,1.1,2.8c0.8,0.7,1.8,1.1,3,1.1C257.9,127.8,258.8,127.5,260.1,126.9z"/>
	<path class="st7" d="M263.9,112.9c0.4,0,0.7,0.1,1,0.4c0.2,0.3,0.4,0.6,0.4,1c0,0.3-0.1,0.7-0.4,1s-0.7,0.4-1,0.4s-0.7-0.1-1-0.4
		s-0.4-0.6-0.4-1c0-0.3,0.1-0.7,0.4-1C263.2,112.9,263.6,112.9,263.9,112.9z M262.8,117.9h2.3v11.9h-2.3V117.9z"/>
	<path class="st7" d="M278.6,123.9h-8.4c0.1,1.1,0.4,2.1,1.1,2.8c0.7,0.7,1.6,1,2.8,1c1.5,0,3-0.4,4.3-1.5v2.3
		c-0.7,0.4-1.5,0.9-2.2,1s-1.5,0.3-2.5,0.3c-1.3,0-2.3-0.2-3.2-0.7c-0.9-0.6-1.5-1.3-2-2.2c-0.5-0.9-0.7-2-0.7-3.2
		c0-1.8,0.6-3.3,1.5-4.4c1-1.1,2.3-1.6,4-1.6c1.5,0,2.8,0.6,3.7,1.6c0.9,1.1,1.5,2.5,1.5,4.4L278.6,123.9L278.6,123.9z M270.3,122.6
		h5.9c-0.1-1-0.3-1.6-0.9-2.2s-1.2-0.7-2-0.7c-0.7,0-1.5,0.2-2.1,0.7C270.7,121,270.5,121.6,270.3,122.6z"/>
	<path class="st7" d="M283.5,117.9v1.5c1.1-1.2,2.2-1.8,3.5-1.8c0.7,0,1.5,0.2,2.1,0.6c0.7,0.3,1.1,0.9,1.5,1.5s0.6,1.8,0.6,3.2v6.8
		h-2.3V123c0-1.2-0.2-2.1-0.6-2.6c-0.3-0.6-1-0.7-1.9-0.7c-1.1,0-2.1,0.6-2.8,1.6v8.5h-2.4v-11.9H283.5L283.5,117.9L283.5,117.9z"/>
	<path class="st7" d="M292.8,119.8l4.4-4.3v2.4h3.7v2.1h-3.7v5.9c0,1.3,0.6,2,1.6,2c0.9,0,1.8-0.3,2.6-0.9v2.2
		c-0.9,0.6-1.9,0.7-3,0.7s-2-0.3-2.6-1c-0.2-0.2-0.4-0.4-0.6-0.7c-0.1-0.2-0.2-0.6-0.3-0.9c-0.1-0.3-0.1-1.1-0.1-2.2v-5.3
		L292.8,119.8L292.8,119.8L292.8,119.8z"/>
	<path class="st6" d="M325.2,111.7h2.4v18.1h-2.7v-14l-5.5,6.9H319l-5.6-6.9v14h-2.5v-18.1h2.4l5.9,7.4L325.2,111.7z"/>
	<path class="st7" d="M338.6,122.6v5c0,0.4,0.1,0.7,0.4,0.7s0.7-0.2,1.3-0.7v1.5c-0.6,0.3-1,0.6-1.3,0.7c-0.3,0.1-0.7,0.2-1,0.2
		c-1,0-1.6-0.4-1.8-1.2c-1,0.7-2.1,1.2-3.2,1.2c-0.9,0-1.5-0.2-2.1-0.7c-0.6-0.6-0.9-1.2-0.9-2.1c0-0.7,0.2-1.5,0.7-2
		c0.6-0.6,1.3-1.1,2.3-1.5l3-1V122c0-1.5-0.7-2.1-2.1-2.1c-1.3,0-2.5,0.7-3.7,2v-2.5c0.9-1.1,2.2-1.6,4-1.6c1.3,0,2.3,0.3,3.1,1
		c0.2,0.2,0.4,0.6,0.7,0.9c0.2,0.3,0.3,0.7,0.4,1.1C338.6,121.2,338.6,121.6,338.6,122.6z M336.3,127.3v-3.5l-1.5,0.7
		c-0.7,0.3-1.3,0.7-1.6,1c-0.3,0.3-0.6,0.7-0.6,1.2c0,0.4,0.1,0.9,0.4,1.2c0.3,0.3,0.7,0.4,1.2,0.4
		C335,128.2,335.8,128.1,336.3,127.3z"/>
	<path class="st7" d="M351.4,126.9v2.3c-1.2,0.4-2.3,0.7-3.4,0.7c-1.9,0-3.3-0.6-4.4-1.6c-1.1-1.1-1.6-2.5-1.6-4.4s0.6-3.4,1.6-4.6
		c1.1-1.1,2.5-1.8,4.3-1.8c0.7,0,1.2,0.1,1.6,0.2c0.4,0.2,1.1,0.3,1.8,0.7v2.5c-1.2-0.7-2.3-1.1-3.3-1.1c-1.1,0-2,0.3-2.6,1.1
		c-0.7,0.7-1,1.6-1,2.8c0,1.2,0.3,2.2,1.1,2.8c0.8,0.7,1.8,1.1,3,1.1C349.2,127.8,350.2,127.5,351.4,126.9z"/>
	<path class="st7" d="M354,111.7h2.3v7.7c1-1.2,2.2-1.8,3.7-1.8c0.7,0,1.5,0.2,2.1,0.6c0.7,0.4,1.1,1,1.5,1.6s0.4,1.8,0.4,3.1v6.8
		h-2.3v-7.4c0-0.9-0.2-1.5-0.7-2.1c-0.4-0.6-1-0.7-1.6-0.7s-1,0.1-1.5,0.4s-1,0.7-1.5,1.3v8.5h-2.3L354,111.7L354,111.7z"/>
	<path class="st7" d="M368.5,112.9c0.4,0,0.7,0.1,1,0.4c0.2,0.3,0.4,0.6,0.4,1c0,0.3-0.1,0.7-0.4,1s-0.7,0.4-1,0.4s-0.7-0.1-1-0.4
		s-0.4-0.6-0.4-1c0-0.3,0.1-0.7,0.4-1C367.8,112.9,368.2,112.9,368.5,112.9z M367.4,117.9h2.3v11.9h-2.3V117.9z"/>
	<path class="st7" d="M375.4,117.9v1.5c1.1-1.2,2.2-1.8,3.5-1.8c0.7,0,1.5,0.2,2.1,0.6c0.7,0.3,1.1,0.9,1.5,1.5s0.6,1.8,0.6,3.2v6.8
		h-2.3V123c0-1.2-0.2-2.1-0.6-2.6c-0.3-0.5-1-0.7-1.9-0.7c-1.1,0-2.1,0.6-2.8,1.6v8.5h-2.4v-11.9H375.4L375.4,117.9L375.4,117.9z"/>
	<path class="st7" d="M396.5,123.9h-8.4c0.1,1.1,0.4,2.1,1.1,2.8c0.7,0.7,1.6,1,2.8,1c1.5,0,3-0.4,4.3-1.5v2.3
		c-0.7,0.4-1.5,0.9-2.2,1s-1.5,0.3-2.5,0.3c-1.3,0-2.3-0.2-3.2-0.7c-0.9-0.6-1.5-1.3-2-2.2c-0.5-0.9-0.7-2-0.7-3.2
		c0-1.8,0.6-3.3,1.5-4.4c1-1.1,2.3-1.6,4-1.6c1.5,0,2.8,0.6,3.7,1.6c0.9,1.1,1.5,2.5,1.5,4.4L396.5,123.9L396.5,123.9z M388.1,122.6
		h5.9c-0.1-1-0.3-1.6-0.9-2.2s-1.2-0.7-2-0.7c-0.7,0-1.5,0.2-2.1,0.7C388.5,121,388.3,121.6,388.1,122.6z"/>
	<path class="st7" d="M398.4,128.9v-2.5c0.7,0.4,1.3,0.9,2,1.1s1.3,0.4,1.8,0.4s0.9-0.1,1.2-0.3c0.3-0.2,0.6-0.6,0.6-0.9
		s-0.1-0.7-0.3-0.9c-0.2-0.2-0.7-0.6-1.5-1c-1.5-0.9-2.5-1.5-3-2.2c-0.4-0.7-0.7-1.2-0.7-2c0-0.9,0.3-1.6,1.1-2.2s1.6-0.9,2.8-0.9
		c1.2,0,2.3,0.3,3.5,1v2.3c-1.5-0.9-2.5-1.2-3.4-1.2c-0.4,0-0.7,0.1-1.1,0.3c-0.3,0.2-0.4,0.4-0.4,0.7c0,0.3,0.1,0.6,0.3,0.7
		c0.2,0.2,0.7,0.6,1.3,0.9l0.9,0.4c2,1.1,3,2.3,3,3.7c0,1-0.3,1.8-1.1,2.4c-0.7,0.7-1.8,0.9-3,0.9c-0.7,0-1.3-0.1-1.9-0.2
		C399.9,129.6,399.2,129.2,398.4,128.9z"/>
</g>
<g>
	<ellipse class="st0" cx="53.7" cy="90.3" rx="40.4" ry="38.3"/>
	<path class="st3" d="M41.4,51.2l0.7,1.6c-0.8,0.9-1.7,1.5-2.8,2c-1.4,0.5-2.7,0.6-3.8,0.2c-1.1-0.4-2-1.2-2.4-2.2
		c-0.5-1.1-0.4-2.1,0.2-3.3c0.6-1.1,1.5-2,2.9-2.4c1.1-0.4,2.2-0.6,3.1-0.4l0.7,1.7c-1.1-0.2-2.2-0.1-3,0.3
		c-0.9,0.3-1.4,0.8-1.8,1.4c-0.3,0.7-0.4,1.2-0.1,2c0.3,0.7,0.8,1.1,1.5,1.3s1.5,0.2,2.3-0.2c0.4-0.2,0.8-0.4,1.1-0.6
		C40.3,52.1,40.8,51.7,41.4,51.2z"/>
	<path class="st3" d="M44.2,47.6l0.3,1.5l0,0c0.3-1.2,0.8-1.9,1.4-2c0.3-0.1,0.8,0,1.2,0.2l-0.2,1.5c-0.5-0.2-0.9-0.2-1.1-0.2
		c-0.4,0.1-0.7,0.4-0.9,1c-0.2,0.5-0.2,0.8-0.2,0.9l0.5,2.3l-1.8,0.4l-1.1-5.3L44.2,47.6z"/>
	<path class="st3" d="M54,50.3l0.1,1.1c-0.7,0.5-1.5,0.8-2.5,0.9c-1.1,0.1-1.8-0.2-2.5-0.7c-0.7-0.4-1-1.1-1-2
		c-0.1-0.8,0.2-1.5,0.7-2c0.6-0.6,1.2-0.9,2.1-1c0.9-0.1,1.6,0.2,2.3,0.7s0.9,1.2,0.9,2.2L50,49.8c0.1,0.5,0.3,0.9,0.7,1.1
		s0.8,0.4,1.3,0.3C52.6,51.2,53.3,50.8,54,50.3z M50,48.9l2.5-0.2c-0.2-0.8-0.7-1.2-1.3-1.1C50.4,47.7,50,48.1,50,48.9z"/>
	<path class="st3" d="M61,51.2l-0.1,1c-0.7,0.3-1.2,0.4-1.7,0.4c-0.6-0.1-0.9-0.3-0.9-0.7c-0.7,0.4-1.3,0.5-2,0.4
		c-0.5-0.1-0.8-0.2-1.1-0.5c-0.2-0.2-0.4-0.6-0.4-1c0.1-0.4,0.2-0.8,0.7-1.1c0.3-0.3,1.3-0.5,3-0.9c0.1-0.6-0.2-1-0.9-1.1
		c-0.8-0.1-1.5,0.2-2.2,0.7l0.2-1.4c0.8-0.4,1.6-0.5,2.6-0.4c1.6,0.2,2.4,0.7,2.3,1.9l-0.2,2.4c0,0.2,0.1,0.4,0.2,0.4
		C60.5,51.5,60.7,51.3,61,51.2z M58.3,51l0.2-1.3c-0.7,0.2-1.1,0.3-1.3,0.4c-0.2,0.2-0.4,0.3-0.4,0.6c0,0.2,0,0.3,0.2,0.4
		c0.1,0.2,0.2,0.2,0.4,0.2C57.6,51.3,57.9,51.2,58.3,51z"/>
	<path class="st3" d="M66.7,48.3l-0.3,1.1l-2-0.4l-0.6,2.2c-0.1,0.3-0.1,0.5,0.1,0.7c0.1,0.2,0.3,0.3,0.6,0.4
		c0.4,0.1,0.8,0.1,1.2-0.1l-0.3,1.2c-0.7,0.1-1.1,0.1-1.7-0.1c-0.7-0.2-1.1-0.4-1.5-0.9c-0.3-0.4-0.4-1-0.2-1.6l0.6-2.3l-0.8-0.2
		l0.1-0.3l2.9-2l0.2,0.1l-0.4,1.7L66.7,48.3z"/>
	<path class="st3" d="M69.7,49.3l-1.9,5.2l-1.7-0.7l1.9-5.2L69.7,49.3z M68.5,47.1c0.1-0.2,0.2-0.4,0.6-0.5c0.3-0.1,0.5-0.2,0.8-0.1
		c0.2,0.1,0.5,0.2,0.6,0.4c0.2,0.2,0.2,0.4,0.1,0.7c-0.1,0.2-0.2,0.4-0.5,0.5c-0.2,0.2-0.5,0.2-0.8,0.1c-0.2-0.1-0.5-0.2-0.6-0.5
		S68.4,47.2,68.5,47.1z"/>
	<path class="st3" d="M70.8,55.7l0.2-6l1.7,0.8l-0.2,3.2l2.5-2.2l1.7,0.8l-4.9,3.9L70.8,55.7z"/>
	<path class="st3" d="M79.9,58.9l-0.7,0.9c-0.9,0-1.7-0.2-2.6-0.8c-0.9-0.5-1.3-1.2-1.5-2c-0.2-0.7-0.1-1.5,0.5-2.1
		c0.5-0.7,1.1-1.1,2-1.2c0.8-0.2,1.5,0,2.3,0.5c0.7,0.4,1.1,1.1,1.3,1.9c0.2,0.7-0.1,1.5-0.7,2.3L77,56.1c-0.2,0.4-0.3,0.8-0.2,1.2
		c0.1,0.4,0.4,0.7,0.9,1.1C78.3,58.7,78.9,58.9,79.9,58.9z M77.6,55.4l2,1.3c0.4-0.7,0.3-1.2-0.3-1.6C78.7,54.7,78.2,54.7,77.6,55.4
		z"/>
	<path class="st4" d="M96.4,67.4l-7,4.6l-1.1-1.6l2.8-1.9l-2.4-3.3l-2.8,1.9l-1.1-1.6l7-4.6l1.1,1.6L90,64.3l2.4,3.3l2.8-1.9
		L96.4,67.4z"/>
	<path class="st4" d="M95.8,72.3l-5.2,2.4l-0.8-1.5l5.2-2.4L95.8,72.3z M96.7,70c0.2-0.2,0.5-0.2,0.8-0.1c0.2,0.1,0.5,0.2,0.6,0.4
		c0.2,0.2,0.2,0.4,0.1,0.7c-0.1,0.2-0.2,0.4-0.6,0.5c-0.2,0.2-0.5,0.2-0.8,0c-0.2-0.1-0.5-0.2-0.6-0.5c-0.1-0.2-0.2-0.4,0-0.7
		C96.3,70.3,96.4,70,96.7,70z"/>
	<path class="st4" d="M98.6,79.4l-1.1,0.4l-0.2-0.7c-0.2,0.3-0.6,0.4-0.8,0.5c-0.4,0.2-0.9,0.1-1.3-0.1c-0.5-0.2-0.9-0.6-1.1-1.1
		c-0.3-0.6-0.5-0.9-0.6-1s-0.2-0.1-0.3-0.1c-0.1,0-0.2,0.1-0.2,0.2s0.1,0.5,0.2,1.2c0.2,0.7,0.2,1.2-0.1,1.6
		c-0.2,0.4-0.6,0.6-0.9,0.7c-0.7,0.2-1.1,0.1-1.6-0.3s-0.9-1-1.1-1.9c-0.3-0.9-0.4-1.6-0.3-2.2c0.2-0.6,0.4-0.9,0.9-1.1
		c0.7-0.2,1.2,0.1,1.9,1c0-0.4,0.2-0.7,0.5-0.8c0.4-0.2,0.8,0.1,1.1,0.7c-0.1-0.4,0-0.9,0.2-1.2c0.2-0.4,0.6-0.6,0.9-0.7
		c0.6-0.2,1.1-0.2,1.5,0.2c0.6,0.3,0.9,0.7,1.2,1.5L98.6,79.4z M90.3,78.8c0.2,0.4,0.3,0.6,0.5,0.8c0.2,0.2,0.4,0.2,0.7,0.2
		c0.4-0.2,0.5-0.6,0.2-1.5c-0.2-0.4-0.3-0.7-0.5-0.8c-0.2-0.2-0.4-0.2-0.7-0.2C90.1,77.4,90,77.9,90.3,78.8z M96.4,76.7
		c-0.1-0.3-0.2-0.4-0.6-0.6c-0.2-0.1-0.5-0.1-0.8,0c-0.2,0.1-0.5,0.2-0.7,0.5c-0.2,0.2-0.2,0.5-0.1,0.7s0.2,0.4,0.6,0.6
		c0.2,0.2,0.6,0.2,0.9,0.1c0.2-0.1,0.5-0.2,0.6-0.4C96.5,77.2,96.6,77,96.4,76.7z"/>
	<path class="st4" d="M101.9,82l-3.6,0.5l0,0c0.7,0.4,1.1,0.9,1.2,1.5s0,1.1-0.3,1.5s-0.9,0.7-1.5,0.8l-3.6,0.5l-0.3-1.7l3.3-0.5
		c0.9-0.2,1.1-0.4,1.1-1.1c-0.1-0.4-0.4-0.7-1-1.1L93.6,83l-0.3-1.7l8.3-1.1L101.9,82z"/>
	<path class="st4" d="M97.8,90.9h-1.6l-0.1-3.1h1.6L97.8,90.9z"/>
	<path class="st4" d="M99.7,94.1L99.2,94c0.4,0.5,0.5,1.1,0.5,1.6c-0.1,0.7-0.5,1.2-1.1,1.7c-0.7,0.4-1.3,0.6-2.2,0.5
		s-1.6-0.4-2.1-1c-0.5-0.5-0.7-1.2-0.7-2c0.1-0.5,0.2-1,0.6-1.3l-3.1-0.4l0.2-1.7l8.5,0.9L99.7,94.1z M98.1,94l-2.7-0.3
		c-0.3,0.3-0.5,0.6-0.5,1c-0.1,0.4,0.1,0.7,0.4,1.1c0.3,0.3,0.7,0.4,1.2,0.5c0.6,0.1,1,0,1.3-0.2s0.6-0.5,0.6-0.9
		C98.5,94.8,98.4,94.4,98.1,94z"/>
	<path class="st4" d="M93.4,104l-1.1-0.3c-0.3-0.7-0.3-1.6,0-2.5s0.8-1.5,1.5-2c0.7-0.4,1.5-0.5,2.4-0.3s1.5,0.7,1.9,1.3
		c0.4,0.7,0.5,1.4,0.2,2.2c-0.2,0.8-0.7,1.4-1.5,1.8s-1.5,0.4-2.5,0.1l1.1-3.7c-0.6-0.1-0.9-0.1-1.3,0.2c-0.4,0.2-0.7,0.6-0.8,1.1
		C93.1,102.4,93.2,103.1,93.4,104z M96.3,100.7l-0.7,2.3c0.9,0.2,1.3-0.2,1.5-0.8C97.3,101.5,97.1,101.1,96.3,100.7z"/>
	<path class="st4" d="M95.9,108.2l-1.5-0.7l0,0c0.9,0.9,1.1,1.7,0.9,2.3c-0.2,0.3-0.5,0.6-0.9,0.8l-1.2-1.1c0.5-0.3,0.7-0.5,0.9-0.7
		c0.2-0.4,0.1-0.7-0.3-1.2c-0.4-0.4-0.6-0.7-0.7-0.7l-2.3-1l0.8-1.5l5.2,2.2L95.9,108.2z"/>
	<path class="st4" d="M92.9,113.4l-0.4,0.7l-1.1-0.6l0.4-0.7l-3.9-2.1l0.9-1.5l3.9,2.1l0.4-0.7l1.1,0.6l-0.4,0.7l0.2,0.2
		c0.7,0.4,1.1,0.9,1.2,1.5c0.2,0.6,0.1,1.2-0.3,1.9c-0.1,0.2-0.3,0.4-0.7,0.8l-1.2-0.7c0.2-0.3,0.4-0.5,0.5-0.6
		c0.3-0.5,0.2-1-0.4-1.3L92.9,113.4z"/>
	<path class="st4" d="M90.2,117.4c-0.6,0.7-1.2,1.1-2,1.2c-0.8,0.2-1.5,0-2.4-0.6c-0.8-0.5-1.1-1.2-1.1-2s0.2-1.5,0.8-2.1
		c0.7-0.7,1.2-1.1,2.1-1.2c0.8-0.2,1.5,0.1,2.3,0.6c0.7,0.5,1.1,1.2,1.1,2C91,115.9,90.7,116.8,90.2,117.4z M86.3,114.5
		c-0.6,0.7-0.3,1.3,0.8,2.1c1,0.7,1.7,0.7,2.3,0.2c0.2-0.3,0.3-0.7,0.2-1.1s-0.4-0.7-0.9-1.1C87.6,113.9,86.8,113.8,86.3,114.5z"/>
	<path class="st4" d="M85.4,122.1l-1.1-1.1l0,0c0.4,1.2,0.4,2-0.2,2.4c-0.2,0.2-0.7,0.4-1.2,0.4l-0.7-1.4c0.6-0.1,0.9-0.2,1.1-0.4
		c0.3-0.3,0.4-0.7,0.2-1.2c-0.2-0.5-0.2-0.8-0.3-0.9l-1.7-1.7l1.3-1.2l3.9,4L85.4,122.1z"/>
	<path class="st4" d="M80.6,126l-0.4-0.6c-0.2,0.7-0.7,1.3-1.2,1.7c-0.9,0.5-1.6,0.5-2.4,0c-0.2,1.1-0.7,1.7-1.3,2.1
		c-0.6,0.3-1.1,0.4-1.7,0.3c-0.6-0.2-1-0.4-1.3-1l-2-2.9l1.5-0.9l1.7,2.8c0.2,0.3,0.5,0.5,0.7,0.7c0.3,0.1,0.6,0.1,0.9-0.1
		c0.5-0.3,0.7-0.7,0.7-1.5l-2-2.9l1.5-0.9l1.8,2.8c0.2,0.3,0.5,0.5,0.7,0.6c0.3,0.1,0.6,0,0.9-0.2c0.4-0.2,0.7-0.7,0.8-1.3l-2-3.1
		l1.5-0.9l2.9,4.6L80.6,126z"/>
	<path class="st4" d="M64,128.9l-0.3-0.9c0.5-0.5,0.9-0.8,1.4-1c0.6-0.2,0.9-0.1,1.1,0.3c0.5-0.6,1-1,1.5-1.2c0.4-0.2,0.9-0.2,1.2,0
		c0.4,0.2,0.7,0.4,0.8,0.7c0.2,0.4,0.2,0.9-0.1,1.2c-0.2,0.4-1,1.1-2.4,2c0.2,0.6,0.7,0.7,1.2,0.6c0.7-0.2,1.3-0.7,1.7-1.5l0.5,1.3
		c-0.6,0.7-1.2,1.1-2.1,1.4c-1.5,0.5-2.5,0.2-2.8-0.8l-0.9-2.4c-0.1-0.2-0.2-0.3-0.4-0.3C64.4,128.4,64.3,128.6,64,128.9z M66.7,128
		l0.5,1.2c0.5-0.4,0.9-0.7,1-0.9s0.2-0.4,0.1-0.7c-0.1-0.2-0.2-0.3-0.3-0.4s-0.3-0.1-0.5,0C67.2,127.4,67,127.7,66.7,128z"/>
	<path class="st4" d="M62.3,133.4l-0.2-0.7c-0.4,0.7-1,1.1-1.7,1.2c-0.7,0.1-1.1,0-1.5-0.3c-0.5-0.3-0.8-0.7-0.9-1.4l-0.7-3.4
		l1.8-0.3l0.6,3.3c0.2,0.7,0.5,1.1,1.1,1c0.4-0.1,0.8-0.4,1.1-1.1l-0.7-3.5l1.8-0.3l0.9,5.4L62.3,133.4z"/>
	<path class="st4" d="M51.3,130.1v-1.2c0.7-0.2,1.3-0.4,2-0.4c1,0,1.8,0.2,2.4,0.7s0.9,1.2,0.9,2s-0.3,1.5-0.9,2
		c-0.7,0.5-1.4,0.8-2.4,0.8c-0.7,0-1.2-0.2-2-0.4v-1.2c0.5,0.2,1,0.4,1.5,0.4c0.6,0,0.9-0.2,1.3-0.4c0.3-0.3,0.5-0.7,0.5-1.1
		s-0.2-0.9-0.5-1.2s-0.7-0.4-1.2-0.4C52.5,129.7,52,129.9,51.3,130.1z"/>
	<path class="st4" d="M44.6,129.5l0.2-1.1c0.8-0.4,1.6-0.5,2.7-0.4c1,0.2,1.8,0.5,2.3,1.1c0.6,0.6,0.7,1.3,0.6,2.1
		c-0.2,0.8-0.6,1.5-1.1,2c-0.7,0.4-1.4,0.6-2.3,0.5c-0.9-0.2-1.5-0.5-2-1.1c-0.5-0.7-0.7-1.4-0.4-2.4l4.1,0.6
		c0.1-0.5-0.1-0.9-0.4-1.2c-0.3-0.3-0.7-0.5-1.2-0.6C46.1,128.9,45.4,129.1,44.6,129.5z M48.3,131.7l-2.5-0.4c0,0.8,0.3,1.2,1,1.3
		C47.6,132.8,48.1,132.5,48.3,131.7z"/>
	<path class="st5" d="M34.2,125.6l0.7-1.3l5.8,2.4l-3.3,7.4l-5.7-2.3l0.7-1.3l3.7,1.5l0.7-1.5l-3.6-1.5l0.7-1.3l3.6,1.5l0.8-1.8
		L34.2,125.6z"/>
	<path class="st5" d="M29.2,127.3l0.5-0.7c-0.8,0.2-1.5,0.2-2.1-0.2c-0.5-0.3-0.8-0.7-0.9-1.2c-0.2-0.5,0-1.1,0.4-1.6l2-2.8l1.5,1
		l-2,2.8c-0.4,0.6-0.4,1.1,0.1,1.4c0.4,0.2,0.9,0.2,1.5-0.1l2-2.9l1.5,1l-3.2,4.5L29.2,127.3z"/>
	<path class="st5" d="M22.8,117.7l0.8-0.8c0.9,0.1,1.6,0.4,2.4,1.1c0.7,0.7,1.1,1.3,1.2,2.1c0.1,0.7-0.2,1.5-0.8,2
		c-0.7,0.6-1.3,0.9-2.1,1c-0.8,0.1-1.5-0.2-2.2-0.8s-0.9-1.2-1-2c0-0.8,0.3-1.5,1-2.1l3,2.7c0.3-0.4,0.5-0.8,0.4-1.2
		c-0.1-0.4-0.3-0.8-0.7-1.2C24.4,118.1,23.7,117.7,22.8,117.7z M24.5,121.5l-1.8-1.6c-0.5,0.7-0.5,1.2,0.1,1.7
		C23.2,122.1,23.9,122,24.5,121.5z"/>
	<path class="st5" d="M17.7,117.7l1.3-1l0,0c-1.2,0.3-2.1,0.2-2.5-0.3c-0.2-0.2-0.3-0.7-0.3-1.2l1.5-0.6c0.1,0.5,0.2,0.8,0.3,1.1
		c0.2,0.3,0.7,0.4,1.2,0.3c0.6-0.1,0.9-0.2,1-0.2l2-1.5l1.1,1.3l-4.6,3.4L17.7,117.7z"/>
	<path class="st5" d="M12.3,109.7l1-0.6l0.4,0.7c0.2-0.3,0.4-0.5,0.7-0.7c0.4-0.2,0.9-0.3,1.3-0.2c0.5,0.2,0.9,0.4,1.3,0.9
		s0.7,0.7,0.7,0.8c0.1,0.1,0.2,0.1,0.3,0c0.1-0.1,0.2-0.2,0.2-0.2c0-0.2-0.2-0.5-0.5-1.2s-0.5-1.2-0.3-1.6s0.4-0.7,0.7-0.9
		c0.6-0.3,1.1-0.3,1.6-0.1c0.6,0.3,1.1,0.8,1.5,1.6c0.5,0.8,0.8,1.5,0.8,2c0,0.6-0.2,1-0.7,1.2c-0.7,0.4-1.2,0.2-2-0.6
		c0.1,0.4,0,0.7-0.3,1c-0.4,0.2-0.8,0.1-1.2-0.4c0.2,0.4,0.2,0.8,0.1,1.2c-0.2,0.4-0.4,0.7-0.8,1c-0.5,0.3-1,0.3-1.5,0.2
		c-0.7-0.2-1.1-0.6-1.5-1.2L12.3,109.7z M14.8,111.9c0.2,0.2,0.4,0.4,0.7,0.4c0.3,0.1,0.6,0,0.8-0.1c0.2-0.2,0.4-0.4,0.5-0.6
		c0.1-0.3,0.1-0.5-0.1-0.7s-0.4-0.4-0.7-0.4c-0.3-0.1-0.6,0-0.9,0.2c-0.2,0.2-0.4,0.3-0.5,0.6C14.5,111.5,14.7,111.6,14.8,111.9z
		 M20.3,108.6c-0.2-0.3-0.4-0.5-0.7-0.7c-0.2-0.2-0.5-0.2-0.7-0.1c-0.4,0.2-0.3,0.7,0.2,1.5c0.2,0.4,0.5,0.6,0.7,0.7
		c0.2,0.2,0.5,0.2,0.7,0.1C20.8,109.9,20.8,109.4,20.3,108.6z"/>
	<path class="st5" d="M9.5,103.2l9.4,0.6l0.7,1.7l-4.1-0.2l-3.7,3.7l-0.8-1.7l2.4-2l-3.2-0.2L9.5,103.2z"/>
	<path class="st5" d="M10.6,98.9l1.6-0.4l0.8,2.9l-1.6,0.4L10.6,98.9z"/>
	<path class="st5" d="M11.4,92.1l1.1-0.2c0.6,0.6,0.9,1.4,1,2.4s-0.1,1.8-0.6,2.4s-1.1,1-2,1.1s-1.6-0.1-2.3-0.6
		c-0.7-0.4-1-1.1-1.1-2c-0.1-0.8,0.1-1.5,0.7-2.1s1.3-1,2.3-1.1l0.5,4c0.6-0.1,0.9-0.3,1.1-0.7c0.2-0.4,0.3-0.8,0.2-1.3
		C12.5,93.3,12.1,92.7,11.4,92.1z M10.2,96l-0.3-2.4c-0.9,0.2-1.1,0.6-1.1,1.3C8.9,95.7,9.4,96,10.2,96z"/>
	<path class="st5" d="M7.6,88.9v-0.8h1.2v0.8l4.6,0.1v1.7l-4.6-0.1v0.8H7.6v-0.8H7.3c-0.8,0-1.4-0.2-1.9-0.7
		c-0.5-0.4-0.7-1.1-0.7-1.8c0-0.2,0.1-0.5,0.2-1.1h1.5c-0.1,0.4-0.1,0.6-0.1,0.7c0,0.7,0.3,1,1,1L7.6,88.9z"/>
	<path class="st5" d="M7.9,85L8,84.3l1.2,0.2l-0.1,0.7l4.6,0.4l-0.3,1.7l-4.6-0.4l-0.1,0.7l-1.1-0.2l0.1-0.7H7.4
		c-0.8-0.1-1.4-0.4-1.8-0.8c-0.4-0.4-0.6-1.1-0.5-1.8c0-0.2,0.1-0.5,0.2-1.1l1.5,0.2c-0.1,0.4-0.2,0.6-0.2,0.7
		c-0.1,0.6,0.2,1,0.9,1.1L7.9,85L7.9,85z"/>
	<path class="st5" d="M6.4,82.8c-0.2-0.1-0.5-0.2-0.7-0.4c-0.2-0.2-0.2-0.4-0.2-0.7c0.1-0.2,0.2-0.4,0.4-0.6
		c0.2-0.2,0.5-0.2,0.8-0.2C7,81,7.3,81.1,7.5,81.4c0.2,0.2,0.2,0.4,0.2,0.7c-0.1,0.2-0.2,0.4-0.4,0.6C7,82.8,6.6,82.9,6.4,82.8z
		 M8.6,81.4l5.6,1.1l-0.3,1.7l-5.6-1.1L8.6,81.4z"/>
	<path class="st5" d="M14.5,76.2l1.2,0.4c0,0.7,0,1.3-0.2,1.9c-0.3,0.9-0.8,1.5-1.5,2c-0.7,0.4-1.5,0.4-2.4,0.2
		c-0.9-0.2-1.4-0.7-1.8-1.4c-0.4-0.7-0.4-1.5-0.2-2.4c0.2-0.5,0.5-1.1,0.9-1.6l1.2,0.4c-0.4,0.4-0.7,0.8-0.8,1.2
		c-0.2,0.5-0.2,0.9,0.1,1.3c0.2,0.4,0.6,0.7,1,0.8c0.5,0.2,0.9,0.2,1.3-0.1c0.4-0.2,0.7-0.5,0.8-1.1C14.5,77.4,14.5,77,14.5,76.2z"
		/>
	<path class="st5" d="M9.4,73c-0.2-0.1-0.5-0.3-0.6-0.5s-0.1-0.5,0-0.7s0.3-0.4,0.6-0.5s0.6-0.1,0.8,0s0.4,0.3,0.6,0.5
		c0.1,0.2,0.1,0.5,0,0.7s-0.3,0.4-0.6,0.5C9.8,73.1,9.6,73.1,9.4,73z M11.9,72.1l5.3,2.2l-0.7,1.5l-5.2-2.2L11.9,72.1z"/>
	<path class="st5" d="M18.9,67.6l1,0.5c0.1,0.8-0.2,1.6-0.7,2.4c-0.6,0.9-1.1,1.4-2,1.6s-1.5,0.2-2.4-0.3c-0.8-0.4-1.2-1.1-1.4-1.8
		c-0.2-0.7-0.1-1.5,0.4-2.2s1.1-1.2,1.9-1.3c0.8-0.2,1.6,0,2.5,0.5l-2.1,3.4c0.5,0.2,0.9,0.3,1.3,0.2c0.4-0.2,0.8-0.4,1-0.9
		C18.9,69.2,18.9,68.5,18.9,67.6z M15.4,70l1.2-2c-0.8-0.3-1.3-0.2-1.7,0.4C14.5,69.1,14.7,69.5,15.4,70z"/>
	<path class="st5" d="M17.7,63l0.7,0.5c-0.2-0.7,0-1.4,0.5-2c0.4-0.4,0.9-0.7,1.4-0.7c0.6-0.1,1.1,0.2,1.6,0.6l2.8,2.2l-1.1,1.2
		l-2.7-2.1c-0.7-0.4-1.1-0.5-1.5-0.1c-0.3,0.3-0.3,0.8-0.1,1.5l2.8,2.3L21,67.6l-4.4-3.5L17.7,63z"/>
	<path class="st5" d="M24.9,56.2l0.8,0.9l-1.5,1.3l1.5,1.7c0.2,0.2,0.4,0.3,0.7,0.3c0.2,0,0.5-0.1,0.7-0.2c0.3-0.2,0.6-0.6,0.7-1.1
		l0.9,1c-0.3,0.5-0.7,1-1,1.3c-0.6,0.4-1.1,0.7-1.5,0.7c-0.6,0-1-0.3-1.5-0.7L23,59.5L22.3,60l-0.4-0.2v-3.4l0.2-0.2l1.1,1.2
		L24.9,56.2z"/>
</g>
<ellipse class="st8" cx="54.2" cy="90.1" rx="33.1" ry="31.4"/>
<polygon class="st8" points="53.3,59.7 25.9,104.8 80.8,104.8 "/>
<circle class="st8" cx="53.8" cy="89.9" r="48.1"/>
</svg>
