<?xml version="1.0" encoding="utf-8"?>
<!-- Generator: Adobe Illustrator 22.0.1, SVG Export Plug-In . SVG Version: 6.00 Build 0)  -->
<svg version="1.1" id="Layer_1" xmlns="http://www.w3.org/2000/svg" xmlns:xlink="http://www.w3.org/1999/xlink" x="0px" y="0px"
	 viewBox="0 0 944 150" style="enable-background:new 0 0 944 150;" xml:space="preserve">
<style type="text/css">
	.st0{fill:none;}
	.st1{fill:#FFCD05;}
	.st2{fill:#FF66FF;}
	.st3{fill:#00FFFF;}
	.st4{fill:#FF6666;}
	.st5{fill:#66FF66;}
	.st6{fill:#BE84FF;}
	.st7{fill:black;}
	.st8{fill:none;stroke:black;stroke-miterlimit:10;stroke-width: 2px;}
</style>
<g>
	<rect x="168.7" y="30.3" class="st0" width="284.4" height="27.6"/>
	<path class="st1" d="M186.2,51.3l-1.1-3h-9.5l-1.1,3c-0.4,1.2-0.8,1.9-1.1,2.3c-0.3,0.4-0.8,0.7-1.5,0.7c-0.5,0-1.1-0.3-1.6-0.7
		s-0.7-0.9-0.7-1.5c0-0.3,0-0.7,0.1-0.9c0.1-0.3,0.3-0.8,0.5-1.4l6-15.2c0.1-0.4,0.4-0.9,0.7-1.6s0.5-1.1,0.8-1.5s0.7-0.7,1.1-0.9
		c0.4-0.3,0.9-0.4,1.6-0.4c0.7,0,1.2,0.1,1.6,0.4c0.4,0.3,0.8,0.5,1.1,0.9s0.5,0.8,0.7,1.2c0.1,0.4,0.4,1.1,0.7,1.8l6.1,15
		c0.5,1.1,0.7,2,0.7,2.4c0,0.5-0.3,1.1-0.7,1.5s-0.9,0.7-1.6,0.7c-0.4,0-0.7,0-0.9-0.1c-0.3-0.1-0.5-0.3-0.7-0.5s-0.4-0.5-0.5-1.1
		C186.8,51.8,186.3,51.7,186.2,51.3z M176.9,44.8h6.9l-3.5-9.6L176.9,44.8z"/>
	<path class="st2" d="M199.3,33.2v16.9h9.6c0.8,0,1.4,0.1,1.8,0.5c0.4,0.4,0.7,0.8,0.7,1.4s-0.1,1.1-0.5,1.4
		c-0.4,0.3-0.9,0.5-1.8,0.5h-11.4c-1.1,0-1.8-0.3-2.2-0.7s-0.7-1.2-0.7-2.2V33.2c0-0.9,0.3-1.6,0.7-2.2c0.4-0.5,0.9-0.7,1.6-0.7
		c0.7,0,1.2,0.3,1.8,0.7C199.5,31.4,199.3,32.2,199.3,33.2z"/>
	<path class="st3" d="M232.5,46.6c0,0.7-0.1,1.5-0.5,2.4s-0.9,1.8-1.8,2.6c-0.8,0.8-1.8,1.5-3,2s-2.6,0.8-4.2,0.8
		c-1.2,0-2.3-0.1-3.4-0.4c-1.1-0.3-1.9-0.5-2.7-1.1s-1.6-1.1-2.3-1.9c-0.7-0.7-1.1-1.5-1.6-2.4s-0.8-1.9-0.9-2.8
		c-0.1-0.9-0.3-2.2-0.3-3.2c0-1.9,0.3-3.5,0.8-5s1.4-2.7,2.3-3.8c0.9-1.1,2.2-1.9,3.5-2.4s2.8-0.8,4.3-0.8c1.9,0,3.5,0.4,5,1.1
		s2.6,1.6,3.4,2.8c0.8,1.2,1.2,2.2,1.2,3.1c0,0.5-0.1,1.1-0.5,1.5s-0.8,0.7-1.4,0.7c-0.5,0-1.1-0.1-1.4-0.4
		c-0.3-0.3-0.7-0.8-0.9-1.5c-0.7-1.2-1.4-2-2.2-2.6s-1.9-0.8-3.1-0.8c-1.9,0-3.5,0.7-4.6,2.2s-1.8,3.5-1.8,6.2
		c0,1.8,0.3,3.2,0.8,4.5c0.5,1.2,1.2,2,2.2,2.7s2,0.9,3.2,0.9c1.4,0,2.4-0.3,3.4-0.9s1.6-1.6,2.2-3c0.1-0.7,0.4-1.1,0.8-1.5
		c0.4-0.4,0.8-0.5,1.5-0.5c0.5,0,1.1,0.1,1.5,0.5C232.5,45.9,232.5,46,232.5,46.6z"/>
	<path class="st4" d="M241.4,33.2v6.6h10.2v-6.6c0-0.9,0.3-1.6,0.7-2.2c0.4-0.5,0.9-0.7,1.6-0.7c0.7,0,1.2,0.3,1.8,0.7
		c0.5,0.4,0.7,1.2,0.7,2.2v18.3c0,0.9-0.3,1.6-0.7,2.2s-1.1,0.7-1.8,0.7s-1.2-0.3-1.8-0.7c-0.5-0.4-0.7-1.2-0.7-2.2v-7.9h-10v7.9
		c0,0.9-0.3,1.6-0.7,2.2c-0.4,0.5-1.1,0.7-1.8,0.7s-1.2-0.3-1.8-0.7s-0.7-1.2-0.7-2.2V33.2c0-0.9,0.3-1.6,0.7-2.2
		c0.4-0.5,0.9-0.7,1.8-0.7c0.7,0,1.2,0.3,1.8,0.7C241.3,31.4,241.4,32.2,241.4,33.2z"/>
	<path class="st5" d="M276.8,34.4h-10.6v5.7h9.7c0.7,0,1.2,0.1,1.6,0.5s0.5,0.8,0.5,1.2s-0.1,0.9-0.5,1.4c-0.4,0.4-0.9,0.5-1.6,0.5
		h-9.7v6.6h11c0.7,0,1.4,0.1,1.6,0.5c0.3,0.4,0.5,0.8,0.5,1.4s-0.1,0.9-0.5,1.4c-0.4,0.4-0.9,0.5-1.6,0.5h-12.9
		c-1.1,0-1.8-0.3-2.2-0.7c-0.4-0.4-0.7-1.2-0.7-2.2V33.6c0-0.7,0.1-1.2,0.3-1.6c0.1-0.4,0.5-0.7,0.9-0.9c0.4-0.3,0.9-0.3,1.6-0.3
		h12.5c0.8,0,1.4,0.1,1.6,0.5c0.3,0.4,0.5,0.8,0.5,1.4s-0.1,0.9-0.5,1.4C278,34.4,277.5,34.4,276.8,34.4z"/>
	<path class="st6" d="M291,50.5l-3.8-14.8v16.1c0,0.9-0.1,1.5-0.5,2s-0.9,0.7-1.6,0.7s-1.2-0.3-1.5-0.7s-0.5-1.1-0.5-2V33.3
		c0-1.1,0.3-1.8,0.8-2c0.5-0.3,1.2-0.5,2.2-0.5h1.5c0.8,0,1.5,0.1,1.9,0.3c0.4,0.1,0.7,0.4,0.9,0.8c0.3,0.4,0.4,1.1,0.7,2l3.4,12.7
		l3.4-12.7c0.3-0.9,0.4-1.6,0.7-2c0.3-0.4,0.5-0.7,0.9-0.8c0.4-0.1,1.1-0.3,1.9-0.3h1.5c0.9,0,1.6,0.1,2.2,0.5
		c0.5,0.4,0.8,1.1,0.8,2v18.4c0,0.9-0.1,1.5-0.5,2s-0.9,0.7-1.6,0.7s-1.1-0.3-1.5-0.7s-1.1-1.2-1.1-2V35.6l-3.8,14.8
		c-0.3,0.9-0.4,1.6-0.5,2.2s-0.4,0.8-0.8,1.2s-0.9,0.5-1.8,0.5c-0.5,0-1.1-0.1-1.4-0.4c-0.3-0.3-0.7-0.5-0.9-0.9
		c-0.3-0.4-0.4-0.8-0.5-1.2C291.1,51.3,291.1,50.9,291,50.5z"/>
</g>
<g>
	<path class="st1" d="M179.7,72.7h2.2l9.9,22.3h-3.1l-3-6.6h-9.5l-2.7,6.6h-3.2L179.7,72.7z M184.3,85.6l-3.5-8l-3.2,8H184.3z"/>
	<path class="st7" d="M196.9,80.4v3.2l0.1-0.3c1.4-2.3,2.8-3.4,4.2-3.4c1.1,0,2.2,0.5,3.4,1.6l-1.5,2.6c-0.9-0.9-1.9-1.5-2.8-1.5
		c-0.9,0-1.8,0.4-2.4,1.4c-0.7,0.9-1.1,1.9-1.1,3.1v7.6h-2.7V80.4H196.9z"/>
	<path class="st7" d="M216.8,91.5v2.8c-1.5,0.5-2.8,0.8-4.2,0.8c-2.3,0-4.1-0.7-5.4-2s-2-3.1-2-5.4s0.7-4.2,2-5.6
		c1.4-1.4,3.1-2.2,5.3-2.2c0.8,0,1.5,0.1,2,0.3c0.5,0.1,1.4,0.4,2.2,0.8v3.1c-1.5-0.9-2.8-1.4-4.1-1.4c-1.4,0-2.4,0.4-3.2,1.4
		s-1.2,2-1.2,3.5s0.4,2.7,1.4,3.5c0.9,0.8,2.2,1.4,3.7,1.4C214.1,92.5,215.5,92.2,216.8,91.5z"/>
	<path class="st7" d="M220.1,72.8h2.8v9.5c1.2-1.5,2.7-2.2,4.5-2.2c0.9,0,1.9,0.3,2.6,0.7c0.7,0.4,1.4,1.2,1.8,2
		c0.4,0.8,0.5,2.2,0.5,3.8v8.3h-2.8v-9.1c0-1.1-0.3-1.9-0.8-2.6s-1.2-0.9-2-0.9c-0.7,0-1.2,0.1-1.8,0.5s-1.2,0.8-1.9,1.6v10.4h-2.8
		L220.1,72.8L220.1,72.8z"/>
	<path class="st7" d="M237.9,74.2c0.5,0,0.9,0.1,1.2,0.5s0.5,0.7,0.5,1.2c0,0.4-0.1,0.8-0.5,1.2c-0.4,0.4-0.8,0.5-1.2,0.5
		s-0.8-0.1-1.2-0.5s-0.5-0.7-0.5-1.2c0-0.4,0.1-0.8,0.5-1.2S237.4,74.2,237.9,74.2z M236.4,80.4h2.8V95h-2.8V80.4z"/>
	<path class="st7" d="M241.4,82.7l5.4-5.3v3h4.6V83h-4.6v7.2c0,1.6,0.7,2.4,2,2.4c1.1,0,2.2-0.4,3.2-1.1v2.7
		c-1.1,0.7-2.3,0.9-3.7,0.9s-2.4-0.4-3.2-1.2c-0.3-0.3-0.5-0.5-0.7-0.8c-0.1-0.3-0.3-0.7-0.4-1.1c-0.1-0.4-0.1-1.4-0.1-2.7v-6.5
		h-2.6v-0.1H241.4z"/>
	<path class="st7" d="M266.8,87.9h-10.3c0.1,1.4,0.5,2.6,1.4,3.4c0.8,0.8,2,1.2,3.4,1.2c1.9,0,3.7-0.5,5.3-1.8v2.8
		c-0.9,0.5-1.8,1.1-2.7,1.2s-1.9,0.4-3.1,0.4c-1.6,0-2.8-0.3-3.9-0.9c-1.1-0.7-1.8-1.6-2.4-2.7c-0.7-1.1-0.9-2.4-0.9-3.9
		c0-2.2,0.7-4.1,1.9-5.4c1.2-1.4,2.8-2,4.9-2c1.9,0,3.5,0.7,4.6,2c1.1,1.4,1.8,3.1,1.8,5.4L266.8,87.9L266.8,87.9z M256.6,86.2h7.3
		c-0.1-1.2-0.4-2-1.1-2.7s-1.5-0.9-2.4-0.9s-1.9,0.3-2.6,0.9C257.1,84.2,256.7,85,256.6,86.2z"/>
	<path class="st7" d="M280.8,91.5v2.8c-1.5,0.5-2.8,0.8-4.2,0.8c-2.3,0-4.1-0.7-5.4-2c-1.4-1.4-2-3.1-2-5.4s0.7-4.2,2-5.6
		c1.4-1.4,3.1-2.2,5.3-2.2c0.8,0,1.5,0.1,2,0.3c0.5,0.1,1.4,0.4,2.2,0.8v3.1c-1.5-0.9-2.8-1.4-4.1-1.4c-1.4,0-2.4,0.4-3.2,1.4
		c-0.8,0.9-1.2,2-1.2,3.5s0.4,2.7,1.4,3.5s2.2,1.4,3.7,1.4C278.1,92.5,279.4,92.2,280.8,91.5z"/>
	<path class="st7" d="M282.1,82.7l5.4-5.3v3h4.6V83h-4.6v7.2c0,1.6,0.7,2.4,2,2.4c1.1,0,2.2-0.4,3.2-1.1v2.7
		c-1.1,0.7-2.3,0.9-3.7,0.9c-1.4,0-2.4-0.4-3.2-1.2c-0.3-0.3-0.5-0.5-0.7-0.8c-0.1-0.3-0.3-0.7-0.4-1.1s-0.1-1.4-0.1-2.7v-6.5H282
		v-0.1H282.1z"/>
	<path class="st7" d="M304.3,94.9v-1.8c-0.7,0.7-1.4,1.2-2.2,1.6c-0.8,0.4-1.6,0.5-2.3,0.5c-0.9,0-1.8-0.3-2.6-0.7
		c-0.8-0.4-1.4-1.1-1.8-1.9s-0.5-2-0.5-3.9v-8.4h2.8v8.3c0,1.5,0.3,2.6,0.7,3.2s1.2,0.9,2.3,0.9c1.4,0,2.6-0.7,3.5-2V80.4h2.8V95
		h-2.8v-0.1H304.3z"/>
	<path class="st7" d="M314.3,80.4v3.2l0.1-0.3c1.4-2.3,2.8-3.4,4.2-3.4c1.1,0,2.2,0.5,3.4,1.6l-1.5,2.6c-0.9-0.9-1.9-1.5-2.8-1.5
		s-1.8,0.4-2.4,1.4s-1.1,1.9-1.1,3.1v7.6h-2.8V80.4H314.3z"/>
	<path class="st7" d="M335.8,87.9h-10.3c0.1,1.4,0.5,2.6,1.4,3.4c0.8,0.8,2,1.2,3.4,1.2c1.9,0,3.7-0.5,5.3-1.8v2.8
		c-0.9,0.5-1.8,1.1-2.7,1.2s-1.9,0.4-3.1,0.4c-1.6,0-2.8-0.3-3.9-0.9c-1.1-0.7-1.8-1.6-2.4-2.7s-0.9-2.4-0.9-3.9
		c0-2.2,0.7-4.1,1.9-5.4c1.2-1.4,2.8-2,4.9-2c1.9,0,3.5,0.7,4.6,2c1.1,1.4,1.8,3.1,1.8,5.4L335.8,87.9L335.8,87.9z M325.7,86.2h7.3
		c-0.1-1.2-0.4-2-1.1-2.7s-1.5-0.9-2.4-0.9s-1.9,0.3-2.6,0.9C326.2,84.2,325.8,85,325.7,86.2z"/>
	<path class="st2" d="M348.4,72.8h3.1V92h10v2.8h-13.1V72.8z"/>
	<path class="st7" d="M373.2,86.2v6.2c0,0.5,0.1,0.8,0.5,0.8s0.9-0.3,1.6-0.8v1.8c-0.7,0.4-1.2,0.7-1.6,0.8
		c-0.4,0.1-0.8,0.3-1.2,0.3c-1.2,0-2-0.5-2.2-1.5c-1.2,0.9-2.6,1.5-3.9,1.5c-1.1,0-1.9-0.3-2.6-0.9s-1.1-1.5-1.1-2.6
		c0-0.9,0.3-1.8,0.9-2.4s1.6-1.4,2.8-1.8l3.7-1.2v-0.8c0-1.8-0.8-2.6-2.6-2.6c-1.6,0-3.1,0.8-4.6,2.4v-3.1c1.1-1.4,2.7-2,4.9-2
		c1.6,0,2.8,0.4,3.8,1.2c0.3,0.3,0.5,0.7,0.8,1.1s0.4,0.8,0.5,1.4C373.2,84.5,373.2,84.9,373.2,86.2z M370.3,92.1v-4.3l-1.9,0.8
		c-0.9,0.4-1.6,0.8-2,1.2c-0.4,0.4-0.7,0.9-0.7,1.5s0.1,1.1,0.5,1.5s0.9,0.5,1.5,0.5C368.6,93.1,369.5,92.9,370.3,92.1z"/>
	<path class="st7" d="M377.6,72.8h2.8v8.7c1.2-0.9,2.6-1.4,4.1-1.4c1.9,0,3.4,0.7,4.6,2c1.2,1.4,1.8,3.2,1.8,5.4
		c0,2.3-0.7,4.2-2.2,5.6s-3.2,2-5.7,2c-0.9,0-1.9-0.1-3-0.3s-1.9-0.4-2.4-0.8L377.6,72.8L377.6,72.8z M380.6,84.2v7.9
		c0.9,0.3,2,0.4,3,0.4c1.2,0,2.3-0.4,3.1-1.4c0.8-0.9,1.2-2,1.2-3.5s-0.4-2.6-1.1-3.5s-1.8-1.4-3-1.4
		C382.8,82.7,381.7,83.3,380.6,84.2z"/>
	<path class="st7" d="M403.4,80.4v-0.8c0-2.3,0.5-4.1,1.5-5.3s2.2-1.8,3.7-1.8c0.5,0,1.4,0.1,2.2,0.3v2.7c-0.4-0.1-0.9-0.3-1.4-0.3
		c-1.1,0-1.9,0.3-2.3,0.9s-0.7,1.6-0.7,3.2v0.8h2.6v2.6h-2.6v12h-2.8v-12h-2v-2.6h1.9v0.3H403.4z"/>
	<path class="st7" d="M417.8,80.3c2.2,0,4.1,0.7,5.6,2.2s2.2,3.2,2.2,5.4c0,2.2-0.8,3.8-2.3,5.3s-3.4,2-5.7,2
		c-2.2,0-4.1-0.7-5.6-2.2s-2.2-3.1-2.2-5.3c0-2.2,0.7-3.9,2.2-5.3S415.7,80.3,417.8,80.3z M417.7,83c-1.4,0-2.6,0.4-3.4,1.4
		c-0.8,0.9-1.4,2-1.4,3.5c0,1.4,0.4,2.6,1.4,3.4s2,1.4,3.5,1.4c1.4,0,2.6-0.4,3.5-1.4s1.4-2,1.4-3.4s-0.4-2.6-1.4-3.4
		S419.1,83,417.7,83z"/>
	<path class="st7" d="M431.9,80.4v3.2l0.1-0.3c1.4-2.3,2.8-3.4,4.2-3.4c1.1,0,2.2,0.5,3.4,1.6l-1.5,2.6c-0.9-0.9-1.9-1.5-2.8-1.5
		s-1.8,0.4-2.4,1.4c-0.7,0.9-1.1,1.9-1.1,3.1v7.6H429V80.4H431.9z"/>
	<path class="st3" d="M470.2,89.8v3.5c-2.3,1.2-5,1.9-8.1,1.9c-2.4,0-4.6-0.5-6.4-1.5c-1.8-0.9-3.1-2.3-4.1-4.1s-1.5-3.7-1.5-5.7
		c0-3.2,1.1-6,3.4-8.1c2.3-2.2,5.1-3.2,8.5-3.2c2.3,0,4.9,0.5,7.7,1.8v3.4c-2.6-1.5-5.1-2.2-7.6-2.2c-2.6,0-4.6,0.8-6.4,2.4
		s-2.6,3.7-2.6,6c0,2.4,0.8,4.5,2.4,6s3.8,2.3,6.4,2.3C465,92.3,467.7,91.5,470.2,89.8z"/>
	<path class="st7" d="M476.7,80.4v3.2l0.1-0.3c1.4-2.3,2.8-3.4,4.2-3.4c1.1,0,2.2,0.5,3.4,1.6l-1.5,2.6c-0.9-0.9-1.9-1.5-2.8-1.5
		s-1.8,0.4-2.4,1.4c-0.7,0.9-1.1,1.9-1.1,3.1v7.6h-2.8V80.4H476.7z"/>
	<path class="st7" d="M498.4,87.9h-10.3c0.1,1.4,0.5,2.6,1.4,3.4c0.8,0.8,2,1.2,3.4,1.2c1.9,0,3.7-0.5,5.3-1.8v2.8
		c-0.9,0.5-1.8,1.1-2.7,1.2c-0.9,0.1-1.9,0.4-3.1,0.4c-1.6,0-2.8-0.3-3.9-0.9s-1.8-1.6-2.4-2.7c-0.7-1.1-0.9-2.4-0.9-3.9
		c0-2.2,0.7-4.1,1.9-5.4c1.2-1.4,2.8-2,4.9-2c1.9,0,3.5,0.7,4.6,2c1.1,1.4,1.8,3.1,1.8,5.4L498.4,87.9L498.4,87.9z M488.1,86.2h7.3
		c-0.1-1.2-0.4-2-1.1-2.7s-1.5-0.9-2.4-0.9s-1.9,0.3-2.6,0.9S488.4,85,488.1,86.2z"/>
	<path class="st7" d="M510.7,86.2v6.2c0,0.5,0.1,0.8,0.5,0.8s0.9-0.3,1.6-0.8v1.8c-0.7,0.4-1.2,0.7-1.6,0.8
		c-0.4,0.1-0.8,0.3-1.2,0.3c-1.2,0-2-0.5-2.2-1.5c-1.2,0.9-2.6,1.5-3.9,1.5c-1.1,0-1.9-0.3-2.6-0.9c-0.7-0.7-1.1-1.5-1.1-2.6
		c0-0.9,0.3-1.8,0.9-2.4c0.7-0.7,1.6-1.4,2.8-1.8l3.7-1.2v-0.8c0-1.8-0.8-2.6-2.6-2.6c-1.6,0-3.1,0.8-4.6,2.4v-3.1
		c1.1-1.4,2.7-2,4.9-2c1.6,0,2.8,0.4,3.8,1.2c0.3,0.3,0.5,0.7,0.8,1.1s0.4,0.8,0.5,1.4C510.7,84.5,510.7,84.9,510.7,86.2z
		 M507.9,92.1v-4.3l-1.9,0.8c-0.9,0.4-1.6,0.8-2,1.2s-0.7,0.9-0.7,1.5s0.1,1.1,0.5,1.5s0.9,0.5,1.5,0.5
		C506.1,93.1,507.1,92.9,507.9,92.1z"/>
	<path class="st7" d="M513.3,82.7l5.4-5.3v3h4.6V83h-4.6v7.2c0,1.6,0.7,2.4,2,2.4c1.1,0,2.2-0.4,3.2-1.1v2.7
		c-1.1,0.7-2.3,0.9-3.7,0.9s-2.4-0.4-3.2-1.2c-0.3-0.3-0.5-0.5-0.7-0.8s-0.3-0.7-0.4-1.1c-0.1-0.4-0.1-1.4-0.1-2.7v-6.5h-2.6
		L513.3,82.7L513.3,82.7z"/>
	<path class="st7" d="M527.6,74.2c0.5,0,0.9,0.1,1.2,0.5s0.5,0.7,0.5,1.2c0,0.4-0.1,0.8-0.5,1.2s-0.8,0.5-1.2,0.5s-0.8-0.1-1.2-0.5
		s-0.5-0.7-0.5-1.2c0-0.4,0.1-0.8,0.5-1.2S527.2,74.2,527.6,74.2z M526.3,80.4h2.8V95h-2.8V80.4z"/>
	<path class="st7" d="M542.3,80.4h3.1l-6.5,14.9H538l-6.6-14.9h3.1l3.9,8.9L542.3,80.4z"/>
	<path class="st7" d="M559.3,87.9H549c0.1,1.4,0.5,2.6,1.4,3.4c0.8,0.8,2,1.2,3.4,1.2c1.9,0,3.7-0.5,5.3-1.8v2.8
		c-0.9,0.5-1.8,1.1-2.7,1.2s-1.9,0.4-3.1,0.4c-1.6,0-2.8-0.3-3.9-0.9s-1.8-1.6-2.4-2.7c-0.7-1.1-0.9-2.4-0.9-3.9
		c0-2.2,0.7-4.1,1.9-5.4c1.2-1.4,2.8-2,4.9-2c1.9,0,3.5,0.7,4.6,2c1.1,1.4,1.8,3.1,1.8,5.4V87.9L559.3,87.9z M549.2,86.2h7.3
		c-0.1-1.2-0.4-2-1.1-2.7s-1.5-0.9-2.4-0.9s-1.9,0.3-2.6,0.9S549.3,85,549.2,86.2z"/>
	<path class="st4" d="M587.5,72.8h3.1V95h-3.1v-9.6H575V95h-3.1V72.8h3.1v9.5h12.5V72.8z"/>
	<path class="st7" d="M596.7,74.2c0.5,0,0.9,0.1,1.2,0.5s0.5,0.7,0.5,1.2c0,0.4-0.1,0.8-0.5,1.2c-0.4,0.4-0.8,0.5-1.2,0.5
		s-0.8-0.1-1.2-0.5s-0.5-0.7-0.5-1.2c0-0.4,0.1-0.8,0.5-1.2S596.1,74.2,596.7,74.2z M595.2,80.4h2.8V95h-2.8V80.4z"/>
	<path class="st7" d="M601.5,85.4c0-1.5,0.5-2.8,1.8-3.7c1.2-0.8,2.7-1.4,4.6-1.4h6v2.3h-3c0.5,0.5,0.9,1.1,1.2,1.6s0.3,1.1,0.3,1.6
		c0,0.8-0.3,1.5-0.7,2.3s-0.9,1.4-1.6,1.6s-1.8,0.7-3.4,0.9c-1.1,0.1-1.6,0.5-1.6,1.1c0,0.4,0.3,0.7,0.7,0.8s1.1,0.4,2.2,0.7
		c1.8,0.4,3,0.7,3.4,0.9s0.9,0.5,1.4,0.9c0.7,0.7,1.1,1.6,1.1,2.6c0,1.4-0.7,2.4-1.9,3.2s-2.8,1.2-5,1.2c-2,0-3.8-0.4-5-1.2
		s-1.9-1.9-1.9-3.4c0-2,1.2-3.2,3.7-3.8c-0.9-0.7-1.5-1.2-1.5-1.9c0-0.4,0.3-0.9,0.7-1.2s0.9-0.7,1.6-0.8
		C602.6,89.1,601.5,87.5,601.5,85.4z M606.3,95.6c-0.9,0-1.8,0.3-2.4,0.7c-0.7,0.4-0.9,0.9-0.9,1.6c0,1.5,1.4,2.3,4.1,2.3
		c1.2,0,2.3-0.1,3-0.5s1.1-0.9,1.1-1.6s-0.4-1.2-1.4-1.6C608.7,96,607.6,95.6,606.3,95.6z M607,82.9c-0.8,0-1.5,0.3-2,0.8
		s-0.8,1.2-0.8,1.9c0,0.8,0.3,1.4,0.8,1.9s1.2,0.7,2,0.7s1.5-0.3,2-0.8s0.8-1.1,0.8-1.9s-0.3-1.4-0.8-1.9S607.8,82.9,607,82.9z"/>
	<path class="st7" d="M616,72.8h2.8v9.5c1.2-1.5,2.7-2.2,4.5-2.2c0.9,0,1.9,0.3,2.6,0.7c0.7,0.4,1.4,1.2,1.8,2
		c0.4,0.8,0.5,2.2,0.5,3.8v8.3h-2.8v-9.1c0-1.1-0.3-1.9-0.8-2.6s-1.2-0.9-2-0.9c-0.7,0-1.2,0.1-1.8,0.5s-1.2,0.8-1.9,1.6v10.4H616
		V72.8L616,72.8z"/>
	<path class="st7" d="M631.6,86.2h7.9v3.1h-7.9V86.2z"/>
	<path class="st7" d="M642.7,102.3V80.4h5c2.6,0,4.6,0.7,6.1,1.9c1.5,1.2,2.2,3.1,2.2,5.4c0,2.2-0.7,3.9-2,5.4
		c-1.4,1.4-3.1,2.2-5.1,2.2c-0.9,0-1.9-0.3-3.1-0.7v7.9h-3v-0.2H642.7z M647.7,83h-2v8.9c0.9,0.4,1.8,0.7,2.8,0.7
		c1.4,0,2.4-0.4,3.2-1.4s1.4-2.2,1.4-3.7c0-0.9-0.3-1.8-0.7-2.6c-0.4-0.8-0.9-1.2-1.6-1.6C650.1,83,649.1,83,647.7,83z"/>
	<path class="st7" d="M671.5,87.9h-10.3c0.1,1.4,0.5,2.6,1.4,3.4c0.8,0.8,2,1.2,3.4,1.2c1.9,0,3.7-0.5,5.3-1.8v2.8
		c-0.9,0.5-1.8,1.1-2.7,1.2s-1.9,0.4-3.1,0.4c-1.6,0-2.8-0.3-3.9-0.9c-1.1-0.7-1.8-1.6-2.4-2.7c-0.7-1.1-0.9-2.4-0.9-3.9
		c0-2.2,0.7-4.1,1.9-5.4c1.2-1.4,2.8-2,4.9-2c1.9,0,3.5,0.7,4.6,2c1.1,1.4,1.8,3.1,1.8,5.4V87.9L671.5,87.9z M661.4,86.2h7.3
		c-0.1-1.2-0.4-2-1.1-2.7c-0.7-0.7-1.5-0.9-2.4-0.9s-1.9,0.3-2.6,0.9C661.9,84.2,661.5,85,661.4,86.2z"/>
	<path class="st7" d="M677.8,80.4v3.2l0.1-0.3c1.4-2.3,2.8-3.4,4.2-3.4c1.1,0,2.2,0.5,3.4,1.6l-1.5,2.6c-0.9-0.9-1.9-1.5-2.8-1.5
		c-0.9,0-1.8,0.4-2.4,1.4s-1.1,1.9-1.1,3.1v7.6h-2.8V80.4H677.8z"/>
	<path class="st7" d="M687.9,80.4v-0.8c0-2.3,0.5-4.1,1.5-5.3s2.2-1.8,3.7-1.8c0.5,0,1.4,0.1,2.2,0.3v2.7c-0.4-0.1-0.9-0.3-1.4-0.3
		c-1.1,0-1.9,0.3-2.3,0.9s-0.7,1.6-0.7,3.2v0.8h2.6v2.6h-2.6v12h-2.8v-12h-2v-2.6h1.9v0.3H687.9z"/>
	<path class="st7" d="M702.4,80.3c2.2,0,4.1,0.7,5.6,2.2s2.2,3.2,2.2,5.4c0,2.2-0.8,3.8-2.3,5.3s-3.4,2-5.7,2
		c-2.2,0-4.1-0.7-5.6-2.2s-2.2-3.1-2.2-5.3c0-2.2,0.7-3.9,2.2-5.3C698.1,81.1,700.1,80.3,702.4,80.3z M702.1,83
		c-1.4,0-2.6,0.4-3.4,1.4c-0.8,0.9-1.4,2-1.4,3.5c0,1.4,0.4,2.6,1.4,3.4c0.9,0.8,2,1.4,3.5,1.4c1.4,0,2.6-0.4,3.5-1.4
		c0.9-0.9,1.4-2,1.4-3.4s-0.4-2.6-1.4-3.4C704.8,83.7,703.6,83,702.1,83z"/>
	<path class="st7" d="M716.3,80.4v3.2l0.1-0.3c1.4-2.3,2.8-3.4,4.2-3.4c1.1,0,2.2,0.5,3.4,1.6l-1.5,2.6c-0.9-0.9-1.9-1.5-2.8-1.5
		c-0.9,0-1.8,0.4-2.4,1.4s-1.1,1.9-1.1,3.1v7.6h-2.8V80.4H716.3z"/>
	<path class="st7" d="M738.1,84.3v10.6h-2.8v-8.1c0-1.6-0.3-2.7-0.7-3.4s-1.2-0.9-2.3-0.9c-0.5,0-1.2,0.1-1.6,0.4
		c-0.4,0.3-1.1,0.8-1.8,1.5V95h-2.8V80.4h2.8v1.9c1.5-1.5,2.8-2.2,4.3-2.2c1.9,0,3.2,0.8,4.3,2.6c1.5-1.8,3.1-2.7,4.9-2.7
		c1.4,0,2.6,0.5,3.5,1.5c0.9,0.9,1.4,2.6,1.4,4.7v8.7h-2.8v-8.7c0-1.2-0.3-2.2-0.8-2.8c-0.5-0.7-1.2-0.9-2.2-0.9
		C740.3,82.6,739.1,83.1,738.1,84.3z"/>
	<path class="st7" d="M760.3,86.2v6.2c0,0.5,0.1,0.8,0.5,0.8s0.9-0.3,1.6-0.8v1.8c-0.7,0.4-1.2,0.7-1.6,0.8
		c-0.4,0.1-0.8,0.3-1.2,0.3c-1.2,0-2-0.5-2.2-1.5c-1.2,0.9-2.6,1.5-3.9,1.5c-1.1,0-1.9-0.3-2.6-0.9s-1.1-1.5-1.1-2.6
		c0-0.9,0.3-1.8,0.9-2.4s1.6-1.4,2.8-1.8l3.7-1.2v-0.8c0-1.8-0.8-2.6-2.6-2.6c-1.6,0-3.1,0.8-4.6,2.4v-3.1c1.1-1.4,2.7-2,4.9-2
		c1.6,0,2.8,0.4,3.8,1.2c0.3,0.3,0.5,0.7,0.8,1.1s0.4,0.8,0.5,1.4C760.3,84.5,760.3,84.9,760.3,86.2z M757.5,92.1v-4.3l-1.9,0.8
		c-0.9,0.4-1.6,0.8-2,1.2c-0.4,0.4-0.7,0.9-0.7,1.5s0.1,1.1,0.5,1.5s0.9,0.5,1.5,0.5C755.9,93.1,756.7,92.9,757.5,92.1z"/>
	<path class="st7" d="M767.9,80.4v1.9c1.4-1.5,2.7-2.2,4.3-2.2c0.9,0,1.8,0.3,2.6,0.7c0.8,0.4,1.4,1.1,1.8,1.9
		c0.4,0.8,0.7,2.2,0.7,3.9V95h-2.8v-8.3c0-1.5-0.3-2.6-0.7-3.2s-1.2-0.9-2.3-0.9c-1.4,0-2.6,0.7-3.5,2V95h-3V80.4H767.9z"/>
	<path class="st7" d="M792.3,91.5v2.8c-1.5,0.5-2.8,0.8-4.2,0.8c-2.3,0-4.1-0.7-5.4-2s-2-3.1-2-5.4s0.7-4.2,2-5.6
		c1.4-1.4,3.1-2.2,5.3-2.2c0.8,0,1.5,0.1,2,0.3c0.5,0.1,1.4,0.4,2.2,0.8v3.1c-1.5-0.9-2.8-1.4-4.1-1.4c-1.4,0-2.4,0.4-3.2,1.4
		s-1.2,2-1.2,3.5s0.4,2.7,1.4,3.5c0.9,0.8,2.2,1.4,3.7,1.4C789.6,92.5,790.8,92.2,792.3,91.5z"/>
	<path class="st7" d="M808,87.9h-10.3c0.1,1.4,0.5,2.6,1.4,3.4s2,1.2,3.4,1.2c1.9,0,3.7-0.5,5.3-1.8v2.8c-0.9,0.5-1.8,1.1-2.7,1.2
		s-1.9,0.4-3.1,0.4c-1.6,0-2.8-0.3-3.9-0.9s-1.8-1.6-2.4-2.7s-0.9-2.4-0.9-3.9c0-2.2,0.7-4.1,1.9-5.4c1.2-1.4,2.8-2,4.9-2
		c1.9,0,3.5,0.7,4.6,2c1.1,1.4,1.8,3.1,1.8,5.4V87.9L808,87.9z M797.8,86.2h7.3c-0.1-1.2-0.4-2-1.1-2.7s-1.5-0.9-2.4-0.9
		s-1.9,0.3-2.6,0.9S798,85,797.8,86.2z"/>
	<path class="st5" d="M172.5,111.8h12.6v2.8h-9.3v6.8h9.1v2.8h-9.1v6.9h9.7v2.8h-12.9v-22.2L172.5,111.8L172.5,111.8z"/>
	<path class="st7" d="M191.4,119.4v1.9c1.4-1.5,2.7-2.2,4.3-2.2c0.9,0,1.8,0.3,2.6,0.7c0.8,0.4,1.4,1.1,1.8,1.9
		c0.4,0.8,0.7,2.2,0.7,3.9v8.4H198v-8.4c0-1.5-0.3-2.6-0.7-3.2c-0.4-0.7-1.2-0.9-2.3-0.9c-1.4,0-2.6,0.7-3.5,2v10.4h-3v-14.6h3v0.1
		H191.4z"/>
	<path class="st7" d="M217.1,126.8h-10.3c0.1,1.4,0.5,2.6,1.4,3.4s2,1.2,3.4,1.2c1.9,0,3.7-0.5,5.3-1.8v2.8
		c-0.9,0.5-1.8,1.1-2.7,1.2c-0.9,0.1-1.9,0.4-3.1,0.4c-1.6,0-2.8-0.3-3.9-0.9c-1.1-0.7-1.8-1.6-2.4-2.7c-0.7-1.1-0.9-2.4-0.9-3.9
		c0-2.2,0.7-4.1,1.9-5.4c1.2-1.4,2.8-2,4.9-2c1.9,0,3.5,0.7,4.6,2s1.8,3.1,1.8,5.4V126.8C217.1,126.8,217.1,126.8,217.1,126.8z
		 M206.9,125.2h7.3c-0.1-1.2-0.4-2-1.1-2.7c-0.7-0.7-1.5-0.9-2.4-0.9s-1.9,0.3-2.6,0.9C207.5,123.2,207.1,124,206.9,125.2z"/>
	<path class="st7" d="M223.3,119.4v3.4l0.1-0.3c1.4-2.3,2.8-3.4,4.2-3.4c1.1,0,2.2,0.5,3.4,1.6l-1.5,2.6c-0.9-0.9-1.9-1.5-2.8-1.5
		s-1.8,0.4-2.4,1.4c-0.7,0.9-1.1,1.9-1.1,3.1v7.6h-2.8v-14.6h3L223.3,119.4L223.3,119.4z"/>
	<path class="st7" d="M232.4,124.4c0-1.5,0.5-2.8,1.8-3.7c1.2-0.8,2.7-1.4,4.6-1.4h6v2.3h-3c0.5,0.5,0.9,1.1,1.2,1.6
		s0.3,1.1,0.3,1.6c0,0.8-0.3,1.5-0.7,2.3s-0.9,1.4-1.6,1.6c-0.7,0.3-1.8,0.7-3.4,0.9c-1.1,0.1-1.6,0.5-1.6,1.1
		c0,0.4,0.3,0.7,0.7,0.8s1.1,0.4,2.2,0.7c1.8,0.4,3,0.7,3.4,0.9c0.4,0.3,0.9,0.5,1.4,0.9c0.7,0.7,1.1,1.6,1.1,2.6
		c0,1.4-0.7,2.4-1.9,3.2s-2.8,1.2-5,1.2c-2,0-3.8-0.4-5-1.2s-1.9-1.9-1.9-3.4c0-2,1.2-3.2,3.7-3.8c-0.9-0.7-1.5-1.2-1.5-1.9
		c0-0.4,0.3-0.9,0.7-1.2s0.9-0.7,1.6-0.8C233.5,128.1,232.4,126.4,232.4,124.4z M237.1,134.6c-0.9,0-1.8,0.3-2.4,0.7
		c-0.7,0.4-0.9,0.9-0.9,1.6c0,1.5,1.4,2.3,4.1,2.3c1.2,0,2.3-0.1,3-0.5s1.1-0.9,1.1-1.6c0-0.7-0.4-1.2-1.4-1.6
		C239.6,135,238.5,134.6,237.1,134.6z M237.8,121.8c-0.8,0-1.5,0.3-2,0.8s-0.8,1.2-0.8,1.9c0,0.8,0.3,1.4,0.8,1.9s1.2,0.7,2,0.7
		s1.5-0.3,2-0.8s0.8-1.1,0.8-1.9s-0.3-1.4-0.8-1.9S238.6,121.8,237.8,121.8z"/>
	<path class="st7" d="M256.6,119.4h3.2l-10.3,22.1h-3.2l5-10.6l-5.7-11.5h3.2l3.9,8.3L256.6,119.4z"/>
	<path class="st7" d="M261.1,125.2h7.9v3.1h-7.9V125.2z"/>
	<path class="st7" d="M284.8,126.8h-10.3c0.1,1.4,0.5,2.6,1.4,3.4c0.8,0.8,2,1.2,3.4,1.2c1.9,0,3.7-0.5,5.3-1.8v2.8
		c-0.9,0.5-1.8,1.1-2.7,1.2c-0.9,0.1-1.9,0.4-3.1,0.4c-1.6,0-2.8-0.3-3.9-0.9c-1.1-0.7-1.8-1.6-2.4-2.7c-0.7-1.1-0.9-2.4-0.9-3.9
		c0-2.2,0.7-4.1,1.9-5.4c1.2-1.4,2.8-2,4.9-2c1.9,0,3.5,0.7,4.6,2c1.1,1.4,1.8,3.1,1.8,5.4L284.8,126.8
		C284.8,126.8,284.8,126.8,284.8,126.8z M274.6,125.2h7.3c-0.1-1.2-0.4-2-1.1-2.7s-1.5-0.9-2.4-0.9s-1.9,0.3-2.6,0.9
		C275.2,123.2,274.7,124,274.6,125.2z"/>
	<path class="st7" d="M288.3,119.4v-0.8c0-2.3,0.5-4.1,1.5-5.3s2.2-1.8,3.7-1.8c0.5,0,1.4,0.1,2.2,0.3v2.8c-0.4-0.1-0.9-0.3-1.4-0.3
		c-1.1,0-1.9,0.3-2.3,0.9s-0.7,1.6-0.7,3.2v0.8h2.6v2.6h-2.6v12h-2.8v-12h-2.3v-2.6L288.3,119.4z"/>
	<path class="st7" d="M296.4,119.4v-0.8c0-2.3,0.5-4.1,1.5-5.3s2.2-1.8,3.7-1.8c0.5,0,1.4,0.1,2.2,0.3v2.8c-0.4-0.1-0.9-0.3-1.4-0.3
		c-1.1,0-1.9,0.3-2.3,0.9s-0.7,1.6-0.7,3.2v0.8h2.6v2.6h-2.6v12h-2.8v-12h-2.3v-2.6L296.4,119.4z"/>
	<path class="st7" d="M305.6,113.2c0.5,0,0.9,0.1,1.2,0.5s0.5,0.7,0.5,1.2c0,0.4-0.1,0.8-0.5,1.2c-0.4,0.4-0.8,0.5-1.2,0.5
		c-0.4,0-0.8-0.1-1.2-0.5c-0.4-0.4-0.5-0.7-0.5-1.2c0-0.4,0.1-0.8,0.5-1.2S305.2,113.2,305.6,113.2z M304.3,119.4h2.8V134h-2.8
		V119.4z"/>
	<path class="st7" d="M322.3,130.5v2.8c-1.5,0.5-2.8,0.8-4.2,0.8c-2.3,0-4.1-0.7-5.4-2c-1.4-1.4-2-3.1-2-5.4s0.7-4.2,2-5.6
		c1.4-1.4,3.1-2.2,5.3-2.2c0.8,0,1.5,0.1,2,0.3s1.4,0.4,2.2,0.8v3.1c-1.5-0.9-2.8-1.4-4.1-1.4c-1.4,0-2.4,0.4-3.2,1.4
		c-0.8,0.9-1.2,2-1.2,3.5c0,1.5,0.4,2.7,1.4,3.5s2.2,1.4,3.7,1.4C319.6,131.5,320.8,131.2,322.3,130.5z"/>
	<path class="st7" d="M327,113.2c0.5,0,0.9,0.1,1.2,0.5s0.5,0.7,0.5,1.2c0,0.4-0.1,0.8-0.5,1.2c-0.4,0.4-0.8,0.5-1.2,0.5
		c-0.4,0-0.8-0.1-1.2-0.5c-0.4-0.4-0.5-0.7-0.5-1.2c0-0.4,0.1-0.8,0.5-1.2C326.2,113.3,326.6,113.2,327,113.2z M325.7,119.4h2.8V134
		h-2.8V119.4z"/>
	<path class="st7" d="M345.1,126.8h-10.3c0.1,1.4,0.5,2.6,1.4,3.4c0.8,0.8,2,1.2,3.4,1.2c1.9,0,3.7-0.5,5.3-1.8v2.8
		c-0.9,0.5-1.8,1.1-2.7,1.2s-1.9,0.4-3.1,0.4c-1.6,0-2.8-0.3-3.9-0.9c-1.1-0.7-1.8-1.6-2.4-2.7s-0.9-2.4-0.9-3.9
		c0-2.2,0.7-4.1,1.9-5.4c1.2-1.4,2.8-2,4.9-2c1.9,0,3.5,0.7,4.6,2s1.8,3.1,1.8,5.4L345.1,126.8C345.1,126.8,345.1,126.8,345.1,126.8
		z M334.9,125.2h7.3c-0.1-1.2-0.4-2-1.1-2.7s-1.5-0.9-2.4-0.9s-1.9,0.3-2.6,0.9C335.4,123.2,335.1,124,334.9,125.2z"/>
	<path class="st7" d="M351.1,119.4v1.9c1.4-1.5,2.7-2.2,4.3-2.2c0.9,0,1.8,0.3,2.6,0.7c0.8,0.4,1.4,1.1,1.8,1.9s0.7,2.2,0.7,3.9v8.4
		h-2.8v-8.4c0-1.5-0.3-2.6-0.7-3.2c-0.4-0.7-1.2-0.9-2.3-0.9c-1.4,0-2.6,0.7-3.5,2v10.4h-3v-14.6h3v0.1H351.1z"/>
	<path class="st7" d="M362.5,121.7l5.4-5.3v3h4.6v2.6h-4.6v7.2c0,1.6,0.7,2.4,2,2.4c1.1,0,2.2-0.4,3.2-1.1v2.7
		c-1.1,0.7-2.3,0.9-3.7,0.9c-1.4,0-2.4-0.4-3.2-1.2c-0.3-0.3-0.5-0.5-0.7-0.8c-0.1-0.3-0.3-0.7-0.4-1.1c-0.1-0.4-0.1-1.4-0.1-2.7
		v-6.5h-2.6v-0.1H362.5z"/>
	<path class="st6" d="M402.3,111.8h3V134H402v-17.2l-6.8,8.5h-0.5l-6.9-8.5V134h-3.1v-22.2h3l7.3,9.1L402.3,111.8z"/>
	<path class="st7" d="M418.8,125.2v6.2c0,0.5,0.1,0.8,0.5,0.8s0.9-0.3,1.6-0.8v1.8c-0.7,0.4-1.2,0.7-1.6,0.8s-0.8,0.3-1.2,0.3
		c-1.2,0-2-0.5-2.2-1.5c-1.2,0.9-2.6,1.5-3.9,1.5c-1.1,0-1.9-0.3-2.6-0.9c-0.7-0.7-1.1-1.5-1.1-2.6c0-0.9,0.3-1.8,0.9-2.4
		c0.7-0.7,1.6-1.4,2.8-1.8l3.7-1.2v-0.8c0-1.8-0.8-2.6-2.6-2.6c-1.6,0-3.1,0.8-4.6,2.4v-3.1c1.1-1.4,2.7-2,4.9-2
		c1.6,0,2.8,0.4,3.8,1.2c0.3,0.3,0.5,0.7,0.8,1.1s0.4,0.8,0.5,1.4C418.8,123.5,418.8,123.9,418.8,125.2z M415.9,131v-4.3l-1.9,0.8
		c-0.9,0.4-1.6,0.8-2,1.2s-0.7,0.9-0.7,1.5c0,0.5,0.1,1.1,0.5,1.5s0.9,0.5,1.5,0.5C414.3,132.1,415.3,131.9,415.9,131z"/>
	<path class="st7" d="M434.5,130.5v2.8c-1.5,0.5-2.8,0.8-4.2,0.8c-2.3,0-4.1-0.7-5.4-2c-1.4-1.4-2-3.1-2-5.4s0.7-4.2,2-5.6
		c1.4-1.4,3.1-2.2,5.3-2.2c0.8,0,1.5,0.1,2,0.3s1.4,0.4,2.2,0.8v3.1c-1.5-0.9-2.8-1.4-4.1-1.4c-1.4,0-2.4,0.4-3.2,1.4
		c-0.8,0.9-1.2,2-1.2,3.5c0,1.5,0.4,2.7,1.4,3.5s2.2,1.4,3.7,1.4C431.8,131.5,433,131.2,434.5,130.5z"/>
	<path class="st7" d="M437.7,111.8h2.8v9.5c1.2-1.5,2.7-2.2,4.5-2.2c0.9,0,1.9,0.3,2.6,0.7c0.8,0.5,1.4,1.2,1.8,2s0.5,2.2,0.5,3.8
		v8.3h-2.8v-9.1c0-1.1-0.3-1.9-0.8-2.6s-1.2-0.9-2-0.9c-0.7,0-1.2,0.1-1.8,0.5s-1.2,0.8-1.9,1.6v10.4h-2.8v-22H437.7z"/>
	<path class="st7" d="M455.5,113.2c0.5,0,0.9,0.1,1.2,0.5c0.3,0.4,0.5,0.7,0.5,1.2c0,0.4-0.1,0.8-0.5,1.2c-0.4,0.4-0.8,0.5-1.2,0.5
		c-0.4,0-0.8-0.1-1.2-0.5c-0.4-0.4-0.5-0.7-0.5-1.2c0-0.4,0.1-0.8,0.5-1.2C454.7,113.3,455.1,113.2,455.5,113.2z M454.1,119.4h2.8
		V134h-2.8V119.4z"/>
	<path class="st7" d="M464,119.4v1.9c1.4-1.5,2.7-2.2,4.3-2.2c0.9,0,1.8,0.3,2.6,0.7c0.8,0.4,1.4,1.1,1.8,1.9s0.7,2.2,0.7,3.9v8.4
		h-2.8v-8.4c0-1.5-0.3-2.6-0.7-3.2s-1.2-0.9-2.3-0.9c-1.4,0-2.6,0.7-3.5,2v10.4h-3v-14.6h3v0.1H464z"/>
	<path class="st7" d="M489.9,126.8h-10.3c0.1,1.4,0.5,2.6,1.4,3.4c0.8,0.8,2,1.2,3.4,1.2c1.9,0,3.7-0.5,5.3-1.8v2.8
		c-0.9,0.5-1.8,1.1-2.7,1.2s-1.9,0.4-3.1,0.4c-1.6,0-2.8-0.3-3.9-0.9c-1.1-0.7-1.8-1.6-2.4-2.7s-0.9-2.4-0.9-3.9
		c0-2.2,0.7-4.1,1.9-5.4s2.8-2,4.9-2c1.9,0,3.5,0.7,4.6,2s1.8,3.1,1.8,5.4L489.9,126.8C489.9,126.8,489.9,126.8,489.9,126.8z
		 M479.6,125.2h7.3c-0.1-1.2-0.4-2-1.1-2.7s-1.5-0.9-2.4-0.9s-1.9,0.3-2.6,0.9C480.1,123.2,479.8,124,479.6,125.2z"/>
	<path class="st7" d="M492.2,132.9v-3.1c0.8,0.5,1.6,1.1,2.4,1.4s1.6,0.5,2.2,0.5s1.1-0.1,1.5-0.4s0.7-0.7,0.7-1.1
		c0-0.4-0.1-0.8-0.4-1.1s-0.9-0.7-1.8-1.2c-1.9-1.1-3.1-1.9-3.7-2.7c-0.5-0.8-0.8-1.5-0.8-2.4c0-1.1,0.4-2,1.4-2.7s2-1.1,3.4-1.1
		c1.5,0,2.8,0.4,4.3,1.2v2.8c-1.8-1.1-3.1-1.5-4.2-1.5c-0.5,0-0.9,0.1-1.4,0.4c-0.4,0.3-0.5,0.5-0.5,0.9s0.1,0.7,0.4,0.9
		c0.3,0.3,0.8,0.7,1.6,1.1l1.1,0.5c2.4,1.4,3.7,2.8,3.7,4.6c0,1.2-0.4,2.2-1.4,3c-0.9,0.8-2.2,1.1-3.7,1.1c-0.8,0-1.6-0.1-2.3-0.3
		C494.1,133.8,493.2,133.3,492.2,132.9z"/>
</g>
<g>
	<ellipse class="st0" cx="68.8" cy="85.5" rx="49.6" ry="47.1"/>
	<path class="st3" d="M53.7,37.4l0.9,2c-1,1.1-2.1,1.9-3.4,2.4c-1.7,0.6-3.3,0.7-4.7,0.2s-2.4-1.5-3-2.7c-0.6-1.4-0.5-2.6,0.2-4
		s1.9-2.4,3.6-3c1.3-0.5,2.7-0.7,3.8-0.5l0.9,2.1c-1.4-0.2-2.7-0.1-3.7,0.4c-1.1,0.4-1.7,1-2.2,1.7c-0.4,0.8-0.5,1.5-0.1,2.4
		c0.4,0.8,1,1.4,1.8,1.6c0.9,0.3,1.8,0.3,2.8-0.2c0.5-0.2,1-0.5,1.3-0.7C52.4,38.6,53,38.1,53.7,37.4z"/>
	<path class="st3" d="M57.1,33l0.4,1.9l0,0c0.4-1.5,1-2.3,1.7-2.5c0.4-0.1,1,0,1.5,0.3l-0.2,1.9c-0.6-0.2-1.1-0.3-1.4-0.3
		c-0.5,0.1-0.9,0.5-1.1,1.2c-0.2,0.6-0.3,1-0.3,1.1l0.6,2.8l-2.2,0.5l-1.4-6.5L57.1,33z"/>
	<path class="st3" d="M69.2,36.3l0.1,1.4c-0.8,0.6-1.8,1-3.1,1.1S64,38.6,63.1,38c-0.8-0.5-1.2-1.4-1.2-2.5c-0.1-1,0.2-1.9,0.9-2.5
		c0.7-0.7,1.5-1.1,2.6-1.2s2,0.3,2.8,0.9c0.8,0.6,1.1,1.5,1.1,2.7l-5.1,0.3c0.1,0.6,0.4,1.1,0.8,1.4c0.4,0.3,1,0.5,1.6,0.4
		C67.4,37.4,68.3,37,69.2,36.3z M64.2,34.6l3.1-0.2c-0.2-1-0.8-1.5-1.6-1.4C64.7,33.1,64.2,33.6,64.2,34.6z"/>
	<path class="st3" d="M77.8,37.5l-0.1,1.2c-0.8,0.4-1.5,0.5-2.1,0.5c-0.7-0.1-1.1-0.4-1.1-0.8c-0.9,0.5-1.6,0.6-2.4,0.5
		c-0.6-0.1-1-0.3-1.3-0.6s-0.5-0.7-0.5-1.2c0.1-0.5,0.3-1,0.8-1.4c0.4-0.4,1.6-0.6,3.7-1.1c0.1-0.7-0.3-1.2-1.1-1.3
		c-1-0.1-1.8,0.2-2.7,0.9l0.2-1.7c1-0.5,2-0.6,3.2-0.5c2,0.2,2.9,0.9,2.8,2.3l-0.3,3c0,0.3,0.1,0.5,0.3,0.5
		C77.1,37.8,77.4,37.6,77.8,37.5z M74.4,37.2l0.2-1.6c-0.8,0.2-1.3,0.4-1.6,0.5c-0.3,0.2-0.5,0.4-0.5,0.7c0,0.2,0,0.4,0.2,0.5
		c0.1,0.2,0.3,0.3,0.5,0.3C73.6,37.6,74,37.5,74.4,37.2z"/>
	<path class="st3" d="M84.8,33.9l-0.4,1.4l-2.5-0.5l-0.7,2.7c-0.1,0.4-0.1,0.6,0.1,0.8c0.1,0.3,0.4,0.4,0.7,0.5
		c0.5,0.1,1,0.1,1.5-0.1l-0.4,1.5c-0.8,0.1-1.4,0.1-2.1-0.1c-0.9-0.2-1.4-0.5-1.8-1.1c-0.4-0.5-0.5-1.2-0.3-2l0.7-2.8l-1-0.2
		l0.1-0.4l3.6-2.4l0.3,0.1l-0.5,2.1L84.8,33.9z"/>
	<path class="st3" d="M88.4,35.1l-2.3,6.4L84,40.7l2.3-6.4L88.4,35.1z M87,32.4c0.1-0.3,0.3-0.5,0.7-0.6c0.4-0.1,0.6-0.2,1-0.1
		c0.3,0.1,0.6,0.3,0.7,0.5c0.2,0.3,0.2,0.5,0.1,0.9c-0.1,0.3-0.3,0.5-0.6,0.6c-0.3,0.2-0.6,0.2-1,0.1c-0.3-0.1-0.6-0.3-0.7-0.6
		C87.1,32.8,86.9,32.6,87,32.4z"/>
	<path class="st3" d="M89.8,43l0.2-7.4l2.1,1l-0.3,3.9l3.1-2.7l2.1,1l-6,4.8L89.8,43z"/>
	<path class="st3" d="M101,46.9l-0.8,1.1c-1.1,0-2.1-0.3-3.2-1c-1.1-0.6-1.6-1.5-1.9-2.4c-0.2-0.9-0.1-1.8,0.6-2.6
		c0.6-0.8,1.4-1.4,2.4-1.5c1-0.2,1.9,0,2.8,0.6c0.9,0.5,1.4,1.4,1.6,2.3c0.2,0.9-0.1,1.9-0.9,2.8l-4.2-2.7c-0.3,0.5-0.4,1-0.3,1.5
		s0.5,0.9,1.1,1.3C99,46.7,99.8,46.9,101,46.9z M98.2,42.6l2.5,1.6c0.5-0.9,0.4-1.5-0.4-2C99.5,41.7,98.9,41.8,98.2,42.6z"/>
	<path class="st4" d="M121.2,57.3l-8.6,5.6l-1.4-2l3.4-2.3l-3-4.1l-3.4,2.3l-1.4-2l8.6-5.6l1.4,2l-3.4,2.3l3,4.1l3.4-2.3L121.2,57.3
		z"/>
	<path class="st4" d="M120.5,63.4l-6.4,2.9l-1-1.9l6.4-2.9L120.5,63.4z M121.6,60.5c0.3-0.2,0.6-0.2,1-0.1c0.3,0.1,0.6,0.3,0.7,0.5
		c0.2,0.3,0.2,0.5,0.1,0.9c-0.1,0.3-0.3,0.5-0.7,0.6c-0.3,0.2-0.6,0.2-1,0c-0.3-0.1-0.6-0.3-0.7-0.6s-0.2-0.5,0-0.9
		C121.1,60.9,121.3,60.6,121.6,60.5z"/>
	<path class="st4" d="M123.9,72.1l-1.4,0.5l-0.3-0.9c-0.3,0.4-0.7,0.5-1,0.6c-0.5,0.2-1.1,0.1-1.6-0.1c-0.6-0.3-1.1-0.7-1.3-1.4
		c-0.4-0.7-0.6-1.1-0.7-1.2s-0.2-0.1-0.4-0.1c-0.1,0-0.2,0.1-0.2,0.3s0.1,0.6,0.3,1.5c0.2,0.9,0.2,1.5-0.1,2
		c-0.3,0.5-0.7,0.7-1.1,0.9c-0.8,0.3-1.4,0.1-2-0.4s-1.1-1.2-1.4-2.3c-0.4-1.1-0.5-2-0.4-2.7c0.2-0.7,0.5-1.1,1.1-1.3
		c0.8-0.3,1.5,0.1,2.3,1.2c0-0.5,0.2-0.9,0.6-1c0.5-0.2,1,0.1,1.4,0.8c-0.1-0.5,0-1.1,0.3-1.5c0.3-0.5,0.7-0.7,1.1-0.9
		c0.7-0.2,1.3-0.2,1.9,0.2c0.7,0.4,1.1,0.9,1.5,1.9L123.9,72.1z M113.8,71.4c0.2,0.5,0.4,0.7,0.6,1c0.3,0.2,0.5,0.3,0.8,0.2
		c0.5-0.2,0.6-0.7,0.2-1.8c-0.2-0.5-0.4-0.8-0.6-1c-0.3-0.2-0.5-0.3-0.8-0.2C113.5,69.7,113.4,70.3,113.8,71.4z M121.3,68.8
		c-0.1-0.4-0.3-0.5-0.7-0.7c-0.3-0.2-0.7-0.2-1-0.1s-0.6,0.3-0.8,0.6c-0.2,0.3-0.2,0.6-0.1,0.9s0.3,0.5,0.7,0.7
		c0.3,0.2,0.7,0.2,1.1,0.1c0.3-0.1,0.6-0.3,0.7-0.5C121.4,69.4,121.5,69.2,121.3,68.8z"/>
	<path class="st4" d="M128,75.3l-4.4,0.6l0,0c0.9,0.5,1.3,1.1,1.5,1.9c0.1,0.7,0,1.4-0.4,1.8c-0.4,0.5-1.1,0.8-1.8,1l-4.4,0.6
		l-0.4-2.1l4-0.6c1.1-0.2,1.4-0.5,1.3-1.3c-0.1-0.5-0.5-0.9-1.2-1.3l-4.4,0.6l-0.4-2.1l10.2-1.4L128,75.3z"/>
	<path class="st4" d="M123,86.2h-2l-0.1-3.8h2L123,86.2z"/>
	<path class="st4" d="M125.3,90.2l-0.6-0.1c0.5,0.6,0.6,1.3,0.6,2c-0.1,0.9-0.6,1.5-1.3,2.1c-0.8,0.5-1.6,0.7-2.7,0.6
		s-2-0.5-2.6-1.2c-0.6-0.6-0.9-1.5-0.8-2.5c0.1-0.6,0.3-1.2,0.7-1.6l-3.8-0.5l0.3-2.1l10.5,1.1L125.3,90.2z M123.3,90l-3.3-0.4
		c-0.4,0.4-0.6,0.7-0.6,1.2c-0.1,0.5,0.1,0.9,0.5,1.3s0.9,0.5,1.5,0.6c0.7,0.1,1.2,0,1.6-0.3s0.7-0.6,0.7-1.1
		C123.8,91,123.7,90.5,123.3,90z"/>
	<path class="st4" d="M117.6,102.3l-1.3-0.4c-0.4-0.9-0.4-2,0-3.1s1-1.9,1.8-2.5c0.9-0.5,1.8-0.6,2.9-0.4c1.1,0.3,1.8,0.8,2.3,1.6
		c0.5,0.8,0.6,1.7,0.3,2.7c-0.3,1-0.9,1.7-1.8,2.2s-1.9,0.5-3.1,0.1l1.4-4.6c-0.7-0.1-1.1-0.1-1.6,0.3c-0.5,0.3-0.8,0.7-1,1.4
		C117.2,100.4,117.3,101.2,117.6,102.3z M121.1,98.3l-0.9,2.8c1.1,0.2,1.6-0.2,1.9-1S122.1,98.8,121.1,98.3z"/>
	<path class="st4" d="M120.6,107.5l-1.8-0.8l0,0c1.1,1.1,1.4,2.1,1.1,2.8c-0.2,0.4-0.6,0.7-1.1,1l-1.5-1.3c0.6-0.4,0.9-0.6,1.1-0.9
		c0.2-0.5,0.1-0.9-0.4-1.5c-0.5-0.5-0.7-0.8-0.8-0.9l-2.8-1.2l1-1.9l6.4,2.7L120.6,107.5z"/>
	<path class="st4" d="M117,113.9l-0.5,0.8l-1.3-0.7l0.5-0.8l-4.8-2.6l1.1-1.8l4.8,2.6l0.5-0.8l1.3,0.7l-0.5,0.8l0.3,0.2
		c0.9,0.5,1.3,1.1,1.5,1.8c0.2,0.7,0.1,1.5-0.4,2.3c-0.1,0.2-0.4,0.5-0.8,1l-1.5-0.9c0.3-0.4,0.5-0.6,0.6-0.7
		c0.4-0.6,0.3-1.2-0.5-1.6L117,113.9z"/>
	<path class="st4" d="M113.6,118.8c-0.7,0.8-1.5,1.4-2.5,1.5c-1,0.2-1.9,0-2.9-0.7c-1-0.6-1.3-1.5-1.4-2.5s0.3-1.8,1-2.6
		c0.8-0.9,1.5-1.4,2.6-1.5c1-0.2,1.9,0.1,2.8,0.7s1.3,1.5,1.4,2.5C114.6,117,114.3,118,113.6,118.8z M108.8,115.2
		c-0.7,0.8-0.4,1.6,1,2.6c1.2,0.9,2.1,0.9,2.8,0.2c0.3-0.4,0.4-0.8,0.3-1.3s-0.5-0.9-1.1-1.4C110.5,114.5,109.5,114.4,108.8,115.2z"
		/>
	<path class="st4" d="M107.8,124.6l-1.3-1.4l0,0c0.5,1.5,0.5,2.4-0.2,3c-0.3,0.3-0.8,0.5-1.5,0.5l-0.9-1.7c0.7-0.1,1.1-0.3,1.3-0.5
		c0.4-0.4,0.5-0.8,0.3-1.5c-0.2-0.6-0.3-1-0.4-1.1l-2.1-2.1l1.6-1.5l4.8,4.9L107.8,124.6z"/>
	<path class="st4" d="M101.8,129.4l-0.5-0.7c-0.3,0.9-0.8,1.6-1.5,2.1c-1.1,0.6-2,0.6-3,0c-0.2,1.3-0.8,2.1-1.6,2.6
		c-0.7,0.4-1.4,0.5-2.1,0.4c-0.7-0.2-1.2-0.5-1.6-1.2l-2.4-3.6l1.9-1.1l2.1,3.4c0.3,0.4,0.6,0.6,0.9,0.8c0.4,0.1,0.7,0.1,1.1-0.1
		c0.6-0.4,0.9-0.9,0.9-1.8l-2.4-3.6l1.9-1.1l2.2,3.4c0.3,0.4,0.6,0.6,0.9,0.7c0.4,0.1,0.7,0,1.1-0.2c0.5-0.3,0.8-0.8,1-1.6l-2.5-3.8
		l1.9-1.1l3.6,5.7L101.8,129.4z"/>
	<path class="st4" d="M81.5,132.9l-0.4-1.1c0.6-0.6,1.1-1,1.7-1.2c0.7-0.2,1.1-0.1,1.4,0.4c0.6-0.7,1.2-1.2,1.9-1.5
		c0.5-0.2,1.1-0.2,1.5,0c0.5,0.2,0.8,0.5,1,0.9c0.2,0.5,0.2,1.1-0.1,1.5c-0.3,0.5-1.2,1.3-3,2.5c0.2,0.7,0.8,0.9,1.5,0.7
		c0.9-0.3,1.6-0.9,2.1-1.8l0.6,1.6c-0.7,0.8-1.5,1.4-2.6,1.7c-1.9,0.6-3.1,0.3-3.5-1l-1.1-2.9c-0.1-0.3-0.3-0.4-0.5-0.4
		C82,132.3,81.8,132.6,81.5,132.9z M84.8,131.8l0.6,1.5c0.6-0.5,1.1-0.8,1.2-1.1s0.3-0.5,0.1-0.8c-0.1-0.2-0.2-0.4-0.4-0.5
		s-0.4-0.1-0.6,0C85.4,131.1,85.1,131.4,84.8,131.8z"/>
	<path class="st4" d="M79.4,138.4l-0.2-0.9c-0.5,0.8-1.2,1.3-2.1,1.5c-0.8,0.1-1.3,0-1.9-0.4s-1-0.9-1.1-1.7l-0.8-4.2l2.2-0.4l0.7,4
		c0.2,0.9,0.6,1.3,1.3,1.2c0.5-0.1,1-0.5,1.3-1.4l-0.8-4.3l2.2-0.4l1.1,6.6L79.4,138.4z"/>
	<path class="st4" d="M65.8,134.4v-1.5c0.9-0.3,1.6-0.5,2.4-0.5c1.2,0,2.2,0.3,3,0.9s1.1,1.5,1.1,2.5s-0.4,1.8-1.1,2.5
		c-0.8,0.6-1.7,1-2.9,1c-0.8,0-1.5-0.2-2.4-0.5v-1.5c0.6,0.3,1.2,0.5,1.8,0.5c0.7,0,1.1-0.2,1.6-0.5c0.4-0.4,0.6-0.8,0.6-1.4
		c0-0.6-0.2-1.1-0.6-1.5s-0.9-0.5-1.5-0.5C67.3,133.9,66.7,134.1,65.8,134.4z"/>
	<path class="st4" d="M57.6,133.6l0.2-1.3c1-0.5,2-0.6,3.3-0.5c1.2,0.2,2.2,0.6,2.8,1.4c0.7,0.7,0.9,1.6,0.7,2.6s-0.7,1.8-1.4,2.4
		c-0.8,0.5-1.7,0.7-2.8,0.6c-1.1-0.2-1.9-0.6-2.5-1.4c-0.6-0.8-0.8-1.7-0.5-2.9l5,0.7c0.1-0.6-0.1-1.1-0.5-1.5s-0.9-0.6-1.5-0.7
		C59.5,132.9,58.6,133.1,57.6,133.6z M62.2,136.3l-3.1-0.5c0,1,0.4,1.5,1.2,1.6C61.3,137.7,61.9,137.3,62.2,136.3z"/>
	<path class="st5" d="M44.8,128.9l0.8-1.6l7.1,2.9l-4.1,9.1l-7-2.8l0.8-1.6l4.6,1.9l0.9-1.9l-4.4-1.8l0.8-1.6l4.4,1.8l1-2.2
		L44.8,128.9z"/>
	<path class="st5" d="M38.7,131l0.6-0.8c-1,0.3-1.8,0.2-2.6-0.3c-0.6-0.4-1-0.9-1.1-1.5c-0.2-0.6,0-1.3,0.5-2l2.5-3.5l1.8,1.2
		l-2.4,3.5c-0.5,0.7-0.5,1.3,0.1,1.7c0.5,0.3,1.1,0.3,1.9-0.1l2.5-3.6l1.8,1.2l-3.9,5.5L38.7,131z"/>
	<path class="st5" d="M30.8,119.1l1-1c1.1,0.1,2,0.5,3,1.4c0.9,0.8,1.4,1.6,1.5,2.6c0.1,0.9-0.3,1.8-1,2.5c-0.8,0.7-1.6,1.1-2.6,1.2
		s-1.9-0.3-2.7-1c-0.8-0.7-1.1-1.5-1.2-2.5c0-1,0.4-1.8,1.2-2.6l3.7,3.3c0.4-0.5,0.6-1,0.5-1.5s-0.4-1-0.9-1.5
		C32.8,119.6,32,119.2,30.8,119.1z M32.9,123.8l-2.2-2c-0.6,0.8-0.6,1.5,0.1,2.1C31.4,124.5,32.2,124.4,32.9,123.8z"/>
	<path class="st5" d="M24.6,119.2l1.6-1.2l0,0c-1.5,0.4-2.6,0.3-3.1-0.4c-0.3-0.3-0.4-0.8-0.4-1.5l1.9-0.7c0.1,0.6,0.2,1,0.4,1.3
		c0.3,0.4,0.9,0.5,1.5,0.4c0.7-0.1,1.1-0.2,1.2-0.3l2.4-1.8l1.3,1.6l-5.6,4.2L24.6,119.2z"/>
	<path class="st5" d="M17.9,109.3l1.2-0.7l0.5,0.8c0.2-0.4,0.5-0.6,0.9-0.8c0.5-0.3,1.1-0.4,1.6-0.2c0.6,0.2,1.1,0.5,1.6,1.1
		s0.8,0.9,0.9,1s0.2,0.1,0.4,0c0.1-0.1,0.2-0.2,0.2-0.3c0-0.2-0.2-0.6-0.6-1.5c-0.4-0.8-0.6-1.5-0.4-2s0.5-0.9,0.9-1.1
		c0.7-0.4,1.3-0.4,2-0.1c0.7,0.4,1.3,1,1.9,2s1,1.9,1,2.5c0,0.7-0.3,1.2-0.8,1.5c-0.8,0.5-1.5,0.2-2.5-0.7c0.1,0.5,0,0.9-0.4,1.2
		c-0.5,0.3-1,0.1-1.5-0.5c0.2,0.5,0.2,1,0.1,1.5c-0.2,0.5-0.5,0.9-1,1.2c-0.6,0.4-1.2,0.4-1.9,0.2c-0.8-0.2-1.3-0.7-1.8-1.5
		L17.9,109.3z M21,112c0.2,0.3,0.5,0.5,0.8,0.5c0.4,0.1,0.7,0,1-0.1c0.3-0.2,0.5-0.5,0.6-0.7c0.1-0.4,0.1-0.6-0.1-0.9
		s-0.5-0.5-0.8-0.5c-0.4-0.1-0.7,0-1.1,0.2c-0.3,0.2-0.5,0.4-0.6,0.7C20.7,111.5,20.9,111.7,21,112z M27.8,108
		c-0.2-0.4-0.5-0.6-0.8-0.8c-0.3-0.2-0.6-0.2-0.8-0.1c-0.5,0.3-0.4,0.8,0.2,1.8c0.3,0.5,0.6,0.7,0.9,0.9c0.3,0.2,0.6,0.2,0.8,0.1
		C28.4,109.6,28.4,109,27.8,108z"/>
	<path class="st5" d="M14.5,101.3L26,102l0.9,2.1l-5-0.3l-4.5,4.5l-1-2.1l2.9-2.5l-3.9-0.2L14.5,101.3z"/>
	<path class="st5" d="M15.8,96.1l2-0.5l1,3.6l-2,0.5L15.8,96.1z"/>
	<path class="st5" d="M16.9,87.7l1.4-0.2c0.7,0.7,1.1,1.7,1.2,2.9c0.1,1.2-0.1,2.2-0.7,2.9s-1.4,1.2-2.5,1.4c-1.1,0.1-2-0.1-2.8-0.7
		c-0.8-0.5-1.2-1.4-1.3-2.4s0.1-1.9,0.8-2.6s1.6-1.2,2.8-1.3l0.6,4.8c0.7-0.1,1.1-0.4,1.4-0.8c0.3-0.5,0.4-1,0.3-1.6
		C18.2,89.2,17.7,88.4,16.9,87.7z M15.4,92.5L15,89.6c-1.1,0.2-1.4,0.7-1.3,1.6C13.8,92.1,14.4,92.5,15.4,92.5z"/>
	<path class="st5" d="M12.2,83.8v-1h1.5v1l5.6,0.1V86l-5.6-0.1v1h-1.5v-1h-0.4c-1,0-1.7-0.3-2.3-0.8s-0.9-1.3-0.8-2.2
		c0-0.2,0.1-0.6,0.2-1.3h1.8c-0.1,0.5-0.1,0.7-0.1,0.9c0,0.8,0.4,1.2,1.2,1.2L12.2,83.8z"/>
	<path class="st5" d="M12.6,79l0.1-0.9l1.5,0.2l-0.1,0.9l5.6,0.5l-0.4,2.1l-5.6-0.5l-0.1,0.9L12.2,82l0.1-0.9h-0.4
		c-1-0.1-1.7-0.5-2.2-1S9,78.7,9.1,77.9c0-0.2,0.1-0.6,0.3-1.3l1.8,0.2c-0.1,0.5-0.2,0.7-0.2,0.9c-0.1,0.7,0.3,1.2,1.1,1.3H12.6z"/>
	<path class="st5" d="M10.7,76.3c-0.3-0.1-0.6-0.2-0.8-0.5s-0.3-0.5-0.2-0.9c0.1-0.3,0.2-0.5,0.5-0.7s0.6-0.3,1-0.2
		c0.3,0.1,0.6,0.2,0.8,0.5s0.3,0.5,0.2,0.9c-0.1,0.3-0.2,0.5-0.5,0.7S11,76.4,10.7,76.3z M13.4,74.6l6.9,1.3L19.9,78L13,76.7
		L13.4,74.6z"/>
	<path class="st5" d="M20.6,68.2l1.5,0.5c0,0.9,0,1.6-0.3,2.3c-0.4,1.1-1,1.9-1.8,2.5c-0.9,0.5-1.8,0.5-2.9,0.3s-1.7-0.9-2.2-1.7
		c-0.5-0.9-0.5-1.8-0.2-2.9c0.2-0.6,0.6-1.4,1.1-2l1.5,0.5c-0.5,0.5-0.8,1-1,1.5c-0.2,0.6-0.2,1.1,0.1,1.6c0.2,0.5,0.7,0.8,1.2,1
		c0.6,0.2,1.1,0.2,1.6-0.1c0.5-0.3,0.8-0.6,1-1.3C20.6,69.7,20.6,69.1,20.6,68.2z"/>
	<path class="st5" d="M14.4,64.2c-0.3-0.1-0.6-0.4-0.7-0.6s-0.1-0.6,0-0.9s0.4-0.5,0.7-0.6s0.7-0.1,1,0s0.5,0.4,0.7,0.6
		c0.1,0.3,0.1,0.6,0,0.9s-0.4,0.5-0.7,0.6C14.9,64.4,14.6,64.4,14.4,64.2z M17.4,63.1l6.5,2.7L23,67.7L16.6,65L17.4,63.1z"/>
	<path class="st5" d="M26,57.6l1.2,0.6c0.1,1-0.2,2-0.8,3c-0.7,1.1-1.4,1.7-2.4,2s-1.9,0.2-2.9-0.4c-1-0.5-1.5-1.3-1.7-2.2
		c-0.3-0.9-0.1-1.8,0.5-2.7s1.3-1.5,2.3-1.6c1-0.2,2,0,3.1,0.6l-2.6,4.2c0.6,0.3,1.1,0.4,1.6,0.2s1-0.5,1.2-1.1
		C26,59.6,26.1,58.7,26,57.6z M21.7,60.6l1.5-2.5c-1-0.4-1.6-0.2-2.1,0.5C20.7,59.4,20.9,60,21.7,60.6z"/>
	<path class="st5" d="M24.6,51.9l0.8,0.6c-0.2-0.9,0-1.7,0.6-2.4c0.5-0.5,1.1-0.8,1.7-0.9c0.7-0.1,1.3,0.2,2,0.7l3.4,2.7l-1.3,1.5
		l-3.3-2.6c-0.8-0.5-1.3-0.6-1.8-0.1c-0.4,0.4-0.4,1-0.1,1.8L30,56l-1.4,1.6l-5.4-4.3L24.6,51.9z"/>
	<path class="st5" d="M33.4,43.6l1,1.1l-1.9,1.6l1.9,2.1c0.2,0.3,0.5,0.4,0.8,0.4s0.6-0.1,0.8-0.3c0.4-0.3,0.7-0.7,0.9-1.3l1.1,1.2
		c-0.4,0.6-0.8,1.2-1.2,1.6c-0.7,0.5-1.3,0.8-1.9,0.8c-0.7,0-1.2-0.4-1.8-0.9l-2-2.3l-0.8,0.6L29.8,48v-4.2l0.2-0.2l1.4,1.5
		L33.4,43.6z"/>
</g>
<ellipse class="st8" cx="69.4" cy="85.2" rx="40.7" ry="38.6"/>
<polygon class="st8" points="68.3,47.9 34.6,103.3 102.1,103.3 "/>
<circle class="st8" cx="69.1" cy="85.6" r="59.4"/>
</svg>
