<?xml version="1.0" encoding="utf-8"?>
<!-- Generator: Adobe Illustrator 21.0.0, SVG Export Plug-In . SVG Version: 6.00 Build 0)  -->
<svg version="1.1" id="Layer_1" xmlns="http://www.w3.org/2000/svg" xmlns:xlink="http://www.w3.org/1999/xlink" x="0px" y="0px"
	 viewBox="0 0 738 200" style="enable-background:new 0 0 738 200;" xml:space="preserve">
<style type="text/css">
	.st0{fill:none;}
	.st1{fill:#FFCD05;}
	.st2{fill:#FF66FF;}
	.st3{fill:#00FFFF;}
	.st4{fill:#FF6666;}
	.st5{fill:#66FF66;}
	.st6{fill:#BE84FF;}
	.st7{fill:gray;}
	.st8{fill:none;stroke:gray;stroke-miterlimit:10;}
</style>
<g>
	<rect x="200.7" y="72.5" class="st0" width="278.1" height="26.9"/>
	<path class="st1" d="M217.8,92.9l-1.1-2.8h-9.4l-1.1,2.8c-0.4,1.1-0.9,2-1.1,2.4c-0.2,0.4-0.9,0.7-1.5,0.7c-0.7,0-1.1-0.2-1.5-0.7
		c-0.4-0.4-0.7-0.9-0.7-1.5c0-0.2,0-0.7,0.2-0.9c0-0.4,0.2-0.9,0.4-1.3l5.9-14.8c0.2-0.4,0.4-0.9,0.7-1.5s0.4-1.1,0.7-1.5
		c0.2-0.4,0.7-0.7,1.1-0.9c0.4-0.2,0.9-0.4,1.5-0.4c0.7,0,1.1,0.2,1.5,0.4c0.4,0.2,0.9,0.7,1.1,0.9c0.2,0.4,0.4,0.9,0.7,1.3
		c0.2,0.4,0.4,1.1,0.7,1.7l5.9,14.8c0.4,1.1,0.7,2,0.7,2.4c0,0.4-0.2,1.1-0.7,1.5c-0.4,0.4-0.9,0.7-1.5,0.7c-0.4,0-0.7,0-0.9-0.2
		s-0.4-0.2-0.7-0.4c-0.2-0.2-0.4-0.7-0.7-1.1C218.1,93.8,217.8,93.4,217.8,92.9z M208.7,86.6h6.7l-3.5-9.3L208.7,86.6z"/>
	<path class="st2" d="M230.7,75.3v16.5h9.4c0.7,0,1.3,0.2,1.7,0.7c0.4,0.4,0.7,0.9,0.7,1.3c0,0.7-0.2,1.1-0.7,1.3
		c-0.4,0.4-0.9,0.4-1.7,0.4h-11.1c-1.1,0-1.7-0.2-2.2-0.7c-0.4-0.4-0.7-1.1-0.7-2.2V75.1c0-0.9,0.2-1.7,0.7-2.2s0.9-0.7,1.7-0.7
		c0.7,0,1.3,0.2,1.7,0.7C230.5,73.6,230.7,74.3,230.7,75.3z"/>
	<path class="st3" d="M263.1,88.4c0,0.7-0.2,1.5-0.4,2.4c-0.2,0.9-0.9,1.7-1.7,2.4c-0.9,0.7-1.7,1.5-2.8,2c-1.1,0.4-2.6,0.7-4.1,0.7
		c-1.3,0-2.4-0.2-3.3-0.4s-2-0.7-2.6-1.1c-0.9-0.4-1.5-1.1-2.2-2c-0.7-0.7-1.1-1.5-1.5-2.4c-0.4-0.9-0.7-1.7-0.9-2.8
		c-0.2-1.1-0.2-2.2-0.2-3.3c0-1.7,0.2-3.5,0.9-5c0.7-1.5,1.3-2.6,2.4-3.7s2.2-1.7,3.5-2.4c1.3-0.4,2.8-0.9,4.3-0.9
		c1.7,0,3.5,0.4,5,1.1c1.5,0.7,2.6,1.7,3.3,2.8c0.7,1.1,1.1,2.2,1.1,3c0,0.4-0.2,1.1-0.7,1.3c-0.4,0.4-0.9,0.7-1.3,0.7
		c-0.7,0-1.1-0.2-1.3-0.4c-0.2-0.2-0.7-0.7-1.1-1.5c-0.7-1.1-1.3-2-2.2-2.6c-0.9-0.7-1.7-0.9-3-0.9c-2,0-3.5,0.7-4.6,2.2
		s-1.7,3.5-1.7,6.1c0,1.7,0.2,3.3,0.7,4.3c0.4,1.1,1.3,2,2.2,2.6s2,0.9,3.3,0.9s2.4-0.4,3.3-1.1c0.9-0.7,1.5-1.5,2.2-2.8
		c0.2-0.7,0.4-1.1,0.7-1.5c0.2-0.4,0.7-0.7,1.3-0.7s1.1,0.2,1.3,0.7C262.9,87.3,263.1,87.7,263.1,88.4z"/>
	<path class="st4" d="M271.8,75.3v6.5h10v-6.5c0-0.9,0.2-1.7,0.7-2.2s0.9-0.7,1.7-0.7c0.7,0,1.3,0.2,1.7,0.7s0.7,1.1,0.7,2.2v17.8
		c0,0.9-0.2,1.7-0.7,2.2s-1.1,0.7-1.7,0.7s-1.3-0.2-1.7-0.7s-0.7-1.1-0.7-2.2v-7.6h-10v7.6c0,0.9-0.2,1.7-0.7,2.2S270,96,269.4,96
		s-1.3-0.2-1.7-0.7c-0.4-0.4-0.7-1.1-0.7-2.2V75.3c0-0.9,0.2-1.7,0.7-2.2c0.4-0.4,0.9-0.7,1.7-0.7c0.7,0,1.3,0.2,1.7,0.7
		C271.6,73.6,271.8,74.3,271.8,75.3z"/>
	<path class="st5" d="M306.3,76.4h-10.4v5.6h9.6c0.7,0,1.3,0.2,1.5,0.4c0.4,0.2,0.4,0.7,0.4,1.3c0,0.7-0.2,0.9-0.4,1.3
		c-0.4,0.4-0.9,0.4-1.5,0.4h-9.6v6.5h10.7c0.7,0,1.3,0.2,1.7,0.4c0.4,0.2,0.7,0.9,0.7,1.3c0,0.4-0.2,0.9-0.7,1.3
		c-0.4,0.4-0.9,0.4-1.7,0.4h-12.6c-1.1,0-1.7-0.2-2.2-0.7c-0.4-0.4-0.7-1.1-0.7-2.2V75.6c0-0.7,0-1.3,0.2-1.5
		c0.2-0.4,0.4-0.7,0.9-0.9c0.4-0.2,0.9-0.2,1.5-0.2h12.2c0.7,0,1.3,0.2,1.7,0.4c0.4,0.4,0.4,0.7,0.4,1.3c0,0.4-0.2,0.9-0.4,1.3
		C307.6,76.2,307,76.4,306.3,76.4z"/>
	<path class="st6" d="M320.3,92.1l-3.7-14.5v15.6c0,0.9-0.2,1.5-0.7,2c-0.4,0.4-0.9,0.7-1.5,0.7s-1.1-0.2-1.5-0.7s-0.7-1.1-0.7-2
		v-18c0-1.1,0.2-1.7,0.9-2s1.3-0.4,2.2-0.4h1.5c0.9,0,1.5,0,2,0.2c0.4,0.2,0.7,0.4,0.9,0.9c0.2,0.4,0.4,1.1,0.7,2l3.3,12.4l3.3-12.4
		c0.2-0.9,0.4-1.5,0.7-2c0.2-0.4,0.4-0.7,0.9-0.9c0.4-0.2,1.1-0.2,2-0.2h1.5c0.9,0,1.5,0.2,2.2,0.4c0.4,0.4,0.9,1.1,0.9,2v18
		c0,0.9-0.2,1.5-0.7,2s-0.9,0.7-1.5,0.7s-1.1-0.2-1.5-0.7c-0.4-0.4-0.7-1.1-0.7-2V77.5l-3.7,14.5c-0.2,0.9-0.4,1.7-0.7,2.2
		c-0.2,0.4-0.4,0.9-0.9,1.3c-0.4,0.4-0.9,0.7-1.7,0.7c-0.4,0-1.1-0.2-1.3-0.4c-0.4-0.2-0.7-0.4-0.9-0.9c-0.2-0.4-0.4-0.9-0.4-1.3
		C320.5,93.1,320.3,92.7,320.3,92.1z"/>
</g>
<g>
	<path class="st1" d="M207.8,122.2h1.3l6.1,13.5h-2l-1.7-3.9h-5.7l-1.7,3.9h-2L207.8,122.2z M210.7,129.8l-2.2-4.8l-2,4.8H210.7z"/>
	<path class="st7" d="M218.3,126.8v2v-0.2c0.9-1.3,1.7-2,2.6-2c0.7,0,1.3,0.4,2,1.1l-0.9,1.5c-0.7-0.7-1.1-0.9-1.7-0.9
		c-0.7,0-1.1,0.2-1.5,0.9c-0.4,0.4-0.7,1.1-0.7,2v4.6h-1.7V127h2V126.8z"/>
	<path class="st7" d="M230.2,133.5v1.7c-0.9,0.4-1.7,0.4-2.6,0.4c-1.3,0-2.4-0.4-3.3-1.3s-1.3-2-1.3-3.3c0-1.3,0.4-2.4,1.1-3.3
		c0.7-0.9,1.7-1.3,3-1.3c0.4,0,0.9,0,1.3,0.2c0.4,0,0.9,0.2,1.3,0.4v2c-0.9-0.7-1.7-0.9-2.4-0.9c-0.9,0-1.5,0.2-2,0.9
		c-0.4,0.7-0.7,1.3-0.7,2.2c0,0.9,0.2,1.5,0.9,2.2c0.7,0.4,1.3,0.9,2.2,0.9C228.5,134.2,229.4,134,230.2,133.5z"/>
	<path class="st7" d="M232.2,122.2h1.7v5.6c0.7-0.9,1.5-1.3,2.6-1.3c0.7,0,1.1,0.2,1.5,0.4c0.4,0.2,0.9,0.7,1.1,1.3
		c0.2,0.4,0.4,1.3,0.4,2.4v5h-1.7v-5.4c0-0.7-0.2-1.1-0.4-1.5c-0.2-0.4-0.7-0.7-1.3-0.7c-0.4,0-0.7,0-1.1,0.2
		c-0.4,0.2-0.7,0.4-1.1,1.1v6.3h-1.7V122.2z"/>
	<path class="st7" d="M242.8,123.1c0.2,0,0.4,0,0.7,0.2c0.2,0.2,0.2,0.4,0.2,0.7s0,0.4-0.2,0.7c-0.2,0.2-0.4,0.2-0.7,0.2
		c-0.2,0-0.4,0-0.7-0.2c-0.2-0.2-0.2-0.4-0.2-0.7s0-0.4,0.2-0.7S242.6,123.1,242.8,123.1z M242,126.8h1.7v8.7H242V126.8z"/>
	<path class="st7" d="M245,128.1l3.3-3.3v1.7h2.8v1.5h-2.8v4.3c0,1.1,0.4,1.5,1.3,1.5c0.7,0,1.3-0.2,2-0.7v1.5
		c-0.7,0.4-1.3,0.7-2.2,0.7c-0.9,0-1.5-0.2-2-0.7c-0.2-0.2-0.2-0.2-0.4-0.4c0-0.2-0.2-0.4-0.2-0.7c0-0.2-0.2-0.9-0.2-1.5v-3.9
		L245,128.1L245,128.1z"/>
	<path class="st7" d="M260.2,131.3h-6.1c0,0.9,0.2,1.5,0.9,2c0.7,0.4,1.1,0.7,2,0.7c1.1,0,2.2-0.4,3.3-1.1v1.7
		c-0.4,0.4-1.1,0.7-1.5,0.9c-0.4,0.2-1.1,0.2-2,0.2c-0.9,0-1.7-0.2-2.4-0.7c-0.7-0.4-1.1-0.9-1.5-1.5s-0.4-1.5-0.4-2.4
		c0-1.3,0.4-2.4,1.1-3.3s1.7-1.3,3-1.3c1.1,0,2.2,0.4,2.8,1.3c0.7,0.9,1.1,2,1.1,3.3v0.2H260.2z M254.2,130.3h4.3
		c0-0.7-0.2-1.3-0.7-1.5s-0.9-0.7-1.5-0.7c-0.7,0-1.1,0.2-1.5,0.7C254.6,129.2,254.2,129.6,254.2,130.3z"/>
	<path class="st7" d="M268.7,133.5v1.7c-0.9,0.4-1.7,0.4-2.6,0.4c-1.3,0-2.4-0.4-3.3-1.3c-0.9-0.9-1.3-2-1.3-3.3
		c0-1.3,0.4-2.4,1.1-3.3s1.7-1.3,3-1.3c0.4,0,0.9,0,1.3,0.2c0.4,0,0.9,0.2,1.3,0.4v2c-0.9-0.7-1.7-0.9-2.4-0.9c-0.9,0-1.5,0.2-2,0.9
		c-0.4,0.7-0.7,1.3-0.7,2.2c0,0.9,0.2,1.5,0.9,2.2c0.7,0.4,1.3,0.9,2.2,0.9C267.2,134.2,267.9,134,268.7,133.5z"/>
	<path class="st7" d="M269.6,128.1l3.3-3.3v1.7h2.8v1.5h-2.8v4.3c0,1.1,0.4,1.5,1.3,1.5c0.7,0,1.3-0.2,2-0.7v1.5
		c-0.7,0.4-1.3,0.7-2.2,0.7c-0.9,0-1.5-0.2-2-0.7c-0.2-0.2-0.2-0.2-0.4-0.4c0-0.2-0.2-0.4-0.2-0.7c0-0.2-0.2-0.9-0.2-1.5v-3.9
		L269.6,128.1L269.6,128.1z"/>
	<path class="st7" d="M282.9,135.5v-1.1c-0.4,0.4-0.9,0.7-1.3,0.9c-0.4,0.2-0.9,0.4-1.5,0.4c-0.7,0-1.1-0.2-1.5-0.4
		c-0.4-0.2-0.9-0.7-1.1-1.1c-0.2-0.4-0.4-1.3-0.4-2.4v-5h1.7v5c0,0.9,0.2,1.5,0.4,2c0.2,0.4,0.7,0.7,1.3,0.7c0.9,0,1.5-0.4,2.2-1.3
		v-6.3h1.7v8.7H282.9z"/>
	<path class="st7" d="M288.9,126.8v2v-0.2c0.9-1.3,1.7-2,2.6-2c0.7,0,1.3,0.4,2,1.1l-0.9,1.5c-0.7-0.7-1.1-0.9-1.7-0.9
		s-1.1,0.2-1.5,0.9c-0.4,0.4-0.7,1.1-0.7,2v4.6H287V127h2L288.9,126.8L288.9,126.8z"/>
	<path class="st7" d="M301.8,131.3h-6.1c0,0.9,0.2,1.5,0.9,2c0.7,0.4,1.1,0.7,2,0.7c1.1,0,2.2-0.4,3.3-1.1v1.7
		c-0.4,0.4-1.1,0.7-1.5,0.9c-0.4,0.2-1.1,0.2-2,0.2c-0.9,0-1.7-0.2-2.4-0.7s-1.1-0.9-1.5-1.5s-0.4-1.5-0.4-2.4
		c0-1.3,0.4-2.4,1.1-3.3s1.7-1.3,3-1.3c1.1,0,2.2,0.4,2.8,1.3C301.6,128.7,302,129.8,301.8,131.3L301.8,131.3L301.8,131.3z
		 M295.7,130.3h4.3c0-0.7-0.2-1.3-0.7-1.5s-0.9-0.7-1.5-0.7s-1.1,0.2-1.5,0.7C296.1,129.2,295.9,129.6,295.7,130.3z"/>
	<path class="st2" d="M309.4,122.2h2v11.5h6.1v1.7h-7.8L309.4,122.2L309.4,122.2z"/>
	<path class="st7" d="M324.4,130.3v3.7c0,0.2,0,0.4,0.2,0.4c0.2,0,0.4-0.2,1.1-0.4v1.1c-0.4,0.2-0.7,0.4-0.9,0.4s-0.4,0.2-0.7,0.2
		c-0.7,0-1.1-0.2-1.3-0.9c-0.7,0.7-1.5,0.9-2.4,0.9c-0.7,0-1.1-0.2-1.5-0.7c-0.4-0.4-0.7-0.9-0.7-1.5s0.2-1.1,0.7-1.5
		c0.4-0.4,0.9-0.9,1.7-1.1l2.2-0.9v-0.4c0-1.1-0.4-1.5-1.5-1.5c-0.9,0-2,0.4-2.8,1.5v-2c0.7-0.9,1.7-1.1,2.8-1.1
		c0.9,0,1.7,0.2,2.4,0.7c0.2,0.2,0.4,0.4,0.4,0.7c0.2,0.2,0.2,0.4,0.2,0.9C324.4,129,324.4,129.6,324.4,130.3z M322.7,133.7v-2.6
		l-1.1,0.4c-0.7,0.2-1.1,0.4-1.3,0.7c-0.2,0.2-0.4,0.4-0.4,0.9c0,0.4,0.2,0.7,0.4,0.9c0.2,0.2,0.4,0.4,0.9,0.4
		C321.6,134.6,322.2,134.4,322.7,133.7z"/>
	<path class="st7" d="M327,122.2h1.7v5.2c0.7-0.7,1.5-0.9,2.4-0.9c1.1,0,2,0.4,2.8,1.3c0.9,0.9,1.1,2,1.1,3.3c0,1.5-0.4,2.6-1.3,3.5
		c-0.9,0.9-2,1.3-3.5,1.3c-0.7,0-1.1,0-1.7-0.2c-0.7-0.2-1.1-0.2-1.5-0.4V122.2z M328.7,129.2v4.8c0.7,0.2,1.3,0.2,1.7,0.2
		c0.9,0,1.3-0.2,2-0.9c0.4-0.7,0.7-1.3,0.7-2.2s-0.2-1.5-0.7-2.2c-0.4-0.7-1.1-0.9-1.7-0.9C330,128.3,329.4,128.5,328.7,129.2z"/>
	<path class="st7" d="M342.7,126.8v-0.4c0-1.5,0.2-2.4,0.9-3.3c0.7-0.7,1.3-1.1,2.2-1.1c0.4,0,0.9,0,1.3,0.2v1.7
		c-0.2,0-0.7-0.2-0.9-0.2c-0.7,0-1.1,0.2-1.5,0.7c-0.2,0.4-0.4,1.1-0.4,2v0.4h1.5v1.5h-1.5v7.2h-1.7v-7.2h-1.3v-1.5H342.7z"/>
	<path class="st7" d="M351.4,126.8c1.3,0,2.4,0.4,3.3,1.3c0.9,0.9,1.3,2,1.3,3.3s-0.4,2.4-1.3,3.3c-0.9,0.9-2,1.3-3.5,1.3
		c-1.3,0-2.4-0.4-3.3-1.3s-1.3-2-1.3-3.3s0.4-2.4,1.3-3.3S349.8,126.8,351.4,126.8z M351.1,128.3c-0.9,0-1.5,0.2-2,0.9
		s-0.9,1.3-0.9,2.2c0,0.9,0.2,1.5,0.9,2c0.7,0.4,1.3,0.9,2.2,0.9s1.5-0.2,2.2-0.9c0.7-0.4,0.9-1.3,0.9-2.2s-0.2-1.5-0.9-2.2
		C352.9,128.3,352,128.3,351.1,128.3z"/>
	<path class="st7" d="M359.8,126.8v2v-0.2c0.9-1.3,1.7-2,2.6-2c0.7,0,1.3,0.4,2,1.1l-0.9,1.5c-0.7-0.7-1.1-0.9-1.7-0.9
		s-1.1,0.2-1.5,0.9c-0.4,0.4-0.7,1.1-0.7,2v4.6h-1.7V127h2L359.8,126.8L359.8,126.8z"/>
	<path class="st3" d="M382.9,132.4v2.2c-1.3,0.9-3,1.1-4.8,1.1c-1.5,0-2.8-0.2-3.7-0.9c-0.9-0.7-2-1.5-2.4-2.4
		c-0.7-1.1-0.9-2.2-0.9-3.5c0-2,0.7-3.5,2.2-5c1.3-1.3,3-2,5.2-2c1.3,0,3,0.4,4.6,1.1v2c-1.5-0.9-3-1.3-4.6-1.3
		c-1.5,0-2.8,0.4-3.9,1.5c-1.1,0.9-1.5,2.2-1.5,3.7c0,1.5,0.4,2.6,1.5,3.7c1.1,1.1,2.2,1.5,3.9,1.5
		C379.6,134,381.4,133.5,382.9,132.4z"/>
	<path class="st7" d="M386.8,126.8v2v-0.2c0.9-1.3,1.7-2,2.6-2c0.7,0,1.3,0.4,2,1.1l-0.9,1.5c-0.7-0.7-1.1-0.9-1.7-0.9
		s-1.1,0.2-1.5,0.9c-0.4,0.4-0.7,1.1-0.7,2v4.6h-1.7V127h2L386.8,126.8L386.8,126.8z"/>
	<path class="st7" d="M399.8,131.3h-6.1c0,0.9,0.2,1.5,0.9,2c0.7,0.4,1.1,0.7,2,0.7c1.1,0,2.2-0.4,3.3-1.1v1.7
		c-0.4,0.4-1.1,0.7-1.5,0.9c-0.4,0.2-1.1,0.2-2,0.2c-0.9,0-1.7-0.2-2.4-0.7s-1.1-0.9-1.5-1.5c-0.4-0.7-0.4-1.5-0.4-2.4
		c0-1.3,0.4-2.4,1.1-3.3s1.7-1.3,3-1.3c1.1,0,2.2,0.4,2.8,1.3C399.6,128.7,400.1,129.8,399.8,131.3L399.8,131.3L399.8,131.3z
		 M393.5,130.3h4.3c0-0.7-0.2-1.3-0.7-1.5c-0.4-0.2-0.9-0.7-1.5-0.7c-0.7,0-1.1,0.2-1.5,0.7C394,129.2,393.8,129.6,393.5,130.3z"/>
	<path class="st7" d="M407.2,130.3v3.7c0,0.2,0,0.4,0.2,0.4s0.4-0.2,1.1-0.4v1.1c-0.4,0.2-0.7,0.4-0.9,0.4c-0.2,0-0.4,0.2-0.7,0.2
		c-0.7,0-1.1-0.2-1.3-0.9c-0.7,0.7-1.5,0.9-2.4,0.9c-0.7,0-1.1-0.2-1.5-0.7s-0.7-0.9-0.7-1.5s0.2-1.1,0.7-1.5
		c0.4-0.4,0.9-0.9,1.7-1.1l2.2-0.9v-0.4c0-1.1-0.4-1.5-1.5-1.5c-0.9,0-2,0.4-2.8,1.5v-2c0.7-0.9,1.7-1.1,2.8-1.1
		c0.9,0,1.7,0.2,2.4,0.7c0.2,0.2,0.4,0.4,0.4,0.7c0.2,0.2,0.2,0.4,0.2,0.9C407.2,129,407.2,129.6,407.2,130.3z M405.5,133.7v-2.6
		l-1.1,0.4c-0.7,0.2-1.1,0.4-1.3,0.7c-0.2,0.2-0.4,0.4-0.4,0.9c0,0.4,0.2,0.7,0.4,0.9s0.4,0.4,0.9,0.4
		C404.4,134.6,405.1,134.4,405.5,133.7z"/>
	<path class="st7" d="M408.8,128.1l3.3-3.3v1.7h2.8v1.5H412v4.3c0,1.1,0.4,1.5,1.3,1.5c0.7,0,1.3-0.2,2-0.7v1.5
		c-0.7,0.4-1.3,0.7-2.2,0.7s-1.5-0.2-2-0.7c-0.2-0.2-0.2-0.2-0.4-0.4c0-0.2-0.2-0.4-0.2-0.7c0-0.2-0.2-0.9-0.2-1.5v-3.9L408.8,128.1
		L408.8,128.1z"/>
	<path class="st7" d="M417.5,123.1c0.2,0,0.4,0,0.7,0.2s0.2,0.4,0.2,0.7s0,0.4-0.2,0.7c-0.2,0.2-0.4,0.2-0.7,0.2s-0.4,0-0.7-0.2
		c-0.2-0.2-0.2-0.4-0.2-0.7s0-0.4,0.2-0.7C416.8,123.1,417.2,123.1,417.5,123.1z M416.6,126.8h1.7v8.7h-1.7V126.8z"/>
	<path class="st7" d="M426.2,126.8h2l-3.9,8.9h-0.7l-3.9-8.9h2l2.4,5.4L426.2,126.8z"/>
	<path class="st7" d="M436.4,131.3h-6.1c0,0.9,0.2,1.5,0.9,2c0.7,0.4,1.1,0.7,2,0.7c1.1,0,2.2-0.4,3.3-1.1v1.7
		c-0.4,0.4-1.1,0.7-1.5,0.9c-0.4,0.2-1.1,0.2-2,0.2s-1.7-0.2-2.4-0.7c-0.7-0.4-1.1-0.9-1.5-1.5c-0.4-0.7-0.4-1.5-0.4-2.4
		c0-1.3,0.4-2.4,1.1-3.3s1.7-1.3,3-1.3c1.1,0,2.2,0.4,2.8,1.3C436.2,128.7,436.6,129.8,436.4,131.3L436.4,131.3L436.4,131.3z
		 M430.3,130.3h4.3c0-0.7-0.2-1.3-0.7-1.5c-0.4-0.2-0.9-0.7-1.5-0.7s-1.1,0.2-1.5,0.7C430.7,129.2,430.5,129.6,430.3,130.3z"/>
	<path class="st4" d="M453.6,122.2h2v13.2h-2v-5.9h-7.4v5.9h-2v-13.2h2v5.9h7.4V122.2z"/>
	<path class="st7" d="M459,123.1c0.2,0,0.4,0,0.7,0.2c0.2,0.2,0.2,0.4,0.2,0.7s0,0.4-0.2,0.7c-0.2,0.2-0.4,0.2-0.7,0.2
		c-0.2,0-0.4,0-0.7-0.2c-0.2-0.2-0.2-0.4-0.2-0.7s0-0.4,0.2-0.7C458.6,123.1,458.8,123.1,459,123.1z M458.1,126.8h1.7v8.7h-1.7
		V126.8z"/>
	<path class="st7" d="M461.8,129.8c0-0.9,0.4-1.7,1.1-2.2c0.7-0.7,1.5-0.9,2.8-0.9h3.7v1.3h-1.7c0.4,0.4,0.7,0.7,0.7,0.9
		c0,0.2,0.2,0.7,0.2,1.1c0,0.4-0.2,0.9-0.4,1.3c-0.2,0.4-0.7,0.9-1.1,1.1c-0.4,0.2-1.1,0.4-2,0.7c-0.7,0-1.1,0.2-1.1,0.7
		c0,0.2,0.2,0.4,0.4,0.4c0.2,0.2,0.7,0.2,1.3,0.4c1.1,0.2,1.7,0.4,2.2,0.7c0.4,0.2,0.7,0.2,0.9,0.7c0.4,0.4,0.7,0.9,0.7,1.5
		c0,0.9-0.4,1.5-1.1,2c-0.7,0.4-1.7,0.7-3,0.7c-1.3,0-2.2-0.2-3-0.7c-0.7-0.4-1.1-1.1-1.1-2c0-1.1,0.7-2,2.2-2.4
		c-0.7-0.4-0.9-0.7-0.9-1.1c0-0.2,0.2-0.4,0.4-0.9c0.2-0.4,0.7-0.4,1.1-0.4C462.5,132,461.8,131.1,461.8,129.8z M464.9,135.9
		c-0.7,0-1.1,0.2-1.5,0.4c-0.4,0.2-0.7,0.7-0.7,0.9c0,0.9,0.9,1.3,2.4,1.3c0.9,0,1.3-0.2,1.7-0.4c0.4-0.2,0.7-0.7,0.7-0.9
		c0-0.4-0.2-0.7-0.9-1.1C466.4,136.1,465.5,135.9,464.9,135.9z M465.1,128.3c-0.4,0-0.9,0.2-1.3,0.4c-0.4,0.2-0.4,0.7-0.4,1.1
		c0,0.4,0.2,0.9,0.4,1.1c0.2,0.2,0.7,0.4,1.3,0.4c0.4,0,0.9-0.2,1.3-0.4s0.4-0.7,0.4-1.1c0-0.4-0.2-0.9-0.4-1.1
		C466.2,128.5,465.7,128.3,465.1,128.3z"/>
	<path class="st7" d="M470.7,122.2h1.7v5.6c0.7-0.9,1.5-1.3,2.6-1.3c0.7,0,1.1,0.2,1.5,0.4c0.4,0.2,0.9,0.7,1.1,1.3
		c0.2,0.4,0.4,1.3,0.4,2.4v5h-1.7v-5.4c0-0.7-0.2-1.1-0.4-1.5c-0.2-0.4-0.7-0.7-1.3-0.7c-0.4,0-0.7,0-1.1,0.2
		c-0.4,0.2-0.7,0.4-1.1,1.1v6.3h-1.7L470.7,122.2L470.7,122.2z"/>
	<path class="st7" d="M480.1,130.3h4.8v2h-4.8V130.3z"/>
	<path class="st7" d="M486.6,140v-13.2h3c1.5,0,2.8,0.4,3.7,1.1c0.9,0.7,1.3,2,1.3,3.3s-0.4,2.4-1.3,3.3c-0.9,0.9-2,1.3-3,1.3
		c-0.7,0-1.1-0.2-2-0.4v4.8H486.6z M489.7,128.3h-1.3v5.4c0.4,0.2,1.1,0.4,1.7,0.4c0.9,0,1.5-0.2,2-0.9s0.9-1.3,0.9-2.2
		c0-0.7-0.2-1.1-0.4-1.5c-0.2-0.4-0.7-0.7-1.1-0.9C491.2,128.5,490.5,128.3,489.7,128.3z"/>
	<path class="st7" d="M504,131.3h-6.1c0,0.9,0.2,1.5,0.9,2c0.7,0.4,1.1,0.7,2,0.7c1.1,0,2.2-0.4,3.3-1.1v1.7
		c-0.4,0.4-1.1,0.7-1.5,0.9c-0.4,0.2-1.1,0.2-2,0.2s-1.7-0.2-2.4-0.7c-0.7-0.4-1.1-0.9-1.5-1.5c-0.4-0.7-0.4-1.5-0.4-2.4
		c0-1.3,0.4-2.4,1.1-3.3s1.7-1.3,3-1.3c1.1,0,2.2,0.4,2.8,1.3C503.8,128.7,504.2,129.8,504,131.3L504,131.3L504,131.3z M497.9,130.3
		h4.3c0-0.7-0.2-1.3-0.7-1.5c-0.4-0.2-0.9-0.7-1.5-0.7s-1.1,0.2-1.5,0.7C498.3,129.2,498.1,129.6,497.9,130.3z"/>
	<path class="st7" d="M507.9,126.8v2v-0.2c0.9-1.3,1.7-2,2.6-2c0.7,0,1.3,0.4,2,1.1l-0.9,1.5c-0.7-0.7-1.1-0.9-1.7-0.9
		s-1.1,0.2-1.5,0.9c-0.4,0.4-0.7,1.1-0.7,2v4.6h-1.5V127h1.7V126.8z"/>
	<path class="st7" d="M514,126.8v-0.4c0-1.5,0.2-2.4,0.9-3.3c0.7-0.7,1.3-1.1,2.2-1.1c0.4,0,0.9,0,1.3,0.2v1.7
		c-0.2,0-0.7-0.2-0.9-0.2c-0.7,0-1.1,0.2-1.5,0.7c-0.2,0.4-0.4,1.1-0.4,2v0.4h1.5v1.5h-1.5v7.2h-1.7v-7.2h-1.1v-1.5H514z"/>
	<path class="st7" d="M522.7,126.8c1.3,0,2.4,0.4,3.3,1.3c0.9,0.9,1.3,2,1.3,3.3s-0.4,2.4-1.3,3.3c-0.9,0.9-2,1.3-3.5,1.3
		c-1.3,0-2.4-0.4-3.3-1.3s-1.3-2-1.3-3.3s0.4-2.4,1.3-3.3C520.1,127.2,521.2,126.8,522.7,126.8z M522.5,128.3c-0.9,0-1.5,0.2-2,0.9
		s-0.9,1.3-0.9,2.2c0,0.9,0.2,1.5,0.9,2c0.7,0.4,1.3,0.9,2.2,0.9c0.9,0,1.5-0.2,2.2-0.9c0.7-0.4,0.9-1.3,0.9-2.2s-0.2-1.5-0.9-2.2
		C524.2,128.3,523.4,128.3,522.5,128.3z"/>
	<path class="st7" d="M531.2,126.8v2v-0.2c0.9-1.3,1.7-2,2.6-2c0.7,0,1.3,0.4,2,1.1l-0.9,1.5c-0.7-0.7-1.1-0.9-1.7-0.9
		s-1.1,0.2-1.5,0.9c-0.4,0.4-0.7,1.1-0.7,2v4.6h-1.7V127h2L531.2,126.8L531.2,126.8z"/>
	<path class="st7" d="M544.2,129.2v6.3h-1.7v-4.8c0-0.9-0.2-1.7-0.4-2c-0.2-0.4-0.7-0.7-1.3-0.7c-0.4,0-0.7,0-1.1,0.2
		c-0.2,0.2-0.7,0.4-1.1,0.9v6.3h-1.7v-8.7h1.7v1.1c0.9-0.9,1.7-1.3,2.6-1.3c1.1,0,2,0.4,2.6,1.5c0.9-1.1,2-1.5,2.8-1.5
		s1.5,0.2,2.2,0.9c0.7,0.7,0.9,1.5,0.9,2.8v5.2h-1.7v-5.2c0-0.7-0.2-1.3-0.4-1.7c-0.2-0.4-0.7-0.7-1.3-0.7
		C545.5,128.1,544.9,128.5,544.2,129.2z"/>
	<path class="st7" d="M557.5,130.3v3.7c0,0.2,0,0.4,0.2,0.4s0.4-0.2,1.1-0.4v1.1c-0.4,0.2-0.7,0.4-0.9,0.4c-0.2,0-0.4,0.2-0.7,0.2
		c-0.7,0-1.1-0.2-1.3-0.9c-0.7,0.7-1.5,0.9-2.4,0.9c-0.7,0-1.1-0.2-1.5-0.7s-0.7-0.9-0.7-1.5s0.2-1.1,0.7-1.5
		c0.4-0.4,0.9-0.9,1.7-1.1l2.2-0.9v-0.4c0-1.1-0.4-1.5-1.5-1.5c-0.9,0-2,0.4-2.8,1.5v-2c0.7-0.9,1.7-1.1,2.8-1.1
		c0.9,0,1.7,0.2,2.4,0.7c0.2,0.2,0.4,0.4,0.4,0.7c0.2,0.2,0.2,0.4,0.2,0.9C557.5,129,557.5,129.6,557.5,130.3z M556,133.7v-2.6
		l-1.1,0.4c-0.7,0.2-1.1,0.4-1.3,0.7c-0.2,0.2-0.4,0.4-0.4,0.9c0,0.4,0.2,0.7,0.4,0.9c0.2,0.2,0.4,0.4,0.9,0.4
		C554.9,134.6,555.3,134.4,556,133.7z"/>
	<path class="st7" d="M562.1,126.8v1.1c0.9-0.9,1.7-1.3,2.6-1.3c0.7,0,1.1,0.2,1.5,0.4c0.4,0.2,0.9,0.7,1.1,1.1
		c0.2,0.4,0.4,1.3,0.4,2.4v5H566v-5c0-0.9-0.2-1.5-0.4-2c-0.2-0.4-0.7-0.7-1.3-0.7c-0.9,0-1.5,0.4-2.2,1.3v6.3h-1.7v-8.7H562.1z"/>
	<path class="st7" d="M576.8,133.5v1.7c-0.9,0.4-1.7,0.4-2.6,0.4c-1.3,0-2.4-0.4-3.3-1.3c-0.9-0.9-1.3-2-1.3-3.3
		c0-1.3,0.4-2.4,1.1-3.3c0.7-0.9,1.7-1.3,3-1.3c0.4,0,0.9,0,1.3,0.2c0.4,0,0.9,0.2,1.3,0.4v2c-0.9-0.7-1.7-0.9-2.4-0.9
		c-0.9,0-1.5,0.2-2,0.9c-0.4,0.7-0.7,1.3-0.7,2.2c0,0.9,0.2,1.5,0.9,2.2c0.7,0.4,1.3,0.9,2.2,0.9C575.1,134.2,576,134,576.8,133.5z"
		/>
	<path class="st7" d="M586.2,131.3h-6.1c0,0.9,0.2,1.5,0.9,2c0.7,0.4,1.1,0.7,2,0.7c1.1,0,2.2-0.4,3.3-1.1v1.7
		c-0.4,0.4-1.1,0.7-1.5,0.9c-0.4,0.2-1.1,0.2-2,0.2c-0.9,0-1.7-0.2-2.4-0.7c-0.7-0.4-1.1-0.9-1.5-1.5s-0.4-1.5-0.4-2.4
		c0-1.3,0.4-2.4,1.1-3.3c0.7-0.9,1.7-1.3,3-1.3c1.1,0,2.2,0.4,2.8,1.3C586,128.7,586.4,129.8,586.2,131.3L586.2,131.3L586.2,131.3z
		 M580.1,130.3h4.3c0-0.7-0.2-1.3-0.7-1.5c-0.4-0.2-0.9-0.7-1.5-0.7c-0.7,0-1.1,0.2-1.5,0.7C580.5,129.2,580.3,129.6,580.1,130.3z"
		/>
	<path class="st5" d="M203.5,145.7h7.6v1.7h-5.7v4.1h5.4v1.7h-5.4v4.1h5.9v1.5h-7.8V145.7z"/>
	<path class="st7" d="M214.8,150.2v1.1c0.9-0.9,1.7-1.3,2.6-1.3c0.7,0,1.1,0.2,1.5,0.4c0.4,0.2,0.9,0.7,1.1,1.1
		c0.2,0.4,0.4,1.3,0.4,2.4v5h-1.7v-5c0-0.9-0.2-1.5-0.4-2s-0.7-0.7-1.3-0.7c-0.9,0-1.5,0.4-2.2,1.3v6.3h-1.7v-8.7H214.8z"/>
	<path class="st7" d="M230.5,154.8h-6.1c0,0.9,0.2,1.5,0.9,2c0.7,0.4,1.1,0.7,2,0.7c1.1,0,2.2-0.4,3.3-1.1v1.7
		c-0.4,0.4-1.1,0.7-1.5,0.9c-0.4,0.2-1.1,0.2-2,0.2c-0.9,0-1.7-0.2-2.4-0.7c-0.7-0.4-1.1-0.9-1.5-1.5c-0.4-0.7-0.4-1.5-0.4-2.4
		c0-1.3,0.4-2.4,1.1-3.3s1.7-1.3,3-1.3c1.1,0,2.2,0.4,2.8,1.3c0.7,0.9,1.1,2,1.1,3.3v0.2L230.5,154.8z M224.1,153.7h4.3
		c0-0.7-0.2-1.3-0.7-1.5c-0.4-0.2-0.9-0.7-1.5-0.7c-0.7,0-1.1,0.2-1.5,0.7C224.6,152.4,224.4,153.1,224.1,153.7z"/>
	<path class="st7" d="M234.2,150.2v2V152c0.9-1.3,1.7-2,2.6-2c0.7,0,1.3,0.4,2,1.1l-0.9,1.5c-0.7-0.7-1.1-0.9-1.7-0.9
		s-1.1,0.2-1.5,0.9c-0.4,0.4-0.7,1.1-0.7,2v4.3h-1.7v-8.7H234.2z"/>
	<path class="st7" d="M239.6,153.3c0-0.9,0.4-1.7,1.1-2.2c0.7-0.7,1.5-0.9,2.8-0.9h3.7v1.3h-2c0.4,0.4,0.7,0.7,0.7,0.9
		c0,0.2,0.2,0.7,0.2,1.1c0,0.4-0.2,0.9-0.4,1.3c-0.2,0.4-0.7,0.9-1.1,1.1c-0.4,0.2-1.1,0.4-2,0.7c-0.7,0-1.1,0.2-1.1,0.7
		c0,0.2,0.2,0.4,0.4,0.4c0.2,0.2,0.7,0.2,1.3,0.4c1.1,0.2,1.7,0.4,2.2,0.7c0.4,0.2,0.7,0.2,0.9,0.7c0.4,0.4,0.7,0.9,0.7,1.5
		c0,0.9-0.4,1.5-1.1,2c-0.7,0.4-1.7,0.7-3,0.7s-2.2-0.2-3-0.7c-0.7-0.4-1.1-1.1-1.1-2c0-1.1,0.7-2,2.2-2.4c-0.7-0.4-0.9-0.7-0.9-1.1
		c0-0.2,0.2-0.4,0.4-0.9c0.2-0.4,0.7-0.4,1.1-0.4C240.2,155.4,239.6,154.6,239.6,153.3z M242.4,159.4c-0.7,0-1.1,0.2-1.5,0.4
		c-0.4,0.2-0.7,0.7-0.7,0.9c0,0.9,0.9,1.3,2.4,1.3c0.9,0,1.3-0.2,1.7-0.4c0.4-0.2,0.7-0.7,0.7-0.9c0-0.4-0.2-0.7-0.9-1.1
		C243.9,159.6,243.3,159.4,242.4,159.4z M242.8,151.8c-0.4,0-0.9,0.2-1.3,0.4c-0.4,0.2-0.4,0.7-0.4,1.1s0.2,0.9,0.4,1.1
		c0.2,0.2,0.7,0.4,1.3,0.4c0.4,0,0.9-0.2,1.3-0.4c0.4-0.2,0.4-0.7,0.4-1.1s-0.2-0.9-0.4-1.1C243.9,152,243.3,151.8,242.8,151.8z"/>
	<path class="st7" d="M254.2,150.2h2l-6.3,13.2h-2l3-6.3l-3.5-6.9h2l2.4,5L254.2,150.2z"/>
	<path class="st7" d="M256.8,153.7h4.8v2h-4.8V153.7z"/>
	<path class="st7" d="M271.1,154.8H265c0,0.9,0.2,1.5,0.9,2s1.1,0.7,2,0.7c1.1,0,2.2-0.4,3.3-1.1v1.7c-0.4,0.4-1.1,0.7-1.5,0.9
		c-0.4,0.2-1.1,0.2-2,0.2c-0.9,0-1.7-0.2-2.4-0.7c-0.7-0.4-1.1-0.9-1.5-1.5c-0.4-0.7-0.4-1.5-0.4-2.4c0-1.3,0.4-2.4,1.1-3.3
		s1.7-1.3,3-1.3c1.1,0,2.2,0.4,2.8,1.3s1.1,2,1.1,3.3v0.2L271.1,154.8z M265,153.7h4.3c0-0.7-0.2-1.3-0.7-1.5
		c-0.4-0.2-0.9-0.7-1.5-0.7c-0.7,0-1.1,0.2-1.5,0.7C265.5,152.4,265,153.1,265,153.7z"/>
	<path class="st7" d="M273.3,150.2v-0.4c0-1.5,0.2-2.4,0.9-3.3c0.7-0.7,1.3-1.1,2.2-1.1c0.4,0,0.9,0,1.3,0.2v1.7
		c-0.2,0-0.7-0.2-0.9-0.2c-0.7,0-1.1,0.2-1.5,0.7c-0.2,0.4-0.4,1.1-0.4,2v0.4h1.5v1.5h-1.5v7.2h-1.7v-7.2h-1.3v-1.5H273.3z"/>
	<path class="st7" d="M278.1,150.2v-0.4c0-1.5,0.2-2.4,0.9-3.3c0.7-0.7,1.3-1.1,2.2-1.1c0.4,0,0.9,0,1.3,0.2v1.7
		c-0.2,0-0.7-0.2-0.9-0.2c-0.7,0-1.1,0.2-1.5,0.7c-0.2,0.4-0.4,1.1-0.4,2v0.4h1.5v1.5h-1.5v7.2h-1.7v-7.2h-1.3v-1.5H278.1z"/>
	<path class="st7" d="M283.7,146.5c0.2,0,0.4,0,0.7,0.2c0.2,0.2,0.2,0.4,0.2,0.7c0,0.2,0,0.4-0.2,0.7c-0.2,0.2-0.4,0.2-0.7,0.2
		c-0.2,0-0.4,0-0.7-0.2c-0.2-0.2-0.2-0.4-0.2-0.7c0-0.2,0-0.4,0.2-0.7C283.3,146.5,283.5,146.5,283.7,146.5z M282.9,150.2h1.7v8.7
		h-1.7V150.2z"/>
	<path class="st7" d="M293.7,157v1.7c-0.9,0.4-1.7,0.4-2.6,0.4c-1.3,0-2.4-0.4-3.3-1.3c-0.9-0.9-1.3-1.7-1.3-3.3
		c0-1.3,0.4-2.4,1.1-3.3c0.7-0.9,1.7-1.3,3-1.3c0.4,0,0.9,0,1.3,0.2c0.4,0,0.9,0.2,1.3,0.4v2c-0.9-0.7-1.7-0.9-2.4-0.9
		c-0.9,0-1.5,0.2-2,0.9c-0.4,0.7-0.7,1.3-0.7,2.2s0.2,1.5,0.9,2.2c0.7,0.4,1.3,0.9,2.2,0.9C292,157.6,292.9,157.4,293.7,157z"/>
	<path class="st7" d="M296.6,146.5c0.2,0,0.4,0,0.7,0.2c0.2,0.2,0.2,0.4,0.2,0.7c0,0.2,0,0.4-0.2,0.7c-0.2,0.2-0.4,0.2-0.7,0.2
		s-0.4,0-0.7-0.2c-0.2-0.2-0.2-0.4-0.2-0.7c0-0.2,0-0.4,0.2-0.7C296.1,146.5,296.3,146.5,296.6,146.5z M295.7,150.2h1.7v8.7h-1.7
		V150.2z"/>
	<path class="st7" d="M307.4,154.8h-6.1c0,0.9,0.2,1.5,0.9,2s1.1,0.7,2,0.7c1.1,0,2.2-0.4,3.3-1.1v1.7c-0.4,0.4-1.1,0.7-1.5,0.9
		c-0.4,0.2-1.1,0.2-2,0.2c-0.9,0-1.7-0.2-2.4-0.7c-0.7-0.4-1.1-0.9-1.5-1.5c-0.4-0.7-0.4-1.5-0.4-2.4c0-1.3,0.4-2.4,1.1-3.3
		s1.7-1.3,3-1.3c1.1,0,2.2,0.4,2.8,1.3S307.6,153.3,307.4,154.8L307.4,154.8L307.4,154.8z M301.3,153.7h4.3c0-0.7-0.2-1.3-0.7-1.5
		c-0.4-0.2-0.9-0.7-1.5-0.7s-1.1,0.2-1.5,0.7C301.8,152.4,301.3,153.1,301.3,153.7z"/>
	<path class="st7" d="M311.1,150.2v1.1c0.9-0.9,1.7-1.3,2.6-1.3c0.7,0,1.1,0.2,1.5,0.4c0.4,0.2,0.9,0.7,1.1,1.1
		c0.2,0.4,0.4,1.3,0.4,2.4v5H315v-5c0-0.9-0.2-1.5-0.4-2c-0.2-0.4-0.7-0.7-1.3-0.7c-0.9,0-1.5,0.4-2.2,1.3v6.3h-1.7v-8.7H311.1z"/>
	<path class="st7" d="M317.9,151.5l3.3-3.3v2h2.8v1.5h-2.8v4.3c0,1.1,0.4,1.5,1.3,1.5c0.7,0,1.3-0.2,2-0.7v1.5
		c-0.7,0.4-1.3,0.7-2.2,0.7s-1.5-0.2-2-0.7c-0.2-0.2-0.2-0.2-0.4-0.4c0-0.2-0.2-0.4-0.2-0.7c0-0.2-0.2-0.9-0.2-1.5V152L317.9,151.5
		L317.9,151.5z"/>
	<path class="st6" d="M342,145.7h1.7v13.2h-2v-10.4l-4.1,5.2h-0.4l-4.1-5.2v10.4h-2v-13.2h1.7l4.3,5.4L342,145.7z"/>
	<path class="st7" d="M351.8,153.7v3.7c0,0.2,0,0.4,0.2,0.4s0.4-0.2,1.1-0.4v1.1c-0.4,0.2-0.7,0.4-0.9,0.4c-0.2,0-0.4,0.2-0.7,0.2
		c-0.7,0-1.1-0.2-1.3-0.9c-0.7,0.7-1.5,0.9-2.4,0.9c-0.7,0-1.1-0.2-1.5-0.7c-0.4-0.4-0.7-0.9-0.7-1.5s0.2-1.1,0.7-1.5
		c0.4-0.4,0.9-0.9,1.7-1.1l2.2-0.9v-0.4c0-1.1-0.4-1.5-1.5-1.5c-0.9,0-2,0.4-2.8,1.5v-2c0.7-0.9,1.7-1.1,2.8-1.1
		c0.9,0,1.7,0.2,2.4,0.7c0.2,0.2,0.4,0.4,0.4,0.7c0.2,0.2,0.2,0.4,0.2,0.9C351.8,152.4,351.8,153.1,351.8,153.7z M350.1,157.2v-2.6
		L349,155c-0.7,0.2-1.1,0.4-1.3,0.7c-0.2,0.2-0.4,0.4-0.4,0.9c0,0.4,0.2,0.7,0.4,0.9c0.2,0.2,0.4,0.4,0.9,0.4
		C349.2,158.1,349.6,157.8,350.1,157.2z"/>
	<path class="st7" d="M361.4,157v1.7c-0.9,0.4-1.7,0.4-2.6,0.4c-1.3,0-2.4-0.4-3.3-1.3c-0.9-0.9-1.3-2-1.3-3.3
		c0-1.3,0.4-2.4,1.1-3.3s1.7-1.3,3-1.3c0.4,0,0.9,0,1.3,0.2c0.4,0,0.9,0.2,1.3,0.4v2c-0.9-0.7-1.7-0.9-2.4-0.9c-0.9,0-1.5,0.2-2,0.9
		c-0.4,0.7-0.7,1.3-0.7,2.2s0.2,1.5,0.9,2.2c0.7,0.4,1.3,0.9,2.2,0.9C359.6,157.6,360.5,157.4,361.4,157z"/>
	<path class="st7" d="M363.3,145.7h1.7v5.6c0.7-0.9,1.5-1.3,2.6-1.3c0.7,0,1.1,0.2,1.5,0.4c0.4,0.2,0.9,0.7,1.1,1.3
		c0.2,0.4,0.4,1.3,0.4,2.4v4.8H369v-5.4c0-0.7-0.2-1.1-0.4-1.5c-0.2-0.4-0.7-0.7-1.3-0.7c-0.4,0-0.7,0-1.1,0.2
		c-0.4,0.2-0.7,0.4-1.1,1.1v6.3h-1.7L363.3,145.7L363.3,145.7z"/>
	<path class="st7" d="M374,146.5c0.2,0,0.4,0,0.7,0.2c0.2,0.2,0.2,0.4,0.2,0.7c0,0.2,0,0.4-0.2,0.7c-0.2,0.2-0.4,0.2-0.7,0.2
		s-0.4,0-0.7-0.2c-0.2-0.2-0.2-0.4-0.2-0.7c0-0.2,0-0.4,0.2-0.7C373.5,146.5,373.8,146.5,374,146.5z M373.1,150.2h1.7v8.7h-1.7
		V150.2z"/>
	<path class="st7" d="M379.2,150.2v1.1c0.9-0.9,1.7-1.3,2.6-1.3c0.7,0,1.1,0.2,1.5,0.4c0.4,0.2,0.9,0.7,1.1,1.1
		c0.2,0.4,0.4,1.3,0.4,2.4v5h-1.7v-5c0-0.9-0.2-1.5-0.4-2c-0.2-0.4-0.7-0.7-1.3-0.7c-0.9,0-1.5,0.4-2.2,1.3v6.3h-1.7v-8.7H379.2z"/>
	<path class="st7" d="M394.6,154.8h-6.1c0,0.9,0.2,1.5,0.9,2s1.1,0.7,2,0.7c1.1,0,2.2-0.4,3.3-1.1v1.7c-0.4,0.4-1.1,0.7-1.5,0.9
		c-0.4,0.2-1.1,0.2-2,0.2s-1.7-0.2-2.4-0.7c-0.7-0.4-1.1-0.9-1.5-1.5c-0.4-0.7-0.4-1.5-0.4-2.4c0-1.3,0.4-2.4,1.1-3.3
		c0.7-0.9,1.7-1.3,3-1.3c1.1,0,2.2,0.4,2.8,1.3S394.8,153.3,394.6,154.8L394.6,154.8L394.6,154.8z M388.5,153.7h4.3
		c0-0.7-0.2-1.3-0.7-1.5c-0.4-0.2-0.9-0.7-1.5-0.7c-0.7,0-1.1,0.2-1.5,0.7C388.8,152.4,388.5,153.1,388.5,153.7z"/>
	<path class="st7" d="M396.1,158.5v-2c0.4,0.4,1.1,0.7,1.5,0.9c0.4,0.2,0.9,0.2,1.3,0.2c0.4,0,0.7,0,0.9-0.2
		c0.2-0.2,0.4-0.4,0.4-0.7c0-0.2,0-0.4-0.2-0.7c-0.2-0.2-0.4-0.4-1.1-0.7c-1.1-0.7-2-1.1-2.2-1.5c-0.4-0.4-0.4-0.9-0.4-1.5
		c0-0.7,0.2-1.3,0.9-1.7c0.4-0.4,1.3-0.7,2-0.7c0.9,0,1.7,0.2,2.6,0.7v1.7c-1.1-0.7-2-0.9-2.6-0.9c-0.4,0-0.7,0-0.9,0.2
		c-0.2,0.2-0.2,0.4-0.2,0.7c0,0.2,0,0.4,0.2,0.7c0.2,0.2,0.4,0.4,1.1,0.7l0.7,0.4c1.5,0.9,2.2,1.7,2.2,2.8c0,0.7-0.2,1.3-0.9,1.7
		c-0.7,0.4-1.3,0.7-2.2,0.7c-0.4,0-1.1,0-1.3-0.2C397.2,158.9,396.6,158.7,396.1,158.5z"/>
</g>
<ellipse class="st8" cx="99.8" cy="93.8" rx="87.8" ry="87.7"/>
<g>
	<path class="st0" d="M66.5,34.8c33.3-18,74.8-5.7,92.9,27.5S165,137,131.7,155s-74.8,5.7-92.9-27.5S33.2,52.8,66.5,34.8z"/>
	<path class="st3" d="M78.5,24.8l1.1,2.8c-1.3,1.5-2.8,2.8-4.8,3.5c-2.4,0.9-4.6,1.1-6.5,0.4c-2-0.7-3.3-2.2-4.1-3.9
		c-0.9-2-0.7-3.9,0.2-5.9c0.9-2,2.6-3.5,5-4.3c2-0.9,3.7-1.1,5.2-0.9l1.3,3c-2-0.2-3.7,0-5.2,0.4c-1.5,0.7-2.4,1.5-3,2.6
		c-0.7,1.1-0.7,2.4-0.2,3.5c0.4,1.1,1.3,2,2.6,2.4c1.3,0.4,2.6,0.4,3.9-0.2c0.7-0.2,1.3-0.7,2-1.1C76.5,26.7,77.4,25.8,78.5,24.8z"
		/>
	<path class="st3" d="M83,18.5l0.7,2.8l0,0c0.4-2.2,1.3-3.3,2.4-3.5c0.7-0.2,1.3,0,2.2,0.4L88,21.1c-0.9-0.2-1.5-0.4-2-0.4
		c-0.7,0.2-1.1,0.7-1.5,1.7c-0.4,1.1-0.4,1.5-0.4,1.7l0.9,4.1l-2.8,0.2L80,19.1L83,18.5z"/>
	<path class="st3" d="M99.6,23.2l0.2,2c-1.1,0.9-2.6,1.5-4.3,1.5c-1.7,0-3-0.2-4.1-1.1c-1.1-0.9-1.7-2-1.7-3.5
		c0-1.5,0.2-2.8,1.3-3.7c0.9-1.1,2.2-1.5,3.7-1.7c1.5,0,2.8,0.4,3.7,1.3c1.1,0.9,1.5,2.2,1.5,3.9l-7,0.4c0.2,0.9,0.4,1.5,1.1,2
		s1.3,0.7,2.4,0.7C97.4,24.8,98.5,24.3,99.6,23.2z M92.8,20.6l4.1-0.2c-0.2-1.3-1.1-2.2-2.2-2C93.5,18.5,92.8,19.3,92.8,20.6z"/>
	<path class="st3" d="M111.5,25v1.5c-1.1,0.4-2,0.7-3,0.7c-0.9,0-1.5-0.4-1.5-1.3c-1.1,0.7-2.2,0.9-3.3,0.9c-0.7,0-1.3-0.4-2-0.9
		c-0.4-0.4-0.7-1.1-0.7-1.7c0-0.9,0.4-1.5,1.1-2c0.7-0.4,2.4-0.9,5.2-1.5c0.2-1.1-0.4-1.7-1.5-1.7c-1.3-0.2-2.6,0.2-3.7,1.3l0.2-2.4
		c1.3-0.7,2.8-0.9,4.3-0.9c2.8,0.2,3.9,1.3,3.9,3.3l-0.4,4.3c0,0.4,0,0.7,0.4,0.7C110.6,25.4,111.1,25.2,111.5,25z M106.9,24.5
		l0.2-2.4c-1.1,0.2-1.7,0.4-2.2,0.9c-0.4,0.2-0.7,0.7-0.7,1.1c0,0.2,0,0.4,0.2,0.7c0.2,0.2,0.4,0.4,0.7,0.4
		C105.6,25.2,106.3,25,106.9,24.5z"/>
	<path class="st3" d="M121.3,19.8l-0.4,2l-3.5-0.9l-0.9,3.9c-0.2,0.4,0,0.9,0.2,1.3c0.2,0.4,0.4,0.7,0.9,0.7c0.7,0.2,1.3,0.2,2.2,0
		l-0.4,2.2c-1.1,0.2-2,0.2-2.8,0c-1.1-0.2-2-0.9-2.4-1.5s-0.7-1.7-0.4-2.8l0.9-4.1L113,20l0.2-0.7l5-3.5h0.4l-0.7,3L121.3,19.8z"/>
	<path class="st3" d="M126.3,21.5l-3.3,9.1l-2.8-1.1l3.3-9.1L126.3,21.5z M124.1,17.4c0.2-0.4,0.4-0.9,0.9-0.9
		c0.4-0.2,0.9-0.2,1.3,0c0.4,0.2,0.9,0.4,0.9,0.9c0.2,0.4,0.2,0.9,0,1.3c-0.2,0.4-0.4,0.7-0.9,0.9c-0.4,0.2-0.9,0.2-1.3,0
		c-0.4-0.2-0.7-0.4-0.9-0.9C124.1,18.2,124.1,17.8,124.1,17.4z"/>
	<path class="st3" d="M128,33l0.2-10.9l3,1.5l-0.4,5.6l4.1-3.9l2.8,1.3l-8.3,6.9L128,33z"/>
	<path class="st3" d="M143.7,38.7l-1.1,1.5c-1.5,0-2.8-0.4-4.3-1.3c-1.5-0.9-2.4-2.2-2.6-3.5c-0.4-1.3,0-2.6,0.9-3.9
		c0.9-1.3,2-2,3.3-2.2c1.3-0.2,2.6,0,3.9,0.9c1.3,0.9,2,2,2.2,3.3c0.2,1.3-0.2,2.8-1.1,4.1l-6.1-3.9c-0.4,0.9-0.7,1.5-0.4,2.2
		c0.2,0.7,0.7,1.3,1.5,2C140.9,38.4,142,38.7,143.7,38.7z M139.6,32.4l3.5,2.4c0.7-1.3,0.4-2.2-0.7-3
		C141.5,31.1,140.6,31.3,139.6,32.4z"/>
	<path class="st4" d="M171.5,53.6l-12,8.2l-2-3l4.8-3.3l-4.1-6.1l-4.8,3.3l-2-3l12-8.2l2,3l-4.8,3.3l4.1,5.9l4.8-3.3L171.5,53.6z"/>
	<path class="st4" d="M170.7,62.8l-8.7,4.1l-1.5-2.8l8.7-4.1L170.7,62.8z M172.2,58.4c0.4-0.2,0.9-0.2,1.3,0
		c0.4,0.2,0.9,0.4,0.9,0.9c0.2,0.4,0.2,0.9,0,1.3c-0.2,0.4-0.4,0.7-0.9,0.9c-0.4,0.2-0.9,0.2-1.3,0c-0.4-0.2-0.9-0.4-0.9-0.9
		c-0.2-0.4-0.2-0.9,0-1.3C171.3,58.8,171.7,58.6,172.2,58.4z"/>
	<path class="st4" d="M175.2,75.1l-2,0.7l-0.4-1.3c-0.4,0.4-0.9,0.9-1.3,1.1c-0.7,0.2-1.5,0.2-2.2-0.2c-0.9-0.4-1.5-1.1-2-2
		c-0.4-1.1-0.9-1.5-0.9-1.7c-0.2,0-0.2-0.2-0.4,0c-0.2,0-0.2,0.2-0.2,0.4c0,0.2,0,0.9,0.4,2.2c0.2,1.3,0.2,2.2,0,3
		c-0.4,0.7-0.9,1.1-1.5,1.3c-1.1,0.4-2,0.2-2.8-0.4c-0.9-0.7-1.5-1.7-2-3.3c-0.7-1.5-0.7-2.8-0.4-3.9c0.2-1.1,0.7-1.7,1.5-2
		c1.1-0.4,2.2,0.2,3.3,1.7c0-0.9,0.2-1.3,0.9-1.5c0.7-0.2,1.3,0.2,2,1.3c-0.2-0.9,0-1.5,0.4-2.2c0.4-0.7,0.9-1.1,1.5-1.3
		c0.9-0.2,1.7-0.2,2.6,0.2c0.9,0.4,1.5,1.3,2,2.8L175.2,75.1z M161.3,74.3c0.2,0.7,0.4,1.1,0.9,1.3s0.7,0.4,1.1,0.2
		c0.7-0.2,0.9-1.1,0.2-2.6c-0.2-0.7-0.4-1.1-0.9-1.5c-0.4-0.2-0.7-0.4-1.1-0.2C160.9,71.7,160.9,72.7,161.3,74.3z M171.7,70.6
		c-0.2-0.4-0.4-0.9-0.9-1.1c-0.4-0.2-0.9-0.2-1.3,0s-0.9,0.4-1.1,0.9c-0.2,0.4-0.2,0.9,0,1.3c0.2,0.4,0.4,0.9,0.9,1.1
		c0.4,0.2,0.9,0.2,1.3,0s0.7-0.4,0.9-0.9C172,71.4,172,71,171.7,70.6z"/>
	<path class="st4" d="M180.9,79.9l-6.1,0.9l0,0c1.3,0.7,2,1.5,2.2,2.8c0.2,1.1,0,2-0.7,2.6c-0.7,0.9-1.3,1.3-2.6,1.5l-6.1,1.1
		l-0.4-3l5.4-0.9c1.3-0.2,2-0.9,2-2c-0.2-0.7-0.7-1.3-1.7-1.7l-6.1,1.1l-0.4-3l14.4-2.4L180.9,79.9z"/>
	<path class="st4" d="M174.1,95.7h-2.8v-5.4h2.8V95.7z"/>
	<path class="st4" d="M177.4,101.6h-0.9c0.7,0.9,0.9,2,0.7,2.8c-0.2,1.3-0.7,2.2-1.7,3c-1.1,0.9-2.2,1.1-3.7,0.9s-2.8-0.7-3.7-1.7
		c-0.9-0.9-1.1-2.2-1.1-3.7c0-0.9,0.4-1.7,0.9-2.4l-5.2-0.7l0.4-3l14.6,1.5L177.4,101.6z M174.6,101.2l-4.6-0.4
		c-0.4,0.4-0.9,1.1-0.9,1.7c0,0.7,0.2,1.3,0.7,2c0.4,0.4,1.1,0.9,2.2,0.9c0.9,0,1.7,0,2.2-0.4c0.4-0.4,0.9-0.9,0.9-1.5
		C175.2,102.7,175,102,174.6,101.2z"/>
	<path class="st4" d="M166.7,119.2l-2-0.4c-0.4-1.3-0.4-2.8,0-4.6c0.4-1.7,1.3-2.8,2.4-3.5c1.1-0.7,2.4-0.9,3.9-0.4
		c1.5,0.4,2.4,1.3,3,2.4c0.7,1.1,0.9,2.6,0.4,3.9c-0.4,1.5-1.3,2.4-2.4,3c-1.3,0.7-2.6,0.7-4.3,0.2l2-6.7c-0.9-0.2-1.5,0-2.2,0.4
		c-0.7,0.4-1.1,1.1-1.3,2C166.1,116.4,166.3,117.7,166.7,119.2z M171.5,113.3l-1.1,4.1c1.3,0.2,2.4-0.2,2.6-1.5
		C173.3,114.9,172.8,114,171.5,113.3z"/>
	<path class="st4" d="M170.9,126.8l-2.6-1.1l0,0c1.5,1.5,2,3,1.5,4.1c-0.2,0.4-0.9,1.1-1.7,1.5l-2.2-2c0.7-0.4,1.3-0.9,1.3-1.3
		c0.2-0.7,0.2-1.3-0.4-2.2c-0.7-0.9-0.9-1.3-1.1-1.3l-3.9-1.7l1.3-2.8l8.9,3.9L170.9,126.8z"/>
	<path class="st4" d="M165.9,136.1l-0.7,1.1l-1.7-1.1l0.7-1.3l-6.5-3.9l1.5-2.6l6.5,3.9l0.7-1.3l1.7,1.1l-0.7,1.3l0.4,0.2
		c1.1,0.7,2,1.5,2.2,2.6c0.2,1.1,0,2.2-0.7,3.3c-0.2,0.2-0.4,0.9-1.1,1.5l-2.2-1.3c0.4-0.4,0.7-0.9,0.9-1.1c0.7-0.9,0.4-1.7-0.7-2.4
		H165.9z"/>
	<path class="st4" d="M161.1,143.1c-0.9,1.3-2.2,2-3.5,2.2c-1.3,0.2-2.6,0-3.9-1.1c-1.3-1.1-2-2.2-2-3.5c0-1.3,0.4-2.6,1.3-3.9
		c1.1-1.3,2.2-2,3.5-2.2c1.3-0.2,2.6,0.2,3.9,1.1c1.3,0.9,2,2.2,2,3.5C162.6,140.5,162.2,141.8,161.1,143.1z M154.6,138.1
		c-0.9,1.1-0.4,2.4,1.3,3.7c1.7,1.3,3,1.3,3.9,0.2c0.4-0.7,0.7-1.1,0.4-1.7c-0.2-0.7-0.7-1.3-1.5-2
		C156.7,137,155.4,136.8,154.6,138.1z"/>
	<path class="st4" d="M153.3,151.5l-2-2l0,0c0.7,2,0.7,3.5-0.2,4.3c-0.4,0.4-1.1,0.7-2.2,0.7l-1.3-2.6c0.9-0.2,1.5-0.4,1.7-0.7
		c0.4-0.4,0.7-1.3,0.4-2.2c-0.2-0.9-0.4-1.5-0.4-1.5l-2.8-3l2.2-2.2l6.7,7.2L153.3,151.5z"/>
	<path class="st4" d="M145,158.7l-0.7-1.1c-0.4,1.3-1.1,2.4-2.2,3c-1.5,0.9-2.8,0.9-4.1,0c-0.2,1.7-1.1,3-2.2,3.7
		c-0.9,0.7-2,0.9-2.8,0.7c-0.9-0.2-1.7-0.9-2.4-1.7l-3.3-5.4l2.6-1.5l3,4.8c0.4,0.7,0.9,0.9,1.3,1.1c0.4,0.2,0.9,0,1.5-0.2
		c0.9-0.4,1.1-1.3,1.3-2.6l-3.3-5.4l2.6-1.5l3,5c0.4,0.7,0.9,0.9,1.3,1.1c0.4,0.2,0.9,0,1.5-0.2c0.7-0.4,1.1-1.3,1.3-2.4l-3.7-5.6
		l2.6-1.5l5,8.2L145,158.7z"/>
	<path class="st4" d="M116.9,163.7l-0.7-1.5c0.9-0.9,1.5-1.5,2.4-1.7c0.9-0.2,1.5-0.2,2,0.4c0.9-1.1,1.7-1.7,2.6-2.2
		c0.7-0.2,1.3-0.2,2,0c0.7,0.2,1.1,0.7,1.3,1.3c0.2,0.9,0.2,1.5-0.2,2.2c-0.4,0.7-1.7,1.7-4.1,3.5c0.2,1.1,1.1,1.3,2.2,1.1
		c1.3-0.4,2.2-1.3,2.8-2.6l0.9,2.4c-0.9,1.1-2.2,2-3.7,2.4c-2.6,0.9-4.1,0.4-4.8-1.5l-1.1-4.1c-0.2-0.4-0.4-0.7-0.7-0.4
		C117.6,162.8,117.4,163.3,116.9,163.7z M121.3,162.2l0.9,2.2c0.9-0.7,1.5-1.3,1.7-1.5c0.2-0.4,0.4-0.9,0.2-1.3
		c0-0.2-0.2-0.4-0.4-0.7c-0.2-0.2-0.4-0.2-0.9,0C122.2,161.1,121.7,161.5,121.3,162.2z"/>
	<path class="st4" d="M114.1,171.7l-0.2-1.3c-0.7,1.3-1.7,2-2.8,2.2c-1.1,0.2-2,0-2.6-0.4c-0.9-0.4-1.3-1.3-1.5-2.6l-1.1-6.3l3-0.4
		l1.1,5.9c0.2,1.3,0.9,1.7,1.7,1.7c0.7-0.2,1.3-0.9,1.7-2l-1.1-6.3l3-0.4l1.5,9.6L114.1,171.7z"/>
	<path class="st4" d="M95.2,166.1v-2.2c1.3-0.4,2.4-0.7,3.3-0.7c1.7,0,3,0.4,4.1,1.3s1.5,2.2,1.5,3.7c0,1.5-0.4,2.6-1.5,3.7
		c-1.1,0.9-2.4,1.5-3.9,1.5c-1.1,0-2.2-0.2-3.3-0.7v-2.2c0.9,0.4,1.7,0.7,2.6,0.7s1.7-0.2,2.2-0.9c0.7-0.4,0.9-1.3,0.9-2
		c0-0.9-0.2-1.5-0.9-2.2c-0.7-0.7-1.3-0.9-2.2-0.9C97.4,165.4,96.5,165.6,95.2,166.1z"/>
	<path class="st4" d="M83.9,164.8l0.2-2c1.3-0.7,2.8-0.9,4.6-0.7c1.7,0.2,3,0.9,3.9,2c0.9,1.1,1.3,2.4,1.1,3.9
		c-0.2,1.5-0.9,2.6-2,3.5s-2.4,1.1-3.9,0.9c-1.5-0.2-2.6-0.9-3.5-2s-1.1-2.6-0.7-4.1l7,1.1c0-0.9-0.2-1.5-0.7-2.2
		c-0.4-0.7-1.3-0.9-2.2-1.1C86.5,163.9,85.2,164.1,83.9,164.8z M90.2,168.7l-4.1-0.7c0,1.5,0.7,2.2,1.7,2.4
		C88.9,170.9,89.8,170.2,90.2,168.7z"/>
	<path class="st5" d="M66.3,158.1l1.1-2.4l9.8,4.1L71.5,173l-9.6-4.1l1.1-2.4l6.3,2.6l1.1-2.8l-6.1-2.6l1.1-2.4l6.1,2.6l1.3-3.3
		L66.3,158.1z"/>
	<path class="st5" d="M57.8,161.3l0.7-1.1c-1.3,0.4-2.6,0.2-3.5-0.4c-0.9-0.7-1.3-1.3-1.5-2.2c-0.2-0.9,0-2,0.7-2.8l3.5-5.2l2.6,1.7
		l-3.3,5c-0.7,1.1-0.7,2,0.2,2.4c0.7,0.4,1.5,0.4,2.6-0.2l3.5-5.2l2.6,1.7l-5.4,7.8L57.8,161.3z"/>
	<path class="st5" d="M46.9,143.9l1.3-1.5c1.5,0.2,2.8,0.9,4.1,2s2,2.4,2.2,3.9c0.2,1.3-0.4,2.6-1.3,3.7c-1.1,1.1-2.2,1.7-3.5,1.7
		c-1.3,0-2.6-0.4-3.7-1.5s-1.7-2.2-1.7-3.7s0.7-2.6,1.7-3.9l5.2,4.8c0.7-0.7,0.9-1.3,0.7-2.2c0-0.7-0.4-1.5-1.1-2.2
		C49.5,144.6,48.5,143.9,46.9,143.9z M49.8,150.7l-3-2.8c-0.9,1.1-0.9,2.2,0,3C47.8,151.5,48.7,151.5,49.8,150.7z"/>
	<path class="st5" d="M38.2,143.9l2.2-1.7l0,0c-2.2,0.7-3.5,0.4-4.3-0.7c-0.4-0.4-0.7-1.1-0.7-2.2l2.6-1.1c0,0.9,0.2,1.5,0.7,2
		c0.4,0.7,1.1,0.7,2.2,0.7c1.1-0.2,1.5-0.2,1.7-0.4l3.3-2.6l2,2.4l-7.6,6.1L38.2,143.9z"/>
	<path class="st5" d="M28.9,129.6l1.7-1.1l0.7,1.3c0.2-0.7,0.7-0.9,1.1-1.3c0.7-0.4,1.3-0.4,2.2-0.4c0.9,0.2,1.5,0.7,2.2,1.5
		s1.1,1.3,1.3,1.5c0.2,0,0.2,0,0.4,0c0.2,0,0.2-0.2,0.2-0.4s-0.2-0.9-0.9-2.2c-0.7-1.3-0.7-2.2-0.4-2.8c0.2-0.7,0.7-1.3,1.3-1.5
		c0.9-0.4,1.7-0.7,2.8,0c0.9,0.4,1.7,1.5,2.6,2.8c0.9,1.5,1.3,2.8,1.3,3.7c0,1.1-0.4,1.7-1.1,2.2c-1.1,0.7-2.2,0.2-3.5-1.1
		c0.2,0.9,0,1.3-0.4,1.7c-0.7,0.4-1.3,0-2.2-0.9c0.2,0.7,0.2,1.5,0,2.2c-0.2,0.7-0.7,1.3-1.3,1.7c-0.9,0.4-1.7,0.7-2.6,0.2
		c-0.9-0.4-2-1.1-2.6-2.2L28.9,129.6z M33.2,133.5c0.2,0.4,0.7,0.7,1.1,0.9c0.4,0.2,0.9,0,1.3-0.2c0.4-0.2,0.7-0.7,0.9-1.1
		c0.2-0.4,0-0.9-0.2-1.3c-0.2-0.4-0.7-0.7-1.1-0.9c-0.4-0.2-0.9,0-1.3,0.2c-0.4,0.2-0.7,0.7-0.9,1.1C32.8,132.7,33,133.1,33.2,133.5
		z M42.6,127.7c-0.4-0.7-0.7-0.9-1.1-1.1s-0.9-0.2-1.1,0c-0.7,0.4-0.4,1.3,0.2,2.6c0.4,0.7,0.7,1.1,1.1,1.3c0.4,0.2,0.7,0.2,1.1,0.2
		C43.7,130,43.5,129.2,42.6,127.7z"/>
	<path class="st5" d="M24.3,118.1l15.9,0.9l1.1,3l-7-0.4l-6.3,6.5l-1.1-3l3.9-3.7l-5.4-0.2L24.3,118.1z"/>
	<path class="st5" d="M26.1,110.3l2.8-0.7l1.3,5.4l-2.8,0.7L26.1,110.3z"/>
	<path class="st5" d="M27.6,98.1l2-0.2c1.1,1.1,1.5,2.4,1.7,4.1c0.2,1.7,0,3-0.9,4.3c-0.9,1.1-2,1.7-3.5,2c-1.5,0.2-2.8-0.2-3.9-1.1
		c-1.1-0.9-1.7-2-2-3.5c-0.2-1.5,0.2-2.8,1.1-3.9c0.9-1.1,2.2-1.7,3.9-1.7l0.9,6.9c0.9-0.2,1.5-0.7,2-1.1c0.4-0.7,0.7-1.3,0.4-2.4
		C29.3,100.5,28.7,99.4,27.6,98.1z M25.4,105.3l-0.4-4.1c-1.3,0.4-2,1.1-2,2.4C23.2,104.6,23.9,105.3,25.4,105.3z"/>
	<path class="st5" d="M21.1,92.5v-1.3h2.2v1.3h7.6v3h-7.6v1.3h-2.2v-1.3h-0.4c-1.3,0-2.4-0.4-3.3-1.1c-0.9-0.9-1.1-1.7-1.1-3
		c0-0.2,0-0.9,0.2-2h2.4c0,0.7-0.2,1.1-0.2,1.3c0,1.1,0.7,1.7,1.7,1.7L21.1,92.5z"/>
	<path class="st5" d="M21.5,85.5l0.2-1.3l2.2,0.2l-0.2,1.3l7.6,0.9l-0.2,3l-7.6-0.9l-0.2,1.3l-2.2-0.2l0.2-1.3h-0.4
		c-1.3-0.2-2.4-0.7-3-1.5c-0.9-0.9-1.1-2-1.1-3.3c0-0.2,0.2-0.9,0.4-1.7l2.4,0.2c-0.2,0.7-0.2,1.1-0.2,1.3c-0.2,1.1,0.4,1.7,1.5,2
		H21.5z"/>
	<path class="st5" d="M18.9,81.9c-0.4,0-0.9-0.2-1.1-0.7c-0.2-0.4-0.4-0.9-0.2-1.3c0-0.4,0.2-0.9,0.7-1.1c0.4-0.2,0.9-0.4,1.3-0.2
		c0.4,0,0.9,0.2,1.1,0.7c0.2,0.4,0.4,0.9,0.2,1.3c0,0.4-0.2,0.9-0.7,1.1C19.7,81.6,19.3,81.9,18.9,81.9z M22.6,79.3l9.6,1.7l-0.7,3
		l-9.6-1.7L22.6,79.3z"/>
	<path class="st5" d="M32.4,69.9l2.2,0.7c0,1.3,0,2.4-0.4,3.3c-0.4,1.7-1.3,2.8-2.6,3.5c-1.1,0.7-2.4,0.9-3.9,0.4
		c-1.5-0.4-2.4-1.3-3-2.6c-0.7-1.3-0.7-2.6-0.2-4.1c0.2-1.1,0.9-2,1.5-3l2.2,0.7c-0.7,0.7-1.1,1.5-1.3,2.2c-0.2,0.9-0.2,1.7,0,2.4
		c0.4,0.7,0.9,1.1,1.7,1.3s1.5,0.2,2.2-0.2c0.7-0.4,1.1-0.9,1.3-1.7C32.6,72.1,32.6,71,32.4,69.9z"/>
	<path class="st5" d="M23.9,64.1c-0.4-0.2-0.7-0.4-0.9-0.9s-0.2-0.9,0-1.3c0.2-0.4,0.4-0.7,0.9-0.9s0.9-0.2,1.3,0
		c0.4,0.2,0.7,0.4,0.9,0.9c0.2,0.4,0.2,0.9,0,1.3c-0.2,0.4-0.4,0.7-0.9,0.9S24.3,64.3,23.9,64.1z M28,62.3l8.9,3.9L35.6,69l-8.9-3.9
		L28,62.3z"/>
	<path class="st5" d="M40,54.5l1.7,0.9c0.2,1.5-0.2,2.8-1.1,4.3c-0.9,1.5-2,2.4-3.3,2.8s-2.6,0.2-3.9-0.4c-1.3-0.7-2.2-1.7-2.4-3
		c-0.4-1.3-0.2-2.6,0.7-3.9c0.7-1.3,1.7-2.2,3.3-2.4c1.3-0.2,2.8,0,4.1,0.9l-3.5,6.1c0.9,0.4,1.5,0.4,2.2,0.2s1.3-0.9,1.7-1.5
		C40,57.3,40.2,56,40,54.5z M34.1,58.8l2.2-3.7c-1.3-0.7-2.2-0.2-2.8,0.7C32.6,56.9,32.8,58,34.1,58.8z"/>
	<path class="st5" d="M38,46l1.1,0.9c-0.2-1.3,0-2.6,0.9-3.5c0.7-0.9,1.5-1.3,2.4-1.3c0.9,0,2,0.2,2.8,1.1l4.8,3.9l-2,2.4l-4.6-3.9
		c-1.1-0.9-1.7-0.9-2.4,0c-0.4,0.7-0.4,1.5-0.2,2.6l4.8,4.1l-2.2,2.4l-7.4-6.3L38,46z"/>
	<path class="st5" d="M50.2,33.9l1.3,1.5l-2.6,2.4l2.6,3c0.2,0.4,0.7,0.7,1.1,0.7c0.4,0,0.7,0,1.1-0.4c0.4-0.4,0.9-1.1,1.1-1.7
		l1.5,1.7c-0.4,0.9-1.1,1.7-1.7,2.4c-0.9,0.9-1.7,1.1-2.6,1.1s-1.7-0.4-2.6-1.3l-2.8-3L45.4,41l-0.2-0.7v-6.1l0.2-0.2l2,2.4
		L50.2,33.9z"/>
</g>
<ellipse class="st8" cx="100" cy="94.4" rx="56.3" ry="56.2"/>
<polygon class="st8" points="98.5,40 51.9,120.7 145.2,120.7 "/>
<image style="overflow:visible;enable-background:new    ;" width="261" height="242" xlink:href="6D0E25AB.png"  transform="matrix(0.2422 0 0 0.2418 66.5766 65.0749)">
</image>
</svg>
