<?xml version="1.0" encoding="utf-8"?>
<!-- Generator: Adobe Illustrator 21.0.0, SVG Export Plug-In . SVG Version: 6.00 Build 0)  -->
<svg version="1.1" id="Layer_1" xmlns="http://www.w3.org/2000/svg" xmlns:xlink="http://www.w3.org/1999/xlink" x="0px" y="0px"
	 viewBox="0 0 450 150" style="enable-background:new 0 0 450 150;" xml:space="preserve">
<style type="text/css">
	.st0{fill:none;}
	.st1{fill:#FFCD05;}
	.st2{fill:#FF66FF;}
	.st3{fill:#00FFFF;}
	.st4{fill:#FF6666;}
	.st5{fill:#66FF66;}
	.st6{fill:#BE84FF;}
	.st7{fill:gray;}
	.st8{fill:none;stroke:gray;stroke-miterlimit:10;}
</style>
<g>
	<rect x="140.9" y="51.8" class="st0" width="202" height="19.6"/>
	<path class="st1" d="M153.3,66.6l-0.8-2h-6.8l-0.8,2c-0.3,0.8-0.6,1.4-0.8,1.7c-0.2,0.3-0.6,0.5-1.1,0.5c-0.5,0-0.8-0.2-1.1-0.5
		c-0.3-0.3-0.5-0.6-0.5-1.1c0-0.2,0-0.5,0.2-0.6c0-0.3,0.2-0.6,0.3-0.9l4.3-10.7c0.2-0.3,0.3-0.6,0.5-1.1c0.2-0.5,0.3-0.8,0.5-1.1
		s0.5-0.5,0.8-0.6c0.3-0.2,0.6-0.3,1.1-0.3s0.8,0.2,1.1,0.3s0.6,0.5,0.8,0.6c0.2,0.3,0.3,0.6,0.5,0.9c0.2,0.3,0.3,0.8,0.5,1.3
		l4.3,10.7c0.3,0.8,0.5,1.4,0.5,1.7c0,0.3-0.2,0.8-0.5,1.1s-0.6,0.5-1.1,0.5c-0.3,0-0.5,0-0.6-0.2c-0.2-0.2-0.3-0.2-0.5-0.3
		c-0.2-0.2-0.3-0.5-0.5-0.8C153.5,67.3,153.3,67,153.3,66.6z M146.7,62.1h4.9l-2.5-6.8L146.7,62.1z"/>
	<path class="st2" d="M162.6,53.9v12h6.8c0.5,0,0.9,0.2,1.3,0.5s0.5,0.6,0.5,0.9c0,0.5-0.2,0.8-0.5,0.9c-0.3,0.3-0.6,0.3-1.3,0.3
		h-8.1c-0.8,0-1.3-0.2-1.6-0.5s-0.5-0.8-0.5-1.6V53.7c0-0.6,0.2-1.3,0.5-1.6c0.3-0.3,0.6-0.5,1.3-0.5c0.5,0,0.9,0.2,1.3,0.5
		C162.5,52.6,162.6,53.1,162.6,53.9z"/>
	<path class="st3" d="M186.2,63.3c0,0.5-0.2,1.1-0.3,1.7c-0.2,0.6-0.6,1.3-1.3,1.7c-0.6,0.5-1.3,1.1-2.1,1.4s-1.9,0.5-3,0.5
		c-0.9,0-1.7-0.2-2.4-0.3c-0.6-0.2-1.4-0.5-1.9-0.8c-0.6-0.3-1.1-0.8-1.6-1.4c-0.5-0.5-0.8-1.1-1.1-1.7c-0.3-0.6-0.5-1.3-0.6-2
		c-0.2-0.8-0.2-1.6-0.2-2.4c0-1.3,0.2-2.5,0.6-3.6c0.5-1.1,0.9-1.9,1.7-2.7c0.8-0.8,1.6-1.3,2.5-1.7c0.9-0.3,2.1-0.6,3.2-0.6
		c1.3,0,2.5,0.3,3.6,0.8s1.9,1.3,2.4,2c0.5,0.8,0.8,1.6,0.8,2.2c0,0.3-0.2,0.8-0.5,0.9c-0.3,0.3-0.6,0.5-0.9,0.5
		c-0.5,0-0.8-0.2-0.9-0.3c-0.2-0.2-0.5-0.5-0.8-1.1c-0.5-0.8-0.9-1.4-1.6-1.9c-0.6-0.5-1.3-0.6-2.2-0.6c-1.4,0-2.5,0.5-3.3,1.6
		s-1.3,2.5-1.3,4.4c0,1.3,0.2,2.4,0.5,3.2s0.9,1.4,1.6,1.9c0.6,0.5,1.4,0.6,2.4,0.6c0.9,0,1.7-0.3,2.4-0.8c0.6-0.5,1.1-1.1,1.6-2
		c0.2-0.5,0.3-0.8,0.5-1.1c0.2-0.3,0.5-0.5,0.9-0.5s0.8,0.2,0.9,0.5C186,62.5,186.2,62.9,186.2,63.3z"/>
	<path class="st4" d="M192.5,53.9v4.7h7.3v-4.7c0-0.6,0.2-1.3,0.5-1.6c0.3-0.3,0.6-0.5,1.3-0.5c0.5,0,0.9,0.2,1.3,0.5
		c0.3,0.3,0.5,0.8,0.5,1.6v12.9c0,0.6-0.2,1.3-0.5,1.6c-0.3,0.3-0.8,0.5-1.3,0.5s-0.9-0.2-1.3-0.5c-0.3-0.3-0.5-0.8-0.5-1.6v-5.5
		h-7.3v5.5c0,0.6-0.2,1.3-0.5,1.6s-0.8,0.5-1.3,0.5c-0.5,0-0.9-0.2-1.3-0.5s-0.5-0.8-0.5-1.6V53.9c0-0.6,0.2-1.3,0.5-1.6
		c0.3-0.3,0.6-0.5,1.3-0.5c0.5,0,0.9,0.2,1.3,0.5C192.3,52.6,192.5,53.1,192.5,53.9z"/>
	<path class="st5" d="M217.6,54.7H210v4.1h6.9c0.5,0,0.9,0.2,1.1,0.3c0.3,0.2,0.3,0.5,0.3,0.9c0,0.5-0.2,0.6-0.3,0.9
		c-0.3,0.3-0.6,0.3-1.1,0.3H210V66h7.7c0.5,0,0.9,0.2,1.3,0.3c0.3,0.2,0.5,0.6,0.5,0.9c0,0.3-0.2,0.6-0.5,0.9
		c-0.3,0.3-0.6,0.3-1.3,0.3h-9.2c-0.8,0-1.3-0.2-1.6-0.5s-0.5-0.8-0.5-1.6V54c0-0.5,0-0.9,0.2-1.1c0.2-0.3,0.3-0.5,0.6-0.6
		c0.3-0.2,0.6-0.2,1.1-0.2h8.8c0.5,0,0.9,0.2,1.3,0.3c0.3,0.3,0.3,0.5,0.3,0.9c0,0.3-0.2,0.6-0.3,0.9
		C218.6,54.5,218.1,54.7,217.6,54.7z"/>
	<path class="st6" d="M227.7,66L225,55.5v11.4c0,0.6-0.2,1.1-0.5,1.4c-0.3,0.3-0.6,0.5-1.1,0.5s-0.8-0.2-1.1-0.5
		c-0.3-0.3-0.5-0.8-0.5-1.4V53.7c0-0.8,0.2-1.3,0.6-1.4c0.5-0.2,0.9-0.3,1.6-0.3h1.1c0.6,0,1.1,0,1.4,0.2c0.3,0.2,0.5,0.3,0.6,0.6
		c0.2,0.3,0.3,0.8,0.5,1.4l2.4,9l2.4-9c0.2-0.6,0.3-1.1,0.5-1.4c0.2-0.3,0.3-0.5,0.6-0.6c0.3-0.2,0.8-0.2,1.4-0.2h1.1
		c0.6,0,1.1,0.2,1.6,0.3c0.3,0.3,0.6,0.8,0.6,1.4v13.1c0,0.6-0.2,1.1-0.5,1.4c-0.3,0.3-0.6,0.5-1.1,0.5c-0.5,0-0.8-0.2-1.1-0.5
		c-0.3-0.3-0.5-0.8-0.5-1.4V55.5L232.5,66c-0.2,0.6-0.3,1.3-0.5,1.6c-0.2,0.3-0.3,0.6-0.6,0.9c-0.3,0.3-0.6,0.5-1.3,0.5
		c-0.3,0-0.8-0.2-0.9-0.3c-0.3-0.2-0.5-0.3-0.6-0.6c-0.2-0.3-0.3-0.6-0.3-0.9C227.9,66.8,227.7,66.5,227.7,66z"/>
</g>
<g>
	<path class="st1" d="M146.1,87.9h0.9l4.4,9.8H150l-1.3-2.8h-4.1l-1.3,2.8H142L146.1,87.9z M148.1,93.5l-1.6-3.5l-1.4,3.5H148.1z"/>
	<path class="st7" d="M153.6,91.2v1.4v-0.2c0.6-0.9,1.3-1.4,1.9-1.4c0.5,0,0.9,0.3,1.4,0.8l-0.6,1.1c-0.5-0.5-0.8-0.6-1.3-0.6
		c-0.5,0-0.8,0.2-1.1,0.6c-0.3,0.3-0.5,0.8-0.5,1.4v3.3h-1.3v-6.3h1.4V91.2z"/>
	<path class="st7" d="M162.3,96.1v1.3c-0.6,0.3-1.3,0.3-1.9,0.3c-0.9,0-1.7-0.3-2.4-0.9c-0.6-0.6-0.9-1.4-0.9-2.4
		c0-0.9,0.3-1.7,0.8-2.4c0.5-0.6,1.3-0.9,2.2-0.9c0.3,0,0.6,0,0.9,0.2c0.3,0,0.6,0.2,0.9,0.3V93c-0.6-0.5-1.3-0.6-1.7-0.6
		c-0.6,0-1.1,0.2-1.4,0.6c-0.3,0.5-0.5,0.9-0.5,1.6s0.2,1.1,0.6,1.6c0.5,0.3,0.9,0.6,1.6,0.6C161.1,96.6,161.7,96.4,162.3,96.1z"/>
	<path class="st7" d="M163.8,87.9h1.3V92c0.5-0.6,1.1-0.9,1.9-0.9c0.5,0,0.8,0.2,1.1,0.3c0.3,0.2,0.6,0.5,0.8,0.9
		c0.2,0.3,0.3,0.9,0.3,1.7v3.6h-1.3v-3.9c0-0.5-0.2-0.8-0.3-1.1c-0.2-0.3-0.5-0.5-0.9-0.5c-0.3,0-0.5,0-0.8,0.2s-0.5,0.3-0.8,0.8
		v4.6h-1.3V87.9z"/>
	<path class="st7" d="M171.5,88.6c0.2,0,0.3,0,0.5,0.2c0.2,0.2,0.2,0.3,0.2,0.5c0,0.2,0,0.3-0.2,0.5c-0.2,0.2-0.3,0.2-0.5,0.2
		s-0.3,0-0.5-0.2s-0.2-0.3-0.2-0.5c0-0.2,0-0.3,0.2-0.5C171.2,88.6,171.3,88.6,171.5,88.6z M170.9,91.2h1.3v6.3h-1.3V91.2z"/>
	<path class="st7" d="M173.1,92.2l2.4-2.4v1.3h2.1v1.1h-2.1v3.2c0,0.8,0.3,1.1,0.9,1.1c0.5,0,0.9-0.2,1.4-0.5v1.1
		c-0.5,0.3-0.9,0.5-1.6,0.5c-0.6,0-1.1-0.2-1.4-0.5c-0.2-0.2-0.2-0.2-0.3-0.3c0-0.2-0.2-0.3-0.2-0.5c0-0.2-0.2-0.6-0.2-1.1v-2.8
		L173.1,92.2L173.1,92.2z"/>
	<path class="st7" d="M184.1,94.6h-4.4c0,0.6,0.2,1.1,0.6,1.4c0.5,0.3,0.8,0.5,1.4,0.5c0.8,0,1.6-0.3,2.4-0.8v1.3
		c-0.3,0.3-0.8,0.5-1.1,0.6c-0.3,0.2-0.8,0.2-1.4,0.2s-1.3-0.2-1.7-0.5s-0.8-0.6-1.1-1.1s-0.3-1.1-0.3-1.7c0-0.9,0.3-1.7,0.8-2.4
		c0.5-0.6,1.3-0.9,2.2-0.9c0.8,0,1.6,0.3,2.1,0.9c0.5,0.6,0.8,1.4,0.8,2.4v0.2H184.1z M179.7,93.8h3.2c0-0.5-0.2-0.9-0.5-1.1
		s-0.6-0.5-1.1-0.5s-0.8,0.2-1.1,0.5C180,93,179.7,93.3,179.7,93.8z"/>
	<path class="st7" d="M190.3,96.1v1.3c-0.6,0.3-1.3,0.3-1.9,0.3c-0.9,0-1.7-0.3-2.4-0.9c-0.6-0.6-0.9-1.4-0.9-2.4
		c0-0.9,0.3-1.7,0.8-2.4c0.5-0.6,1.3-0.9,2.2-0.9c0.3,0,0.6,0,0.9,0.2c0.3,0,0.6,0.2,0.9,0.3V93c-0.6-0.5-1.3-0.6-1.7-0.6
		c-0.6,0-1.1,0.2-1.4,0.6c-0.3,0.5-0.5,0.9-0.5,1.6s0.2,1.1,0.6,1.6c0.5,0.3,0.9,0.6,1.6,0.6C189.2,96.6,189.7,96.4,190.3,96.1z"/>
	<path class="st7" d="M190.9,92.2l2.4-2.4v1.3h2.1v1.1h-2.1v3.2c0,0.8,0.3,1.1,0.9,1.1c0.5,0,0.9-0.2,1.4-0.5v1.1
		c-0.5,0.3-0.9,0.5-1.6,0.5c-0.6,0-1.1-0.2-1.4-0.5c-0.2-0.2-0.2-0.2-0.3-0.3c0-0.2-0.2-0.3-0.2-0.5c0-0.2-0.2-0.6-0.2-1.1v-2.8
		L190.9,92.2L190.9,92.2z"/>
	<path class="st7" d="M200.6,97.6v-0.8c-0.3,0.3-0.6,0.5-0.9,0.6c-0.3,0.2-0.6,0.3-1.1,0.3c-0.5,0-0.8-0.2-1.1-0.3
		c-0.3-0.2-0.6-0.5-0.8-0.8c-0.2-0.3-0.3-0.9-0.3-1.7v-3.6h1.3v3.6c0,0.6,0.2,1.1,0.3,1.4c0.2,0.3,0.5,0.5,0.9,0.5
		c0.6,0,1.1-0.3,1.6-0.9v-4.6h1.3v6.3L200.6,97.6z"/>
	<path class="st7" d="M205,91.2v1.4v-0.2c0.6-0.9,1.3-1.4,1.9-1.4c0.5,0,0.9,0.3,1.4,0.8l-0.6,1.1c-0.5-0.5-0.8-0.6-1.3-0.6
		c-0.5,0-0.8,0.2-1.1,0.6c-0.3,0.3-0.5,0.8-0.5,1.4v3.3h-1.3v-6.3h1.4L205,91.2L205,91.2z"/>
	<path class="st7" d="M214.3,94.6h-4.4c0,0.6,0.2,1.1,0.6,1.4s0.8,0.5,1.4,0.5c0.8,0,1.6-0.3,2.4-0.8v1.3c-0.3,0.3-0.8,0.5-1.1,0.6
		c-0.3,0.2-0.8,0.2-1.4,0.2c-0.6,0-1.3-0.2-1.7-0.5c-0.5-0.3-0.8-0.6-1.1-1.1s-0.3-1.1-0.3-1.7c0-0.9,0.3-1.7,0.8-2.4
		c0.5-0.6,1.3-0.9,2.2-0.9c0.8,0,1.6,0.3,2.1,0.9C214.1,92.7,214.5,93.5,214.3,94.6L214.3,94.6L214.3,94.6z M209.9,93.8h3.2
		c0-0.5-0.2-0.9-0.5-1.1s-0.6-0.5-1.1-0.5c-0.5,0-0.8,0.2-1.1,0.5C210.2,93,210,93.3,209.9,93.8z"/>
	<path class="st2" d="M219.8,87.9h1.4v8.4h4.4v1.3H220L219.8,87.9L219.8,87.9z"/>
	<path class="st7" d="M230.7,93.8v2.7c0,0.2,0,0.3,0.2,0.3c0.2,0,0.3-0.2,0.8-0.3v0.8c-0.3,0.2-0.5,0.3-0.6,0.3
		c-0.2,0-0.3,0.2-0.5,0.2c-0.5,0-0.8-0.2-0.9-0.6c-0.5,0.5-1.1,0.6-1.7,0.6c-0.5,0-0.8-0.2-1.1-0.5s-0.5-0.6-0.5-1.1
		s0.2-0.8,0.5-1.1s0.6-0.6,1.3-0.8l1.6-0.6v-0.3c0-0.8-0.3-1.1-1.1-1.1c-0.6,0-1.4,0.3-2.1,1.1v-1.4c0.5-0.6,1.3-0.8,2.1-0.8
		c0.6,0,1.3,0.2,1.7,0.5c0.2,0.2,0.3,0.3,0.3,0.5c0.2,0.2,0.2,0.3,0.2,0.6C230.7,92.8,230.7,93.3,230.7,93.8z M229.5,96.3v-1.9
		l-0.8,0.3c-0.5,0.2-0.8,0.3-0.9,0.5c-0.2,0.2-0.3,0.3-0.3,0.6c0,0.3,0.2,0.5,0.3,0.6c0.2,0.2,0.3,0.3,0.6,0.3
		C228.7,96.9,229.1,96.8,229.5,96.3z"/>
	<path class="st7" d="M232.6,87.9h1.3v3.8c0.5-0.5,1.1-0.6,1.7-0.6c0.8,0,1.4,0.3,2.1,0.9c0.6,0.6,0.8,1.4,0.8,2.4
		c0,1.1-0.3,1.9-0.9,2.5c-0.6,0.6-1.4,0.9-2.5,0.9c-0.5,0-0.8,0-1.3-0.2c-0.5-0.2-0.8-0.2-1.1-0.3V87.9z M233.9,93v3.5
		c0.5,0.2,0.9,0.2,1.3,0.2c0.6,0,0.9-0.2,1.4-0.6c0.3-0.5,0.5-0.9,0.5-1.6c0-0.6-0.2-1.1-0.5-1.6c-0.3-0.5-0.8-0.6-1.3-0.6
		C234.8,92.4,234.4,92.5,233.9,93z"/>
	<path class="st7" d="M244,91.2v-0.3c0-1.1,0.2-1.7,0.6-2.4c0.5-0.5,0.9-0.8,1.6-0.8c0.3,0,0.6,0,0.9,0.2v1.3
		c-0.2,0-0.5-0.2-0.6-0.2c-0.5,0-0.8,0.2-1.1,0.5c-0.2,0.3-0.3,0.8-0.3,1.4v0.3h1.1v1.1h-1.1v5.2h-1.3v-5.2h-0.9v-1.1H244z"/>
	<path class="st7" d="M250.3,91.2c0.9,0,1.7,0.3,2.4,0.9c0.6,0.6,0.9,1.4,0.9,2.4s-0.3,1.7-0.9,2.4c-0.6,0.6-1.4,0.9-2.5,0.9
		c-0.9,0-1.7-0.3-2.4-0.9c-0.6-0.6-0.9-1.4-0.9-2.4s0.3-1.7,0.9-2.4C248.4,91.6,249.2,91.2,250.3,91.2z M250.1,92.4
		c-0.6,0-1.1,0.2-1.4,0.6s-0.6,0.9-0.6,1.6s0.2,1.1,0.6,1.4c0.5,0.3,0.9,0.6,1.6,0.6s1.1-0.2,1.6-0.6c0.5-0.3,0.6-0.9,0.6-1.6
		s-0.2-1.1-0.6-1.6S250.8,92.4,250.1,92.4z"/>
	<path class="st7" d="M256.5,91.2v1.4v-0.2c0.6-0.9,1.3-1.4,1.9-1.4c0.5,0,0.9,0.3,1.4,0.8l-0.6,1.1c-0.5-0.5-0.8-0.6-1.3-0.6
		c-0.5,0-0.8,0.2-1.1,0.6c-0.3,0.3-0.5,0.8-0.5,1.4v3.3H255v-6.3h1.4L256.5,91.2L256.5,91.2z"/>
	<path class="st3" d="M273.2,95.3v1.6c-0.9,0.6-2.2,0.8-3.5,0.8c-1.1,0-2.1-0.2-2.7-0.6c-0.6-0.5-1.4-1.1-1.7-1.7
		c-0.5-0.8-0.6-1.6-0.6-2.5c0-1.4,0.5-2.5,1.6-3.6c0.9-0.9,2.2-1.4,3.8-1.4c0.9,0,2.2,0.3,3.3,0.8V90c-1.1-0.6-2.2-0.9-3.3-0.9
		s-2.1,0.3-2.8,1.1c-0.8,0.6-1.1,1.6-1.1,2.7s0.3,1.9,1.1,2.7s1.6,1.1,2.8,1.1C270.8,96.4,272.1,96.1,273.2,95.3z"/>
	<path class="st7" d="M276,91.2v1.4v-0.2c0.6-0.9,1.3-1.4,1.9-1.4c0.5,0,0.9,0.3,1.4,0.8l-0.6,1.1c-0.5-0.5-0.8-0.6-1.3-0.6
		c-0.5,0-0.8,0.2-1.1,0.6c-0.3,0.3-0.5,0.8-0.5,1.4v3.3h-1.3v-6.3h1.4V91.2L276,91.2z"/>
	<path class="st7" d="M285.5,94.6h-4.4c0,0.6,0.2,1.1,0.6,1.4c0.5,0.3,0.8,0.5,1.4,0.5c0.8,0,1.6-0.3,2.4-0.8v1.3
		c-0.3,0.3-0.8,0.5-1.1,0.6c-0.3,0.2-0.8,0.2-1.4,0.2c-0.6,0-1.3-0.2-1.7-0.5s-0.8-0.6-1.1-1.1c-0.3-0.5-0.3-1.1-0.3-1.7
		c0-0.9,0.3-1.7,0.8-2.4c0.5-0.6,1.3-0.9,2.2-0.9c0.8,0,1.6,0.3,2.1,0.9C285.4,92.7,285.7,93.5,285.5,94.6L285.5,94.6L285.5,94.6z
		 M280.9,93.8h3.2c0-0.5-0.2-0.9-0.5-1.1s-0.6-0.5-1.1-0.5c-0.5,0-0.8,0.2-1.1,0.5C281.3,93,281.1,93.3,280.9,93.8z"/>
	<path class="st7" d="M290.9,93.8v2.7c0,0.2,0,0.3,0.2,0.3c0.2,0,0.3-0.2,0.8-0.3v0.8c-0.3,0.2-0.5,0.3-0.6,0.3
		c-0.2,0-0.3,0.2-0.5,0.2c-0.5,0-0.8-0.2-0.9-0.6c-0.5,0.5-1.1,0.6-1.7,0.6c-0.5,0-0.8-0.2-1.1-0.5c-0.3-0.3-0.5-0.6-0.5-1.1
		s0.2-0.8,0.5-1.1c0.3-0.3,0.6-0.6,1.3-0.8l1.6-0.6v-0.3c0-0.8-0.3-1.1-1.1-1.1c-0.6,0-1.4,0.3-2.1,1.1v-1.4
		c0.5-0.6,1.3-0.8,2.1-0.8c0.6,0,1.3,0.2,1.7,0.5c0.2,0.2,0.3,0.3,0.3,0.5c0.2,0.2,0.2,0.3,0.2,0.6
		C290.9,92.8,290.9,93.3,290.9,93.8z M289.6,96.3v-1.9l-0.8,0.3c-0.5,0.2-0.8,0.3-0.9,0.5c-0.2,0.2-0.3,0.3-0.3,0.6
		c0,0.3,0.2,0.5,0.3,0.6c0.2,0.2,0.3,0.3,0.6,0.3C288.8,96.9,289.3,96.8,289.6,96.3z"/>
	<path class="st7" d="M292,92.2l2.4-2.4v1.3h2.1v1.1h-2.1v3.2c0,0.8,0.3,1.1,0.9,1.1c0.5,0,0.9-0.2,1.4-0.5v1.1
		c-0.5,0.3-0.9,0.5-1.6,0.5c-0.6,0-1.1-0.2-1.4-0.5c-0.2-0.2-0.2-0.2-0.3-0.3c0-0.2-0.2-0.3-0.2-0.5c0-0.2-0.2-0.6-0.2-1.1v-2.8
		L292,92.2L292,92.2z"/>
	<path class="st7" d="M298.3,88.6c0.2,0,0.3,0,0.5,0.2c0.2,0.2,0.2,0.3,0.2,0.5c0,0.2,0,0.3-0.2,0.5c-0.2,0.2-0.3,0.2-0.5,0.2
		c-0.2,0-0.3,0-0.5-0.2s-0.2-0.3-0.2-0.5c0-0.2,0-0.3,0.2-0.5C297.8,88.6,298.2,88.6,298.3,88.6z M297.7,91.2h1.3v6.3h-1.3V91.2z"/>
	<path class="st7" d="M304.6,91.2h1.4l-2.8,6.5h-0.5l-2.8-6.5h1.4l1.7,3.9L304.6,91.2z"/>
	<path class="st7" d="M312.1,94.6h-4.4c0,0.6,0.2,1.1,0.6,1.4c0.5,0.3,0.8,0.5,1.4,0.5c0.8,0,1.6-0.3,2.4-0.8v1.3
		c-0.3,0.3-0.8,0.5-1.1,0.6c-0.3,0.2-0.8,0.2-1.4,0.2s-1.3-0.2-1.7-0.5c-0.5-0.3-0.8-0.6-1.1-1.1c-0.3-0.5-0.3-1.1-0.3-1.7
		c0-0.9,0.3-1.7,0.8-2.4c0.5-0.6,1.3-0.9,2.2-0.9c0.8,0,1.6,0.3,2.1,0.9C311.9,92.7,312.2,93.5,312.1,94.6L312.1,94.6L312.1,94.6z
		 M307.6,93.8h3.2c0-0.5-0.2-0.9-0.5-1.1s-0.6-0.5-1.1-0.5c-0.5,0-0.8,0.2-1.1,0.5C308,93,307.8,93.3,307.6,93.8z"/>
	<path class="st4" d="M324.5,87.9h1.4v9.6h-1.4v-4.3h-5.4v4.3h-1.4v-9.6h1.4v4.3h5.4V87.9z"/>
	<path class="st7" d="M328.5,88.6c0.2,0,0.3,0,0.5,0.2c0.2,0.2,0.2,0.3,0.2,0.5c0,0.2,0,0.3-0.2,0.5c-0.2,0.2-0.3,0.2-0.5,0.2
		s-0.3,0-0.5-0.2c-0.2-0.2-0.2-0.3-0.2-0.5c0-0.2,0-0.3,0.2-0.5C328.2,88.6,328.3,88.6,328.5,88.6z M327.9,91.2h1.3v6.3h-1.3V91.2z"
		/>
	<path class="st7" d="M330.5,93.5c0-0.6,0.3-1.3,0.8-1.6c0.5-0.5,1.1-0.6,2.1-0.6h2.7v0.9h-1.3c0.3,0.3,0.5,0.5,0.5,0.6
		c0,0.2,0.2,0.5,0.2,0.8c0,0.3-0.2,0.6-0.3,0.9c-0.2,0.3-0.5,0.6-0.8,0.8c-0.3,0.2-0.8,0.3-1.4,0.5c-0.5,0-0.8,0.2-0.8,0.5
		c0,0.2,0.2,0.3,0.3,0.3c0.2,0.2,0.5,0.2,0.9,0.3c0.8,0.2,1.3,0.3,1.6,0.5c0.3,0.2,0.5,0.2,0.6,0.5c0.3,0.3,0.5,0.6,0.5,1.1
		c0,0.6-0.3,1.1-0.8,1.4c-0.5,0.3-1.3,0.5-2.2,0.5c-0.9,0-1.6-0.2-2.2-0.5c-0.5-0.3-0.8-0.8-0.8-1.4c0-0.8,0.5-1.4,1.6-1.7
		c-0.5-0.3-0.6-0.5-0.6-0.8c0-0.2,0.2-0.3,0.3-0.6s0.5-0.3,0.8-0.3C331,95,330.5,94.4,330.5,93.5z M332.7,97.9
		c-0.5,0-0.8,0.2-1.1,0.3s-0.5,0.5-0.5,0.6c0,0.6,0.6,0.9,1.7,0.9c0.6,0,0.9-0.2,1.3-0.3c0.3-0.2,0.5-0.5,0.5-0.6
		c0-0.3-0.2-0.5-0.6-0.8C333.9,98,333.2,97.9,332.7,97.9z M332.9,92.4c-0.3,0-0.6,0.2-0.9,0.3c-0.3,0.2-0.3,0.5-0.3,0.8
		s0.2,0.6,0.3,0.8c0.2,0.2,0.5,0.3,0.9,0.3c0.3,0,0.6-0.2,0.9-0.3s0.3-0.5,0.3-0.8s-0.2-0.6-0.3-0.8
		C333.7,92.5,333.4,92.4,332.9,92.4z"/>
	<path class="st7" d="M337,87.9h1.3V92c0.5-0.6,1.1-0.9,1.9-0.9c0.5,0,0.8,0.2,1.1,0.3c0.3,0.2,0.6,0.5,0.8,0.9
		c0.2,0.3,0.3,0.9,0.3,1.7v3.6h-1.3v-3.9c0-0.5-0.2-0.8-0.3-1.1c-0.2-0.3-0.5-0.5-0.9-0.5c-0.3,0-0.5,0-0.8,0.2
		c-0.3,0.2-0.5,0.3-0.8,0.8v4.6H337L337,87.9L337,87.9z"/>
	<path class="st7" d="M343.8,93.8h3.5v1.4h-3.5V93.8z"/>
	<path class="st7" d="M348.5,100.9v-9.6h2.2c1.1,0,2.1,0.3,2.7,0.8c0.6,0.5,0.9,1.4,0.9,2.4c0,0.9-0.3,1.7-0.9,2.4
		c-0.6,0.6-1.4,0.9-2.2,0.9c-0.5,0-0.8-0.2-1.4-0.3v3.5H348.5z M350.8,92.4h-0.9v3.9c0.3,0.2,0.8,0.3,1.3,0.3c0.6,0,1.1-0.2,1.4-0.6
		c0.3-0.5,0.6-0.9,0.6-1.6c0-0.5-0.2-0.8-0.3-1.1s-0.5-0.5-0.8-0.6C351.9,92.5,351.4,92.4,350.8,92.4z"/>
	<path class="st7" d="M361.2,94.6h-4.4c0,0.6,0.2,1.1,0.6,1.4c0.5,0.3,0.8,0.5,1.4,0.5c0.8,0,1.6-0.3,2.4-0.8v1.3
		c-0.3,0.3-0.8,0.5-1.1,0.6c-0.3,0.2-0.8,0.2-1.4,0.2s-1.3-0.2-1.7-0.5c-0.5-0.3-0.8-0.6-1.1-1.1c-0.3-0.5-0.3-1.1-0.3-1.7
		c0-0.9,0.3-1.7,0.8-2.4c0.5-0.6,1.3-0.9,2.2-0.9c0.8,0,1.6,0.3,2.1,0.9C361,92.7,361.3,93.5,361.2,94.6L361.2,94.6L361.2,94.6z
		 M356.8,93.8h3.2c0-0.5-0.2-0.9-0.5-1.1s-0.6-0.5-1.1-0.5c-0.5,0-0.8,0.2-1.1,0.5C357.1,93,356.9,93.3,356.8,93.8z"/>
	<path class="st7" d="M364,91.2v1.4v-0.2c0.6-0.9,1.3-1.4,1.9-1.4c0.5,0,0.9,0.3,1.4,0.8l-0.6,1.1c-0.5-0.5-0.8-0.6-1.3-0.6
		c-0.5,0-0.8,0.2-1.1,0.6c-0.3,0.3-0.5,0.8-0.5,1.4v3.3h-1.1v-6.3h1.3V91.2z"/>
	<path class="st7" d="M368.4,91.2v-0.3c0-1.1,0.2-1.7,0.6-2.4c0.5-0.5,0.9-0.8,1.6-0.8c0.3,0,0.6,0,0.9,0.2v1.3
		c-0.2,0-0.5-0.2-0.6-0.2c-0.5,0-0.8,0.2-1.1,0.5c-0.2,0.3-0.3,0.8-0.3,1.4v0.3h1.1v1.1h-1.1v5.2h-1.3v-5.2h-0.8v-1.1H368.4z"/>
	<path class="st7" d="M374.8,91.2c0.9,0,1.7,0.3,2.4,0.9c0.6,0.6,0.9,1.4,0.9,2.4s-0.3,1.7-0.9,2.4c-0.6,0.6-1.4,0.9-2.5,0.9
		c-0.9,0-1.7-0.3-2.4-0.9c-0.6-0.6-0.9-1.4-0.9-2.4s0.3-1.7,0.9-2.4C372.9,91.6,373.7,91.2,374.8,91.2z M374.6,92.4
		c-0.6,0-1.1,0.2-1.4,0.6c-0.3,0.5-0.6,0.9-0.6,1.6s0.2,1.1,0.6,1.4c0.5,0.3,0.9,0.6,1.6,0.6c0.6,0,1.1-0.2,1.6-0.6
		c0.5-0.3,0.6-0.9,0.6-1.6s-0.2-1.1-0.6-1.6C375.9,92.4,375.2,92.4,374.6,92.4z"/>
	<path class="st7" d="M380.9,91.2v1.4v-0.2c0.6-0.9,1.3-1.4,1.9-1.4c0.5,0,0.9,0.3,1.4,0.8l-0.6,1.1c-0.5-0.5-0.8-0.6-1.3-0.6
		s-0.8,0.2-1.1,0.6c-0.3,0.3-0.5,0.8-0.5,1.4v3.3h-1.3v-6.3h1.4L380.9,91.2L380.9,91.2z"/>
	<path class="st7" d="M390.4,93v4.6h-1.3v-3.5c0-0.6-0.2-1.3-0.3-1.4c-0.2-0.3-0.5-0.5-0.9-0.5c-0.3,0-0.5,0-0.8,0.2
		c-0.2,0.2-0.5,0.3-0.8,0.6v4.6H385v-6.3h1.3V92c0.6-0.6,1.3-0.9,1.9-0.9c0.8,0,1.4,0.3,1.9,1.1c0.6-0.8,1.4-1.1,2.1-1.1
		c0.6,0,1.1,0.2,1.6,0.6c0.5,0.5,0.6,1.1,0.6,2v3.8h-1.3v-3.8c0-0.5-0.2-0.9-0.3-1.3s-0.5-0.5-0.9-0.5
		C391.3,92.2,390.9,92.5,390.4,93z"/>
	<path class="st7" d="M400,93.8v2.7c0,0.2,0,0.3,0.2,0.3s0.3-0.2,0.8-0.3v0.8c-0.3,0.2-0.5,0.3-0.6,0.3c-0.2,0-0.3,0.2-0.5,0.2
		c-0.5,0-0.8-0.2-0.9-0.6c-0.5,0.5-1.1,0.6-1.7,0.6c-0.5,0-0.8-0.2-1.1-0.5c-0.3-0.3-0.5-0.6-0.5-1.1s0.2-0.8,0.5-1.1
		c0.3-0.3,0.6-0.6,1.3-0.8l1.6-0.6v-0.3c0-0.8-0.3-1.1-1.1-1.1c-0.6,0-1.4,0.3-2.1,1.1v-1.4c0.5-0.6,1.3-0.8,2.1-0.8
		c0.6,0,1.3,0.2,1.7,0.5c0.2,0.2,0.3,0.3,0.3,0.5c0.2,0.2,0.2,0.3,0.2,0.6C400,92.8,400,93.3,400,93.8z M398.9,96.3v-1.9l-0.8,0.3
		c-0.5,0.2-0.8,0.3-0.9,0.5c-0.2,0.2-0.3,0.3-0.3,0.6c0,0.3,0.2,0.5,0.3,0.6c0.2,0.2,0.3,0.3,0.6,0.3
		C398.1,96.9,398.5,96.8,398.9,96.3z"/>
	<path class="st7" d="M403.3,91.2V92c0.6-0.6,1.3-0.9,1.9-0.9c0.5,0,0.8,0.2,1.1,0.3c0.3,0.2,0.6,0.5,0.8,0.8
		c0.2,0.3,0.3,0.9,0.3,1.7v3.6h-1.3v-3.6c0-0.6-0.2-1.1-0.3-1.4c-0.2-0.3-0.5-0.5-0.9-0.5c-0.6,0-1.1,0.3-1.6,0.9v4.6h-1.3v-6.3
		H403.3z"/>
	<path class="st7" d="M414.1,96.1v1.3c-0.6,0.3-1.3,0.3-1.9,0.3c-0.9,0-1.7-0.3-2.4-0.9s-0.9-1.4-0.9-2.4c0-0.9,0.3-1.7,0.8-2.4
		c0.5-0.6,1.3-0.9,2.2-0.9c0.3,0,0.6,0,0.9,0.2c0.3,0,0.6,0.2,0.9,0.3V93c-0.6-0.5-1.3-0.6-1.7-0.6c-0.6,0-1.1,0.2-1.4,0.6
		c-0.3,0.5-0.5,0.9-0.5,1.6s0.2,1.1,0.6,1.6c0.5,0.3,0.9,0.6,1.6,0.6C412.8,96.6,413.5,96.4,414.1,96.1z"/>
	<path class="st7" d="M420.9,94.6h-4.4c0,0.6,0.2,1.1,0.6,1.4c0.5,0.3,0.8,0.5,1.4,0.5c0.8,0,1.6-0.3,2.4-0.8v1.3
		c-0.3,0.3-0.8,0.5-1.1,0.6c-0.3,0.2-0.8,0.2-1.4,0.2c-0.6,0-1.3-0.2-1.7-0.5c-0.5-0.3-0.8-0.6-1.1-1.1c-0.3-0.5-0.3-1.1-0.3-1.7
		c0-0.9,0.3-1.7,0.8-2.4c0.5-0.6,1.3-0.9,2.2-0.9c0.8,0,1.6,0.3,2.1,0.9C420.7,92.7,421,93.5,420.9,94.6L420.9,94.6L420.9,94.6z
		 M416.5,93.8h3.2c0-0.5-0.2-0.9-0.5-1.1s-0.6-0.5-1.1-0.5c-0.5,0-0.8,0.2-1.1,0.5C416.8,93,416.6,93.3,416.5,93.8z"/>
	<path class="st5" d="M142.9,105h5.5v1.3h-4.1v3h3.9v1.3h-3.9v3h4.3v1.1h-5.7V105z"/>
	<path class="st7" d="M151.1,108.3v0.8c0.6-0.6,1.3-0.9,1.9-0.9c0.5,0,0.8,0.2,1.1,0.3c0.3,0.2,0.6,0.5,0.8,0.8
		c0.2,0.3,0.3,0.9,0.3,1.7v3.6H154V111c0-0.6-0.2-1.1-0.3-1.4c-0.2-0.3-0.5-0.5-0.9-0.5c-0.6,0-1.1,0.3-1.6,0.9v4.6h-1.3v-6.3H151.1
		z"/>
	<path class="st7" d="M162.5,111.6h-4.4c0,0.6,0.2,1.1,0.6,1.4s0.8,0.5,1.4,0.5c0.8,0,1.6-0.3,2.4-0.8v1.3c-0.3,0.3-0.8,0.5-1.1,0.6
		c-0.3,0.2-0.8,0.2-1.4,0.2s-1.3-0.2-1.7-0.5c-0.5-0.3-0.8-0.6-1.1-1.1c-0.3-0.5-0.3-1.1-0.3-1.7c0-0.9,0.3-1.7,0.8-2.4
		c0.5-0.6,1.3-0.9,2.2-0.9c0.8,0,1.6,0.3,2.1,0.9c0.5,0.6,0.8,1.4,0.8,2.4v0.2L162.5,111.6z M157.9,110.8h3.2c0-0.5-0.2-0.9-0.5-1.1
		c-0.3-0.2-0.6-0.5-1.1-0.5s-0.8,0.2-1.1,0.5C158.2,109.9,158.1,110.3,157.9,110.8z"/>
	<path class="st7" d="M165.2,108.3v1.4v-0.2c0.6-0.9,1.3-1.4,1.9-1.4c0.5,0,0.9,0.3,1.4,0.8l-0.6,1.1c-0.5-0.5-0.8-0.6-1.3-0.6
		s-0.8,0.2-1.1,0.6c-0.3,0.3-0.5,0.8-0.5,1.4v3.2h-1.3v-6.3H165.2z"/>
	<path class="st7" d="M169.1,110.5c0-0.6,0.3-1.3,0.8-1.6c0.5-0.5,1.1-0.6,2.1-0.6h2.7v0.9h-1.4c0.3,0.3,0.5,0.5,0.5,0.6
		c0,0.2,0.2,0.5,0.2,0.8c0,0.3-0.2,0.6-0.3,0.9c-0.2,0.3-0.5,0.6-0.8,0.8c-0.3,0.2-0.8,0.3-1.4,0.5c-0.5,0-0.8,0.2-0.8,0.5
		c0,0.2,0.2,0.3,0.3,0.3c0.2,0.2,0.5,0.2,0.9,0.3c0.8,0.2,1.3,0.3,1.6,0.5s0.5,0.2,0.6,0.5c0.3,0.3,0.5,0.6,0.5,1.1
		c0,0.6-0.3,1.1-0.8,1.4c-0.5,0.3-1.3,0.5-2.2,0.5c-0.9,0-1.6-0.2-2.2-0.5c-0.5-0.3-0.8-0.8-0.8-1.4c0-0.8,0.5-1.4,1.6-1.7
		c-0.5-0.3-0.6-0.5-0.6-0.8c0-0.2,0.2-0.3,0.3-0.6c0.2-0.3,0.5-0.3,0.8-0.3C169.6,112.1,169.1,111.4,169.1,110.5z M171.2,114.9
		c-0.5,0-0.8,0.2-1.1,0.3c-0.3,0.2-0.5,0.5-0.5,0.6c0,0.6,0.6,0.9,1.7,0.9c0.6,0,0.9-0.2,1.3-0.3c0.3-0.2,0.5-0.5,0.5-0.6
		c0-0.3-0.2-0.5-0.6-0.8C172.3,115.1,171.8,114.9,171.2,114.9z M171.5,109.4c-0.3,0-0.6,0.2-0.9,0.3s-0.3,0.5-0.3,0.8
		s0.2,0.6,0.3,0.8s0.5,0.3,0.9,0.3c0.3,0,0.6-0.2,0.9-0.3c0.3-0.2,0.3-0.5,0.3-0.8s-0.2-0.6-0.3-0.8
		C172.3,109.5,171.8,109.4,171.5,109.4z"/>
	<path class="st7" d="M179.7,108.3h1.4l-4.6,9.6h-1.4l2.2-4.6l-2.5-5h1.4l1.7,3.6L179.7,108.3z"/>
	<path class="st7" d="M181.6,110.8h3.5v1.4h-3.5V110.8z"/>
	<path class="st7" d="M192,111.6h-4.4c0,0.6,0.2,1.1,0.6,1.4c0.5,0.3,0.8,0.5,1.4,0.5c0.8,0,1.6-0.3,2.4-0.8v1.3
		c-0.3,0.3-0.8,0.5-1.1,0.6c-0.3,0.2-0.8,0.2-1.4,0.2s-1.3-0.2-1.7-0.5c-0.5-0.3-0.8-0.6-1.1-1.1c-0.3-0.5-0.3-1.1-0.3-1.7
		c0-0.9,0.3-1.7,0.8-2.4c0.5-0.6,1.3-0.9,2.2-0.9c0.8,0,1.6,0.3,2.1,0.9s0.8,1.4,0.8,2.4v0.2L192,111.6z M187.6,110.8h3.2
		c0-0.5-0.2-0.9-0.5-1.1c-0.3-0.2-0.6-0.5-1.1-0.5s-0.8,0.2-1.1,0.5C187.9,109.9,187.6,110.3,187.6,110.8z"/>
	<path class="st7" d="M193.6,108.3V108c0-1.1,0.2-1.7,0.6-2.4c0.5-0.5,0.9-0.8,1.6-0.8c0.3,0,0.6,0,0.9,0.2v1.3
		c-0.2,0-0.5-0.2-0.6-0.2c-0.5,0-0.8,0.2-1.1,0.5c-0.2,0.3-0.3,0.8-0.3,1.4v0.3h1.1v1.1h-1.1v5.2h-1.3v-5.2h-0.9v-1.1H193.6z"/>
	<path class="st7" d="M197.1,108.3V108c0-1.1,0.2-1.7,0.6-2.4c0.5-0.5,0.9-0.8,1.6-0.8c0.3,0,0.6,0,0.9,0.2v1.3
		c-0.2,0-0.5-0.2-0.6-0.2c-0.5,0-0.8,0.2-1.1,0.5c-0.2,0.3-0.3,0.8-0.3,1.4v0.3h1.1v1.1h-1.1v5.2h-1.3v-5.2H196v-1.1H197.1z"/>
	<path class="st7" d="M201.2,105.6c0.2,0,0.3,0,0.5,0.2c0.2,0.2,0.2,0.3,0.2,0.5c0,0.2,0,0.3-0.2,0.5c-0.2,0.2-0.3,0.2-0.5,0.2
		s-0.3,0-0.5-0.2c-0.2-0.2-0.2-0.3-0.2-0.5c0-0.2,0-0.3,0.2-0.5C200.9,105.6,201,105.6,201.2,105.6z M200.6,108.3h1.3v6.3h-1.3
		V108.3z"/>
	<path class="st7" d="M208.5,113.2v1.3c-0.6,0.3-1.3,0.3-1.9,0.3c-0.9,0-1.7-0.3-2.4-0.9c-0.6-0.6-0.9-1.3-0.9-2.4
		c0-0.9,0.3-1.7,0.8-2.4c0.5-0.6,1.3-0.9,2.2-0.9c0.3,0,0.6,0,0.9,0.2c0.3,0,0.6,0.2,0.9,0.3v1.4c-0.6-0.5-1.3-0.6-1.7-0.6
		c-0.6,0-1.1,0.2-1.4,0.6c-0.3,0.5-0.5,0.9-0.5,1.6s0.2,1.1,0.6,1.6c0.5,0.3,0.9,0.6,1.6,0.6C207.2,113.6,207.8,113.5,208.5,113.2z"
		/>
	<path class="st7" d="M210.5,105.6c0.2,0,0.3,0,0.5,0.2c0.2,0.2,0.2,0.3,0.2,0.5c0,0.2,0,0.3-0.2,0.5c-0.2,0.2-0.3,0.2-0.5,0.2
		c-0.2,0-0.3,0-0.5-0.2c-0.2-0.2-0.2-0.3-0.2-0.5c0-0.2,0-0.3,0.2-0.5C210.2,105.6,210.3,105.6,210.5,105.6z M209.9,108.3h1.3v6.3
		h-1.3V108.3z"/>
	<path class="st7" d="M218.4,111.6H214c0,0.6,0.2,1.1,0.6,1.4c0.5,0.3,0.8,0.5,1.4,0.5c0.8,0,1.6-0.3,2.4-0.8v1.3
		c-0.3,0.3-0.8,0.5-1.1,0.6c-0.3,0.2-0.8,0.2-1.4,0.2c-0.6,0-1.3-0.2-1.7-0.5c-0.5-0.3-0.8-0.6-1.1-1.1c-0.3-0.5-0.3-1.1-0.3-1.7
		c0-0.9,0.3-1.7,0.8-2.4c0.5-0.6,1.3-0.9,2.2-0.9c0.8,0,1.6,0.3,2.1,0.9C218.2,109.7,218.6,110.5,218.4,111.6L218.4,111.6
		L218.4,111.6z M214,110.8h3.2c0-0.5-0.2-0.9-0.5-1.1c-0.3-0.2-0.6-0.5-1.1-0.5s-0.8,0.2-1.1,0.5C214.3,109.9,214,110.3,214,110.8z"
		/>
	<path class="st7" d="M221.1,108.3v0.8c0.6-0.6,1.3-0.9,1.9-0.9c0.5,0,0.8,0.2,1.1,0.3c0.3,0.2,0.6,0.5,0.8,0.8
		c0.2,0.3,0.3,0.9,0.3,1.7v3.6h-1.3V111c0-0.6-0.2-1.1-0.3-1.4c-0.2-0.3-0.5-0.5-0.9-0.5c-0.6,0-1.1,0.3-1.6,0.9v4.6h-1.3v-6.3
		H221.1z"/>
	<path class="st7" d="M226,109.2l2.4-2.4v1.4h2.1v1.1h-2.1v3.2c0,0.8,0.3,1.1,0.9,1.1c0.5,0,0.9-0.2,1.4-0.5v1.1
		c-0.5,0.3-0.9,0.5-1.6,0.5c-0.6,0-1.1-0.2-1.4-0.5c-0.2-0.2-0.2-0.2-0.3-0.3c0-0.2-0.2-0.3-0.2-0.5c0-0.2-0.2-0.6-0.2-1.1v-2.8
		L226,109.2L226,109.2z"/>
	<path class="st6" d="M243.5,105h1.3v9.6h-1.4V107l-3,3.8H240l-3-3.8v7.6h-1.4V105h1.3l3.2,3.9L243.5,105z"/>
	<path class="st7" d="M250.6,110.8v2.7c0,0.2,0,0.3,0.2,0.3c0.2,0,0.3-0.2,0.8-0.3v0.8c-0.3,0.2-0.5,0.3-0.6,0.3
		c-0.2,0-0.3,0.2-0.5,0.2c-0.5,0-0.8-0.2-0.9-0.6c-0.5,0.5-1.1,0.6-1.7,0.6c-0.5,0-0.8-0.2-1.1-0.5c-0.3-0.3-0.5-0.6-0.5-1.1
		c0-0.5,0.2-0.8,0.5-1.1c0.3-0.3,0.6-0.6,1.3-0.8l1.6-0.6v-0.3c0-0.8-0.3-1.1-1.1-1.1c-0.6,0-1.4,0.3-2.1,1.1v-1.4
		c0.5-0.6,1.3-0.8,2.1-0.8c0.6,0,1.3,0.2,1.7,0.5c0.2,0.2,0.3,0.3,0.3,0.5c0.2,0.2,0.2,0.3,0.2,0.6
		C250.6,109.9,250.6,110.3,250.6,110.8z M249.4,113.3v-1.9l-0.8,0.3c-0.5,0.2-0.8,0.3-0.9,0.5c-0.2,0.2-0.3,0.3-0.3,0.6
		c0,0.3,0.2,0.5,0.3,0.6c0.2,0.2,0.3,0.3,0.6,0.3C248.7,114,249,113.8,249.4,113.3z"/>
	<path class="st7" d="M257.6,113.2v1.3c-0.6,0.3-1.3,0.3-1.9,0.3c-0.9,0-1.7-0.3-2.4-0.9c-0.6-0.6-0.9-1.4-0.9-2.4
		c0-0.9,0.3-1.7,0.8-2.4c0.5-0.6,1.3-0.9,2.2-0.9c0.3,0,0.6,0,0.9,0.2c0.3,0,0.6,0.2,0.9,0.3v1.4c-0.6-0.5-1.3-0.6-1.7-0.6
		c-0.6,0-1.1,0.2-1.4,0.6c-0.3,0.5-0.5,0.9-0.5,1.6s0.2,1.1,0.6,1.6c0.5,0.3,0.9,0.6,1.6,0.6C256.3,113.6,256.9,113.5,257.6,113.2z"
		/>
	<path class="st7" d="M259,105h1.3v4.1c0.5-0.6,1.1-0.9,1.9-0.9c0.5,0,0.8,0.2,1.1,0.3c0.3,0.2,0.6,0.5,0.8,0.9
		c0.2,0.3,0.3,0.9,0.3,1.7v3.5h-1.3v-3.9c0-0.5-0.2-0.8-0.3-1.1s-0.5-0.5-0.9-0.5c-0.3,0-0.5,0-0.8,0.2c-0.3,0.2-0.5,0.3-0.8,0.8
		v4.6H259L259,105L259,105z"/>
	<path class="st7" d="M266.7,105.6c0.2,0,0.3,0,0.5,0.2c0.2,0.2,0.2,0.3,0.2,0.5c0,0.2,0,0.3-0.2,0.5c-0.2,0.2-0.3,0.2-0.5,0.2
		c-0.2,0-0.3,0-0.5-0.2c-0.2-0.2-0.2-0.3-0.2-0.5c0-0.2,0-0.3,0.2-0.5C266.4,105.6,266.6,105.6,266.7,105.6z M266.1,108.3h1.3v6.3
		h-1.3V108.3z"/>
	<path class="st7" d="M270.5,108.3v0.8c0.6-0.6,1.3-0.9,1.9-0.9c0.5,0,0.8,0.2,1.1,0.3c0.3,0.2,0.6,0.5,0.8,0.8
		c0.2,0.3,0.3,0.9,0.3,1.7v3.6h-1.3V111c0-0.6-0.2-1.1-0.3-1.4c-0.2-0.3-0.5-0.5-0.9-0.5c-0.6,0-1.1,0.3-1.6,0.9v4.6h-1.3v-6.3
		H270.5z"/>
	<path class="st7" d="M281.7,111.6h-4.4c0,0.6,0.2,1.1,0.6,1.4c0.5,0.3,0.8,0.5,1.4,0.5c0.8,0,1.6-0.3,2.4-0.8v1.3
		c-0.3,0.3-0.8,0.5-1.1,0.6c-0.3,0.2-0.8,0.2-1.4,0.2c-0.6,0-1.3-0.2-1.7-0.5c-0.5-0.3-0.8-0.6-1.1-1.1c-0.3-0.5-0.3-1.1-0.3-1.7
		c0-0.9,0.3-1.7,0.8-2.4c0.5-0.6,1.3-0.9,2.2-0.9c0.8,0,1.6,0.3,2.1,0.9C281.6,109.7,281.9,110.5,281.7,111.6L281.7,111.6
		L281.7,111.6z M277.3,110.8h3.2c0-0.5-0.2-0.9-0.5-1.1c-0.3-0.2-0.6-0.5-1.1-0.5s-0.8,0.2-1.1,0.5
		C277.5,109.9,277.3,110.3,277.3,110.8z"/>
	<path class="st7" d="M282.8,114.3v-1.4c0.3,0.3,0.8,0.5,1.1,0.6c0.3,0.2,0.6,0.2,0.9,0.2s0.5,0,0.6-0.2c0.2-0.2,0.3-0.3,0.3-0.5
		c0-0.2,0-0.3-0.2-0.5c-0.2-0.2-0.3-0.3-0.8-0.5c-0.8-0.5-1.4-0.8-1.6-1.1c-0.3-0.3-0.3-0.6-0.3-1.1c0-0.5,0.2-0.9,0.6-1.3
		c0.3-0.3,0.9-0.5,1.4-0.5c0.6,0,1.3,0.2,1.9,0.5v1.3c-0.8-0.5-1.4-0.6-1.9-0.6c-0.3,0-0.5,0-0.6,0.2c-0.2,0.2-0.2,0.3-0.2,0.5
		c0,0.2,0,0.3,0.2,0.5s0.3,0.3,0.8,0.5l0.5,0.3c1.1,0.6,1.6,1.3,1.6,2c0,0.5-0.2,0.9-0.6,1.3c-0.5,0.3-0.9,0.5-1.6,0.5
		c-0.3,0-0.8,0-0.9-0.2C283.6,114.6,283.2,114.4,282.8,114.3z"/>
</g>
<ellipse class="st8" cx="67.6" cy="67.3" rx="63.8" ry="63.7"/>
<g>
	<path class="st0" d="M43.4,24.4c24.2-13.1,54.4-4.1,67.4,20s4.1,54.3-20,67.3s-54.4,4.1-67.4-20S19.2,37.5,43.4,24.4z"/>
	<path class="st3" d="M52.1,17.1l0.8,2c-0.9,1.1-2.1,2-3.5,2.5c-1.7,0.6-3.3,0.8-4.7,0.3s-2.4-1.6-3-2.8c-0.6-1.4-0.5-2.8,0.2-4.3
		c0.6-1.4,1.9-2.5,3.6-3.2c1.4-0.6,2.7-0.8,3.8-0.6l0.9,2.2c-1.4-0.2-2.7,0-3.8,0.3c-1.1,0.5-1.7,1.1-2.2,1.9
		c-0.5,0.8-0.5,1.7-0.2,2.5c0.3,0.8,0.9,1.4,1.9,1.7s1.9,0.3,2.8-0.2c0.5-0.2,0.9-0.5,1.4-0.8C50.7,18.6,51.3,17.9,52.1,17.1z"/>
	<path class="st3" d="M55.4,12.6l0.5,2l0,0c0.3-1.6,0.9-2.4,1.7-2.5c0.5-0.2,0.9,0,1.6,0.3l-0.2,2c-0.6-0.2-1.1-0.3-1.4-0.3
		c-0.5,0.2-0.8,0.5-1.1,1.3c-0.3,0.8-0.3,1.1-0.3,1.3l0.6,3l-2.1,0.2L53.2,13L55.4,12.6z"/>
	<path class="st3" d="M67.4,16l0.2,1.4c-0.8,0.6-1.9,1.1-3.2,1.1c-1.3,0-2.2-0.2-3-0.8c-0.8-0.6-1.3-1.4-1.3-2.5
		c0-1.1,0.2-2,0.9-2.7c0.6-0.8,1.6-1.1,2.7-1.3c1.1,0,2.1,0.3,2.7,0.9c0.8,0.6,1.1,1.6,1.1,2.8l-5.1,0.3c0.2,0.6,0.3,1.1,0.8,1.4
		c0.5,0.3,0.9,0.5,1.7,0.5C65.8,17.1,66.6,16.8,67.4,16z M62.5,14.1l3-0.2c-0.2-0.9-0.8-1.6-1.6-1.4C63,12.6,62.5,13.2,62.5,14.1z"
		/>
	<path class="st3" d="M76.1,17.3v1.1c-0.8,0.3-1.4,0.5-2.2,0.5c-0.6,0-1.1-0.3-1.1-0.9c-0.8,0.5-1.6,0.6-2.4,0.6
		c-0.5,0-0.9-0.3-1.4-0.6c-0.3-0.3-0.5-0.8-0.5-1.3c0-0.6,0.3-1.1,0.8-1.4c0.5-0.3,1.7-0.6,3.8-1.1c0.2-0.8-0.3-1.3-1.1-1.3
		c-0.9-0.2-1.9,0.2-2.7,0.9l0.2-1.7c0.9-0.5,2.1-0.6,3.2-0.6c2.1,0.2,2.8,0.9,2.8,2.4L75.1,17c0,0.3,0,0.5,0.3,0.5
		C75.5,17.6,75.8,17.5,76.1,17.3z M72.8,17l0.2-1.7c-0.8,0.2-1.3,0.3-1.6,0.6c-0.3,0.2-0.5,0.5-0.5,0.8c0,0.2,0,0.3,0.2,0.5
		c0.2,0.2,0.3,0.3,0.5,0.3C71.8,17.5,72.3,17.3,72.8,17z"/>
	<path class="st3" d="M83.2,13.5l-0.3,1.4l-2.5-0.6l-0.6,2.8c-0.2,0.3,0,0.6,0.2,0.9c0.2,0.3,0.3,0.5,0.6,0.5c0.5,0.2,0.9,0.2,1.6,0
		l-0.3,1.6c-0.8,0.2-1.4,0.2-2.1,0C78.9,20,78.3,19.5,78,19s-0.5-1.3-0.3-2l0.6-3l-1.1-0.3l0.2-0.5l3.6-2.5h0.3l-0.5,2.2L83.2,13.5z
		"/>
	<path class="st3" d="M86.8,14.8l-2.4,6.6l-2.1-0.8l2.4-6.6L86.8,14.8z M85.3,11.8c0.2-0.3,0.3-0.6,0.6-0.6c0.3-0.2,0.6-0.2,0.9,0
		c0.3,0.2,0.6,0.3,0.6,0.6c0.2,0.3,0.2,0.6,0,0.9c-0.2,0.3-0.3,0.5-0.6,0.6c-0.3,0.2-0.6,0.2-0.9,0c-0.3-0.2-0.5-0.3-0.6-0.6
		C85.3,12.4,85.3,12.1,85.3,11.8z"/>
	<path class="st3" d="M88.1,23.1l0.2-7.9l2.2,1.1l-0.3,4.1l3-2.8l2.1,0.9l-6,5L88.1,23.1z"/>
	<path class="st3" d="M99.5,27.2l-0.8,1.1c-1.1,0-2.1-0.3-3.2-0.9c-1.1-0.6-1.7-1.6-1.9-2.5c-0.3-0.9,0-1.9,0.6-2.8
		c0.6-0.9,1.4-1.4,2.4-1.6c0.9-0.2,1.9,0,2.8,0.6c0.9,0.6,1.4,1.4,1.6,2.4c0.2,0.9-0.2,2-0.8,3l-4.4-2.8c-0.3,0.6-0.5,1.1-0.3,1.6
		c0.2,0.5,0.5,0.9,1.1,1.4C97.4,27.1,98.2,27.2,99.5,27.2z M96.5,22.7l2.5,1.7c0.5-0.9,0.3-1.6-0.5-2.2
		C97.9,21.7,97.3,21.9,96.5,22.7z"/>
	<path class="st4" d="M119.7,38.1l-8.7,6l-1.4-2.2l3.5-2.4l-3-4.4l-3.5,2.4l-1.4-2.2l8.7-6l1.4,2.2l-3.5,2.4l3,4.3l3.5-2.4
		L119.7,38.1z"/>
	<path class="st4" d="M119.1,44.7l-6.3,3l-1.1-2l6.3-3L119.1,44.7z M120.2,41.6c0.3-0.2,0.6-0.2,0.9,0c0.3,0.2,0.6,0.3,0.6,0.6
		c0.2,0.3,0.2,0.6,0,0.9c-0.2,0.3-0.3,0.5-0.6,0.6c-0.3,0.2-0.6,0.2-0.9,0c-0.3-0.2-0.6-0.3-0.6-0.6c-0.2-0.3-0.2-0.6,0-0.9
		C119.5,41.9,119.8,41.7,120.2,41.6z"/>
	<path class="st4" d="M122.4,53.7l-1.4,0.5l-0.3-0.9c-0.3,0.3-0.6,0.6-0.9,0.8c-0.5,0.2-1.1,0.2-1.6-0.2c-0.6-0.3-1.1-0.8-1.4-1.4
		c-0.3-0.8-0.6-1.1-0.6-1.3c-0.2,0-0.2-0.2-0.3,0c-0.2,0-0.2,0.2-0.2,0.3s0,0.6,0.3,1.6c0.2,0.9,0.2,1.6,0,2.2
		c-0.3,0.5-0.6,0.8-1.1,0.9c-0.8,0.3-1.4,0.2-2.1-0.3c-0.6-0.5-1.1-1.3-1.4-2.4c-0.5-1.1-0.5-2-0.3-2.8s0.5-1.3,1.1-1.4
		c0.8-0.3,1.6,0.2,2.4,1.3c0-0.6,0.2-0.9,0.6-1.1c0.5-0.2,0.9,0.2,1.4,0.9c-0.2-0.6,0-1.1,0.3-1.6c0.3-0.5,0.6-0.8,1.1-0.9
		c0.6-0.2,1.3-0.2,1.9,0.2c0.6,0.3,1.1,0.9,1.4,2L122.4,53.7z M112.3,53.1c0.2,0.5,0.3,0.8,0.6,0.9s0.5,0.3,0.8,0.2
		c0.5-0.2,0.6-0.8,0.2-1.9c-0.2-0.5-0.3-0.8-0.6-1.1c-0.3-0.2-0.5-0.3-0.8-0.2C111.9,51.2,111.9,52,112.3,53.1z M119.8,50.4
		c-0.2-0.3-0.3-0.6-0.6-0.8c-0.3-0.2-0.6-0.2-0.9,0c-0.3,0.2-0.6,0.3-0.8,0.6c-0.2,0.3-0.2,0.6,0,0.9c0.2,0.3,0.3,0.6,0.6,0.8
		c0.3,0.2,0.6,0.2,0.9,0c0.3-0.2,0.5-0.3,0.6-0.6C120,51,120,50.7,119.8,50.4z"/>
	<path class="st4" d="M126.5,57.2l-4.4,0.6l0,0c0.9,0.5,1.4,1.1,1.6,2c0.2,0.8,0,1.4-0.5,1.9c-0.5,0.6-0.9,0.9-1.9,1.1l-4.4,0.8
		l-0.3-2.2l3.9-0.6c0.9-0.2,1.4-0.6,1.4-1.4c-0.2-0.5-0.5-0.9-1.3-1.3l-4.4,0.8l-0.3-2.2l10.4-1.7L126.5,57.2z"/>
	<path class="st4" d="M121.6,68.7h-2.1v-3.9h2.1V68.7z"/>
	<path class="st4" d="M124,73h-0.6c0.5,0.6,0.6,1.4,0.5,2c-0.2,0.9-0.5,1.6-1.3,2.2s-1.6,0.8-2.7,0.6c-1.1-0.2-2.1-0.5-2.7-1.3
		c-0.6-0.6-0.8-1.6-0.8-2.7c0-0.6,0.3-1.3,0.6-1.7l-3.8-0.5l0.3-2.2l10.6,1.1L124,73z M121.9,72.6l-3.3-0.3
		c-0.3,0.3-0.6,0.8-0.6,1.3c0,0.5,0.2,0.9,0.5,1.4c0.3,0.3,0.8,0.6,1.6,0.6c0.6,0,1.3,0,1.6-0.3s0.6-0.6,0.6-1.1
		C122.4,73.7,122.2,73.3,121.9,72.6z"/>
	<path class="st4" d="M116.2,85.7l-1.4-0.3c-0.3-0.9-0.3-2,0-3.3c0.3-1.3,0.9-2,1.7-2.5c0.8-0.5,1.7-0.6,2.8-0.3
		c1.1,0.3,1.7,0.9,2.2,1.7s0.6,1.9,0.3,2.8c-0.3,1.1-0.9,1.7-1.7,2.2c-0.9,0.5-1.9,0.5-3.2,0.2l1.4-4.9c-0.6-0.2-1.1,0-1.6,0.3
		s-0.8,0.8-0.9,1.4C115.7,83.7,115.9,84.6,116.2,85.7z M119.7,81.5l-0.8,3c0.9,0.2,1.7-0.2,1.9-1.1C121,82.6,120.6,81.9,119.7,81.5z
		"/>
	<path class="st4" d="M119.2,91.2l-1.9-0.8l0,0c1.1,1.1,1.4,2.2,1.1,3c-0.2,0.3-0.6,0.8-1.3,1.1l-1.6-1.4c0.5-0.3,0.9-0.6,0.9-0.9
		c0.2-0.5,0.2-0.9-0.3-1.6c-0.5-0.6-0.6-0.9-0.8-0.9l-2.8-1.3l0.9-2l6.5,2.8L119.2,91.2z"/>
	<path class="st4" d="M115.6,98l-0.5,0.8l-1.3-0.8l0.5-0.9l-4.7-2.8l1.1-1.9l4.7,2.8l0.5-0.9l1.3,0.8l-0.5,0.9l0.3,0.2
		c0.8,0.5,1.4,1.1,1.6,1.9c0.2,0.8,0,1.6-0.5,2.4c-0.2,0.2-0.3,0.6-0.8,1.1l-1.6-0.9c0.3-0.3,0.5-0.6,0.6-0.8
		c0.5-0.6,0.3-1.3-0.5-1.7H115.6z"/>
	<path class="st4" d="M112.1,103.1c-0.6,0.9-1.6,1.4-2.5,1.6c-0.9,0.2-1.9,0-2.8-0.8c-0.9-0.8-1.4-1.6-1.4-2.5s0.3-1.9,0.9-2.8
		c0.8-0.9,1.6-1.4,2.5-1.6c0.9-0.2,1.9,0.2,2.8,0.8c0.9,0.6,1.4,1.6,1.4,2.5C113.2,101.2,112.9,102.1,112.1,103.1z M107.4,99.4
		c-0.6,0.8-0.3,1.7,0.9,2.7c1.3,0.9,2.2,0.9,2.8,0.2c0.3-0.5,0.5-0.8,0.3-1.3c-0.2-0.5-0.5-0.9-1.1-1.4
		C108.9,98.7,108,98.5,107.4,99.4z"/>
	<path class="st4" d="M106.4,109.2l-1.4-1.4l0,0c0.5,1.4,0.5,2.5-0.2,3.2c-0.3,0.3-0.8,0.5-1.6,0.5l-0.9-1.9
		c0.6-0.2,1.1-0.3,1.3-0.5c0.3-0.3,0.5-0.9,0.3-1.6c-0.2-0.6-0.3-1.1-0.3-1.1l-2.1-2.2l1.6-1.6l4.9,5.2L106.4,109.2z"/>
	<path class="st4" d="M100.4,114.4l-0.5-0.8c-0.3,0.9-0.8,1.7-1.6,2.2c-1.1,0.6-2.1,0.6-3,0c-0.2,1.3-0.8,2.2-1.6,2.7
		c-0.6,0.5-1.4,0.6-2.1,0.5s-1.3-0.6-1.7-1.3l-2.4-3.9l1.9-1.1l2.2,3.5c0.3,0.5,0.6,0.6,0.9,0.8c0.3,0.2,0.6,0,1.1-0.2
		c0.6-0.3,0.8-0.9,0.9-1.9l-2.4-3.9l1.9-1.1l2.2,3.6c0.3,0.5,0.6,0.6,0.9,0.8c0.3,0.2,0.6,0,1.1-0.2c0.5-0.3,0.8-0.9,0.9-1.7
		l-2.7-4.1l1.9-1.1l3.6,6L100.4,114.4z"/>
	<path class="st4" d="M80,118.1l-0.5-1.1c0.6-0.6,1.1-1.1,1.7-1.3c0.6-0.2,1.1-0.2,1.4,0.3c0.6-0.8,1.3-1.3,1.9-1.6
		c0.5-0.2,0.9-0.2,1.4,0c0.5,0.2,0.8,0.5,0.9,0.9c0.2,0.6,0.2,1.1-0.2,1.6s-1.3,1.3-3,2.5c0.2,0.8,0.8,0.9,1.6,0.8
		c0.9-0.3,1.6-0.9,2.1-1.9l0.6,1.7c-0.6,0.8-1.6,1.4-2.7,1.7c-1.9,0.6-3,0.3-3.5-1.1l-0.8-3c-0.2-0.3-0.3-0.5-0.5-0.3
		C80.5,117.4,80.4,117.7,80,118.1z M83.2,116.9l0.6,1.6c0.6-0.5,1.1-0.9,1.3-1.1c0.2-0.3,0.3-0.6,0.2-0.9c0-0.2-0.2-0.3-0.3-0.5
		c-0.2-0.2-0.3-0.2-0.6,0C83.8,116.2,83.5,116.5,83.2,116.9z"/>
	<path class="st4" d="M78,123.9l-0.2-0.9c-0.5,0.9-1.3,1.4-2.1,1.6c-0.8,0.2-1.4,0-1.9-0.3c-0.6-0.3-0.9-0.9-1.1-1.9l-0.8-4.6
		l2.2-0.3l0.8,4.3c0.2,0.9,0.6,1.3,1.3,1.3c0.5-0.2,0.9-0.6,1.3-1.4l-0.8-4.6l2.2-0.3l1.1,6.9L78,123.9z"/>
	<path class="st4" d="M64.3,119.8v-1.6c0.9-0.3,1.7-0.5,2.4-0.5c1.3,0,2.2,0.3,3,0.9s1.1,1.6,1.1,2.7s-0.3,1.9-1.1,2.7
		c-0.8,0.6-1.7,1.1-2.8,1.1c-0.8,0-1.6-0.2-2.4-0.5v-1.6c0.6,0.3,1.3,0.5,1.9,0.5s1.3-0.2,1.6-0.6c0.5-0.3,0.6-0.9,0.6-1.4
		c0-0.6-0.2-1.1-0.6-1.6c-0.5-0.5-0.9-0.6-1.6-0.6C65.8,119.3,65.2,119.5,64.3,119.8z"/>
	<path class="st4" d="M56,118.8l0.2-1.4c0.9-0.5,2.1-0.6,3.3-0.5c1.3,0.2,2.2,0.6,2.8,1.4c0.6,0.8,0.9,1.7,0.8,2.8s-0.6,1.9-1.4,2.5
		s-1.7,0.8-2.8,0.6c-1.1-0.2-1.9-0.6-2.5-1.4s-0.8-1.9-0.5-3l5.1,0.8c0-0.6-0.2-1.1-0.5-1.6s-0.9-0.6-1.6-0.8
		C57.9,118.2,57,118.4,56,118.8z M60.6,121.7l-3-0.5c0,1.1,0.5,1.6,1.3,1.7C59.7,123.3,60.3,122.8,60.6,121.7z"/>
	<path class="st5" d="M43.2,114l0.8-1.7l7.1,3l-4.1,9.6l-6.9-3l0.8-1.7l4.6,1.9l0.8-2l-4.4-1.9l0.8-1.7l4.4,1.9l0.9-2.4L43.2,114z"
		/>
	<path class="st5" d="M37.1,116.3l0.5-0.8c-0.9,0.3-1.9,0.2-2.5-0.3c-0.6-0.5-0.9-0.9-1.1-1.6c-0.2-0.6,0-1.4,0.5-2l2.5-3.8l1.9,1.3
		l-2.4,3.6c-0.5,0.8-0.5,1.4,0.2,1.7c0.5,0.3,1.1,0.3,1.9-0.2l2.5-3.8l1.9,1.3l-3.9,5.7L37.1,116.3z"/>
	<path class="st5" d="M29.2,103.7l0.9-1.1c1.1,0.2,2.1,0.6,3,1.4c0.9,0.8,1.4,1.7,1.6,2.8c0.2,0.9-0.3,1.9-0.9,2.7
		c-0.8,0.8-1.6,1.3-2.5,1.3c-0.9,0-1.9-0.3-2.7-1.1s-1.3-1.6-1.3-2.7s0.5-1.9,1.3-2.8l3.8,3.5c0.5-0.5,0.6-0.9,0.5-1.6
		c0-0.5-0.3-1.1-0.8-1.6C31.1,104.2,30.3,103.7,29.2,103.7z M31.2,108.6l-2.2-2c-0.6,0.8-0.6,1.6,0,2.2
		C29.8,109.2,30.5,109.2,31.2,108.6z"/>
	<path class="st5" d="M22.9,103.7l1.6-1.3l0,0c-1.6,0.5-2.5,0.3-3.2-0.5c-0.3-0.3-0.5-0.8-0.5-1.6l1.9-0.8c0,0.6,0.2,1.1,0.5,1.4
		c0.3,0.5,0.8,0.5,1.6,0.5c0.8-0.2,1.1-0.2,1.3-0.3l2.4-1.9l1.4,1.7l-5.5,4.4L22.9,103.7z"/>
	<path class="st5" d="M16.1,93.3l1.3-0.8l0.5,0.9c0.2-0.5,0.5-0.6,0.8-0.9c0.5-0.3,0.9-0.3,1.6-0.3c0.6,0.2,1.1,0.5,1.6,1.1
		c0.5,0.6,0.8,0.9,0.9,1.1c0.2,0,0.2,0,0.3,0c0.2,0,0.2-0.2,0.2-0.3c0-0.2-0.2-0.6-0.6-1.6c-0.5-0.9-0.5-1.6-0.3-2
		c0.2-0.5,0.5-0.9,0.9-1.1c0.6-0.3,1.3-0.5,2.1,0c0.6,0.3,1.3,1.1,1.9,2c0.6,1.1,0.9,2,0.9,2.7c0,0.8-0.3,1.3-0.8,1.6
		c-0.8,0.5-1.6,0.2-2.5-0.8c0.2,0.6,0,0.9-0.3,1.3c-0.5,0.3-0.9,0-1.6-0.6c0.2,0.5,0.2,1.1,0,1.6c-0.2,0.5-0.5,0.9-0.9,1.3
		c-0.6,0.3-1.3,0.5-1.9,0.2c-0.6-0.3-1.4-0.8-1.9-1.6L16.1,93.3z M19.2,96.1c0.2,0.3,0.5,0.5,0.8,0.6c0.3,0.2,0.6,0,0.9-0.2
		c0.3-0.2,0.5-0.5,0.6-0.8c0.2-0.3,0-0.6-0.2-0.9c-0.2-0.3-0.5-0.5-0.8-0.6s-0.6,0-0.9,0.2c-0.3,0.2-0.5,0.5-0.6,0.8
		S19.1,95.8,19.2,96.1z M26,91.9c-0.3-0.5-0.5-0.6-0.8-0.8c-0.3-0.2-0.6-0.2-0.8,0C24,91.4,24.1,92,24.6,93c0.3,0.5,0.5,0.8,0.8,0.9
		c0.3,0.2,0.5,0.2,0.8,0.2C26.8,93.6,26.7,93,26,91.9z"/>
	<path class="st5" d="M12.8,84.9l11.5,0.6l0.8,2.2L20,87.5l-4.6,4.7L14.7,90l2.8-2.7l-3.9-0.2L12.8,84.9z"/>
	<path class="st5" d="M14,79.3l2.1-0.5l0.9,3.9L15,83.2L14,79.3z"/>
	<path class="st5" d="M15.1,70.4l1.4-0.2c0.8,0.8,1.1,1.7,1.3,3c0.2,1.3,0,2.2-0.6,3.2c-0.6,0.8-1.4,1.3-2.5,1.4
		c-1.1,0.2-2.1-0.2-2.8-0.8s-1.3-1.4-1.4-2.5s0.2-2,0.8-2.8c0.6-0.8,1.6-1.3,2.8-1.3l0.6,5c0.6-0.2,1.1-0.5,1.4-0.8
		c0.3-0.5,0.5-0.9,0.3-1.7C16.4,72.2,15.9,71.4,15.1,70.4z M13.6,75.6l-0.3-3c-0.9,0.3-1.4,0.8-1.4,1.7C12,75.2,12.4,75.6,13.6,75.6
		z"/>
	<path class="st5" d="M10.4,66.3v-0.9H12v0.9h5.5v2.2H12v0.9h-1.6v-0.9h-0.3c-0.9,0-1.7-0.3-2.4-0.8c-0.6-0.6-0.8-1.3-0.8-2.2
		c0-0.2,0-0.6,0.2-1.4h1.7c0,0.5-0.2,0.8-0.2,0.9c0,0.8,0.5,1.3,1.3,1.3L10.4,66.3z"/>
	<path class="st5" d="M10.7,61.3l0.2-0.9l1.6,0.2l-0.2,0.9l5.5,0.6l-0.2,2.2l-5.5-0.6L12,64.6l-1.6-0.2l0.2-0.9h-0.3
		C9.3,63.3,8.5,63,8,62.4C7.4,61.8,7.2,61,7.2,60c0-0.2,0.2-0.6,0.3-1.3l1.7,0.2c-0.2,0.5-0.2,0.8-0.2,0.9c-0.2,0.8,0.3,1.3,1.1,1.4
		H10.7z"/>
	<path class="st5" d="M8.8,58.6c-0.3,0-0.6-0.2-0.8-0.5c-0.2-0.3-0.3-0.6-0.2-0.9c0-0.3,0.2-0.6,0.5-0.8c0.3-0.2,0.6-0.3,0.9-0.2
		c0.3,0,0.6,0.2,0.8,0.5c0.2,0.3,0.3,0.6,0.2,0.9c0,0.3-0.2,0.6-0.5,0.8C9.4,58.4,9.1,58.6,8.8,58.6z M11.5,56.7l6.9,1.3L18,60.2
		L11,58.9L11.5,56.7z"/>
	<path class="st5" d="M18.6,49.9l1.6,0.5c0,0.9,0,1.7-0.3,2.4c-0.3,1.3-0.9,2-1.9,2.5c-0.8,0.5-1.7,0.6-2.8,0.3
		c-1.1-0.3-1.7-0.9-2.2-1.9c-0.5-0.9-0.5-1.9-0.2-3c0.2-0.8,0.6-1.4,1.1-2.2l1.6,0.5c-0.5,0.5-0.8,1.1-0.9,1.6
		c-0.2,0.6-0.2,1.3,0,1.7c0.3,0.5,0.6,0.8,1.3,0.9c0.6,0.2,1.1,0.2,1.6-0.2c0.5-0.3,0.8-0.6,0.9-1.3C18.8,51.5,18.8,50.7,18.6,49.9z
		"/>
	<path class="st5" d="M12.4,45.7c-0.3-0.2-0.5-0.3-0.6-0.6c-0.2-0.3-0.2-0.6,0-0.9c0.2-0.3,0.3-0.5,0.6-0.6s0.6-0.2,0.9,0
		c0.3,0.2,0.5,0.3,0.6,0.6c0.2,0.3,0.2,0.6,0,0.9c-0.2,0.3-0.3,0.5-0.6,0.6C13.1,45.8,12.8,45.8,12.4,45.7z M15.4,44.4l6.5,2.8
		l-0.9,2l-6.5-2.8L15.4,44.4z"/>
	<path class="st5" d="M24.1,38.7l1.3,0.6c0.2,1.1-0.2,2-0.8,3.2s-1.4,1.7-2.4,2c-0.9,0.3-1.9,0.2-2.8-0.3c-0.9-0.5-1.6-1.3-1.7-2.2
		c-0.3-0.9-0.2-1.9,0.5-2.8c0.5-0.9,1.3-1.6,2.4-1.7c0.9-0.2,2.1,0,3,0.6L21,42.5c0.6,0.3,1.1,0.3,1.6,0.2s0.9-0.6,1.3-1.1
		C24.1,40.8,24.3,39.8,24.1,38.7z M19.9,41.9l1.6-2.7c-0.9-0.5-1.6-0.2-2.1,0.5C18.8,40.5,18.9,41.3,19.9,41.9z"/>
	<path class="st5" d="M22.7,32.6l0.8,0.6c-0.2-0.9,0-1.9,0.6-2.5c0.5-0.6,1.1-0.9,1.7-0.9c0.6,0,1.4,0.2,2.1,0.8l3.5,2.8L30,35.1
		l-3.3-2.8c-0.8-0.6-1.3-0.6-1.7,0c-0.3,0.5-0.3,1.1-0.2,1.9l3.5,3l-1.6,1.7l-5.4-4.6L22.7,32.6z"/>
	<path class="st5" d="M31.6,23.8l0.9,1.1l-1.9,1.7l1.9,2.2c0.2,0.3,0.5,0.5,0.8,0.5s0.5,0,0.8-0.3c0.3-0.3,0.6-0.8,0.8-1.3L36,29
		c-0.3,0.6-0.8,1.3-1.3,1.7c-0.6,0.6-1.3,0.8-1.9,0.8c-0.6,0-1.3-0.3-1.9-0.9l-2.1-2.2L28.1,29l-0.2-0.5v-4.4l0.2-0.2l1.4,1.7
		L31.6,23.8z"/>
</g>
<ellipse class="st8" cx="67.7" cy="67.8" rx="40.9" ry="40.8"/>
<polygon class="st8" points="66.6,28.2 32.8,86.8 100.6,86.8 "/>
<image style="overflow:visible;enable-background:new    ;" width="261" height="242" xlink:href="6D0E25AB.png"  transform="matrix(0.1759 0 0 0.1757 43.4573 46.4193)">
</image>
</svg>
