<?xml version="1.0" encoding="utf-8"?>
<!-- Generator: Adobe Illustrator 21.0.0, SVG Export Plug-In . SVG Version: 6.00 Build 0)  -->
<svg version="1.1" id="Layer_1" xmlns="http://www.w3.org/2000/svg" xmlns:xlink="http://www.w3.org/1999/xlink" x="0px" y="0px"
	 viewBox="0 0 290 105" style="enable-background:new 0 0 290 105;" xml:space="preserve">
<style type="text/css">
	.st0{fill:none;}
	.st1{fill:#FFCD05;}
	.st2{fill:#FF66FF;}
	.st3{fill:#00FFFF;}
	.st4{fill:#FF6666;}
	.st5{fill:#66FF66;}
	.st6{fill:#BE84FF;}
	.st7{fill: gray;}
	.st8{fill:none;stroke:gray;stroke-miterlimit:10;}
</style>
<g>
	<rect x="95.3" y="35.4" class="st0" width="139" height="13.5"/>
	<path class="st1" d="M103.9,45.6l-0.5-1.4h-4.7l-0.5,1.4c-0.2,0.5-0.4,1-0.5,1.2c-0.1,0.2-0.4,0.3-0.8,0.3c-0.3,0-0.5-0.1-0.8-0.3
		c-0.2-0.2-0.3-0.4-0.3-0.8c0-0.1,0-0.3,0.1-0.4c0-0.2,0.1-0.4,0.2-0.7l2.9-7.4c0.1-0.2,0.2-0.4,0.3-0.8c0.1-0.3,0.2-0.5,0.3-0.8
		c0.1-0.2,0.3-0.3,0.5-0.4c0.2-0.1,0.4-0.2,0.8-0.2c0.3,0,0.5,0.1,0.8,0.2c0.2,0.1,0.4,0.3,0.5,0.4c0.1,0.2,0.2,0.4,0.3,0.7
		c0.1,0.2,0.2,0.5,0.3,0.9l2.9,7.4c0.2,0.5,0.3,1,0.3,1.2s-0.1,0.5-0.3,0.8c-0.2,0.2-0.4,0.3-0.8,0.3c-0.2,0-0.3,0-0.4-0.1
		c-0.1-0.1-0.2-0.1-0.3-0.2c-0.1-0.1-0.2-0.3-0.3-0.5C104,46,103.9,45.8,103.9,45.6z M99.3,42.4h3.4l-1.7-4.7L99.3,42.4z"/>
	<path class="st2" d="M110.3,36.8V45h4.7c0.3,0,0.7,0.1,0.9,0.3c0.2,0.2,0.3,0.4,0.3,0.7c0,0.3-0.1,0.5-0.3,0.7
		c-0.2,0.2-0.4,0.2-0.9,0.2h-5.5c-0.5,0-0.9-0.1-1.1-0.3c-0.2-0.2-0.3-0.5-0.3-1.1v-8.8c0-0.4,0.1-0.9,0.3-1.1
		c0.2-0.2,0.4-0.3,0.9-0.3c0.3,0,0.7,0.1,0.9,0.3C110.2,35.9,110.3,36.3,110.3,36.8z"/>
	<path class="st3" d="M126.5,43.3c0,0.3-0.1,0.8-0.2,1.2c-0.1,0.4-0.4,0.9-0.9,1.2s-0.9,0.8-1.4,1c-0.5,0.2-1.3,0.3-2.1,0.3
		c-0.7,0-1.2-0.1-1.6-0.2c-0.4-0.1-1-0.3-1.3-0.5c-0.4-0.2-0.8-0.5-1.1-1c-0.3-0.3-0.5-0.8-0.8-1.2c-0.2-0.4-0.3-0.9-0.4-1.4
		c-0.1-0.5-0.1-1.1-0.1-1.6c0-0.9,0.1-1.7,0.4-2.5s0.7-1.3,1.2-1.8c0.5-0.5,1.1-0.9,1.7-1.2c0.7-0.2,1.4-0.4,2.2-0.4
		c0.9,0,1.7,0.2,2.5,0.5c0.8,0.3,1.3,0.9,1.6,1.4c0.3,0.5,0.5,1.1,0.5,1.5c0,0.2-0.1,0.5-0.3,0.7c-0.2,0.2-0.4,0.3-0.7,0.3
		c-0.3,0-0.5-0.1-0.7-0.2c-0.1-0.1-0.3-0.3-0.5-0.8c-0.3-0.5-0.7-1-1.1-1.3c-0.4-0.3-0.9-0.4-1.5-0.4c-1,0-1.7,0.3-2.3,1.1
		c-0.5,0.8-0.9,1.7-0.9,3c0,0.9,0.1,1.6,0.3,2.2c0.2,0.5,0.7,1,1.1,1.3c0.4,0.3,1,0.4,1.6,0.4c0.7,0,1.2-0.2,1.6-0.5
		c0.4-0.3,0.8-0.8,1.1-1.4c0.1-0.3,0.2-0.5,0.3-0.8c0.1-0.2,0.3-0.3,0.7-0.3c0.3,0,0.5,0.1,0.7,0.3C126.4,42.8,126.5,43,126.5,43.3z
		"/>
	<path class="st4" d="M130.9,36.8V40h5v-3.3c0-0.4,0.1-0.9,0.3-1.1c0.2-0.2,0.4-0.3,0.9-0.3c0.3,0,0.7,0.1,0.9,0.3
		c0.2,0.2,0.3,0.5,0.3,1.1v8.9c0,0.4-0.1,0.9-0.3,1.1c-0.2,0.2-0.5,0.3-0.9,0.3s-0.7-0.1-0.9-0.3c-0.2-0.2-0.3-0.5-0.3-1.1v-3.8h-5
		v3.8c0,0.4-0.1,0.9-0.3,1.1c-0.2,0.2-0.5,0.3-0.9,0.3c-0.3,0-0.7-0.1-0.9-0.3c-0.2-0.2-0.3-0.5-0.3-1.1v-8.9c0-0.4,0.1-0.9,0.3-1.1
		c0.2-0.2,0.4-0.3,0.9-0.3c0.3,0,0.7,0.1,0.9,0.3C130.7,35.9,130.9,36.3,130.9,36.8z"/>
	<path class="st5" d="M148.1,37.3h-5.2v2.8h4.8c0.3,0,0.7,0.1,0.8,0.2c0.2,0.1,0.2,0.3,0.2,0.7s-0.1,0.4-0.2,0.7
		c-0.2,0.2-0.4,0.2-0.8,0.2h-4.8v3.3h5.3c0.3,0,0.7,0.1,0.9,0.2c0.2,0.1,0.3,0.4,0.3,0.7s-0.1,0.4-0.3,0.7c-0.2,0.2-0.4,0.2-0.9,0.2
		h-6.3c-0.5,0-0.9-0.1-1.1-0.3c-0.2-0.2-0.3-0.5-0.3-1.1v-8.6c0-0.3,0-0.7,0.1-0.8c0.1-0.2,0.2-0.3,0.4-0.4c0.2-0.1,0.4-0.1,0.8-0.1
		h6.1c0.3,0,0.7,0.1,0.9,0.2c0.2,0.2,0.2,0.3,0.2,0.7c0,0.2-0.1,0.4-0.2,0.7C148.8,37.2,148.5,37.3,148.1,37.3z"/>
	<path class="st6" d="M155.1,45.1l-1.8-7.3v7.8c0,0.4-0.1,0.8-0.3,1c-0.2,0.2-0.4,0.3-0.8,0.3c-0.3,0-0.5-0.1-0.8-0.3
		c-0.2-0.2-0.3-0.5-0.3-1v-9c0-0.5,0.1-0.9,0.4-1c0.3-0.1,0.7-0.2,1.1-0.2h0.8c0.4,0,0.8,0,1,0.1c0.2,0.1,0.3,0.2,0.4,0.4
		c0.1,0.2,0.2,0.5,0.3,1l1.6,6.2l1.6-6.2c0.1-0.4,0.2-0.8,0.3-1c0.1-0.2,0.2-0.3,0.4-0.4c0.2-0.1,0.5-0.1,1-0.1h0.8
		c0.4,0,0.8,0.1,1.1,0.2c0.2,0.2,0.4,0.5,0.4,1v9c0,0.4-0.1,0.8-0.3,1c-0.2,0.2-0.4,0.3-0.8,0.3s-0.5-0.1-0.8-0.3
		c-0.2-0.2-0.3-0.5-0.3-1v-7.8l-1.8,7.3c-0.1,0.4-0.2,0.9-0.3,1.1c-0.1,0.2-0.2,0.4-0.4,0.7c-0.2,0.2-0.4,0.3-0.9,0.3
		c-0.2,0-0.5-0.1-0.7-0.2c-0.2-0.1-0.3-0.2-0.4-0.4c-0.1-0.2-0.2-0.4-0.2-0.7C155.2,45.7,155.1,45.5,155.1,45.1z"/>
</g>
<g>
	<path class="st1" d="M98.9,60.2h0.7l3,6.7h-1l-0.9-2h-2.8l-0.9,2h-1L98.9,60.2z M100.3,64l-1.1-2.4l-1,2.4H100.3z"/>
	<path class="st7" d="M104.1,62.5v1v-0.1c0.4-0.7,0.9-1,1.3-1c0.3,0,0.7,0.2,1,0.5l-0.4,0.8c-0.3-0.3-0.5-0.4-0.9-0.4
		c-0.3,0-0.5,0.1-0.8,0.4c-0.2,0.2-0.3,0.5-0.3,1v2.3h-0.9v-4.3h1V62.5z"/>
	<path class="st7" d="M110.1,65.9v0.9c-0.4,0.2-0.9,0.2-1.3,0.2c-0.7,0-1.2-0.2-1.6-0.7c-0.4-0.4-0.7-1-0.7-1.6
		c0-0.7,0.2-1.2,0.5-1.6c0.3-0.4,0.9-0.7,1.5-0.7c0.2,0,0.4,0,0.7,0.1c0.2,0,0.4,0.1,0.7,0.2v1c-0.4-0.3-0.9-0.4-1.2-0.4
		c-0.4,0-0.8,0.1-1,0.4c-0.2,0.3-0.3,0.7-0.3,1.1c0,0.4,0.1,0.8,0.4,1.1c0.3,0.2,0.7,0.4,1.1,0.4C109.2,66.2,109.7,66.1,110.1,65.9z
		"/>
	<path class="st7" d="M111.1,60.2h0.9V63c0.3-0.4,0.8-0.7,1.3-0.7c0.3,0,0.5,0.1,0.8,0.2c0.2,0.1,0.4,0.3,0.5,0.7
		c0.1,0.2,0.2,0.7,0.2,1.2v2.5h-0.9v-2.7c0-0.3-0.1-0.5-0.2-0.8c-0.1-0.2-0.3-0.3-0.7-0.3c-0.2,0-0.3,0-0.5,0.1
		c-0.2,0.1-0.3,0.2-0.5,0.5v3.1h-0.9V60.2z"/>
	<path class="st7" d="M116.4,60.7c0.1,0,0.2,0,0.3,0.1c0.1,0.1,0.1,0.2,0.1,0.3s0,0.2-0.1,0.3c-0.1,0.1-0.2,0.1-0.3,0.1
		c-0.1,0-0.2,0-0.3-0.1c-0.1-0.1-0.1-0.2-0.1-0.3s0-0.2,0.1-0.3C116.2,60.7,116.3,60.7,116.4,60.7z M116,62.5h0.9v4.3H116V62.5z"/>
	<path class="st7" d="M117.5,63.2l1.6-1.6v0.9h1.4v0.8h-1.4v2.2c0,0.5,0.2,0.8,0.7,0.8c0.3,0,0.7-0.1,1-0.3v0.8
		c-0.3,0.2-0.7,0.3-1.1,0.3c-0.4,0-0.8-0.1-1-0.3c-0.1-0.1-0.1-0.1-0.2-0.2c0-0.1-0.1-0.2-0.1-0.3c0-0.1-0.1-0.4-0.1-0.8v-2
		L117.5,63.2L117.5,63.2z"/>
	<path class="st7" d="M125.1,64.8h-3c0,0.4,0.1,0.8,0.4,1s0.5,0.3,1,0.3c0.5,0,1.1-0.2,1.6-0.5v0.9c-0.2,0.2-0.5,0.3-0.8,0.4
		c-0.2,0.1-0.5,0.1-1,0.1c-0.4,0-0.9-0.1-1.2-0.3c-0.3-0.2-0.5-0.4-0.8-0.8c-0.2-0.3-0.2-0.8-0.2-1.2c0-0.7,0.2-1.2,0.5-1.6
		s0.9-0.7,1.5-0.7c0.5,0,1.1,0.2,1.4,0.7s0.5,1,0.5,1.6v0.1H125.1z M122.1,64.2h2.2c0-0.3-0.1-0.7-0.3-0.8c-0.2-0.1-0.4-0.3-0.8-0.3
		c-0.3,0-0.5,0.1-0.8,0.3C122.3,63.7,122.1,63.9,122.1,64.2z"/>
	<path class="st7" d="M129.3,65.9v0.9c-0.4,0.2-0.9,0.2-1.3,0.2c-0.7,0-1.2-0.2-1.6-0.7s-0.7-1-0.7-1.6c0-0.7,0.2-1.2,0.5-1.6
		c0.3-0.4,0.9-0.7,1.5-0.7c0.2,0,0.4,0,0.7,0.1c0.2,0,0.4,0.1,0.7,0.2v1c-0.4-0.3-0.9-0.4-1.2-0.4c-0.4,0-0.8,0.1-1,0.4
		c-0.2,0.3-0.3,0.7-0.3,1.1c0,0.4,0.1,0.8,0.4,1.1c0.3,0.2,0.7,0.4,1.1,0.4C128.6,66.2,128.9,66.1,129.3,65.9z"/>
	<path class="st7" d="M129.8,63.2l1.6-1.6v0.9h1.4v0.8h-1.4v2.2c0,0.5,0.2,0.8,0.7,0.8c0.3,0,0.7-0.1,1-0.3v0.8
		c-0.3,0.2-0.7,0.3-1.1,0.3c-0.4,0-0.8-0.1-1-0.3c-0.1-0.1-0.1-0.1-0.2-0.2c0-0.1-0.1-0.2-0.1-0.3c0-0.1-0.1-0.4-0.1-0.8v-2
		L129.8,63.2L129.8,63.2z"/>
	<path class="st7" d="M136.4,66.8v-0.5c-0.2,0.2-0.4,0.3-0.7,0.4c-0.2,0.1-0.4,0.2-0.8,0.2c-0.3,0-0.5-0.1-0.8-0.2
		c-0.2-0.1-0.4-0.3-0.5-0.5c-0.1-0.2-0.2-0.7-0.2-1.2v-2.5h0.9V65c0,0.4,0.1,0.8,0.2,1c0.1,0.2,0.3,0.3,0.7,0.3
		c0.4,0,0.8-0.2,1.1-0.7v-3.1h0.9v4.3L136.4,66.8z"/>
	<path class="st7" d="M139.4,62.5v1v-0.1c0.4-0.7,0.9-1,1.3-1c0.3,0,0.7,0.2,1,0.5l-0.4,0.8c-0.3-0.3-0.5-0.4-0.9-0.4
		s-0.5,0.1-0.8,0.4c-0.2,0.2-0.3,0.5-0.3,1v2.3h-0.9v-4.3h1L139.4,62.5L139.4,62.5z"/>
	<path class="st7" d="M145.9,64.8h-3c0,0.4,0.1,0.8,0.4,1c0.3,0.2,0.5,0.3,1,0.3c0.5,0,1.1-0.2,1.6-0.5v0.9
		c-0.2,0.2-0.5,0.3-0.8,0.4c-0.2,0.1-0.5,0.1-1,0.1c-0.4,0-0.9-0.1-1.2-0.3c-0.3-0.2-0.5-0.4-0.8-0.8c-0.2-0.3-0.2-0.8-0.2-1.2
		c0-0.7,0.2-1.2,0.5-1.6s0.9-0.7,1.5-0.7c0.5,0,1.1,0.2,1.4,0.7S146,64,145.9,64.8L145.9,64.8L145.9,64.8z M142.8,64.2h2.2
		c0-0.3-0.1-0.7-0.3-0.8c-0.2-0.1-0.4-0.3-0.8-0.3s-0.5,0.1-0.8,0.3C143,63.7,142.9,63.9,142.8,64.2z"/>
	<path class="st2" d="M149.7,60.2h1V66h3v0.9h-3.9L149.7,60.2L149.7,60.2z"/>
	<path class="st7" d="M157.2,64.2v1.8c0,0.1,0,0.2,0.1,0.2s0.2-0.1,0.5-0.2v0.5c-0.2,0.1-0.3,0.2-0.4,0.2s-0.2,0.1-0.3,0.1
		c-0.3,0-0.5-0.1-0.7-0.4c-0.3,0.3-0.8,0.4-1.2,0.4c-0.3,0-0.5-0.1-0.8-0.3c-0.2-0.2-0.3-0.4-0.3-0.8c0-0.3,0.1-0.5,0.3-0.8
		c0.2-0.2,0.4-0.4,0.9-0.5l1.1-0.4v-0.2c0-0.5-0.2-0.8-0.8-0.8c-0.4,0-1,0.2-1.4,0.8v-1c0.3-0.4,0.9-0.5,1.4-0.5
		c0.4,0,0.9,0.1,1.2,0.3c0.1,0.1,0.2,0.2,0.2,0.3c0.1,0.1,0.1,0.2,0.1,0.4C157.2,63.6,157.2,63.9,157.2,64.2z M156.3,66v-1.3
		l-0.5,0.2c-0.3,0.1-0.5,0.2-0.7,0.3c-0.1,0.1-0.2,0.2-0.2,0.4s0.1,0.3,0.2,0.4s0.2,0.2,0.4,0.2C155.7,66.4,156.1,66.3,156.3,66z"/>
	<path class="st7" d="M158.5,60.2h0.9v2.6c0.3-0.3,0.8-0.4,1.2-0.4c0.5,0,1,0.2,1.4,0.7s0.5,1,0.5,1.6c0,0.8-0.2,1.3-0.7,1.7
		c-0.4,0.4-1,0.7-1.7,0.7c-0.3,0-0.5,0-0.9-0.1c-0.3-0.1-0.5-0.1-0.8-0.2V60.2z M159.3,63.7v2.4c0.3,0.1,0.7,0.1,0.9,0.1
		c0.4,0,0.7-0.1,1-0.4c0.2-0.3,0.3-0.7,0.3-1.1c0-0.4-0.1-0.8-0.3-1.1c-0.2-0.3-0.5-0.4-0.9-0.4C160,63.3,159.7,63.4,159.3,63.7z"/>
	<path class="st7" d="M166.3,62.5v-0.2c0-0.8,0.1-1.2,0.4-1.6c0.3-0.3,0.7-0.5,1.1-0.5c0.2,0,0.4,0,0.7,0.1v0.9
		c-0.1,0-0.3-0.1-0.4-0.1c-0.3,0-0.5,0.1-0.8,0.3c-0.1,0.2-0.2,0.5-0.2,1v0.2h0.8v0.8H167v3.6h-0.9v-3.6h-0.7v-0.8H166.3z"/>
	<path class="st7" d="M170.6,62.5c0.7,0,1.2,0.2,1.6,0.7c0.4,0.4,0.7,1,0.7,1.6s-0.2,1.2-0.7,1.6c-0.4,0.4-1,0.7-1.7,0.7
		c-0.7,0-1.2-0.2-1.6-0.7c-0.4-0.4-0.7-1-0.7-1.6s0.2-1.2,0.7-1.6C169.3,62.7,169.9,62.5,170.6,62.5z M170.5,63.3
		c-0.4,0-0.8,0.1-1,0.4c-0.2,0.3-0.4,0.7-0.4,1.1c0,0.4,0.1,0.8,0.4,1c0.3,0.2,0.7,0.4,1.1,0.4c0.4,0,0.8-0.1,1.1-0.4
		c0.3-0.2,0.4-0.7,0.4-1.1c0-0.4-0.1-0.8-0.4-1.1C171.4,63.3,171,63.3,170.5,63.3z"/>
	<path class="st7" d="M174.9,62.5v1v-0.1c0.4-0.7,0.9-1,1.3-1c0.3,0,0.7,0.2,1,0.5l-0.4,0.8c-0.3-0.3-0.5-0.4-0.9-0.4
		s-0.5,0.1-0.8,0.4c-0.2,0.2-0.3,0.5-0.3,1v2.3h-0.9v-4.3h1L174.9,62.5L174.9,62.5z"/>
	<path class="st3" d="M186.4,65.3v1.1c-0.7,0.4-1.5,0.5-2.4,0.5c-0.8,0-1.4-0.1-1.8-0.4s-1-0.8-1.2-1.2c-0.3-0.5-0.4-1.1-0.4-1.7
		c0-1,0.3-1.7,1.1-2.5c0.7-0.7,1.5-1,2.6-1c0.7,0,1.5,0.2,2.3,0.5v1c-0.8-0.4-1.5-0.7-2.3-0.7c-0.8,0-1.4,0.2-2,0.8
		c-0.5,0.4-0.8,1.1-0.8,1.8s0.2,1.3,0.8,1.8s1.1,0.8,2,0.8C184.7,66.1,185.6,65.9,186.4,65.3z"/>
	<path class="st7" d="M188.3,62.5v1v-0.1c0.4-0.7,0.9-1,1.3-1c0.3,0,0.7,0.2,1,0.5l-0.4,0.8c-0.3-0.3-0.5-0.4-0.9-0.4
		c-0.3,0-0.5,0.1-0.8,0.4c-0.2,0.2-0.3,0.5-0.3,1v2.3h-0.9v-4.3h1L188.3,62.5L188.3,62.5z"/>
	<path class="st7" d="M194.9,64.8h-3c0,0.4,0.1,0.8,0.4,1c0.3,0.2,0.5,0.3,1,0.3c0.5,0,1.1-0.2,1.6-0.5v0.9
		c-0.2,0.2-0.5,0.3-0.8,0.4s-0.5,0.1-1,0.1s-0.9-0.1-1.2-0.3c-0.3-0.2-0.5-0.4-0.8-0.8c-0.2-0.3-0.2-0.8-0.2-1.2
		c0-0.7,0.2-1.2,0.5-1.6c0.3-0.4,0.9-0.7,1.5-0.7c0.5,0,1.1,0.2,1.4,0.7C194.7,63.5,195,64,194.9,64.8L194.9,64.8L194.9,64.8z
		 M191.7,64.2h2.2c0-0.3-0.1-0.7-0.3-0.8c-0.2-0.1-0.4-0.3-0.8-0.3c-0.3,0-0.5,0.1-0.8,0.3C191.9,63.7,191.8,63.9,191.7,64.2z"/>
	<path class="st7" d="M198.5,64.2v1.8c0,0.1,0,0.2,0.1,0.2c0.1,0,0.2-0.1,0.5-0.2v0.5c-0.2,0.1-0.3,0.2-0.4,0.2
		c-0.1,0-0.2,0.1-0.3,0.1c-0.3,0-0.5-0.1-0.7-0.4c-0.3,0.3-0.8,0.4-1.2,0.4c-0.3,0-0.5-0.1-0.8-0.3c-0.2-0.2-0.3-0.4-0.3-0.8
		c0-0.3,0.1-0.5,0.3-0.8c0.2-0.2,0.4-0.4,0.9-0.5l1.1-0.4v-0.2c0-0.5-0.2-0.8-0.8-0.8c-0.4,0-1,0.2-1.4,0.8v-1
		c0.3-0.4,0.9-0.5,1.4-0.5c0.4,0,0.9,0.1,1.2,0.3c0.1,0.1,0.2,0.2,0.2,0.3c0.1,0.1,0.1,0.2,0.1,0.4
		C198.5,63.6,198.5,63.9,198.5,64.2z M197.7,66v-1.3l-0.5,0.2c-0.3,0.1-0.5,0.2-0.7,0.3c-0.1,0.1-0.2,0.2-0.2,0.4s0.1,0.3,0.2,0.4
		s0.2,0.2,0.4,0.2C197.1,66.4,197.5,66.3,197.7,66z"/>
	<path class="st7" d="M199.3,63.2l1.6-1.6v0.9h1.4v0.8h-1.4v2.2c0,0.5,0.2,0.8,0.7,0.8c0.3,0,0.7-0.1,1-0.3v0.8
		c-0.3,0.2-0.7,0.3-1.1,0.3s-0.8-0.1-1-0.3c-0.1-0.1-0.1-0.1-0.2-0.2c0-0.1-0.1-0.2-0.1-0.3c0-0.1-0.1-0.4-0.1-0.8v-2L199.3,63.2
		L199.3,63.2z"/>
	<path class="st7" d="M203.7,60.7c0.1,0,0.2,0,0.3,0.1s0.1,0.2,0.1,0.3s0,0.2-0.1,0.3c-0.1,0.1-0.2,0.1-0.3,0.1
		c-0.1,0-0.2,0-0.3-0.1c-0.1-0.1-0.1-0.2-0.1-0.3s0-0.2,0.1-0.3C203.3,60.7,203.5,60.7,203.7,60.7z M203.2,62.5h0.9v4.3h-0.9V62.5z"
		/>
	<path class="st7" d="M208,62.5h1l-2,4.4h-0.3l-2-4.4h1l1.2,2.7L208,62.5z"/>
	<path class="st7" d="M213.1,64.8h-3c0,0.4,0.1,0.8,0.4,1c0.3,0.2,0.5,0.3,1,0.3c0.5,0,1.1-0.2,1.6-0.5v0.9
		c-0.2,0.2-0.5,0.3-0.8,0.4c-0.2,0.1-0.5,0.1-1,0.1s-0.9-0.1-1.2-0.3c-0.3-0.2-0.5-0.4-0.8-0.8c-0.2-0.3-0.2-0.8-0.2-1.2
		c0-0.7,0.2-1.2,0.5-1.6s0.9-0.7,1.5-0.7c0.5,0,1.1,0.2,1.4,0.7C213,63.5,213.2,64,213.1,64.8L213.1,64.8L213.1,64.8z M210.1,64.2
		h2.2c0-0.3-0.1-0.7-0.3-0.8c-0.2-0.1-0.4-0.3-0.8-0.3c-0.3,0-0.5,0.1-0.8,0.3C210.3,63.7,210.2,63.9,210.1,64.2z"/>
	<path class="st4" d="M221.7,60.2h1v6.6h-1v-2.9H218v2.9h-1v-6.6h1v2.9h3.7V60.2z"/>
	<path class="st7" d="M224.4,60.7c0.1,0,0.2,0,0.3,0.1c0.1,0.1,0.1,0.2,0.1,0.3s0,0.2-0.1,0.3c-0.1,0.1-0.2,0.1-0.3,0.1
		c-0.1,0-0.2,0-0.3-0.1c-0.1-0.1-0.1-0.2-0.1-0.3s0-0.2,0.1-0.3S224.3,60.7,224.4,60.7z M224,62.5h0.9v4.3H224V62.5z"/>
	<path class="st7" d="M225.8,64c0-0.4,0.2-0.9,0.5-1.1c0.3-0.3,0.8-0.4,1.4-0.4h1.8v0.7h-0.9c0.2,0.2,0.3,0.3,0.3,0.4
		c0,0.1,0.1,0.3,0.1,0.5s-0.1,0.4-0.2,0.7c-0.1,0.2-0.3,0.4-0.5,0.5c-0.2,0.1-0.5,0.2-1,0.3c-0.3,0-0.5,0.1-0.5,0.3
		c0,0.1,0.1,0.2,0.2,0.2c0.1,0.1,0.3,0.1,0.7,0.2c0.5,0.1,0.9,0.2,1.1,0.3c0.2,0.1,0.3,0.1,0.4,0.3c0.2,0.2,0.3,0.4,0.3,0.8
		c0,0.4-0.2,0.8-0.5,1c-0.3,0.2-0.9,0.3-1.5,0.3s-1.1-0.1-1.5-0.3c-0.3-0.2-0.5-0.5-0.5-1c0-0.5,0.3-1,1.1-1.2
		c-0.3-0.2-0.4-0.3-0.4-0.5c0-0.1,0.1-0.2,0.2-0.4c0.1-0.2,0.3-0.2,0.5-0.2C226.1,65.1,225.8,64.7,225.8,64z M227.3,67.1
		c-0.3,0-0.5,0.1-0.8,0.2c-0.2,0.1-0.3,0.3-0.3,0.4c0,0.4,0.4,0.7,1.2,0.7c0.4,0,0.7-0.1,0.9-0.2c0.2-0.1,0.3-0.3,0.3-0.4
		c0-0.2-0.1-0.3-0.4-0.5C228.1,67.2,227.7,67.1,227.3,67.1z M227.5,63.3c-0.2,0-0.4,0.1-0.7,0.2c-0.2,0.1-0.2,0.3-0.2,0.5
		s0.1,0.4,0.2,0.5s0.3,0.2,0.7,0.2c0.2,0,0.4-0.1,0.7-0.2s0.2-0.3,0.2-0.5s-0.1-0.4-0.2-0.5C228,63.4,227.8,63.3,227.5,63.3z"/>
	<path class="st7" d="M230.3,60.2h0.9V63c0.3-0.4,0.8-0.7,1.3-0.7c0.3,0,0.5,0.1,0.8,0.2c0.2,0.1,0.4,0.3,0.5,0.7
		c0.1,0.2,0.2,0.7,0.2,1.2v2.5h-0.9v-2.7c0-0.3-0.1-0.5-0.2-0.8c-0.1-0.2-0.3-0.3-0.7-0.3c-0.2,0-0.3,0-0.5,0.1
		c-0.2,0.1-0.3,0.2-0.5,0.5v3.1h-0.9L230.3,60.2L230.3,60.2z"/>
	<path class="st7" d="M234.9,64.2h2.4v1h-2.4V64.2z"/>
	<path class="st7" d="M238.2,69.1v-6.6h1.5c0.8,0,1.4,0.2,1.8,0.5c0.4,0.3,0.7,1,0.7,1.6s-0.2,1.2-0.7,1.6c-0.4,0.4-1,0.7-1.5,0.7
		c-0.3,0-0.5-0.1-1-0.2v2.4H238.2z M239.7,63.3h-0.7V66c0.2,0.1,0.5,0.2,0.9,0.2c0.4,0,0.8-0.1,1-0.4c0.2-0.3,0.4-0.7,0.4-1.1
		c0-0.3-0.1-0.5-0.2-0.8c-0.1-0.2-0.3-0.3-0.5-0.4C240.5,63.4,240.2,63.3,239.7,63.3z"/>
	<path class="st7" d="M246.9,64.8h-3c0,0.4,0.1,0.8,0.4,1c0.3,0.2,0.5,0.3,1,0.3c0.5,0,1.1-0.2,1.6-0.5v0.9
		c-0.2,0.2-0.5,0.3-0.8,0.4c-0.2,0.1-0.5,0.1-1,0.1s-0.9-0.1-1.2-0.3c-0.3-0.2-0.5-0.4-0.8-0.8c-0.2-0.3-0.2-0.8-0.2-1.2
		c0-0.7,0.2-1.2,0.5-1.6c0.3-0.4,0.9-0.7,1.5-0.7c0.5,0,1.1,0.2,1.4,0.7C246.8,63.5,247,64,246.9,64.8L246.9,64.8L246.9,64.8z
		 M243.9,64.2h2.2c0-0.3-0.1-0.7-0.3-0.8c-0.2-0.1-0.4-0.3-0.8-0.3c-0.3,0-0.5,0.1-0.8,0.3C244.1,63.7,244,63.9,243.9,64.2z"/>
	<path class="st7" d="M248.9,62.5v1v-0.1c0.4-0.7,0.9-1,1.3-1c0.3,0,0.7,0.2,1,0.5l-0.4,0.8c-0.3-0.3-0.5-0.4-0.9-0.4
		c-0.3,0-0.5,0.1-0.8,0.4c-0.2,0.2-0.3,0.5-0.3,1v2.3H248v-4.3h0.9V62.5z"/>
	<path class="st7" d="M251.9,62.5v-0.2c0-0.8,0.1-1.2,0.4-1.6c0.3-0.3,0.7-0.5,1.1-0.5c0.2,0,0.4,0,0.7,0.1v0.9
		c-0.1,0-0.3-0.1-0.4-0.1c-0.3,0-0.5,0.1-0.8,0.3c-0.1,0.2-0.2,0.5-0.2,1v0.2h0.8v0.8h-0.8v3.6h-0.9v-3.6h-0.5v-0.8H251.9z"/>
	<path class="st7" d="M256.2,62.5c0.7,0,1.2,0.2,1.6,0.7c0.4,0.4,0.7,1,0.7,1.6s-0.2,1.2-0.7,1.6c-0.4,0.4-1,0.7-1.7,0.7
		c-0.7,0-1.2-0.2-1.6-0.7c-0.4-0.4-0.7-1-0.7-1.6s0.2-1.2,0.7-1.6C254.9,62.7,255.5,62.5,256.2,62.5z M256.1,63.3
		c-0.4,0-0.8,0.1-1,0.4c-0.2,0.3-0.4,0.7-0.4,1.1c0,0.4,0.1,0.8,0.4,1c0.3,0.2,0.7,0.4,1.1,0.4c0.4,0,0.8-0.1,1.1-0.4
		c0.3-0.2,0.4-0.7,0.4-1.1c0-0.4-0.1-0.8-0.4-1.1C257,63.3,256.6,63.3,256.1,63.3z"/>
	<path class="st7" d="M260.5,62.5v1v-0.1c0.4-0.7,0.9-1,1.3-1c0.3,0,0.7,0.2,1,0.5l-0.4,0.8c-0.3-0.3-0.5-0.4-0.9-0.4
		s-0.5,0.1-0.8,0.4c-0.2,0.2-0.3,0.5-0.3,1v2.3h-0.9v-4.3h1L260.5,62.5L260.5,62.5z"/>
	<path class="st7" d="M267,63.7v3.1h-0.9v-2.4c0-0.4-0.1-0.9-0.2-1c-0.1-0.2-0.3-0.3-0.7-0.3c-0.2,0-0.3,0-0.5,0.1
		c-0.1,0.1-0.3,0.2-0.5,0.4v3.1h-0.9v-4.3h0.9V63c0.4-0.4,0.9-0.7,1.3-0.7c0.5,0,1,0.2,1.3,0.8c0.4-0.5,1-0.8,1.4-0.8
		s0.8,0.1,1.1,0.4c0.3,0.3,0.4,0.8,0.4,1.4v2.6h-0.9v-2.6c0-0.3-0.1-0.7-0.2-0.9c-0.1-0.2-0.3-0.3-0.7-0.3
		C267.7,63.2,267.3,63.4,267,63.7z"/>
	<path class="st7" d="M273.6,64.2v1.8c0,0.1,0,0.2,0.1,0.2s0.2-0.1,0.5-0.2v0.5c-0.2,0.1-0.3,0.2-0.4,0.2c-0.1,0-0.2,0.1-0.3,0.1
		c-0.3,0-0.5-0.1-0.7-0.4c-0.3,0.3-0.8,0.4-1.2,0.4c-0.3,0-0.5-0.1-0.8-0.3c-0.2-0.2-0.3-0.4-0.3-0.8c0-0.3,0.1-0.5,0.3-0.8
		c0.2-0.2,0.4-0.4,0.9-0.5l1.1-0.4v-0.2c0-0.5-0.2-0.8-0.8-0.8c-0.4,0-1,0.2-1.4,0.8v-1c0.3-0.4,0.9-0.5,1.4-0.5
		c0.4,0,0.9,0.1,1.2,0.3c0.1,0.1,0.2,0.2,0.2,0.3c0.1,0.1,0.1,0.2,0.1,0.4C273.6,63.6,273.6,63.9,273.6,64.2z M272.9,66v-1.3
		l-0.5,0.2c-0.3,0.1-0.5,0.2-0.7,0.3c-0.1,0.1-0.2,0.2-0.2,0.4s0.1,0.3,0.2,0.4s0.2,0.2,0.4,0.2C272.3,66.4,272.5,66.3,272.9,66z"/>
	<path class="st7" d="M275.9,62.5V63c0.4-0.4,0.9-0.7,1.3-0.7c0.3,0,0.5,0.1,0.8,0.2s0.4,0.3,0.5,0.5c0.1,0.2,0.2,0.7,0.2,1.2v2.5
		h-0.9v-2.5c0-0.4-0.1-0.8-0.2-1c-0.1-0.2-0.3-0.3-0.7-0.3c-0.4,0-0.8,0.2-1.1,0.7v3.1H275v-4.3H275.9z"/>
	<path class="st7" d="M283.3,65.9v0.9c-0.4,0.2-0.9,0.2-1.3,0.2c-0.7,0-1.2-0.2-1.6-0.7c-0.4-0.4-0.7-1-0.7-1.6
		c0-0.7,0.2-1.2,0.5-1.6c0.3-0.4,0.9-0.7,1.5-0.7c0.2,0,0.4,0,0.7,0.1c0.2,0,0.4,0.1,0.7,0.2v1c-0.4-0.3-0.9-0.4-1.2-0.4
		c-0.4,0-0.8,0.1-1,0.4c-0.2,0.3-0.3,0.7-0.3,1.1c0,0.4,0.1,0.8,0.4,1.1c0.3,0.2,0.7,0.4,1.1,0.4C282.4,66.2,282.9,66.1,283.3,65.9z
		"/>
	<path class="st7" d="M288,64.8h-3c0,0.4,0.1,0.8,0.4,1c0.3,0.2,0.5,0.3,1,0.3c0.5,0,1.1-0.2,1.6-0.5v0.9c-0.2,0.2-0.5,0.3-0.8,0.4
		c-0.2,0.1-0.5,0.1-1,0.1c-0.4,0-0.9-0.1-1.2-0.3c-0.3-0.2-0.5-0.4-0.8-0.8c-0.2-0.3-0.2-0.8-0.2-1.2c0-0.7,0.2-1.2,0.5-1.6
		s0.9-0.7,1.5-0.7c0.5,0,1.1,0.2,1.4,0.7C287.9,63.5,288.1,64,288,64.8L288,64.8L288,64.8z M284.9,64.2h2.2c0-0.3-0.1-0.7-0.3-0.8
		c-0.2-0.1-0.4-0.3-0.8-0.3s-0.5,0.1-0.8,0.3C285.1,63.7,285,63.9,284.9,64.2z"/>
	<path class="st5" d="M96.7,71.9h3.8v0.9h-2.8v2.1h2.7v0.9h-2.7v2.1h2.9v0.8h-3.9V71.9z"/>
	<path class="st7" d="M102.4,74.2v0.5c0.4-0.4,0.9-0.7,1.3-0.7c0.3,0,0.5,0.1,0.8,0.2c0.2,0.1,0.4,0.3,0.5,0.5
		c0.1,0.2,0.2,0.7,0.2,1.2v2.5h-0.9v-2.5c0-0.4-0.1-0.8-0.2-1c-0.1-0.2-0.3-0.3-0.7-0.3c-0.4,0-0.8,0.2-1.1,0.7v3.1h-0.9v-4.3H102.4
		z"/>
	<path class="st7" d="M110.2,76.5h-3c0,0.4,0.1,0.8,0.4,1c0.3,0.2,0.5,0.3,1,0.3c0.5,0,1.1-0.2,1.6-0.5v0.9
		c-0.2,0.2-0.5,0.3-0.8,0.4c-0.2,0.1-0.5,0.1-1,0.1s-0.9-0.1-1.2-0.3c-0.3-0.2-0.5-0.4-0.8-0.8c-0.2-0.3-0.2-0.8-0.2-1.2
		c0-0.7,0.2-1.2,0.5-1.6c0.3-0.4,0.9-0.7,1.5-0.7c0.5,0,1.1,0.2,1.4,0.7c0.3,0.4,0.5,1,0.5,1.6v0.1L110.2,76.5z M107.1,76h2.2
		c0-0.3-0.1-0.7-0.3-0.8c-0.2-0.1-0.4-0.3-0.8-0.3c-0.3,0-0.5,0.1-0.8,0.3C107.3,75.3,107.2,75.6,107.1,76z"/>
	<path class="st7" d="M112.1,74.2v1v-0.1c0.4-0.7,0.9-1,1.3-1c0.3,0,0.7,0.2,1,0.5l-0.4,0.8c-0.3-0.3-0.5-0.4-0.9-0.4
		c-0.3,0-0.5,0.1-0.8,0.4c-0.2,0.2-0.3,0.5-0.3,1v2.2h-0.9v-4.3H112.1z"/>
	<path class="st7" d="M114.8,75.7c0-0.4,0.2-0.9,0.5-1.1c0.3-0.3,0.8-0.4,1.4-0.4h1.8v0.7h-1c0.2,0.2,0.3,0.3,0.3,0.4
		c0,0.1,0.1,0.3,0.1,0.5c0,0.2-0.1,0.4-0.2,0.7c-0.1,0.2-0.3,0.4-0.5,0.5c-0.2,0.1-0.5,0.2-1,0.3c-0.3,0-0.5,0.1-0.5,0.3
		c0,0.1,0.1,0.2,0.2,0.2c0.1,0.1,0.3,0.1,0.7,0.2c0.5,0.1,0.9,0.2,1.1,0.3c0.2,0.1,0.3,0.1,0.4,0.3c0.2,0.2,0.3,0.4,0.3,0.8
		c0,0.4-0.2,0.8-0.5,1c-0.3,0.2-0.9,0.3-1.5,0.3c-0.7,0-1.1-0.1-1.5-0.3c-0.3-0.2-0.5-0.5-0.5-1c0-0.5,0.3-1,1.1-1.2
		c-0.3-0.2-0.4-0.3-0.4-0.5c0-0.1,0.1-0.2,0.2-0.4c0.1-0.2,0.3-0.2,0.5-0.2C115.1,76.8,114.8,76.4,114.8,75.7z M116.2,78.8
		c-0.3,0-0.5,0.1-0.8,0.2c-0.2,0.1-0.3,0.3-0.3,0.4c0,0.4,0.4,0.7,1.2,0.7c0.4,0,0.7-0.1,0.9-0.2c0.2-0.1,0.3-0.3,0.3-0.4
		c0-0.2-0.1-0.3-0.4-0.5C116.9,78.9,116.6,78.8,116.2,78.8z M116.4,75c-0.2,0-0.4,0.1-0.7,0.2c-0.2,0.1-0.2,0.3-0.2,0.5
		s0.1,0.4,0.2,0.5c0.1,0.1,0.3,0.2,0.7,0.2c0.2,0,0.4-0.1,0.7-0.2s0.2-0.3,0.2-0.5s-0.1-0.4-0.2-0.5C116.9,75.1,116.6,75,116.4,75z"
		/>
	<path class="st7" d="M122.1,74.2h1l-3.2,6.6h-1l1.5-3.1l-1.7-3.5h1l1.2,2.5L122.1,74.2z"/>
	<path class="st7" d="M123.4,76h2.4v1h-2.4V76z"/>
	<path class="st7" d="M130.5,76.5h-3c0,0.4,0.1,0.8,0.4,1s0.5,0.3,1,0.3c0.5,0,1.1-0.2,1.6-0.5v0.9c-0.2,0.2-0.5,0.3-0.8,0.4
		c-0.2,0.1-0.5,0.1-1,0.1c-0.4,0-0.9-0.1-1.2-0.3c-0.3-0.2-0.5-0.4-0.8-0.8c-0.2-0.3-0.2-0.8-0.2-1.2c0-0.7,0.2-1.2,0.5-1.6
		c0.3-0.4,0.9-0.7,1.5-0.7c0.5,0,1.1,0.2,1.4,0.7c0.3,0.4,0.5,1,0.5,1.6v0.1L130.5,76.5z M127.5,76h2.2c0-0.3-0.1-0.7-0.3-0.8
		c-0.2-0.1-0.4-0.3-0.8-0.3s-0.5,0.1-0.8,0.3C127.7,75.3,127.5,75.6,127.5,76z"/>
	<path class="st7" d="M131.6,74.2V74c0-0.8,0.1-1.2,0.4-1.6c0.3-0.3,0.7-0.5,1.1-0.5c0.2,0,0.4,0,0.7,0.1v0.9
		c-0.1,0-0.3-0.1-0.4-0.1c-0.3,0-0.5,0.1-0.8,0.3c-0.1,0.2-0.2,0.5-0.2,1v0.2h0.8V75h-0.8v3.6h-0.9V75h-0.7v-0.8H131.6z"/>
	<path class="st7" d="M134,74.2V74c0-0.8,0.1-1.2,0.4-1.6c0.3-0.3,0.7-0.5,1.1-0.5c0.2,0,0.4,0,0.7,0.1v0.9c-0.1,0-0.3-0.1-0.4-0.1
		c-0.3,0-0.5,0.1-0.8,0.3c-0.1,0.2-0.2,0.5-0.2,1v0.2h0.8V75h-0.8v3.6h-0.9V75h-0.7v-0.8H134z"/>
	<path class="st7" d="M136.8,72.4c0.1,0,0.2,0,0.3,0.1c0.1,0.1,0.1,0.2,0.1,0.3c0,0.1,0,0.2-0.1,0.3c-0.1,0.1-0.2,0.1-0.3,0.1
		s-0.2,0-0.3-0.1s-0.1-0.2-0.1-0.3c0-0.1,0-0.2,0.1-0.3C136.6,72.4,136.7,72.4,136.8,72.4z M136.4,74.2h0.9v4.3h-0.9V74.2z"/>
	<path class="st7" d="M141.8,77.6v0.9c-0.4,0.2-0.9,0.2-1.3,0.2c-0.7,0-1.2-0.2-1.6-0.7c-0.4-0.4-0.7-0.9-0.7-1.6
		c0-0.7,0.2-1.2,0.5-1.6c0.3-0.4,0.9-0.7,1.5-0.7c0.2,0,0.4,0,0.7,0.1c0.2,0,0.4,0.1,0.7,0.2v1c-0.4-0.3-0.9-0.4-1.2-0.4
		c-0.4,0-0.8,0.1-1,0.4s-0.3,0.7-0.3,1.1c0,0.4,0.1,0.8,0.4,1.1c0.3,0.2,0.7,0.4,1.1,0.4C141,77.9,141.4,77.8,141.8,77.6z"/>
	<path class="st7" d="M143.2,72.4c0.1,0,0.2,0,0.3,0.1c0.1,0.1,0.1,0.2,0.1,0.3c0,0.1,0,0.2-0.1,0.3c-0.1,0.1-0.2,0.1-0.3,0.1
		c-0.1,0-0.2,0-0.3-0.1s-0.1-0.2-0.1-0.3c0-0.1,0-0.2,0.1-0.3C143,72.4,143.1,72.4,143.2,72.4z M142.8,74.2h0.9v4.3h-0.9V74.2z"/>
	<path class="st7" d="M148.7,76.5h-3c0,0.4,0.1,0.8,0.4,1c0.3,0.2,0.5,0.3,1,0.3c0.5,0,1.1-0.2,1.6-0.5v0.9
		c-0.2,0.2-0.5,0.3-0.8,0.4c-0.2,0.1-0.5,0.1-1,0.1s-0.9-0.1-1.2-0.3c-0.3-0.2-0.5-0.4-0.8-0.8c-0.2-0.3-0.2-0.8-0.2-1.2
		c0-0.7,0.2-1.2,0.5-1.6c0.3-0.4,0.9-0.7,1.5-0.7c0.5,0,1.1,0.2,1.4,0.7C148.6,75.2,148.8,75.7,148.7,76.5L148.7,76.5L148.7,76.5z
		 M145.6,76h2.2c0-0.3-0.1-0.7-0.3-0.8c-0.2-0.1-0.4-0.3-0.8-0.3c-0.3,0-0.5,0.1-0.8,0.3C145.9,75.3,145.6,75.6,145.6,76z"/>
	<path class="st7" d="M150.5,74.2v0.5c0.4-0.4,0.9-0.7,1.3-0.7c0.3,0,0.5,0.1,0.8,0.2c0.2,0.1,0.4,0.3,0.5,0.5s0.2,0.7,0.2,1.2v2.5
		h-0.9v-2.5c0-0.4-0.1-0.8-0.2-1c-0.1-0.2-0.3-0.3-0.7-0.3c-0.4,0-0.8,0.2-1.1,0.7v3.1h-0.9v-4.3H150.5z"/>
	<path class="st7" d="M153.9,74.9l1.6-1.6v1h1.4V75h-1.4v2.2c0,0.5,0.2,0.8,0.7,0.8c0.3,0,0.7-0.1,1-0.3v0.8
		c-0.3,0.2-0.7,0.3-1.1,0.3s-0.8-0.1-1-0.3c-0.1-0.1-0.1-0.1-0.2-0.2c0-0.1-0.1-0.2-0.1-0.3s-0.1-0.4-0.1-0.8v-2L153.9,74.9
		L153.9,74.9z"/>
	<path class="st6" d="M166,71.9h0.9v6.6h-1v-5.2l-2.1,2.6h-0.2l-2.1-2.6v5.2h-1v-6.6h0.9l2.2,2.7L166,71.9z"/>
	<path class="st7" d="M170.8,76v1.8c0,0.1,0,0.2,0.1,0.2s0.2-0.1,0.5-0.2v0.5c-0.2,0.1-0.3,0.2-0.4,0.2c-0.1,0-0.2,0.1-0.3,0.1
		c-0.3,0-0.5-0.1-0.7-0.4c-0.3,0.3-0.8,0.4-1.2,0.4c-0.3,0-0.5-0.1-0.8-0.3c-0.2-0.2-0.3-0.4-0.3-0.8c0-0.3,0.1-0.5,0.3-0.8
		c0.2-0.2,0.4-0.4,0.9-0.5l1.1-0.4v-0.2c0-0.5-0.2-0.8-0.8-0.8c-0.4,0-1,0.2-1.4,0.8v-1c0.3-0.4,0.9-0.5,1.4-0.5
		c0.4,0,0.9,0.1,1.2,0.3c0.1,0.1,0.2,0.2,0.2,0.3c0.1,0.1,0.1,0.2,0.1,0.4C170.8,75.3,170.8,75.6,170.8,76z M170,77.7v-1.3l-0.5,0.2
		c-0.3,0.1-0.5,0.2-0.7,0.3c-0.1,0.1-0.2,0.2-0.2,0.4s0.1,0.3,0.2,0.4c0.1,0.1,0.2,0.2,0.4,0.2C169.5,78.1,169.8,78,170,77.7z"/>
	<path class="st7" d="M175.6,77.6v0.9c-0.4,0.2-0.9,0.2-1.3,0.2c-0.7,0-1.2-0.2-1.6-0.7c-0.4-0.4-0.7-1-0.7-1.6
		c0-0.7,0.2-1.2,0.5-1.6c0.3-0.4,0.9-0.7,1.5-0.7c0.2,0,0.4,0,0.7,0.1c0.2,0,0.4,0.1,0.7,0.2v1c-0.4-0.3-0.9-0.4-1.2-0.4
		c-0.4,0-0.8,0.1-1,0.4c-0.2,0.3-0.3,0.7-0.3,1.1c0,0.4,0.1,0.8,0.4,1.1c0.3,0.2,0.7,0.4,1.1,0.4C174.8,77.9,175.2,77.8,175.6,77.6z
		"/>
	<path class="st7" d="M176.6,71.9h0.9v2.8c0.3-0.4,0.8-0.7,1.3-0.7c0.3,0,0.5,0.1,0.8,0.2c0.2,0.1,0.4,0.3,0.5,0.7
		c0.1,0.2,0.2,0.7,0.2,1.2v2.4h-0.9v-2.7c0-0.3-0.1-0.5-0.2-0.8c-0.1-0.2-0.3-0.3-0.7-0.3c-0.2,0-0.3,0-0.5,0.1
		c-0.2,0.1-0.3,0.2-0.5,0.5v3.1h-0.9L176.6,71.9L176.6,71.9z"/>
	<path class="st7" d="M181.9,72.4c0.1,0,0.2,0,0.3,0.1c0.1,0.1,0.1,0.2,0.1,0.3c0,0.1,0,0.2-0.1,0.3s-0.2,0.1-0.3,0.1
		c-0.1,0-0.2,0-0.3-0.1c-0.1-0.1-0.1-0.2-0.1-0.3c0-0.1,0-0.2,0.1-0.3C181.7,72.4,181.8,72.4,181.9,72.4z M181.5,74.2h0.9v4.3h-0.9
		V74.2z"/>
	<path class="st7" d="M184.5,74.2v0.5c0.4-0.4,0.9-0.7,1.3-0.7c0.3,0,0.5,0.1,0.8,0.2c0.2,0.1,0.4,0.3,0.5,0.5s0.2,0.7,0.2,1.2v2.5
		h-0.9v-2.5c0-0.4-0.1-0.8-0.2-1c-0.1-0.2-0.3-0.3-0.7-0.3c-0.4,0-0.8,0.2-1.1,0.7v3.1h-0.9v-4.3H184.5z"/>
	<path class="st7" d="M192.2,76.5h-3c0,0.4,0.1,0.8,0.4,1s0.5,0.3,1,0.3c0.5,0,1.1-0.2,1.6-0.5v0.9c-0.2,0.2-0.5,0.3-0.8,0.4
		c-0.2,0.1-0.5,0.1-1,0.1s-0.9-0.1-1.2-0.3c-0.3-0.2-0.5-0.4-0.8-0.8c-0.2-0.3-0.2-0.8-0.2-1.2c0-0.7,0.2-1.2,0.5-1.6
		c0.3-0.4,0.9-0.7,1.5-0.7c0.5,0,1.1,0.2,1.4,0.7C192.1,75.2,192.4,75.7,192.2,76.5L192.2,76.5L192.2,76.5z M189.2,76h2.2
		c0-0.3-0.1-0.7-0.3-0.8c-0.2-0.1-0.4-0.3-0.8-0.3c-0.3,0-0.5,0.1-0.8,0.3C189.3,75.3,189.2,75.6,189.2,76z"/>
	<path class="st7" d="M193,78.3v-1c0.2,0.2,0.5,0.3,0.8,0.4c0.2,0.1,0.4,0.1,0.7,0.1c0.2,0,0.3,0,0.4-0.1c0.1-0.1,0.2-0.2,0.2-0.3
		c0-0.1,0-0.2-0.1-0.3c-0.1-0.1-0.2-0.2-0.5-0.3c-0.5-0.3-1-0.5-1.1-0.8c-0.2-0.2-0.2-0.4-0.2-0.8s0.1-0.7,0.4-0.9
		c0.2-0.2,0.7-0.3,1-0.3c0.4,0,0.9,0.1,1.3,0.3v0.9c-0.5-0.3-1-0.4-1.3-0.4c-0.2,0-0.3,0-0.4,0.1c-0.1,0.1-0.1,0.2-0.1,0.3
		s0,0.2,0.1,0.3c0.1,0.1,0.2,0.2,0.5,0.3l0.3,0.2c0.8,0.4,1.1,0.9,1.1,1.4c0,0.3-0.1,0.7-0.4,0.9c-0.3,0.2-0.7,0.3-1.1,0.3
		c-0.2,0-0.5,0-0.7-0.1C193.6,78.6,193.2,78.4,193,78.3z"/>
</g>
<ellipse class="st8" cx="44.9" cy="46" rx="43.9" ry="43.8"/>
<g>
	<path class="st0" d="M28.3,16.5c16.6-9,37.4-2.8,46.4,13.8s2.8,37.3-13.8,46.3s-37.4,2.8-46.4-13.8S11.6,25.5,28.3,16.5z"/>
	<path class="st3" d="M34.3,11.5l0.5,1.4c-0.7,0.8-1.4,1.4-2.4,1.7c-1.2,0.4-2.3,0.5-3.3,0.2c-1-0.3-1.6-1.1-2.1-2
		c-0.4-1-0.3-2,0.1-2.9s1.3-1.7,2.5-2.2c1-0.4,1.8-0.5,2.6-0.4L33,8.9c-1-0.1-1.8,0-2.6,0.2c-0.8,0.3-1.2,0.8-1.5,1.3
		c-0.3,0.5-0.3,1.2-0.1,1.7c0.2,0.5,0.7,1,1.3,1.2c0.7,0.2,1.3,0.2,2-0.1c0.3-0.1,0.7-0.3,1-0.5S33.7,12.1,34.3,11.5z"/>
	<path class="st3" d="M36.5,8.4l0.3,1.4l0,0c0.2-1.1,0.7-1.6,1.2-1.7c0.3-0.1,0.7,0,1.1,0.2L39,9.7c-0.4-0.1-0.8-0.2-1-0.2
		c-0.3,0.1-0.5,0.3-0.8,0.9c-0.2,0.5-0.2,0.8-0.2,0.9l0.4,2.1l-1.4,0.1L35,8.7L36.5,8.4z"/>
	<path class="st3" d="M44.8,10.8l0.1,1c-0.5,0.4-1.3,0.8-2.2,0.8s-1.5-0.1-2.1-0.5c-0.5-0.4-0.9-1-0.9-1.7c0-0.8,0.1-1.4,0.7-1.8
		c0.4-0.5,1.1-0.8,1.8-0.9c0.8,0,1.4,0.2,1.8,0.7c0.5,0.4,0.8,1.1,0.8,2l-3.5,0.2c0.1,0.4,0.2,0.8,0.5,1s0.7,0.3,1.2,0.3
		C43.7,11.5,44.3,11.3,44.8,10.8z M41.4,9.5l2.1-0.1c-0.1-0.7-0.5-1.1-1.1-1C41.8,8.4,41.4,8.8,41.4,9.5z"/>
	<path class="st3" d="M50.8,11.6v0.8c-0.5,0.2-1,0.3-1.5,0.3c-0.4,0-0.8-0.2-0.8-0.7c-0.5,0.3-1.1,0.4-1.6,0.4c-0.3,0-0.7-0.2-1-0.4
		c-0.2-0.2-0.3-0.5-0.3-0.9c0-0.4,0.2-0.8,0.5-1c0.3-0.2,1.2-0.4,2.6-0.8c0.1-0.5-0.2-0.9-0.8-0.9c-0.7-0.1-1.3,0.1-1.8,0.7L46.2,8
		c0.7-0.3,1.4-0.4,2.2-0.4c1.4,0.1,2,0.7,2,1.6l-0.2,2.2c0,0.2,0,0.3,0.2,0.3C50.3,11.8,50.6,11.7,50.8,11.6z M48.5,11.4l0.1-1.2
		c-0.5,0.1-0.9,0.2-1.1,0.4c-0.2,0.1-0.3,0.3-0.3,0.5c0,0.1,0,0.2,0.1,0.3s0.2,0.2,0.3,0.2C47.8,11.7,48.2,11.6,48.5,11.4z"/>
	<path class="st3" d="M55.7,9l-0.2,1l-1.7-0.4l-0.4,2c-0.1,0.2,0,0.4,0.1,0.7c0.1,0.2,0.2,0.3,0.4,0.3c0.3,0.1,0.7,0.1,1.1,0
		l-0.2,1.1c-0.5,0.1-1,0.1-1.4,0c-0.5-0.1-1-0.4-1.2-0.8c-0.2-0.3-0.3-0.9-0.2-1.4l0.4-2.1l-0.8-0.2l0.1-0.3l2.5-1.7h0.2L54,8.6
		L55.7,9z"/>
	<path class="st3" d="M58.2,9.9l-1.6,4.6l-1.4-0.5l1.6-4.6L58.2,9.9z M57.1,7.8c0.1-0.2,0.2-0.4,0.4-0.4c0.2-0.1,0.4-0.1,0.7,0
		c0.2,0.1,0.4,0.2,0.4,0.4c0.1,0.2,0.1,0.4,0,0.7c-0.1,0.2-0.2,0.3-0.4,0.4c-0.2,0.1-0.4,0.1-0.7,0s-0.3-0.2-0.4-0.4
		C57.1,8.3,57.1,8,57.1,7.8z"/>
	<path class="st3" d="M59,15.6l0.1-5.4l1.5,0.8l-0.2,2.8l2.1-2l1.4,0.7L59.8,16L59,15.6z"/>
	<path class="st3" d="M66.9,18.5l-0.5,0.8c-0.8,0-1.4-0.2-2.2-0.7c-0.8-0.4-1.2-1.1-1.3-1.7c-0.2-0.7,0-1.3,0.4-2
		c0.4-0.7,1-1,1.6-1.1c0.7-0.1,1.3,0,2,0.4c0.7,0.4,1,1,1.1,1.6s-0.1,1.4-0.5,2.1l-3-2c-0.2,0.4-0.3,0.8-0.2,1.1
		c0.1,0.3,0.3,0.7,0.8,1C65.4,18.4,66,18.5,66.9,18.5z M64.8,15.3l1.7,1.2c0.3-0.7,0.2-1.1-0.3-1.5C65.8,14.7,65.3,14.8,64.8,15.3z"
		/>
	<path class="st4" d="M80.8,25.9l-6,4.1l-1-1.5l2.4-1.6l-2.1-3l-2.4,1.6l-1-1.5l6-4.1l1,1.5L75.3,23l2.1,2.9l2.4-1.6L80.8,25.9z"/>
	<path class="st4" d="M80.3,30.5L76,32.6l-0.8-1.4l4.3-2.1L80.3,30.5z M81.1,28.3c0.2-0.1,0.4-0.1,0.7,0c0.2,0.1,0.4,0.2,0.4,0.4
		c0.1,0.2,0.1,0.4,0,0.7s-0.2,0.3-0.4,0.4c-0.2,0.1-0.4,0.1-0.7,0c-0.2-0.1-0.4-0.2-0.4-0.4c-0.1-0.2-0.1-0.4,0-0.7
		C80.7,28.5,80.9,28.4,81.1,28.3z"/>
	<path class="st4" d="M82.6,36.7l-1,0.3l-0.2-0.7c-0.2,0.2-0.4,0.4-0.7,0.5C80.4,37,80,37,79.7,36.8c-0.4-0.2-0.8-0.5-1-1
		c-0.2-0.5-0.4-0.8-0.4-0.9c-0.1,0-0.1-0.1-0.2,0c-0.1,0-0.1,0.1-0.1,0.2c0,0.1,0,0.4,0.2,1.1c0.1,0.7,0.1,1.1,0,1.5
		c-0.2,0.3-0.4,0.5-0.8,0.7c-0.5,0.2-1,0.1-1.4-0.2c-0.4-0.3-0.8-0.9-1-1.6c-0.3-0.8-0.3-1.4-0.2-2c0.1-0.5,0.3-0.9,0.8-1
		c0.5-0.2,1.1,0.1,1.6,0.9c0-0.4,0.1-0.7,0.4-0.8c0.3-0.1,0.7,0.1,1,0.7c-0.1-0.4,0-0.8,0.2-1.1c0.2-0.3,0.4-0.5,0.8-0.7
		c0.4-0.1,0.9-0.1,1.3,0.1c0.4,0.2,0.8,0.7,1,1.4L82.6,36.7z M75.7,36.3c0.1,0.3,0.2,0.5,0.4,0.7c0.2,0.1,0.3,0.2,0.5,0.1
		c0.3-0.1,0.4-0.5,0.1-1.3c-0.1-0.3-0.2-0.5-0.4-0.8c-0.2-0.1-0.3-0.2-0.5-0.1C75.4,34.9,75.4,35.5,75.7,36.3z M80.9,34.4
		c-0.1-0.2-0.2-0.4-0.4-0.5c-0.2-0.1-0.4-0.1-0.7,0s-0.4,0.2-0.5,0.4c-0.1,0.2-0.1,0.4,0,0.7s0.2,0.4,0.4,0.5c0.2,0.1,0.4,0.1,0.7,0
		c0.2-0.1,0.3-0.2,0.4-0.4C81,34.8,81,34.6,80.9,34.4z"/>
	<path class="st4" d="M85.4,39.1l-3,0.4l0,0c0.7,0.3,1,0.8,1.1,1.4c0.1,0.5,0,1-0.3,1.3c-0.3,0.4-0.7,0.7-1.3,0.8l-3,0.5L78.6,42
		l2.7-0.4c0.7-0.1,1-0.4,1-1c-0.1-0.3-0.3-0.7-0.9-0.9l-3,0.5l-0.2-1.5l7.2-1.2L85.4,39.1z"/>
	<path class="st4" d="M82.1,47h-1.4v-2.7h1.4V47z"/>
	<path class="st4" d="M83.7,49.9h-0.4c0.3,0.4,0.4,1,0.3,1.4c-0.1,0.7-0.3,1.1-0.9,1.5c-0.5,0.4-1.1,0.5-1.8,0.4
		c-0.8-0.1-1.4-0.3-1.8-0.9c-0.4-0.4-0.5-1.1-0.5-1.8c0-0.4,0.2-0.9,0.4-1.2l-2.6-0.3l0.2-1.5l7.3,0.8L83.7,49.9z M82.3,49.7
		L80,49.5c-0.2,0.2-0.4,0.5-0.4,0.9c0,0.3,0.1,0.7,0.3,1c0.2,0.2,0.5,0.4,1.1,0.4c0.4,0,0.9,0,1.1-0.2c0.2-0.2,0.4-0.4,0.4-0.8
		C82.6,50.5,82.5,50.1,82.3,49.7z"/>
	<path class="st4" d="M78.4,58.7l-1-0.2c-0.2-0.7-0.2-1.4,0-2.3c0.2-0.9,0.7-1.4,1.2-1.7c0.5-0.3,1.2-0.4,2-0.2
		c0.8,0.2,1.2,0.7,1.5,1.2c0.3,0.5,0.4,1.3,0.2,2c-0.2,0.8-0.7,1.2-1.2,1.5c-0.7,0.3-1.3,0.3-2.2,0.1l1-3.4c-0.4-0.1-0.8,0-1.1,0.2
		c-0.3,0.2-0.5,0.5-0.7,1C78.1,57.3,78.2,57.9,78.4,58.7z M80.8,55.8l-0.5,2.1c0.7,0.1,1.2-0.1,1.3-0.8
		C81.6,56.5,81.4,56.1,80.8,55.8z"/>
	<path class="st4" d="M80.4,62.5L79.1,62l0,0c0.8,0.8,1,1.5,0.8,2.1c-0.1,0.2-0.4,0.5-0.9,0.8l-1.1-1c0.3-0.2,0.7-0.4,0.7-0.7
		c0.1-0.3,0.1-0.7-0.2-1.1c-0.3-0.4-0.4-0.7-0.5-0.7l-2-0.9l0.7-1.4l4.5,2L80.4,62.5z"/>
	<path class="st4" d="M77.9,67.2l-0.3,0.5l-0.9-0.5l0.3-0.7l-3.3-2l0.8-1.3l3.3,2l0.3-0.7l0.9,0.5l-0.3,0.7l0.2,0.1
		c0.5,0.3,1,0.8,1.1,1.3c0.1,0.5,0,1.1-0.3,1.6c-0.1,0.1-0.2,0.4-0.5,0.8l-1.1-0.7c0.2-0.2,0.3-0.4,0.4-0.5c0.3-0.4,0.2-0.9-0.3-1.2
		H77.9z"/>
	<path class="st4" d="M75.6,70.6c-0.4,0.7-1.1,1-1.7,1.1c-0.7,0.1-1.3,0-2-0.5c-0.7-0.5-1-1.1-1-1.7c0-0.7,0.2-1.3,0.7-2
		c0.5-0.7,1.1-1,1.7-1.1c0.7-0.1,1.3,0.1,2,0.5c0.7,0.4,1,1.1,1,1.7C76.3,69.3,76.1,70,75.6,70.6z M72.3,68.1
		c-0.4,0.5-0.2,1.2,0.7,1.8c0.9,0.7,1.5,0.7,2,0.1c0.2-0.3,0.3-0.5,0.2-0.9c-0.1-0.3-0.3-0.7-0.8-1C73.4,67.6,72.7,67.5,72.3,68.1z"
		/>
	<path class="st4" d="M71.6,74.9l-1-1l0,0c0.3,1,0.3,1.7-0.1,2.2c-0.2,0.2-0.5,0.3-1.1,0.3l-0.7-1.3c0.4-0.1,0.8-0.2,0.9-0.3
		c0.2-0.2,0.3-0.7,0.2-1.1c-0.1-0.4-0.2-0.8-0.2-0.8l-1.4-1.5l1.1-1.1l3.4,3.6L71.6,74.9z"/>
	<path class="st4" d="M67.5,78.4l-0.3-0.5c-0.2,0.7-0.5,1.2-1.1,1.5c-0.8,0.4-1.4,0.4-2.1,0c-0.1,0.9-0.5,1.5-1.1,1.8
		c-0.4,0.3-1,0.4-1.4,0.3c-0.4-0.1-0.9-0.4-1.2-0.9L58.7,78l1.3-0.8l1.5,2.4c0.2,0.3,0.4,0.4,0.7,0.5c0.2,0.1,0.4,0,0.8-0.1
		c0.4-0.2,0.5-0.7,0.7-1.3L62,76.1l1.3-0.8l1.5,2.5c0.2,0.3,0.4,0.4,0.7,0.5s0.4,0,0.8-0.1c0.3-0.2,0.5-0.7,0.7-1.2L65,74.2l1.3-0.8
		l2.5,4.1L67.5,78.4z"/>
	<path class="st4" d="M53.5,80.9l-0.3-0.8c0.4-0.4,0.8-0.8,1.2-0.9s0.8-0.1,1,0.2c0.4-0.5,0.9-0.9,1.3-1.1c0.3-0.1,0.7-0.1,1,0
		c0.3,0.1,0.5,0.3,0.7,0.7c0.1,0.4,0.1,0.8-0.1,1.1c-0.2,0.3-0.9,0.9-2.1,1.7c0.1,0.5,0.5,0.7,1.1,0.5c0.7-0.2,1.1-0.7,1.4-1.3
		l0.4,1.2c-0.4,0.5-1.1,1-1.8,1.2c-1.3,0.4-2.1,0.2-2.4-0.8l-0.5-2.1c-0.1-0.2-0.2-0.3-0.3-0.2C53.8,80.5,53.7,80.7,53.5,80.9z
		 M55.7,80.2l0.4,1.1c0.4-0.3,0.8-0.7,0.9-0.8c0.1-0.2,0.2-0.4,0.1-0.7c0-0.1-0.1-0.2-0.2-0.3c-0.1-0.1-0.2-0.1-0.4,0
		C56.1,79.6,55.9,79.9,55.7,80.2z"/>
	<path class="st4" d="M52.1,85L52,84.3c-0.3,0.7-0.9,1-1.4,1.1c-0.5,0.1-1,0-1.3-0.2c-0.4-0.2-0.7-0.7-0.8-1.3L48,80.7l1.5-0.2
		l0.5,2.9c0.1,0.7,0.4,0.9,0.9,0.9c0.3-0.1,0.7-0.4,0.9-1l-0.5-3.1l1.5-0.2l0.8,4.8L52.1,85z"/>
	<path class="st4" d="M42.6,82.1v-1.1c0.7-0.2,1.2-0.3,1.6-0.3c0.9,0,1.5,0.2,2.1,0.7c0.5,0.4,0.8,1.1,0.8,1.8
		c0,0.8-0.2,1.3-0.8,1.8c-0.5,0.4-1.2,0.8-2,0.8c-0.5,0-1.1-0.1-1.6-0.3v-1.1c0.4,0.2,0.9,0.3,1.3,0.3c0.4,0,0.9-0.1,1.1-0.4
		c0.3-0.2,0.4-0.7,0.4-1c0-0.4-0.1-0.8-0.4-1.1c-0.3-0.3-0.7-0.4-1.1-0.4C43.7,81.8,43.3,81.9,42.6,82.1z"/>
	<path class="st4" d="M37,81.5l0.1-1c0.7-0.3,1.4-0.4,2.3-0.3c0.9,0.1,1.5,0.4,2,1s0.7,1.2,0.5,2c-0.1,0.8-0.4,1.3-1,1.7
		c-0.5,0.4-1.2,0.5-2,0.4s-1.3-0.4-1.7-1c-0.4-0.5-0.5-1.3-0.3-2.1l3.5,0.5c0-0.4-0.1-0.8-0.3-1.1s-0.7-0.4-1.1-0.5
		C38.3,81.1,37.6,81.2,37,81.5z M40.1,83.4l-2.1-0.3c0,0.8,0.3,1.1,0.9,1.2C39.5,84.5,39.9,84.2,40.1,83.4z"/>
	<path class="st5" d="M28.2,78.1l0.5-1.2l4.9,2.1l-2.8,6.6L26,83.5l0.5-1.2l3.2,1.3l0.5-1.4l-3-1.3l0.5-1.2l3,1.3l0.7-1.6L28.2,78.1
		z"/>
	<path class="st5" d="M23.9,79.7l0.3-0.5c-0.7,0.2-1.3,0.1-1.7-0.2c-0.4-0.3-0.7-0.7-0.8-1.1c-0.1-0.4,0-1,0.3-1.4l1.7-2.6l1.3,0.9
		l-1.6,2.5c-0.3,0.5-0.3,1,0.1,1.2c0.3,0.2,0.8,0.2,1.3-0.1l1.7-2.6l1.3,0.9l-2.7,3.9L23.9,79.7z"/>
	<path class="st5" d="M18.5,71.1l0.7-0.8c0.8,0.1,1.4,0.4,2.1,1c0.7,0.5,1,1.2,1.1,2c0.1,0.7-0.2,1.3-0.7,1.8
		c-0.5,0.5-1.1,0.9-1.7,0.9c-0.7,0-1.3-0.2-1.8-0.8s-0.9-1.1-0.9-1.8c0-0.8,0.3-1.3,0.9-2l2.6,2.4c0.3-0.3,0.4-0.7,0.3-1.1
		c0-0.3-0.2-0.8-0.5-1.1C19.8,71.4,19.3,71.1,18.5,71.1z M19.9,74.4L18.4,73c-0.4,0.5-0.4,1.1,0,1.5C18.9,74.9,19.4,74.9,19.9,74.4z
		"/>
	<path class="st5" d="M14.2,71.1l1.1-0.9l0,0c-1.1,0.3-1.7,0.2-2.2-0.3c-0.2-0.2-0.3-0.5-0.3-1.1l1.3-0.5c0,0.4,0.1,0.8,0.3,1
		c0.2,0.3,0.5,0.3,1.1,0.3c0.5-0.1,0.8-0.1,0.9-0.2L18,68l1,1.2l-3.8,3L14.2,71.1z"/>
	<path class="st5" d="M9.5,63.9l0.9-0.5l0.3,0.7c0.1-0.3,0.3-0.4,0.5-0.7c0.3-0.2,0.7-0.2,1.1-0.2c0.4,0.1,0.8,0.3,1.1,0.8
		c0.3,0.4,0.5,0.7,0.7,0.8c0.1,0,0.1,0,0.2,0s0.1-0.1,0.1-0.2s-0.1-0.4-0.4-1.1c-0.3-0.7-0.3-1.1-0.2-1.4c0.1-0.3,0.3-0.7,0.7-0.8
		c0.4-0.2,0.9-0.3,1.4,0c0.4,0.2,0.9,0.8,1.3,1.4c0.4,0.8,0.7,1.4,0.7,1.8c0,0.5-0.2,0.9-0.5,1.1c-0.5,0.3-1.1,0.1-1.7-0.5
		c0.1,0.4,0,0.7-0.2,0.9c-0.3,0.2-0.7,0-1.1-0.4c0.1,0.3,0.1,0.8,0,1.1c-0.1,0.3-0.3,0.7-0.7,0.9c-0.4,0.2-0.9,0.3-1.3,0.1
		c-0.4-0.2-1-0.5-1.3-1.1L9.5,63.9z M11.7,65.9c0.1,0.2,0.3,0.3,0.5,0.4s0.4,0,0.7-0.1c0.2-0.1,0.3-0.3,0.4-0.5
		c0.1-0.2,0-0.4-0.1-0.7c-0.1-0.2-0.3-0.3-0.5-0.4s-0.4,0-0.7,0.1c-0.2,0.1-0.3,0.3-0.4,0.5C11.4,65.4,11.6,65.6,11.7,65.9z
		 M16.3,62.9c-0.2-0.3-0.3-0.4-0.5-0.5c-0.2-0.1-0.4-0.1-0.5,0c-0.3,0.2-0.2,0.7,0.1,1.3c0.2,0.3,0.3,0.5,0.5,0.7
		c0.2,0.1,0.3,0.1,0.5,0.1C16.9,64.1,16.8,63.7,16.3,62.9z"/>
	<path class="st5" d="M7.2,58.2l7.9,0.4l0.5,1.5l-3.5-0.2l-3.2,3.3l-0.5-1.5l2-1.8l-2.7-0.1L7.2,58.2z"/>
	<path class="st5" d="M8.1,54.3l1.4-0.3l0.7,2.7L8.7,57L8.1,54.3z"/>
	<path class="st5" d="M8.8,48.2l1-0.1c0.5,0.5,0.8,1.2,0.9,2.1c0.1,0.9,0,1.5-0.4,2.2c-0.4,0.5-1,0.9-1.7,1c-0.8,0.1-1.4-0.1-2-0.5
		s-0.9-1-1-1.7s0.1-1.4,0.5-2c0.4-0.5,1.1-0.9,2-0.9l0.4,3.5c0.4-0.1,0.8-0.3,1-0.5c0.2-0.3,0.3-0.7,0.2-1.2
		C9.7,49.4,9.4,48.8,8.8,48.2z M7.8,51.8l-0.2-2.1c-0.7,0.2-1,0.5-1,1.2C6.7,51.4,7,51.8,7.8,51.8z"/>
	<path class="st5" d="M5.6,45.4v-0.7h1.1v0.7h3.8v1.5H6.7v0.7H5.6v-0.7H5.4c-0.7,0-1.2-0.2-1.6-0.5c-0.4-0.4-0.5-0.9-0.5-1.5
		c0-0.1,0-0.4,0.1-1h1.2c0,0.3-0.1,0.5-0.1,0.7c0,0.5,0.3,0.9,0.9,0.9L5.6,45.4z"/>
	<path class="st5" d="M5.8,41.9l0.1-0.7L7,41.3L6.9,42l3.8,0.4L10.6,44l-3.8-0.4l-0.1,0.7l-1.1-0.1l0.1-0.7H5.5
		c-0.7-0.1-1.2-0.3-1.5-0.8c-0.4-0.4-0.5-1-0.5-1.6c0-0.1,0.1-0.4,0.2-0.9l1.2,0.1c-0.1,0.3-0.1,0.5-0.1,0.7c-0.1,0.5,0.2,0.9,0.8,1
		H5.8z"/>
	<path class="st5" d="M4.5,40c-0.2,0-0.4-0.1-0.5-0.3c-0.1-0.2-0.2-0.4-0.1-0.7c0-0.2,0.1-0.4,0.3-0.5c0.2-0.1,0.4-0.2,0.7-0.1
		c0.2,0,0.4,0.1,0.5,0.3c0.1,0.2,0.2,0.4,0.1,0.7c0,0.2-0.1,0.4-0.3,0.5C4.9,39.9,4.7,40,4.5,40z M6.3,38.7l4.8,0.9l-0.3,1.5L6,40.3
		L6.3,38.7z"/>
	<path class="st5" d="M11.2,34.1l1.1,0.3c0,0.7,0,1.2-0.2,1.6c-0.2,0.9-0.7,1.4-1.3,1.7c-0.5,0.3-1.2,0.4-2,0.2
		c-0.8-0.2-1.2-0.7-1.5-1.3C7,36,7,35.4,7.2,34.6c0.1-0.5,0.4-1,0.8-1.5l1.1,0.3c-0.3,0.3-0.5,0.8-0.7,1.1c-0.1,0.4-0.1,0.9,0,1.2
		c0.2,0.3,0.4,0.5,0.9,0.7c0.4,0.1,0.8,0.1,1.1-0.1c0.3-0.2,0.5-0.4,0.7-0.9C11.3,35.2,11.3,34.6,11.2,34.1z"/>
	<path class="st5" d="M7,31.2c-0.2-0.1-0.3-0.2-0.4-0.4c-0.1-0.2-0.1-0.4,0-0.7c0.1-0.2,0.2-0.3,0.4-0.4c0.2-0.1,0.4-0.1,0.7,0
		c0.2,0.1,0.3,0.2,0.4,0.4c0.1,0.2,0.1,0.4,0,0.7C8,30.9,7.9,31,7.6,31.2C7.4,31.3,7.2,31.3,7,31.2z M9.1,30.3l4.5,2l-0.7,1.4
		l-4.5-2L9.1,30.3z"/>
	<path class="st5" d="M15,26.4l0.9,0.4c0.1,0.8-0.1,1.4-0.5,2.2c-0.4,0.8-1,1.2-1.6,1.4c-0.7,0.2-1.3,0.1-2-0.2
		c-0.7-0.3-1.1-0.9-1.2-1.5c-0.2-0.7-0.1-1.3,0.3-2c0.3-0.7,0.9-1.1,1.6-1.2c0.7-0.1,1.4,0,2.1,0.4l-1.7,3c0.4,0.2,0.8,0.2,1.1,0.1
		c0.3-0.1,0.7-0.4,0.9-0.8C15,27.8,15.1,27.1,15,26.4z M12.1,28.5l1.1-1.8c-0.7-0.3-1.1-0.1-1.4,0.3C11.3,27.6,11.4,28.1,12.1,28.5z
		"/>
	<path class="st5" d="M14.1,22.1l0.5,0.4c-0.1-0.7,0-1.3,0.4-1.7c0.3-0.4,0.8-0.7,1.2-0.7s1,0.1,1.4,0.5l2.4,2l-1,1.2l-2.3-2
		c-0.5-0.4-0.9-0.4-1.2,0c-0.2,0.3-0.2,0.8-0.1,1.3l2.4,2.1l-1.1,1.2l-3.7-3.1L14.1,22.1z"/>
	<path class="st5" d="M20.1,16.1l0.7,0.8L19.5,18l1.3,1.5c0.1,0.2,0.3,0.3,0.5,0.3c0.2,0,0.3,0,0.5-0.2c0.2-0.2,0.4-0.5,0.5-0.9
		l0.8,0.9c-0.2,0.4-0.5,0.9-0.9,1.2c-0.4,0.4-0.9,0.5-1.3,0.5s-0.9-0.2-1.3-0.7l-1.4-1.5l-0.5,0.4l-0.1-0.3v-3l0.1-0.1l1,1.2
		L20.1,16.1z"/>
</g>
<ellipse class="st8" cx="45" cy="46.3" rx="28.1" ry="28.1"/>
<polygon class="st8" points="44.3,19.1 21,59.5 67.6,59.5 "/>
<image style="overflow:visible;enable-background:new    ;" width="261" height="242" xlink:href="6D0E25AB.png"  transform="matrix(0.121 0 0 0.1208 28.3241 31.6627)">
</image>
</svg>
