<?xml version="1.0" encoding="utf-8"?>
<!-- Generator: Adobe Illustrator 22.0.1, SVG Export Plug-In . SVG Version: 6.00 Build 0)  -->
<svg version="1.1" id="Layer_1" xmlns="http://www.w3.org/2000/svg" xmlns:xlink="http://www.w3.org/1999/xlink" x="0px" y="0px"
	 viewBox="0 0 738 200" style="enable-background:new 0 0 738 200;" xml:space="preserve">
<style type="text/css">
	.st0{fill:none;}
	.st1{fill:#FFCD05;}
	.st2{fill:#FF66FF;}
	.st3{fill:#00FFFF;}
	.st4{fill:#FF6666;}
	.st5{fill:#66FF66;}
	.st6{fill:#BE84FF;}
	.st7{fill:black;}
	.st8{fill:none;stroke:black;stroke-miterlimit:10;}
</style>
<g>
	<rect x="201.7" y="50.7" class="st0" width="360.1" height="34.8"/>
	<path class="st1" d="M223.8,77.2l-1.5-3.7h-12.2l-1.5,3.7c-0.5,1.5-1.2,2.6-1.5,3.1s-1.2,0.9-2,0.9c-0.9,0-1.5-0.2-2-0.9
		c-0.5-0.5-0.9-1.2-0.9-2c0-0.2,0-0.9,0.2-1.2c0-0.5,0.2-1.2,0.5-1.7l7.7-19.2c0.2-0.5,0.5-1.2,0.9-2c0.4-0.7,0.5-1.5,0.9-2
		c0.2-0.5,0.9-0.9,1.5-1.2c0.5-0.2,1.2-0.5,2-0.5c0.9,0,1.5,0.2,2,0.5c0.5,0.2,1.2,0.9,1.5,1.2c0.2,0.5,0.5,1.2,0.9,1.7
		c0.2,0.5,0.5,1.5,0.9,2.2l7.7,19.2c0.5,1.5,0.9,2.6,0.9,3.1s-0.2,1.5-0.9,2c-0.5,0.5-1.2,0.9-2,0.9c-0.5,0-0.9,0-1.2-0.2
		c-0.2-0.2-0.5-0.2-0.9-0.5c-0.2-0.2-0.5-0.9-0.9-1.5C224.3,78.2,223.8,77.8,223.8,77.2z M212.1,69h8.7l-4.5-12.1L212.1,69z"/>
	<path class="st2" d="M240.5,54.3v21.4h12.2c0.9,0,1.7,0.2,2.2,0.9c0.5,0.5,0.9,1.2,0.9,1.7c0,0.9-0.2,1.5-0.9,1.7
		c-0.5,0.5-1.2,0.5-2.2,0.5h-14.4c-1.5,0-2.2-0.2-2.8-0.9c-0.5-0.5-0.9-1.5-0.9-2.8V54.1c0-1.2,0.2-2.2,0.9-2.8
		c0.6-0.6,1.2-0.9,2.2-0.9c0.9,0,1.7,0.2,2.2,0.9C240.3,52.1,240.5,53,240.5,54.3z"/>
	<path class="st3" d="M282.5,71.3c0,0.9-0.2,2-0.5,3.1c-0.2,1.2-1.2,2.2-2.2,3.1c-1.2,0.9-2.2,2-3.7,2.6c-1.5,0.5-3.4,0.9-5.4,0.9
		c-1.7,0-3.1-0.2-4.3-0.5s-2.6-0.9-3.4-1.5c-1.2-0.5-2-1.5-2.8-2.6c-0.9-0.9-1.5-2-2-3.1s-0.9-2.2-1.2-3.7c-0.2-1.5-0.2-2.8-0.2-4.3
		c0-2.2,0.2-4.5,1.2-6.5c0.9-2,1.7-3.4,3.1-4.8c1.5-1.5,2.8-2.2,4.5-3.1c1.7-0.5,3.7-1.2,5.6-1.2c2.2,0,4.5,0.5,6.5,1.5
		c2,0.9,3.4,2.2,4.3,3.7s1.5,2.8,1.5,3.9c0,0.5-0.2,1.5-0.9,1.7c-0.5,0.5-1.2,0.9-1.7,0.9c-0.9,0-1.5-0.2-1.7-0.5
		c-0.2-0.2-0.9-0.9-1.5-2c-0.9-1.5-1.7-2.6-2.8-3.4c-1.2-0.9-2.2-1.2-3.9-1.2c-2.6,0-4.5,0.9-6,2.8c-1.5,2-2.2,4.5-2.2,7.9
		c0,2.2,0.2,4.3,0.9,5.6c0.5,1.5,1.7,2.6,2.8,3.4c1.1,0.9,2.6,1.2,4.3,1.2s3.1-0.5,4.3-1.5c1.2-0.9,2-2,2.8-3.7
		c0.2-0.9,0.5-1.5,0.9-2c0.2-0.5,0.9-0.9,1.7-0.9s1.5,0.2,1.7,0.9C282.2,69.8,282.5,70.4,282.5,71.3z"/>
	<path class="st4" d="M293.7,54.3v8.4h12.9v-8.4c0-1.2,0.2-2.2,0.9-2.8c0.6-0.6,1.2-0.9,2.2-0.9c0.9,0,1.7,0.2,2.2,0.9
		c0.5,0.6,0.9,1.5,0.9,2.8v23.1c0,1.2-0.2,2.2-0.9,2.8c-0.6,0.6-1.5,0.9-2.2,0.9s-1.7-0.2-2.2-0.9c-0.5-0.6-0.9-1.5-0.9-2.8v-9.9
		h-12.9v9.9c0,1.2-0.2,2.2-0.9,2.8c-0.6,0.6-1.5,0.9-2.2,0.9s-1.7-0.2-2.2-0.9c-0.5-0.5-0.9-1.5-0.9-2.8V54.3c0-1.2,0.2-2.2,0.9-2.8
		c0.5-0.5,1.2-0.9,2.2-0.9c0.9,0,1.7,0.2,2.2,0.9C293.5,52.1,293.7,53,293.7,54.3z"/>
	<path class="st5" d="M338.5,55.8h-13.4V63h12.4c0.9,0,1.7,0.2,2,0.5c0.5,0.2,0.5,0.9,0.5,1.7c0,0.9-0.2,1.2-0.5,1.7
		c-0.5,0.5-1.2,0.5-2,0.5h-12.4v8.4H339c0.9,0,1.7,0.2,2.2,0.5c0.5,0.2,0.9,1.2,0.9,1.7s-0.2,1.2-0.9,1.7c-0.5,0.5-1.2,0.5-2.2,0.5
		h-16.4c-1.5,0-2.2-0.2-2.8-0.9c-0.5-0.5-0.9-1.5-0.9-2.8V54.7c0-0.9,0-1.7,0.2-2c0.2-0.5,0.5-0.9,1.2-1.2c0.5-0.2,1.2-0.2,2-0.2
		H338c0.9,0,1.7,0.2,2.2,0.5c0.5,0.5,0.5,0.9,0.5,1.7c0,0.5-0.2,1.2-0.5,1.7C340.1,55.6,339.3,55.8,338.5,55.8z"/>
	<path class="st6" d="M356.5,76.1l-4.8-18.8v20.3c0,1.2-0.2,2-0.9,2.6c-0.5,0.5-1.2,0.9-2,0.9s-1.5-0.2-2-0.9s-0.9-1.5-0.9-2.6V54.2
		c0-1.5,0.2-2.2,1.2-2.6c0.9-0.4,1.7-0.5,2.8-0.5h2c1.2,0,2,0,2.6,0.2c0.5,0.2,0.9,0.5,1.2,1.2c0.2,0.5,0.5,1.5,0.9,2.6l4.3,16.1
		l4.3-16.1c0.2-1.2,0.5-2,0.9-2.6c0.2-0.5,0.5-0.9,1.2-1.2c0.5-0.2,1.5-0.2,2.6-0.2h2c1.2,0,2,0.2,2.8,0.5c0.5,0.5,1.2,1.5,1.2,2.6
		v23.3c0,1.2-0.2,2-0.9,2.6c-0.6,0.6-1.2,0.9-2,0.9s-1.5-0.2-2-0.9c-0.5-0.5-0.9-1.5-0.9-2.6V57.1l-4.8,18.8
		c-0.2,1.2-0.5,2.2-0.9,2.8c-0.2,0.5-0.5,1.2-1.2,1.7c-0.5,0.5-1.2,0.9-2.2,0.9c-0.5,0-1.5-0.2-1.7-0.5c-0.5-0.2-0.9-0.5-1.2-1.2
		c-0.2-0.5-0.5-1.2-0.5-1.7C356.8,77.4,356.5,76.9,356.5,76.1z"/>
</g>
<g>
	<path class="st1" d="M210.9,115.1h1.7l7.9,17.4h-2.6l-2.2-5h-7.3l-2.2,5h-2.6L210.9,115.1z M214.6,124.9l-2.8-6.2l-2.6,6.2H214.6z"
		/>
	<path class="st7" d="M224.5,121.1v2.6v-0.2c1.2-1.7,2.2-2.6,3.4-2.6c0.9,0,1.7,0.5,2.6,1.5l-1.2,2c-0.9-0.9-1.5-1.2-2.2-1.2
		c-0.9,0-1.5,0.2-2,1.2c-0.5,0.5-0.9,1.5-0.9,2.6v6H222v-11.3h2.6v-0.2h-0.1L224.5,121.1L224.5,121.1z"/>
	<path class="st7" d="M239.9,129.7v2.2c-1.2,0.5-2.2,0.5-3.4,0.5c-1.7,0-3.1-0.5-4.3-1.7s-1.7-2.6-1.7-4.3s0.5-3.1,1.5-4.3
		c0.9-1.2,2.2-1.7,3.9-1.7c0.5,0,1.2,0,1.7,0.2c0.5,0,1.2,0.2,1.7,0.5v2.6c-1.2-0.9-2.2-1.2-3.1-1.2c-1.2,0-2,0.2-2.6,1.2
		c-0.5,0.9-0.9,1.7-0.9,2.8s0.2,2,1.2,2.8c0.9,0.5,1.7,1.2,2.8,1.2C237.7,130.6,238.8,130.4,239.9,129.7z"/>
	<path class="st7" d="M242.5,115.1h2.2v7.2c0.9-1.2,2-1.7,3.4-1.7c0.9,0,1.5,0.2,2,0.5c0.5,0.2,1.2,0.9,1.5,1.7
		c0.2,0.5,0.5,1.7,0.5,3.1v6.5h-2.2v-7c0-0.9-0.2-1.5-0.5-2c-0.2-0.5-0.9-0.9-1.7-0.9c-0.5,0-0.9,0-1.5,0.2
		c-0.5,0.2-0.9,0.5-1.5,1.5v8.2h-2.2V115.1L242.5,115.1z"/>
	<path class="st7" d="M256.2,116.2c0.2,0,0.5,0,0.9,0.2c0.2,0.2,0.2,0.5,0.2,0.9s0,0.5-0.2,0.9c-0.2,0.2-0.5,0.2-0.9,0.2
		c-0.2,0-0.5,0-0.9-0.2c-0.2-0.2-0.2-0.5-0.2-0.9s0-0.5,0.2-0.9C255.5,116.1,256,116.2,256.2,116.2z M255.1,121.1h2.2v11.2h-2.2
		L255.1,121.1L255.1,121.1z"/>
	<path class="st7" d="M259,122.7l4.3-4.3v2.2h3.7v2h-3.7v5.6c0,1.5,0.5,2,1.7,2c0.9,0,1.7-0.2,2.6-0.9v2c-0.9,0.5-1.7,0.9-2.8,0.9
		c-1.2,0-2-0.2-2.6-0.9c-0.2-0.2-0.2-0.2-0.5-0.5c0-0.2-0.2-0.5-0.2-0.9c0-0.2-0.2-1.2-0.2-2v-5.2L259,122.7L259,122.7z"/>
	<path class="st7" d="M278.7,126.8h-7.8c0,1.2,0.2,2,1.2,2.6c0.9,0.5,1.5,0.9,2.6,0.9c1.5,0,2.8-0.5,4.3-1.5v2.2
		c-0.5,0.5-1.5,0.9-2,1.2c-0.5,0.2-1.5,0.2-2.6,0.2s-2.2-0.2-3.1-0.9c-0.9-0.5-1.5-1.2-2-2c-0.5-0.7-0.5-2-0.5-3.1
		c0-1.7,0.5-3.1,1.5-4.3c0.9-1.2,2.2-1.7,3.9-1.7c1.5,0,2.8,0.5,3.7,1.7c0.9,1.2,1.5,2.6,1.5,4.3v0.2h-0.7V126.8z M271,125.6h5.6
		c0-0.9-0.2-1.7-0.9-2c-0.6-0.2-1.2-0.9-2-0.9c-0.9,0-1.5,0.2-2,0.9C271.5,124.1,271,124.6,271,125.6z"/>
	<path class="st7" d="M289.8,129.7v2.2c-1.2,0.5-2.2,0.5-3.4,0.5c-1.7,0-3.1-0.5-4.3-1.7c-1.2-1.2-1.7-2.6-1.7-4.3s0.5-3.1,1.5-4.3
		c0.9-1.2,2.2-1.7,3.9-1.7c0.5,0,1.2,0,1.7,0.2c0.5,0,1.2,0.2,1.7,0.5v2.6c-1.2-0.9-2.2-1.2-3.1-1.2c-1.2,0-2,0.2-2.6,1.2
		c-0.5,0.9-0.9,1.7-0.9,2.8s0.2,2,1.2,2.8c0.9,0.5,1.7,1.2,2.8,1.2C287.8,130.6,288.7,130.4,289.8,129.7z"/>
	<path class="st7" d="M290.9,122.7l4.3-4.3v2.2h3.7v2h-3.7v5.6c0,1.5,0.5,2,1.7,2c0.9,0,1.7-0.2,2.6-0.9v2c-0.9,0.5-1.7,0.9-2.8,0.9
		c-1.2,0-2-0.2-2.6-0.9c-0.2-0.2-0.2-0.2-0.5-0.5c0-0.2-0.2-0.5-0.2-0.9c0-0.2-0.2-1.2-0.2-2v-5.2L290.9,122.7L290.9,122.7z"/>
	<path class="st7" d="M308.1,132.3v-1.5c-0.5,0.5-1.2,0.9-1.7,1.2c-0.5,0.2-1.2,0.5-2,0.5c-0.9,0-1.5-0.2-2-0.5s-1.2-0.9-1.5-1.5
		c-0.2-0.5-0.5-1.7-0.5-3.1v-6.5h2.2v6.5c0,1.2,0.2,2,0.5,2.6c0.2,0.5,0.9,0.9,1.7,0.9c1.2,0,2-0.5,2.8-1.7V121h2.2v11.2h-2l0,0h0.3
		V132.3z"/>
	<path class="st7" d="M315.9,121.1v2.6v-0.2c1.2-1.7,2.2-2.6,3.4-2.6c0.9,0,1.7,0.5,2.6,1.5l-1.2,2c-0.9-0.9-1.5-1.2-2.2-1.2
		s-1.5,0.2-2,1.2c-0.5,0.5-0.9,1.5-0.9,2.6v6h-2.2v-11.3h2.6L315.9,121.1L315.9,121.1z"/>
	<path class="st7" d="M332.6,126.8h-7.9c0,1.2,0.2,2,1.2,2.6c0.9,0.5,1.5,0.9,2.6,0.9c1.5,0,2.8-0.5,4.3-1.5v2.2
		c-0.5,0.5-1.5,0.9-2,1.2c-0.5,0.2-1.5,0.2-2.6,0.2c-1.2,0-2.2-0.2-3.1-0.9c-0.9-0.6-1.5-1.2-2-2s-0.5-2-0.5-3.1
		c0-1.7,0.5-3.1,1.5-4.3c0.9-1.2,2.2-1.7,3.9-1.7c1.5,0,2.8,0.5,3.7,1.7C332.4,123.5,332.9,124.9,332.6,126.8L332.6,126.8
		L332.6,126.8z M324.7,125.6h5.6c0-0.9-0.2-1.7-0.9-2c-0.6-0.2-1.2-0.9-2-0.9s-1.5,0.2-2,0.9C325.2,124.1,324.9,124.6,324.7,125.6z"
		/>
	<path class="st2" d="M342.4,115.1h2.6V130h7.9v2.2h-10L342.4,115.1L342.4,115.1z"/>
	<path class="st7" d="M361.9,125.6v4.8c0,0.2,0,0.5,0.2,0.5s0.5-0.2,1.5-0.5v1.5c-0.5,0.2-0.9,0.5-1.2,0.5c-0.2,0-0.5,0.2-0.9,0.2
		c-0.9,0-1.5-0.2-1.7-1.2c-0.9,0.9-2,1.2-3.1,1.2c-0.9,0-1.5-0.2-2-0.9c-0.5-0.5-0.9-1.2-0.9-2c0-0.7,0.2-1.5,0.9-2
		c0.5-0.5,1.2-1.2,2.2-1.5l2.8-1.2v-0.5c0-1.5-0.5-2-2-2c-1.2,0-2.6,0.5-3.7,2v-2.6c0.9-1.2,2.2-1.5,3.7-1.5c1.2,0,2.2,0.2,3.1,0.9
		c0.2,0.2,0.5,0.5,0.5,0.9c0.2,0.2,0.2,0.5,0.2,1.2C361.9,123.9,361.9,124.6,361.9,125.6z M359.7,130v-3.4l-1.5,0.5
		c-0.9,0.2-1.5,0.5-1.7,0.9c-0.2,0.2-0.5,0.5-0.5,1.2c0,0.5,0.2,0.9,0.5,1.2c0.2,0.2,0.5,0.5,1.2,0.5
		C358.2,131.1,359,130.8,359.7,130z"/>
	<path class="st7" d="M365.2,115.1h2.2v6.7c0.9-0.9,2-1.2,3.1-1.2c1.5,0,2.6,0.5,3.7,1.7c1.2,1.2,1.5,2.6,1.5,4.3
		c0,2-0.5,3.4-1.7,4.5c-1.2,1.2-2.6,1.7-4.5,1.7c-0.9,0-1.5,0-2.2-0.2c-0.9-0.2-1.5-0.2-2-0.5v-17H365.2z M367.4,124.1v6.2
		c0.9,0.2,1.7,0.2,2.2,0.2c1.2,0,1.7-0.2,2.6-1.2c0.5-0.9,0.9-1.7,0.9-2.8s-0.2-2-0.9-2.8c-0.5-0.9-1.5-1.2-2.2-1.2
		C369.1,122.9,368.4,123.3,367.4,124.1z"/>
	<path class="st7" d="M385.6,121.1v-0.5c0-2,0.2-3.1,1.2-4.3c0.9-0.9,1.7-1.5,2.8-1.5c0.5,0,1.2,0,1.7,0.2v2.2
		c-0.2,0-0.9-0.2-1.2-0.2c-0.9,0-1.5,0.2-2,0.9c-0.2,0.5-0.5,1.5-0.5,2.6v0.5h2v2h-2v9.3h-2.2V123h-1.7v-2L385.6,121.1L385.6,121.1z
		"/>
	<path class="st7" d="M396.8,121.1c1.7,0,3.1,0.5,4.3,1.7c1.2,1.2,1.7,2.6,1.7,4.3s-0.5,3.1-1.7,4.3s-2.6,1.7-4.5,1.7
		c-1.7,0-3.1-0.5-4.3-1.7c-1.2-1.2-1.7-2.6-1.7-4.3s0.5-3.1,1.7-4.3C393.5,121.6,394.7,121.1,396.8,121.1z M396.4,122.9
		c-1.2,0-2,0.2-2.6,1.2s-1.2,1.7-1.2,2.8c0,1.1,0.2,2,1.2,2.6c0.9,0.5,1.7,1.2,2.8,1.2c1.2,0,2-0.2,2.8-1.2c0.9-0.5,1.2-1.7,1.2-2.8
		s-0.2-2-1.2-2.8C398.8,122.9,397.7,122.9,396.4,122.9z"/>
	<path class="st7" d="M407.7,121.1v2.6v-0.2c1.2-1.7,2.2-2.6,3.4-2.6c0.9,0,1.7,0.5,2.6,1.5l-1.2,2c-0.9-0.9-1.5-1.2-2.2-1.2
		s-1.5,0.2-2,1.2c-0.5,0.5-0.9,1.5-0.9,2.6v6h-2.2v-11.3h2.6L407.7,121.1L407.7,121.1z"/>
	<path class="st3" d="M437.6,128.3v2.8c-1.7,1.2-3.9,1.5-6.2,1.5c-2,0-3.7-0.2-4.8-1.2c-1.2-0.9-2.6-2-3.1-3.1
		c-0.9-1.5-1.2-2.8-1.2-4.5c0-2.6,0.9-4.5,2.8-6.5c1.7-1.7,3.9-2.6,6.7-2.6c1.7,0,3.9,0.5,6,1.5v2.6c-2-1.2-3.9-1.7-6-1.7
		c-2,0-3.7,0.5-5,2c-1.5,1.2-2,2.8-2,4.8s0.5,3.4,2,4.8c1.5,1.5,2.8,2,5,2C433.3,130.4,435.7,129.7,437.6,128.3z"/>
	<path class="st7" d="M442.7,121.1v2.6v-0.2c1.2-1.7,2.2-2.6,3.4-2.6c0.9,0,1.7,0.5,2.6,1.5l-1.2,2c-0.9-0.9-1.5-1.2-2.2-1.2
		s-1.5,0.2-2,1.2c-0.5,0.5-0.9,1.5-0.9,2.6v6h-2.2v-11.3h2.6L442.7,121.1L442.7,121.1z"/>
	<path class="st7" d="M459.5,126.8h-7.9c0,1.2,0.2,2,1.2,2.6c0.9,0.5,1.5,0.9,2.6,0.9c1.5,0,2.8-0.5,4.3-1.5v2.2
		c-0.5,0.5-1.5,0.9-2,1.2c-0.5,0.2-1.5,0.2-2.6,0.2c-1.2,0-2.2-0.2-3.1-0.9c-0.9-0.6-1.5-1.2-2-2c-0.5-0.9-0.5-2-0.5-3.1
		c0-1.7,0.5-3.1,1.5-4.3c0.9-1.2,2.2-1.7,3.9-1.7c1.5,0,2.8,0.5,3.7,1.7C459.3,123.5,459.9,124.9,459.5,126.8L459.5,126.8
		L459.5,126.8z M451.3,125.6h5.6c0-0.9-0.2-1.7-0.9-2c-0.5-0.2-1.2-0.9-2-0.9c-0.9,0-1.5,0.2-2,0.9
		C452,124.1,451.7,124.6,451.3,125.6z"/>
	<path class="st7" d="M469,125.6v4.8c0,0.2,0,0.5,0.2,0.5s0.5-0.2,1.5-0.5v1.5c-0.5,0.2-0.9,0.5-1.2,0.5c-0.2,0-0.5,0.2-0.9,0.2
		c-0.9,0-1.5-0.2-1.7-1.2c-0.9,0.9-2,1.2-3.1,1.2c-0.9,0-1.5-0.2-2-0.9s-0.9-1.2-0.9-2c0-0.7,0.2-1.5,0.9-2c0.5-0.5,1.2-1.2,2.2-1.5
		l2.8-1.2v-0.5c0-1.5-0.5-2-2-2c-1.2,0-2.6,0.5-3.7,2v-2.6c0.9-1.2,2.2-1.5,3.7-1.5c1.2,0,2.2,0.2,3.1,0.9c0.2,0.2,0.5,0.5,0.5,0.9
		c0.2,0.2,0.2,0.5,0.2,1.2C469,123.9,469,124.6,469,125.6z M466.8,130v-3.4l-1.5,0.5c-0.9,0.2-1.5,0.5-1.7,0.9
		c-0.2,0.2-0.5,0.5-0.5,1.2c0,0.5,0.2,0.9,0.5,1.2c0.2,0.2,0.5,0.5,1.2,0.5C465.5,131.1,466.4,130.8,466.8,130z"/>
	<path class="st7" d="M471.1,122.7l4.3-4.3v2.2h3.7v2h-3.8v5.6c0,1.5,0.5,2,1.7,2c0.9,0,1.7-0.2,2.6-0.9v2c-0.9,0.5-1.7,0.9-2.8,0.9
		c-1.2,0-2-0.2-2.6-0.9c-0.2-0.2-0.2-0.2-0.5-0.5c0-0.2-0.2-0.5-0.2-0.9c0-0.2-0.2-1.2-0.2-2v-5.2L471.1,122.7L471.1,122.7z"/>
	<path class="st7" d="M482.5,116.2c0.2,0,0.5,0,0.9,0.2s0.2,0.5,0.2,0.9s0,0.5-0.2,0.9c-0.2,0.2-0.5,0.2-0.9,0.2s-0.5,0-0.9-0.2
		c-0.2-0.2-0.2-0.5-0.2-0.9s0-0.5,0.2-0.9C481.5,116.2,482,116.2,482.5,116.2z M481.2,121.1h2.2v11.2h-2.2V121.1z"/>
	<path class="st7" d="M493.7,121.1h2.6l-5,11.5h-0.9l-5-11.5h2.6l3.1,7L493.7,121.1z"/>
	<path class="st7" d="M506.9,126.8H499c0,1.2,0.2,2,1.2,2.6c0.9,0.5,1.5,0.9,2.6,0.9c1.5,0,2.8-0.5,4.3-1.5v2.2
		c-0.5,0.5-1.5,0.9-2,1.2c-0.5,0.2-1.5,0.2-2.6,0.2c-1.2,0-2.2-0.2-3.1-0.9c-0.9-0.5-1.5-1.2-2-2c-0.5-0.9-0.5-2-0.5-3.1
		c0-1.7,0.5-3.1,1.5-4.3c0.9-1.2,2.2-1.7,3.9-1.7c1.5,0,2.8,0.5,3.7,1.7C506.6,123.5,507.1,124.9,506.9,126.8L506.9,126.8
		L506.9,126.8z M498.9,125.6h5.6c0-0.9-0.2-1.7-0.9-2c-0.5-0.2-1.2-0.9-2-0.9s-1.5,0.2-2,0.9C499.5,124.1,499.3,124.6,498.9,125.6z"
		/>
	<path class="st4" d="M529.2,115.1h2.6v17.1h-2.6v-7.7h-9.6v7.7H517v-17.1h2.6v7.7h9.6L529.2,115.1L529.2,115.1z"/>
	<path class="st7" d="M536.2,116.2c0.2,0,0.5,0,0.9,0.2c0.2,0.2,0.2,0.5,0.2,0.9s0,0.5-0.2,0.9c-0.2,0.2-0.5,0.2-0.9,0.2
		c-0.2,0-0.5,0-0.9-0.2c-0.2-0.2-0.2-0.5-0.2-0.9s0-0.5,0.2-0.9C535.7,116.2,535.9,116.2,536.2,116.2z M535.1,121.1h2.2v11.2h-2.2
		V121.1z"/>
	<path class="st7" d="M539.8,124.9c0-1.2,0.5-2.2,1.5-2.8c0.9-0.9,2-1.2,3.7-1.2h4.8v1.7h-2.2c0.5,0.5,0.9,0.9,0.9,1.2
		c0,0.2,0.2,0.9,0.2,1.5c0,0.5-0.2,1.2-0.5,1.7s-0.9,1.2-1.5,1.5c-0.5,0.2-1.5,0.5-2.6,0.9c-0.9,0-1.5,0.2-1.5,0.9
		c0,0.2,0.2,0.5,0.5,0.5c0.2,0.2,0.9,0.2,1.7,0.5c1.5,0.2,2.2,0.5,2.8,0.9c0.5,0.2,0.9,0.2,1.2,0.9c0.5,0.5,0.9,1.2,0.9,2
		c0,1.2-0.5,2-1.5,2.6c-0.9,0.5-2.2,0.9-3.9,0.9s-2.8-0.2-3.9-0.9c-0.9-0.5-1.5-1.5-1.5-2.6c0-1.5,0.9-2.6,2.8-3.1
		c-0.9-0.5-1.2-0.9-1.2-1.5c0-0.2,0.2-0.5,0.5-1.2c0.2-0.5,0.9-0.5,1.5-0.5C540.7,127.8,539.8,126.6,539.8,124.9z M543.8,132.8
		c-0.9,0-1.5,0.2-2,0.5c-0.5,0.2-0.9,0.9-0.9,1.2c0,1.2,1.2,1.7,3.1,1.7c1.2,0,1.7-0.2,2.2-0.5c0.5-0.2,0.9-0.9,0.9-1.2
		c0-0.5-0.2-0.9-1.2-1.5C545.8,133,544.6,132.8,543.8,132.8z M544.1,122.9c-0.5,0-1.2,0.2-1.7,0.5c-0.5,0.2-0.5,0.9-0.5,1.5
		c0,0.5,0.2,1.2,0.5,1.5c0.2,0.2,0.9,0.5,1.7,0.5c0.5,0,1.2-0.2,1.7-0.5c0.5-0.2,0.5-0.9,0.5-1.5c0-0.5-0.2-1.2-0.5-1.5
		C545.4,123.3,544.8,122.9,544.1,122.9z"/>
	<path class="st7" d="M551.3,115.1h2.2v7.2c0.9-1.2,2-1.7,3.4-1.7c0.9,0,1.5,0.2,2,0.5c0.5,0.2,1.2,0.9,1.5,1.7
		c0.2,0.5,0.5,1.7,0.5,3.1v6.5h-2.2v-7c0-0.9-0.2-1.5-0.5-2c-0.2-0.5-0.9-0.9-1.7-0.9c-0.5,0-0.9,0-1.5,0.2
		c-0.5,0.2-0.9,0.5-1.5,1.5v8.2h-2.2V115.1L551.3,115.1z"/>
	<path class="st7" d="M563.5,125.6h6.2v2.6h-6.2V125.6z"/>
	<path class="st7" d="M571.9,138.2v-17.1h3.9c2,0,3.7,0.5,4.8,1.5c1.2,0.9,1.7,2.6,1.7,4.3s-0.5,3.1-1.7,4.3s-2.6,1.7-3.9,1.7
		c-0.9,0-1.5-0.2-2.6-0.5v6.2h-2.2V138.2z M575.9,122.9h-1.7v7c0.5,0.2,1.5,0.5,2.2,0.5c1.2,0,2-0.2,2.6-1.2
		c0.6-0.9,1.2-1.7,1.2-2.8c0-0.9-0.2-1.5-0.5-2c-0.2-0.5-0.9-0.9-1.5-1.2C577.9,123.3,576.9,122.9,575.9,122.9z"/>
	<path class="st7" d="M594.5,126.8h-7.9c0,1.2,0.2,2,1.2,2.6c0.9,0.5,1.5,0.9,2.6,0.9c1.5,0,2.8-0.5,4.3-1.5v2.2
		c-0.5,0.5-1.5,0.9-2,1.2c-0.5,0.2-1.5,0.2-2.6,0.2c-1.2,0-2.2-0.2-3.1-0.9c-0.9-0.5-1.5-1.2-2-2c-0.5-0.9-0.5-2-0.5-3.1
		c0-1.7,0.5-3.1,1.5-4.3c0.9-1.2,2.2-1.7,3.9-1.7c1.5,0,2.8,0.5,3.7,1.7C594.5,123.5,594.7,124.9,594.5,126.8L594.5,126.8
		L594.5,126.8z M586.5,125.6h5.6c0-0.9-0.2-1.7-0.9-2c-0.5-0.2-1.2-0.9-2-0.9c-0.7,0-1.5,0.2-2,0.9
		C587,124.1,586.8,124.6,586.5,125.6z"/>
	<path class="st7" d="M599.5,121.1v2.6v-0.2c1.2-1.7,2.2-2.6,3.4-2.6c0.9,0,1.7,0.5,2.6,1.5l-1.2,2c-0.9-0.9-1.5-1.2-2.2-1.2
		s-1.5,0.2-2,1.2c-0.5,0.5-0.9,1.5-0.9,2.6v6h-2v-11.3h2.2v-0.6H599.5z"/>
	<path class="st7" d="M607.4,121.1v-0.5c0-2,0.2-3.1,1.2-4.3c0.9-0.9,1.7-1.5,2.8-1.5c0.5,0,1.2,0,1.7,0.2v2.2
		c-0.2,0-0.9-0.2-1.2-0.2c-0.9,0-1.5,0.2-2,0.9c-0.2,0.5-0.5,1.5-0.5,2.6v0.5h2v2h-2v9.3h-2.2V123h-1.5v-2L607.4,121.1L607.4,121.1z
		"/>
	<path class="st7" d="M618.6,121.1c1.7,0,3.1,0.5,4.3,1.7s1.7,2.6,1.7,4.3s-0.5,3.1-1.7,4.3s-2.6,1.7-4.5,1.7
		c-1.7,0-3.1-0.5-4.3-1.7s-1.7-2.6-1.7-4.3s0.5-3.1,1.7-4.3C615.2,121.6,616.7,121.1,618.6,121.1z M618.4,122.9
		c-1.2,0-2,0.2-2.6,1.2s-1.2,1.7-1.2,2.8c0,1.1,0.2,2,1.2,2.6c0.9,0.5,1.7,1.2,2.8,1.2s2-0.2,2.8-1.2c0.9-0.5,1.2-1.7,1.2-2.8
		s-0.2-2-1.2-2.8C620.6,122.9,619.5,122.9,618.4,122.9z"/>
	<path class="st7" d="M629.6,121.1v2.6v-0.2c1.2-1.7,2.2-2.6,3.4-2.6c0.9,0,1.7,0.5,2.6,1.5l-1.2,2c-0.9-0.9-1.5-1.2-2.2-1.2
		s-1.5,0.2-2,1.2c-0.5,0.5-0.9,1.5-0.9,2.6v6h-2.2v-11.3h2.6L629.6,121.1L629.6,121.1z"/>
	<path class="st7" d="M646.5,124.1v8.2h-2.2v-6.2c0-1.2-0.2-2.2-0.5-2.6c-0.2-0.5-0.9-0.9-1.7-0.9c-0.5,0-0.9,0-1.5,0.2
		c-0.2,0.2-0.9,0.5-1.5,1.2v8.2h-2.2V121h2.2v1.5c1.2-1.2,2.2-1.7,3.4-1.7c1.5,0,2.6,0.5,3.4,2c1.2-1.5,2.6-2,3.7-2
		c1,0,2,0.2,2.8,1.2c0.9,0.9,1.2,2,1.2,3.7v6.7h-2.2v-6.7c0-0.9-0.2-1.7-0.5-2.2c-0.2-0.5-0.9-0.9-1.7-0.9
		C648.2,122.7,647.4,123.3,646.5,124.1z"/>
	<path class="st7" d="M663.7,125.6v4.8c0,0.2,0,0.5,0.2,0.5s0.5-0.2,1.5-0.5v1.5c-0.5,0.2-0.9,0.5-1.2,0.5c-0.2,0-0.5,0.2-0.9,0.2
		c-0.9,0-1.5-0.2-1.7-1.2c-0.9,0.9-2,1.2-3.1,1.2c-0.9,0-1.5-0.2-2-0.9c-0.5-0.6-0.9-1.2-0.9-2c0-0.7,0.2-1.5,0.9-2
		c0.5-0.5,1.2-1.2,2.2-1.5l2.8-1.2v-0.5c0-1.5-0.5-2-2-2c-1.2,0-2.6,0.5-3.7,2v-2.6c0.9-1.2,2.2-1.5,3.7-1.5c1.2,0,2.2,0.2,3.1,0.9
		c0.2,0.2,0.5,0.5,0.5,0.9c0.2,0.2,0.2,0.5,0.2,1.2C663.7,123.9,663.7,124.6,663.7,125.6z M661.7,130v-3.4l-1.5,0.5
		c-0.9,0.2-1.5,0.5-1.7,0.9c-0.2,0.2-0.5,0.5-0.5,1.2c0,0.5,0.2,0.9,0.5,1.2c0.2,0.2,0.5,0.5,1.2,0.5
		C660.4,131.1,660.9,130.8,661.7,130z"/>
	<path class="st7" d="M669.6,121.1v1.5c1.2-1.2,2.2-1.7,3.4-1.7c0.9,0,1.5,0.2,2,0.5c0.5,0.2,1.2,0.9,1.5,1.5
		c0.2,0.5,0.5,1.7,0.5,3.1v6.5h-2.2V126c0-1.2-0.2-2-0.5-2.6c-0.2-0.5-0.9-0.9-1.7-0.9c-1.2,0-2,0.5-2.8,1.7v8.2h-2.3v-11.2
		L669.6,121.1L669.6,121.1z"/>
	<path class="st7" d="M688.7,129.7v2.2c-1.2,0.5-2.2,0.5-3.4,0.5c-1.7,0-3.1-0.5-4.3-1.7s-1.7-2.6-1.7-4.3s0.5-3.1,1.5-4.3
		c0.9-1.2,2.2-1.7,3.9-1.7c0.5,0,1.2,0,1.7,0.2c0.5,0,1.2,0.2,1.7,0.5v2.6c-1.2-0.9-2.2-1.2-3.1-1.2c-1.2,0-2,0.2-2.6,1.2
		c-0.5,0.9-0.9,1.7-0.9,2.8s0.2,2,1.2,2.8c0.9,0.5,1.7,1.2,2.8,1.2C686.5,130.6,687.7,130.4,688.7,129.7z"/>
	<path class="st7" d="M700.9,126.8H693c0,1.2,0.2,2,1.2,2.6c0.9,0.5,1.5,0.9,2.6,0.9c1.5,0,2.8-0.5,4.3-1.5v2.2
		c-0.5,0.5-1.5,0.9-2,1.2c-0.5,0.2-1.5,0.2-2.6,0.2s-2.2-0.2-3.1-0.9c-0.9-0.5-1.5-1.2-2-2c-0.5-0.7-0.5-2-0.5-3.1
		c0-1.7,0.5-3.1,1.5-4.3c0.9-1.2,2.2-1.7,3.9-1.7c1.5,0,2.8,0.5,3.7,1.7C700.6,123.5,701.1,124.9,700.9,126.8L700.9,126.8
		L700.9,126.8z M692.9,125.6h5.6c0-0.9-0.2-1.7-0.9-2c-0.5-0.2-1.2-0.9-2-0.9c-0.9,0-1.5,0.2-2,0.9
		C693.4,124.1,693.2,124.6,692.9,125.6z"/>
	<path class="st5" d="M205.4,145.5h9.9v2.2H208v5.4h7v2.2h-7v5.4h7.7v2h-10.1v-17.1L205.4,145.5L205.4,145.5z"/>
	<path class="st7" d="M220,151.3v1.5c1.2-1.2,2.2-1.7,3.4-1.7c0.9,0,1.5,0.2,2,0.5s1.2,0.9,1.5,1.5c0.2,0.5,0.5,1.7,0.5,3.1v6.5
		h-2.2v-6.5c0-1.2-0.2-2-0.5-2.6s-0.9-0.9-1.7-0.9c-1.2,0-2,0.5-2.8,1.7v8.2H218v-11.2h2.2l0,0H220V151.3z"/>
	<path class="st7" d="M240.3,157.3h-7.9c0,1.2,0.2,2,1.2,2.6c0.9,0.5,1.5,0.9,2.6,0.9c1.5,0,2.8-0.5,4.3-1.5v2.2
		c-0.5,0.5-1.5,0.9-2,1.2c-0.5,0.2-1.5,0.2-2.6,0.2s-2.2-0.2-3.1-0.9c-0.9-0.5-1.5-1.2-2-2c-0.5-0.9-0.5-2-0.5-3.1
		c0-1.7,0.5-3.1,1.5-4.3c0.9-1.2,2.2-1.7,3.9-1.7c1.5,0,2.8,0.5,3.7,1.7s1.5,2.6,1.5,4.3v0.2h-0.6V157.3z M232,155.9h5.6
		c0-0.9-0.2-1.7-0.9-2c-0.5-0.2-1.2-0.9-2-0.9c-0.9,0-1.5,0.2-2,0.9C232.7,154.1,232.3,155.1,232,155.9z"/>
	<path class="st7" d="M245,151.3v2.6v-0.2c1.2-1.7,2.2-2.6,3.4-2.6c0.9,0,1.7,0.5,2.6,1.5l-1.2,2c-0.9-0.9-1.5-1.2-2.2-1.2
		s-1.5,0.2-2,1.2c-0.5,0.5-0.9,1.5-0.9,2.6v5.6h-2.2v-11.2L245,151.3L245,151.3z"/>
	<path class="st7" d="M252.1,155.4c0-1.2,0.5-2.2,1.5-2.8c0.9-0.9,2-1.2,3.7-1.2h4.8v1.7h-2.6c0.5,0.5,0.9,0.9,0.9,1.2
		c0,0.2,0.2,0.9,0.2,1.5c0,0.5-0.2,1.2-0.5,1.7c-0.2,0.5-0.9,1.2-1.5,1.5c-0.5,0.2-1.5,0.5-2.6,0.9c-0.9,0-1.5,0.2-1.5,0.9
		c0,0.2,0.2,0.5,0.5,0.5c0.2,0.2,0.9,0.2,1.7,0.5c1.5,0.2,2.2,0.5,2.8,0.9c0.5,0.2,0.9,0.2,1.2,0.9c0.5,0.5,0.9,1.2,0.9,2
		c0,1.2-0.5,2-1.5,2.6c-0.9,0.5-2.2,0.9-3.9,0.9s-2.8-0.2-3.9-0.9c-0.9-0.5-1.5-1.5-1.5-2.6c0-1.5,0.9-2.6,2.8-3.1
		c-0.9-0.5-1.2-0.9-1.2-1.5c0-0.2,0.2-0.5,0.5-1.2c0.2-0.5,0.9-0.5,1.5-0.5C252.8,158,252.1,157.1,252.1,155.4z M255.6,163.3
		c-0.9,0-1.5,0.2-2,0.5c-0.5,0.2-0.9,0.9-0.9,1.2c0,1.2,1.2,1.7,3.1,1.7c1.2,0,1.7-0.2,2.2-0.5c0.5-0.2,0.9-0.9,0.9-1.2
		c0-0.5-0.2-0.9-1.2-1.5C257.6,163.5,256.9,163.3,255.6,163.3z M256.2,153.4c-0.5,0-1.2,0.2-1.7,0.5s-0.5,0.9-0.5,1.5
		s0.2,1.2,0.5,1.5s0.9,0.5,1.7,0.5c0.5,0,1.2-0.2,1.7-0.5s0.5-0.9,0.5-1.5s-0.2-1.2-0.5-1.5C257.6,153.7,256.9,153.4,256.2,153.4z"
		/>
	<path class="st7" d="M271,151.3h2.6l-8.2,17.1h-2.6l3.9-8.2l-4.5-8.9h2.6l3.1,6.5L271,151.3z"/>
	<path class="st7" d="M274.3,155.9h6.2v2.6h-6.2V155.9z"/>
	<path class="st7" d="M292.8,157.3h-7.9c0,1.2,0.2,2,1.2,2.6c0.9,0.6,1.5,0.9,2.6,0.9c1.5,0,2.8-0.5,4.3-1.5v2.2
		c-0.5,0.5-1.5,0.9-2,1.2c-0.5,0.2-1.5,0.2-2.6,0.2c-1.2,0-2.2-0.2-3.1-0.9c-0.9-0.5-1.5-1.2-2-2c-0.5-0.9-0.5-2-0.5-3.1
		c0-1.7,0.5-3.1,1.5-4.3s2.2-1.7,3.9-1.7c1.5,0,2.8,0.5,3.7,1.7c0.7,1.2,1.5,2.6,1.5,4.3v0.2h-0.6V157.3z M284.9,155.9h5.6
		c0-0.9-0.2-1.7-0.9-2c-0.5-0.2-1.2-0.9-2-0.9c-0.9,0-1.5,0.2-2,0.9C285.6,154.1,284.9,155.1,284.9,155.9z"/>
	<path class="st7" d="M295.7,151.3v-0.5c0-2,0.2-3.1,1.2-4.3c0.9-0.9,1.7-1.5,2.8-1.5c0.5,0,1.2,0,1.7,0.2v2.2
		c-0.2,0-0.9-0.2-1.2-0.2c-0.9,0-1.5,0.2-2,0.9c-0.2,0.5-0.5,1.5-0.5,2.6v0.5h2v2h-2v9.3h-2.2v-9.3h-1.7v-2L295.7,151.3L295.7,151.3
		z"/>
	<path class="st7" d="M301.9,151.3v-0.5c0-2,0.2-3.1,1.2-4.3c0.9-0.9,1.7-1.5,2.8-1.5c0.5,0,1.2,0,1.7,0.2v2.2
		c-0.2,0-0.9-0.2-1.2-0.2c-0.9,0-1.5,0.2-2,0.9c-0.2,0.5-0.5,1.5-0.5,2.6v0.5h2v2h-2v9.3h-2.2v-9.3H300v-2L301.9,151.3L301.9,151.3z
		"/>
	<path class="st7" d="M309.2,146.6c0.2,0,0.5,0,0.9,0.2c0.2,0.2,0.2,0.5,0.2,0.9c0,0.2,0,0.5-0.2,0.9c-0.2,0.2-0.5,0.2-0.9,0.2
		c-0.2,0-0.5,0-0.9-0.2c-0.2-0.2-0.2-0.5-0.2-0.9c0-0.2,0-0.5,0.2-0.9C308.6,146.6,309,146.6,309.2,146.6z M308.1,151.3h2.2v11.2
		h-2.2V151.3z"/>
	<path class="st7" d="M322.1,160.1v2.2c-1.2,0.5-2.2,0.5-3.4,0.5c-1.7,0-3.1-0.5-4.3-1.7s-1.7-2.2-1.7-4.3c0-1.7,0.5-3.1,1.5-4.3
		c0.9-1.2,2.2-1.7,3.9-1.7c0.5,0,1.2,0,1.7,0.2c0.5,0,1.2,0.2,1.7,0.5v2.6c-1.2-0.9-2.2-1.2-3.1-1.2c-1.2,0-2,0.2-2.6,1.2
		c-0.5,0.9-0.9,1.7-0.9,2.8s0.2,2,1.2,2.8c0.9,0.5,1.7,1.2,2.8,1.2C319.9,160.9,321,160.6,322.1,160.1z"/>
	<path class="st7" d="M325.9,146.6c0.2,0,0.5,0,0.9,0.2c0.2,0.2,0.2,0.5,0.2,0.9c0,0.2,0,0.5-0.2,0.9c-0.2,0.2-0.5,0.2-0.9,0.2
		s-0.5,0-0.9-0.2c-0.2-0.2-0.2-0.5-0.2-0.9c0-0.2,0-0.5,0.2-0.9C325.2,146.6,325.4,146.6,325.9,146.6z M324.7,151.3h2.2v11.2h-2.2
		V151.3z"/>
	<path class="st7" d="M339.8,157.3h-7.9c0,1.2,0.2,2,1.2,2.6c0.9,0.6,1.5,0.9,2.6,0.9c1.5,0,2.8-0.5,4.3-1.5v2.2
		c-0.5,0.5-1.5,0.9-2,1.2c-0.5,0.2-1.5,0.2-2.6,0.2c-1.2,0-2.2-0.2-3.1-0.9c-0.9-0.5-1.5-1.2-2-2c-0.5-0.9-0.5-2-0.5-3.1
		c0-1.7,0.5-3.1,1.5-4.3c0.9-1.2,2.2-1.7,3.9-1.7c1.5,0,2.8,0.5,3.7,1.7C339.6,153.9,340.1,155.4,339.8,157.3L339.8,157.3
		L339.8,157.3z M332,155.9h5.6c0-0.9-0.2-1.7-0.9-2c-0.5-0.2-1.2-0.9-2-0.9s-1.5,0.2-2,0.9C332.6,154.1,332,155.1,332,155.9z"/>
	<path class="st7" d="M344.7,151.3v1.5c1.2-1.2,2.2-1.7,3.4-1.7c0.9,0,1.5,0.2,2,0.5s1.2,0.9,1.5,1.5c0.2,0.5,0.5,1.7,0.5,3.1v6.5
		h-2.2v-6.5c0-1.2-0.2-2-0.5-2.6c-0.2-0.5-0.9-0.9-1.7-0.9c-1.2,0-2,0.5-2.8,1.7v8.2h-2.2v-11.2h2.2l0,0h-0.2V151.3z"/>
	<path class="st7" d="M353.5,153l4.3-4.3v2.6h3.7v2h-3.7v5.6c0,1.5,0.5,2,1.7,2c0.9,0,1.7-0.2,2.6-0.9v2c-0.9,0.5-1.7,0.9-2.8,0.9
		c-1.2,0-2-0.2-2.6-0.9c-0.2-0.2-0.2-0.2-0.5-0.5c0-0.2-0.2-0.5-0.2-0.9c0-0.2-0.2-1.2-0.2-2v-4.8L353.5,153L353.5,153z"/>
	<path class="st6" d="M384.6,145.5h2.2v17.1h-2.6v-13.4l-5.4,6.7h-0.5l-5.4-6.7v13.4h-2.6v-17.1h2.2l5.6,7L384.6,145.5z"/>
	<path class="st7" d="M397.3,155.9v4.8c0,0.2,0,0.5,0.2,0.5s0.5-0.2,1.5-0.5v1.5c-0.5,0.2-0.9,0.5-1.2,0.5c-0.2,0-0.5,0.2-0.9,0.2
		c-0.9,0-1.5-0.2-1.7-1.2c-0.9,0.9-2,1.2-3.1,1.2c-0.9,0-1.5-0.2-2-0.9c-0.5-0.5-0.9-1.2-0.9-2c0-0.7,0.2-1.5,0.9-2
		c0.5-0.5,1.2-1.2,2.2-1.5l2.8-1.2v-0.5c0-1.5-0.5-2-2-2c-1.2,0-2.6,0.5-3.7,2v-2.6c0.9-1.2,2.2-1.5,3.7-1.5c1.2,0,2.2,0.2,3.1,0.9
		c0.2,0.2,0.5,0.5,0.5,0.9c0.2,0.2,0.2,0.5,0.2,1.2C397.3,154.1,397.3,155.1,397.3,155.9z M395.1,160.4V157l-1.5,0.5
		c-0.9,0.2-1.5,0.5-1.7,0.9c-0.2,0.2-0.5,0.5-0.5,1.2c0,0.5,0.2,0.9,0.5,1.2c0.2,0.2,0.5,0.5,1.2,0.5
		C394,161.6,394.5,161.2,395.1,160.4z"/>
	<path class="st7" d="M409.7,160.1v2.2c-1.2,0.5-2.2,0.5-3.4,0.5c-1.7,0-3.1-0.5-4.3-1.7s-1.7-2.6-1.7-4.3s0.5-3.1,1.5-4.3
		c0.9-1.2,2.2-1.7,3.9-1.7c0.5,0,1.2,0,1.7,0.2c0.5,0,1.2,0.2,1.7,0.5v2.6c-1.2-0.9-2.2-1.2-3.1-1.2c-1.2,0-2,0.2-2.6,1.2
		c-0.5,0.9-0.9,1.7-0.9,2.8s0.2,2,1.2,2.8c0.9,0.5,1.7,1.2,2.8,1.2C407.4,160.9,408.6,160.6,409.7,160.1z"/>
	<path class="st7" d="M412.2,145.5h2.2v7.2c0.9-1.2,2-1.7,3.4-1.7c0.9,0,1.5,0.2,2,0.5s1.2,0.9,1.5,1.7c0.2,0.5,0.5,1.7,0.5,3.1v6.2
		h-2.1v-6.8c0-0.9-0.2-1.5-0.5-2c-0.2-0.5-0.9-0.9-1.7-0.9c-0.5,0-0.9,0-1.5,0.2c-0.5,0.2-0.9,0.5-1.5,1.5v8.2h-2.1L412.2,145.5
		L412.2,145.5z"/>
	<path class="st7" d="M426.1,146.6c0.2,0,0.5,0,0.9,0.2c0.2,0.2,0.2,0.5,0.2,0.9c0,0.2,0,0.5-0.2,0.9c-0.2,0.2-0.5,0.2-0.9,0.2
		s-0.5,0-0.9-0.2c-0.2-0.2-0.2-0.5-0.2-0.9c0-0.2,0-0.5,0.2-0.9C425.5,146.6,425.8,146.6,426.1,146.6z M424.9,151.3h2.2v11.2h-2.2
		V151.3z"/>
	<path class="st7" d="M432.8,151.3v1.5c1.2-1.2,2.2-1.7,3.4-1.7c0.9,0,1.5,0.2,2,0.5s1.2,0.9,1.5,1.5c0.2,0.5,0.5,1.7,0.5,3.1v6.5
		H438v-6.5c0-1.2-0.2-2-0.5-2.6c-0.2-0.5-0.9-0.9-1.7-0.9c-1.2,0-2,0.5-2.8,1.7v8.2h-2.2v-11.2h2.2l0,0h-0.2V151.3z"/>
	<path class="st7" d="M452.8,157.3h-7.9c0,1.2,0.2,2,1.2,2.6c0.9,0.6,1.5,0.9,2.6,0.9c1.5,0,2.8-0.5,4.3-1.5v2.2
		c-0.5,0.5-1.5,0.9-2,1.2c-0.5,0.2-1.5,0.2-2.6,0.2s-2.2-0.2-3.1-0.9c-0.9-0.5-1.5-1.2-2-2c-0.5-0.9-0.5-2-0.5-3.1
		c0-1.7,0.5-3.1,1.5-4.3c0.9-1.2,2.2-1.7,3.9-1.7c1.5,0,2.8,0.5,3.7,1.7C452.6,153.9,453.1,155.4,452.8,157.3L452.8,157.3
		L452.8,157.3z M444.9,155.9h5.6c0-0.9-0.2-1.7-0.9-2c-0.5-0.2-1.2-0.9-2-0.9c-0.9,0-1.5,0.2-2,0.9
		C445.2,154.1,444.9,155.1,444.9,155.9z"/>
	<path class="st7" d="M454.8,162.1v-2.6c0.5,0.5,1.5,0.9,2,1.2c0.5,0.2,1.2,0.2,1.7,0.2s0.9,0,1.2-0.2c0.2-0.2,0.5-0.5,0.5-0.9
		c0-0.2,0-0.5-0.2-0.9c-0.2-0.2-0.5-0.5-1.5-0.9c-1.5-0.9-2.6-1.5-2.8-2c-0.5-0.5-0.5-1.2-0.5-2c0-0.9,0.2-1.7,1.2-2.2
		c0.5-0.5,1.7-0.9,2.6-0.9c1.2,0,2.2,0.2,3.4,0.9v2.2c-1.5-0.9-2.6-1.2-3.4-1.2c-0.5,0-0.9,0-1.2,0.2c-0.2,0.2-0.2,0.5-0.2,0.9
		c0,0.2,0,0.5,0.2,0.9c0.2,0.2,0.5,0.5,1.5,0.9l0.9,0.5c2,1.2,2.8,2.2,2.8,3.7c0,0.9-0.2,1.7-1.2,2.2s-1.7,0.9-2.8,0.9
		c-0.5,0-1.5,0-1.7-0.2C456.1,162.6,455.4,162.3,454.8,162.1z"/>
</g>
<g>
	<ellipse class="st0" cx="96.3" cy="107.4" rx="52.3" ry="49.5"/>
	<path class="st3" d="M80.4,56.8l0.9,2.1c-1,1.2-2.2,2-3.7,2.6c-1.8,0.6-3.5,0.7-4.9,0.2c-1.5-0.5-2.6-1.6-3.1-2.8
		c-0.6-1.5-0.5-2.7,0.2-4.3c0.7-1.5,2-2.6,3.8-3.1c1.5-0.5,2.8-0.7,4-0.5l0.9,2.2c-1.5-0.2-2.8-0.1-3.9,0.4c-1.2,0.4-1.8,1-2.3,1.8
		C72,56.3,71.9,57,72.2,58c0.4,0.9,1,1.5,2,1.7c0.9,0.2,2,0.2,2.9-0.2c0.5-0.2,1-0.5,1.5-0.7C78.9,58,79.7,57.5,80.4,56.8z"/>
	<path class="st3" d="M84.1,52.1l0.4,2l0,0c0.4-1.6,1-2.4,1.8-2.6c0.4-0.1,1,0,1.6,0.2l-0.2,2c-0.6-0.2-1.2-0.2-1.5-0.2
		c-0.5,0.1-0.9,0.5-1.2,1.3c-0.2,0.6-0.2,1-0.2,1.2l0.6,2.9L83,59.3l-1.5-6.8L84.1,52.1z"/>
	<path class="st3" d="M96.8,55.7l0.1,1.5c-0.9,0.6-2,1-3.3,1.2c-1.5,0.1-2.3-0.2-3.3-0.9c-0.9-0.7-1.2-1.6-1.2-2.8
		c-0.1-1,0.2-2,0.9-2.6c0.7-0.7,1.6-1.2,2.7-1.3c1.2-0.1,2.1,0.2,2.9,0.9c0.9,0.6,1.2,1.6,1.2,2.8L91.6,55c0.1,0.6,0.4,1.2,0.9,1.5
		s1,0.5,1.7,0.4C94.9,56.8,95.8,56.3,96.8,55.7z M91.5,53.8l3.3-0.2c-0.2-1-0.9-1.6-1.7-1.5C92,52.3,91.5,52.7,91.5,53.8z"/>
	<path class="st3" d="M105.8,56.8l-0.1,1.3c-0.9,0.4-1.6,0.5-2.2,0.5c-0.7-0.1-1.2-0.4-1.2-0.9c-0.9,0.5-1.7,0.6-2.6,0.5
		c-0.6-0.1-1-0.2-1.5-0.6c-0.2-0.2-0.5-0.7-0.5-1.3c0.1-0.5,0.2-1,0.9-1.5c0.4-0.4,1.7-0.6,3.9-1.2c0.1-0.7-0.2-1.3-1.2-1.5
		c-1-0.1-2,0.2-2.8,0.9l0.2-1.8c1-0.5,2.1-0.6,3.4-0.5c2.1,0.2,3.1,0.9,2.9,2.4l-0.2,3.1c0,0.2,0.1,0.5,0.2,0.5
		C105.2,57.1,105.4,56.9,105.8,56.8z M102.3,56.5l0.2-1.7c-0.9,0.2-1.5,0.4-1.7,0.5c-0.2,0.2-0.5,0.4-0.5,0.7c0,0.2,0,0.4,0.2,0.5
		c0.1,0.2,0.2,0.2,0.5,0.2C101.4,56.9,101.8,56.8,102.3,56.5z"/>
	<path class="st3" d="M113.1,53l-0.4,1.5l-2.6-0.5l-0.7,2.8c-0.1,0.4-0.1,0.6,0.1,0.9c0.1,0.2,0.4,0.4,0.7,0.5
		c0.5,0.1,1,0.1,1.6-0.1l-0.4,1.6c-0.9,0.1-1.5,0.1-2.2-0.1c-0.9-0.2-1.5-0.5-2-1.2c-0.4-0.5-0.5-1.3-0.2-2.1l0.7-2.9l-1-0.2
		l0.1-0.4l3.8-2.6l0.2,0.1l-0.5,2.2L113.1,53z"/>
	<path class="st3" d="M117,54.3l-2.4,6.7l-2.2-0.9l2.4-6.7L117,54.3z M115.6,51.5c0.1-0.2,0.2-0.5,0.7-0.6c0.4-0.1,0.6-0.2,1-0.1
		c0.2,0.1,0.6,0.2,0.7,0.5c0.2,0.2,0.2,0.5,0.1,0.9c-0.1,0.2-0.2,0.5-0.6,0.6c-0.2,0.2-0.6,0.2-1,0.1c-0.2-0.1-0.6-0.2-0.7-0.6
		C115.7,51.9,115.3,51.6,115.6,51.5z"/>
	<path class="st3" d="M118.5,62.6l0.2-7.8l2.2,1l-0.2,4.1l3.3-2.8l2.2,1l-6.3,5L118.5,62.6z"/>
	<path class="st3" d="M130.2,66.8l-0.9,1.2c-1.2,0-2.2-0.2-3.4-1c-1.2-0.6-1.7-1.6-2-2.6c-0.2-0.9-0.1-2,0.6-2.7
		c0.6-0.9,1.5-1.5,2.6-1.6c1-0.2,2,0,2.9,0.6c0.9,0.5,1.5,1.5,1.7,2.4c0.2,0.9-0.1,2-0.9,2.9l-4.5-2.9c-0.2,0.5-0.4,1-0.2,1.6
		c0.1,0.5,0.5,0.9,1.2,1.5C128.2,66.5,129,66.8,130.2,66.8z M127.3,62.3l2.6,1.7c0.5-0.9,0.4-1.6-0.4-2.1
		C128.7,61.3,128,61.3,127.3,62.3z"/>
	<path class="st4" d="M151.7,77.8l-9,6l-1.5-2.1l3.7-2.4l-3.1-4.3l-3.7,2.4l-1.5-2.1l9-6l1.5,2.1l-3.8,2.3l3.1,4.3l3.7-2.4
		L151.7,77.8z"/>
	<path class="st4" d="M150.8,84.1l-6.7,3.1l-1-2l6.7-3.1L150.8,84.1z M152,81.2c0.2-0.2,0.6-0.2,1-0.1c0.2,0.1,0.6,0.2,0.7,0.5
		c0.2,0.2,0.2,0.5,0.1,0.9c-0.1,0.2-0.2,0.5-0.7,0.6c-0.2,0.2-0.6,0.2-1,0c-0.2-0.1-0.6-0.2-0.7-0.6c-0.1-0.2-0.2-0.5,0-0.9
		C151.5,81.5,151.7,81.2,152,81.2z"/>
	<path class="st4" d="M154.5,93.3l-1.5,0.5l-0.2-0.9c-0.2,0.4-0.7,0.5-1,0.6c-0.5,0.2-1.2,0.1-1.7-0.1c-0.6-0.2-1.2-0.7-1.5-1.5
		c-0.4-0.7-0.6-1.2-0.7-1.3c-0.1-0.1-0.2-0.1-0.4-0.1c-0.1,0-0.2,0.1-0.2,0.2s0.1,0.6,0.2,1.6c0.2,0.9,0.2,1.6-0.1,2.1
		c-0.2,0.5-0.7,0.7-1.2,0.9c-0.9,0.2-1.5,0.1-2.1-0.4s-1.2-1.3-1.5-2.4c-0.4-1.2-0.5-2.1-0.4-2.8c0.2-0.7,0.5-1.2,1.2-1.5
		c0.9-0.2,1.6,0.1,2.4,1.3c0-0.5,0.2-0.9,0.6-1c0.5-0.2,1,0.1,1.5,0.9c-0.1-0.5,0-1.2,0.2-1.6c0.2-0.5,0.7-0.7,1.2-0.9
		c0.7-0.2,1.5-0.2,2,0.2c0.7,0.4,1.2,0.9,1.6,2L154.5,93.3z M143.7,92.5c0.2,0.5,0.4,0.7,0.6,1c0.2,0.2,0.5,0.2,0.9,0.2
		c0.5-0.2,0.6-0.7,0.2-2c-0.2-0.5-0.4-0.9-0.6-1c-0.2-0.2-0.5-0.2-0.9-0.2C143.5,90.7,143.4,91.4,143.7,92.5z M151.7,89.8
		c-0.1-0.4-0.2-0.5-0.7-0.7c-0.2-0.1-0.6-0.1-1,0c-0.2,0.1-0.6,0.2-0.9,0.6c-0.2,0.2-0.2,0.6-0.1,0.9c0.1,0.2,0.2,0.5,0.7,0.7
		c0.2,0.2,0.7,0.2,1.2,0.1c0.2-0.1,0.6-0.2,0.7-0.5C151.8,90.5,151.9,90.2,151.7,89.8z"/>
	<path class="st4" d="M158.7,96.7l-4.6,0.6l0,0c0.9,0.5,1.5,1.2,1.6,2c0.1,0.7,0,1.5-0.4,2s-1.2,0.9-2,1l-4.6,0.6l-0.4-2.2l4.3-0.6
		c1.2-0.2,1.5-0.5,1.5-1.5c-0.1-0.5-0.5-0.9-1.3-1.5l-4.6,0.7l-0.5-2l10.7-1.5L158.7,96.7z"/>
	<path class="st4" d="M153.4,108.3h-2.1l-0.1-4h2.1L153.4,108.3z"/>
	<path class="st4" d="M155.9,112.3l-0.6-0.1c0.5,0.6,0.6,1.5,0.6,2.1c-0.1,0.9-0.6,1.6-1.5,2.2c-0.9,0.5-1.7,0.7-2.8,0.6
		c-1.2-0.1-2.1-0.5-2.7-1.3c-0.6-0.6-0.9-1.6-0.9-2.6c0.1-0.6,0.2-1.3,0.7-1.7l-4-0.5l0.2-2.2l11,1.2V112.3z M153.9,112.2l-3.5-0.4
		c-0.4,0.4-0.6,0.7-0.6,1.3c-0.1,0.5,0.1,0.9,0.5,1.5c0.4,0.4,0.9,0.5,1.6,0.6s1.3,0,1.7-0.2s0.7-0.6,0.7-1.2
		C154.4,113.3,154.2,112.8,153.9,112.2z"/>
	<path class="st4" d="M147.8,125.2l-1.5-0.4c-0.4-0.9-0.4-2.1,0-3.3c0.4-1.2,1-2,2-2.6c0.9-0.5,2-0.6,3.1-0.4c1.2,0.2,2,0.9,2.4,1.7
		s0.6,1.8,0.2,2.8c-0.2,1-0.9,1.8-2,2.3c-1,0.5-2,0.5-3.3,0.1l1.5-4.8c-0.7-0.1-1.2-0.1-1.7,0.2c-0.5,0.2-0.9,0.7-1,1.5
		C147.4,123.2,147.5,124,147.8,125.2z M151.5,121l-0.9,2.9c1.2,0.2,1.7-0.2,2-1C152.8,121.9,152.5,121.4,151.5,121z"/>
	<path class="st4" d="M150.9,130.6l-2-0.9l0,0c1.2,1.2,1.5,2.2,1.2,2.9c-0.2,0.4-0.6,0.7-1.2,1l-1.6-1.5c0.6-0.4,0.9-0.6,1.2-0.9
		c0.2-0.5,0.1-0.9-0.4-1.6c-0.5-0.5-0.7-0.9-0.9-0.9l-2.9-1.3l1-2l6.7,2.8L150.9,130.6z"/>
	<path class="st4" d="M147,137.3l-0.5,0.9l-1.5-0.7l0.5-0.9l-5-2.7l1.2-2l5,2.7l0.5-0.9l1.5,0.7l-0.5,0.9l0.2,0.2
		c0.9,0.5,1.5,1.2,1.6,2c0.2,0.7,0.1,1.6-0.4,2.4c-0.1,0.2-0.4,0.5-0.9,1l-1.6-0.9c0.2-0.4,0.5-0.6,0.6-0.7c0.4-0.6,0.2-1.3-0.5-1.7
		L147,137.3z"/>
	<path class="st4" d="M143.6,142.6c-0.7,0.9-1.6,1.5-2.6,1.6c-1,0.2-2,0-3.1-0.7c-1-0.6-1.5-1.6-1.5-2.6s0.2-2,1-2.7
		c0.9-0.9,1.6-1.5,2.7-1.6c1-0.2,2,0.1,2.9,0.7c0.9,0.6,1.5,1.6,1.5,2.6C144.6,140.6,144.2,141.7,143.6,142.6z M138.5,138.8
		c-0.7,0.9-0.4,1.7,1,2.7c1.3,0.9,2.2,0.9,2.9,0.2c0.2-0.4,0.4-0.9,0.2-1.5c-0.1-0.5-0.5-0.9-1.2-1.5
		C140.2,138,139.2,137.9,138.5,138.8z"/>
	<path class="st4" d="M137.4,148.7l-1.5-1.5l0,0c0.5,1.6,0.5,2.6-0.2,3.1c-0.2,0.2-0.9,0.5-1.6,0.5l-0.9-1.8
		c0.7-0.1,1.2-0.2,1.5-0.5c0.4-0.4,0.5-0.9,0.2-1.6c-0.2-0.6-0.2-1-0.4-1.2l-2.2-2.2l1.7-1.6l5,5.1L137.4,148.7z"/>
	<path class="st4" d="M131.2,153.7l-0.5-0.7c-0.2,0.9-0.9,1.7-1.6,2.2c-1.2,0.6-2.1,0.6-3.1,0c-0.2,1.5-0.9,2.2-1.7,2.7
		c-0.7,0.4-1.5,0.5-2.2,0.4c-0.7-0.2-1.3-0.5-1.7-1.3l-2.6-3.8l2-1.2l2.2,3.7c0.2,0.4,0.6,0.6,0.9,0.9c0.4,0.1,0.7,0.1,1.2-0.1
		c0.6-0.4,0.9-0.9,0.9-2l-2.6-3.8l2-1.2l2.3,3.7c0.2,0.4,0.6,0.6,0.9,0.7c0.4,0.1,0.7,0,1.2-0.2s0.9-0.9,1-1.7l-2.6-4l2-1.2l3.8,6
		L131.2,153.7z"/>
	<path class="st4" d="M109.7,157.4l-0.4-1.2c0.6-0.6,1.2-1,1.8-1.3c0.7-0.2,1.2-0.1,1.5,0.4c0.6-0.7,1.3-1.3,2-1.6
		c0.5-0.2,1.2-0.2,1.6,0c0.5,0.2,0.9,0.5,1,0.9c0.2,0.5,0.2,1.2-0.1,1.6c-0.2,0.5-1.3,1.5-3.1,2.6c0.2,0.7,0.9,0.9,1.6,0.7
		c0.9-0.2,1.7-0.9,2.2-2l0.6,1.7c-0.7,0.9-1.6,1.5-2.7,1.8c-2,0.6-3.3,0.2-3.7-1l-1.2-3.1c-0.1-0.2-0.2-0.4-0.5-0.4
		C110.2,156.7,110.1,157.1,109.7,157.4z M113.1,156.2l0.6,1.6c0.6-0.5,1.2-0.9,1.3-1.2c0.1-0.2,0.2-0.5,0.1-0.9
		c-0.1-0.2-0.2-0.4-0.4-0.5c-0.1-0.1-0.4-0.1-0.6,0C113.8,155.5,113.6,155.9,113.1,156.2z"/>
	<path class="st4" d="M107.5,163.3l-0.2-0.9c-0.5,0.9-1.3,1.5-2.2,1.6c-0.9,0.1-1.5,0-2-0.4c-0.6-0.4-1-0.9-1.2-1.8l-0.9-4.4
		l2.3-0.4l0.7,4.3c0.2,0.9,0.6,1.5,1.5,1.3c0.5-0.1,1-0.5,1.5-1.5l-0.9-4.5l2.3-0.4l1.2,7L107.5,163.3L107.5,163.3z"/>
	<path class="st4" d="M93.2,159v-1.6c0.9-0.2,1.7-0.5,2.6-0.5c1.3,0,2.3,0.2,3.1,0.9c0.7,0.6,1.2,1.6,1.2,2.6s-0.4,2-1.2,2.6
		c-0.9,0.6-1.8,1-3.1,1c-0.9,0-1.6-0.2-2.6-0.5v-1.6c0.6,0.2,1.3,0.5,2,0.5s1.2-0.2,1.7-0.5c0.4-0.4,0.6-0.9,0.6-1.5
		s-0.2-1.2-0.6-1.6s-0.9-0.5-1.6-0.5C94.8,158.4,94.1,158.7,93.2,159z"/>
	<path class="st4" d="M84.6,158.2l0.2-1.5c1-0.5,2.1-0.6,3.5-0.5c1.3,0.2,2.3,0.6,2.9,1.5c0.7,0.7,0.9,1.7,0.7,2.7
		c-0.2,1-0.7,2-1.5,2.6c-0.9,0.5-1.8,0.7-2.9,0.6c-1.2-0.2-2-0.6-2.6-1.5s-0.9-1.8-0.5-3.1l5.4,0.7c0.1-0.6-0.1-1.2-0.5-1.6
		c-0.4-0.4-0.9-0.6-1.6-0.7C86.5,157.4,85.5,157.7,84.6,158.2z M89.3,161l-3.3-0.5c0,1,0.4,1.6,1.3,1.7
		C88.5,162.4,89.1,162.1,89.3,161z"/>
	<path class="st5" d="M71.1,153.2l0.9-1.7l7.6,3.1l-4.3,9.6l-7.3-2.9l0.9-1.7l4.8,2l0.9-2l-4.6-2l0.9-1.7l4.6,2l1-2.3L71.1,153.2z"
		/>
	<path class="st5" d="M64.5,155.4l0.6-0.9c-1,0.2-2,0.2-2.7-0.2c-0.6-0.4-1-0.9-1.2-1.6c-0.2-0.6,0-1.5,0.5-2.1l2.6-3.7l2,1.3
		l-2.6,3.7c-0.5,0.7-0.5,1.5,0.1,1.8c0.5,0.2,1.2,0.2,2-0.1l2.6-3.8l2,1.3l-4.1,5.9L64.5,155.4z"/>
	<path class="st5" d="M56.4,142.9l1-1c1.2,0.1,2.1,0.5,3.1,1.5c0.9,0.9,1.5,1.7,1.6,2.7c0.1,0.9-0.2,2-1,2.6
		c-0.9,0.7-1.7,1.2-2.7,1.3s-2-0.2-2.8-1c-0.9-0.7-1.2-1.6-1.3-2.6c0-1,0.4-2,1.3-2.7l3.9,3.5c0.4-0.5,0.6-1,0.5-1.6
		c-0.1-0.5-0.4-1-0.9-1.6C58.4,143.4,57.5,142.9,56.4,142.9z M58.6,147.8l-2.3-2.1c-0.6,0.9-0.6,1.6,0.1,2.2
		C56.9,148.7,57.7,148.5,58.6,147.8z"/>
	<path class="st5" d="M49.7,142.9l1.7-1.3l0,0c-1.6,0.4-2.7,0.2-3.3-0.4c-0.2-0.2-0.4-0.9-0.4-1.6l2-0.7c0.1,0.6,0.2,1,0.4,1.5
		c0.2,0.4,0.9,0.5,1.6,0.4c0.7-0.1,1.2-0.2,1.3-0.2l2.6-2l1.5,1.7l-6,4.4L49.7,142.9z"/>
	<path class="st5" d="M42.7,132.5l1.3-0.7l0.5,0.9c0.2-0.4,0.5-0.6,0.9-0.9c0.5-0.2,1.2-0.4,1.7-0.2c0.6,0.2,1.2,0.5,1.7,1.2
		c0.5,0.6,0.9,0.9,0.9,1c0.1,0.1,0.2,0.1,0.4,0s0.2-0.2,0.2-0.2c0-0.2-0.2-0.6-0.6-1.6c-0.4-0.9-0.6-1.6-0.4-2.1
		c0.2-0.5,0.5-0.9,0.9-1.2c0.7-0.4,1.5-0.4,2.1-0.1c0.7,0.4,1.5,1,2,2.1c0.6,1,1,2,1,2.6c0,0.7-0.2,1.3-0.9,1.6
		c-0.9,0.5-1.6,0.2-2.6-0.7c0.1,0.5,0,0.9-0.4,1.3c-0.5,0.2-1,0.1-1.6-0.5c0.2,0.5,0.2,1,0.1,1.6c-0.2,0.5-0.5,0.9-1,1.3
		c-0.6,0.4-1.3,0.4-2,0.2c-0.9-0.2-1.5-0.7-2-1.6L42.7,132.5z M46,135.4c0.2,0.2,0.5,0.5,0.9,0.5c0.4,0.1,0.7,0,1-0.1
		c0.2-0.2,0.5-0.5,0.6-0.7c0.1-0.4,0.1-0.6-0.1-0.9s-0.5-0.5-0.9-0.5c-0.4-0.1-0.7,0-1.2,0.2c-0.2,0.2-0.5,0.4-0.6,0.7
		C45.5,134.9,45.9,135,46,135.4z M53.1,131.1c-0.2-0.4-0.5-0.6-0.9-0.9c-0.2-0.2-0.6-0.2-0.9-0.1c-0.5,0.2-0.4,0.9,0.2,2
		c0.2,0.5,0.6,0.7,0.9,0.9c0.2,0.2,0.6,0.2,0.9,0.1C53.7,132.8,53.7,132.2,53.1,131.1z"/>
	<path class="st5" d="M39,124.1l12.2,0.7l0.9,2.2l-5.4-0.2l-4.8,4.8l-1-2.2l3.1-2.6l-4.1-0.2L39,124.1z"/>
	<path class="st5" d="M40.5,118.5l2.1-0.5l1,3.8l-2.1,0.5L40.5,118.5z"/>
	<path class="st5" d="M41.6,109.7l1.5-0.2c0.7,0.7,1.2,1.8,1.3,3.1c0.1,1.3-0.1,2.3-0.7,3.1c-0.6,0.7-1.5,1.3-2.6,1.5
		c-1.2,0.1-2.1-0.1-2.9-0.7c-0.9-0.5-1.3-1.5-1.5-2.6c-0.1-1,0.1-2,0.9-2.7s1.7-1.3,2.9-1.5l0.6,5.1c0.7-0.1,1.2-0.4,1.5-0.9
		c0.2-0.5,0.4-1,0.2-1.7C43,111.3,42.5,110.6,41.6,109.7z M40,114.9l-0.4-3.1c-1.2,0.2-1.5,0.7-1.5,1.7
		C38.3,114.4,38.9,114.9,40,114.9z"/>
	<path class="st5" d="M36.6,105.6v-1h1.6v1l6,0.1v2.2l-6-0.1v1h-1.6v-1h-0.4c-1,0-1.8-0.2-2.4-0.9c-0.6-0.5-0.9-1.5-0.9-2.3
		c0-0.2,0.1-0.6,0.2-1.5h2c-0.1,0.5-0.1,0.7-0.1,0.9c0,0.9,0.4,1.3,1.3,1.3L36.6,105.6z"/>
	<path class="st5" d="M37,100.6l0.1-0.9l1.6,0.2l-0.1,0.9l6,0.5l-0.4,2.2l-6-0.5l-0.1,0.9l-1.5-0.2l0.1-0.9h-0.4
		c-1-0.1-1.8-0.5-2.3-1s-0.7-1.5-0.6-2.3c0-0.2,0.1-0.6,0.2-1.5l2,0.2c-0.1,0.5-0.2,0.7-0.2,0.9c-0.1,0.7,0.2,1.3,1.2,1.5L37,100.6
		L37,100.6z"/>
	<path class="st5" d="M35,97.8c-0.2-0.1-0.6-0.2-0.9-0.5c-0.2-0.2-0.2-0.5-0.2-0.9c0.1-0.2,0.2-0.5,0.5-0.7s0.6-0.2,1-0.2
		c0.4,0.1,0.7,0.2,1,0.6c0.2,0.2,0.2,0.5,0.2,0.9c-0.1,0.2-0.2,0.5-0.5,0.7C35.9,97.8,35.4,97.9,35,97.8z M37.9,95.9l7.2,1.5
		l-0.4,2.2l-7.2-1.5L37.9,95.9z"/>
	<path class="st5" d="M45.5,89.2l1.6,0.5c0,0.9,0,1.7-0.2,2.4c-0.4,1.2-1,2-2,2.6c-0.9,0.5-2,0.5-3.1,0.2c-1.2-0.2-1.8-0.9-2.3-1.8
		s-0.5-2-0.2-3.1c0.2-0.6,0.6-1.5,1.2-2.1l1.6,0.5c-0.5,0.5-0.9,1-1,1.6c-0.2,0.6-0.2,1.2,0.1,1.7c0.2,0.5,0.7,0.9,1.3,1
		c0.6,0.2,1.2,0.2,1.7-0.1c0.5-0.2,0.9-0.6,1-1.5C45.5,90.7,45.5,90.2,45.5,89.2z"/>
	<path class="st5" d="M38.9,85.1c-0.2-0.1-0.6-0.4-0.7-0.6c-0.1-0.2-0.1-0.6,0-0.9c0.1-0.2,0.4-0.5,0.7-0.6s0.7-0.1,1,0
		s0.5,0.4,0.7,0.6c0.1,0.2,0.1,0.6,0,0.9s-0.4,0.5-0.7,0.6C39.5,85.2,39.2,85.2,38.9,85.1z M42.2,83.9l6.8,2.8l-0.9,2l-6.7-2.8
		L42.2,83.9z"/>
	<path class="st5" d="M51.2,78l1.3,0.6c0.1,1-0.2,2.1-0.9,3.1c-0.7,1.2-1.5,1.8-2.6,2.1s-2,0.2-3.1-0.4c-1-0.5-1.6-1.5-1.8-2.3
		c-0.2-0.9-0.1-2,0.5-2.8c0.6-0.9,1.5-1.6,2.4-1.7c1-0.2,2.1,0,3.3,0.6l-2.9,4.5c0.6,0.2,1.2,0.4,1.7,0.2c0.5-0.2,1-0.5,1.3-1.2
		C51.2,80.1,51.2,79.2,51.2,78z M46.7,81.2l1.6-2.6c-1-0.4-1.7-0.2-2.2,0.5C45.5,80,45.9,80.4,46.7,81.2z"/>
	<path class="st5" d="M49.7,72l0.9,0.6c-0.2-0.9,0-1.8,0.6-2.6c0.5-0.5,1.2-0.9,1.8-0.9c0.7-0.1,1.5,0.2,2.1,0.7l3.7,2.8l-1.3,1.7
		L54,71.6c-0.9-0.5-1.5-0.6-2-0.1c-0.4,0.4-0.4,1-0.1,2l3.7,2.9L54.1,78l-5.7-4.5L49.7,72z"/>
	<path class="st5" d="M59.1,63.2l1,1.2l-2,1.7l2,2.2c0.2,0.2,0.5,0.4,0.9,0.4c0.2,0,0.6-0.1,0.9-0.2c0.4-0.2,0.7-0.7,0.9-1.5
		l1.2,1.3c-0.4,0.6-0.9,1.3-1.3,1.7c-0.7,0.5-1.5,0.9-2,0.9c-0.7,0-1.3-0.4-2-0.9l-2.2-2.4l-0.9,0.6L55,68v-4.4l0.2-0.2l1.5,1.6
		L59.1,63.2z"/>
</g>
<ellipse class="st8" cx="97" cy="107.2" rx="42.8" ry="40.6"/>
<polygon class="st8" points="95.8,67.8 60.3,126.2 131.4,126.2 "/>
<circle class="st8" cx="95.8" cy="106.3" r="62.1"/>
</svg>
